# Blender v2.64 (sub 0) OBJ File: ''
# www.blender.org
mtllib untitled_000001.mtl
o Cube
v -8.729040 -2.858973 10.487860
v -8.729040 -2.858973 -7.293924
v 9.052744 -2.858973 -7.293924
v 9.052744 -2.858973 10.487860
v -8.729040 14.922812 10.487860
v -8.729040 14.922812 -7.293924
v 9.052744 14.922812 -7.293924
v 9.052744 14.922812 10.487860
vn -1.000000 -0.000000 0.000000
vn 0.000000 0.000000 -1.000000
vn 1.000000 -0.000000 0.000000
vn 0.000000 0.000000 1.000000
vn -0.000000 -1.000000 0.000000
vn -0.000000 1.000000 0.000000
usemtl Material.003
s off
f 2//1 1//1 5//1
f 2//1 5//1 6//1
usemtl Material.005
f 6//2 7//2 3//2
f 6//2 3//2 2//2
usemtl Material.004
f 7//3 8//3 4//3
f 7//3 4//3 3//3
usemtl Material.002
f 1//4 4//4 8//4
f 1//4 8//4 5//4
usemtl Material.001
f 1//5 2//5 3//5
f 1//5 3//5 4//5
f 8//6 7//6 6//6
f 8//6 6//6 5//6
o Diamond
v 2.581708 2.351948 2.020849
v 2.585603 0.649032 2.023188
v 3.470181 2.353976 2.017497
v 4.063682 1.837049 2.015974
v 3.453762 2.354177 2.190894
v 4.036317 1.837383 2.304970
v 3.403831 2.354292 2.357757
v 3.953099 1.837575 2.583073
v 3.322307 2.354317 2.511672
v 3.817225 1.837617 2.839599
v 3.212321 2.354251 2.646725
v 3.633915 1.837507 3.064688
v 3.078101 2.354096 2.757726
v 3.410216 1.837249 3.249690
v 2.924806 2.353859 2.840409
v 3.154724 1.836854 3.387495
v 2.758325 2.353549 2.891598
v 2.877256 1.836336 3.472808
v 2.585057 2.353177 2.909323
v 2.588475 1.835716 3.502351
v 2.411660 2.352757 2.892905
v 2.299481 1.835018 3.474988
v 2.244798 2.352307 2.842975
v 2.021377 1.834267 3.391771
v 2.090884 2.351843 2.761451
v 1.764853 1.833494 3.255897
v 1.955831 2.351383 2.651465
v 1.539765 1.832727 3.072588
v 1.844831 2.350945 2.517246
v 1.354764 1.831997 2.848889
v 1.762148 2.350545 2.363950
v 1.216960 1.831330 2.593396
v 1.710960 2.350199 2.197469
v 1.131647 1.830754 2.315928
v 1.693235 2.349921 2.024201
v 1.102105 1.830290 2.027148
v 1.709653 2.349720 1.850804
v 1.129469 1.829955 1.738152
v 1.759584 2.349605 1.683942
v 1.212687 1.829764 1.460049
v 1.841109 2.349580 1.530026
v 1.348562 1.829722 1.203523
v 1.951094 2.349646 1.394973
v 1.531871 1.829832 0.978435
v 2.085314 2.349801 1.283972
v 1.755570 1.830090 0.793433
v 2.238610 2.350038 1.201288
v 2.011063 1.830485 0.655627
v 2.405090 2.350348 1.150100
v 2.288531 1.831003 0.570313
v 2.578359 2.350720 1.132375
v 2.577312 1.831623 0.540770
v 2.751755 2.351140 1.148793
v 2.866306 1.832321 0.568133
v 2.918618 2.351590 1.198723
v 3.144410 1.833072 0.651351
v 3.072532 2.352054 1.280247
v 3.400934 1.833845 0.787225
v 3.207584 2.352514 1.390232
v 3.626021 1.834612 0.970533
v 3.318585 2.352952 1.524452
v 3.811023 1.835342 1.194233
v 3.401268 2.353352 1.677747
v 3.948827 1.836008 1.449725
v 3.452456 2.353698 1.844229
v 4.034140 1.836585 1.727194
vn 0.625061 -0.778054 -0.062693
vn 0.625524 -0.777884 0.060129
vn 0.602017 -0.777772 0.180680
vn 0.555443 -0.777723 0.294329
vn 0.487593 -0.777737 0.396709
vn 0.401073 -0.777816 0.483884
vn 0.299208 -0.777954 0.552505
vn 0.185914 -0.778148 0.599934
vn 0.065544 -0.778390 0.624350
vn -0.057277 -0.778670 0.624813
vn -0.177828 -0.778979 0.601306
vn -0.291477 -0.779302 0.554733
vn -0.393856 -0.779630 0.486883
vn -0.481031 -0.779948 0.400363
vn -0.549651 -0.780245 0.298498
vn -0.597080 -0.780509 0.185204
vn -0.621496 -0.780730 0.064833
vn -0.621959 -0.780900 -0.057988
vn -0.598452 -0.781012 -0.178539
vn -0.551878 -0.781062 -0.292188
vn -0.484027 -0.781047 -0.394567
vn -0.397507 -0.780969 -0.481742
vn -0.295643 -0.780830 -0.550363
vn -0.182348 -0.780636 -0.597793
vn -0.061978 -0.780394 -0.622209
vn 0.060842 -0.780114 -0.622672
vn 0.181395 -0.779806 -0.599165
vn 0.295043 -0.779482 -0.552592
vn 0.397421 -0.779154 -0.484742
vn 0.484596 -0.778836 -0.398222
vn 0.553217 -0.778539 -0.296357
vn 0.600646 -0.778275 -0.183063
vn 0.655156 0.752407 -0.068232
vn 0.655644 0.752585 0.061211
vn 0.630870 0.752703 0.188259
vn 0.581785 0.752755 0.308034
vn 0.510278 0.752740 0.415931
vn 0.419094 0.752658 0.507806
vn 0.311739 0.752511 0.580125
vn 0.192338 0.752307 0.630111
vn 0.065480 0.752052 0.655843
vn -0.063961 0.751757 0.656331
vn -0.191010 0.751432 0.631557
vn -0.310785 0.751091 0.582474
vn -0.418682 0.750746 0.510966
vn -0.510555 0.750410 0.419783
vn -0.582875 0.750097 0.312428
vn -0.632860 0.749819 0.193027
vn -0.658592 0.749586 0.066169
vn -0.659079 0.749407 -0.063273
vn -0.634305 0.749289 -0.190322
vn -0.585221 0.749237 -0.310097
vn -0.513713 0.749252 -0.417995
vn -0.422530 0.749335 -0.509868
vn -0.315176 0.749481 -0.582188
vn -0.195774 0.749685 -0.632174
vn -0.068916 0.749940 -0.657906
vn 0.060526 0.750236 -0.658395
vn 0.187575 0.750560 -0.633621
vn 0.307349 0.750902 -0.584537
vn 0.415246 0.751247 -0.513029
vn 0.507119 0.751582 -0.421847
vn 0.579439 0.751895 -0.314491
vn 0.629425 0.752173 -0.195090
vn -0.002287 0.999996 -0.001375
vn -0.002287 0.999996 -0.001373
vn -0.002288 0.999996 -0.001373
vn -0.002287 0.999996 -0.001374
vn -0.002289 0.999996 -0.001374
vn -0.002288 0.999996 -0.001374
usemtl Material
s off
f 12//7 10//7 74//7
f 10//8 12//8 14//8
f 10//9 14//9 16//9
f 10//10 16//10 18//10
f 10//11 18//11 20//11
f 10//12 20//12 22//12
f 10//13 22//13 24//13
f 10//14 24//14 26//14
f 10//15 26//15 28//15
f 10//16 28//16 30//16
f 10//17 30//17 32//17
f 10//18 32//18 34//18
f 10//19 34//19 36//19
f 10//20 36//20 38//20
f 10//21 38//21 40//21
f 10//22 40//22 42//22
f 10//23 42//23 44//23
f 10//24 44//24 46//24
f 10//25 46//25 48//25
f 10//26 48//26 50//26
f 10//27 50//27 52//27
f 10//28 52//28 54//28
f 10//29 54//29 56//29
f 10//30 56//30 58//30
f 10//31 58//31 60//31
f 10//32 60//32 62//32
f 10//33 62//33 64//33
f 10//34 64//34 66//34
f 10//35 66//35 68//35
f 10//36 68//36 70//36
f 10//37 70//37 72//37
f 10//38 72//38 74//38
f 11//39 12//39 74//39
f 11//39 74//39 73//39
f 12//40 11//40 13//40
f 12//40 13//40 14//40
f 14//41 13//41 15//41
f 14//41 15//41 16//41
f 16//42 15//42 17//42
f 16//42 17//42 18//42
f 18//43 17//43 19//43
f 18//43 19//43 20//43
f 20//44 19//44 21//44
f 20//44 21//44 22//44
f 22//45 21//45 23//45
f 22//45 23//45 24//45
f 24//46 23//46 25//46
f 24//46 25//46 26//46
f 26//47 25//47 27//47
f 26//47 27//47 28//47
f 28//48 27//48 29//48
f 28//48 29//48 30//48
f 30//49 29//49 31//49
f 30//49 31//49 32//49
f 32//50 31//50 33//50
f 32//50 33//50 34//50
f 34//51 33//51 35//51
f 34//51 35//51 36//51
f 36//52 35//52 37//52
f 36//52 37//52 38//52
f 38//53 37//53 39//53
f 38//53 39//53 40//53
f 40//54 39//54 41//54
f 40//54 41//54 42//54
f 42//55 41//55 43//55
f 42//55 43//55 44//55
f 44//56 43//56 45//56
f 44//56 45//56 46//56
f 46//57 45//57 47//57
f 46//57 47//57 48//57
f 48//58 47//58 49//58
f 48//58 49//58 50//58
f 50//59 49//59 51//59
f 50//59 51//59 52//59
f 52//60 51//60 53//60
f 52//60 53//60 54//60
f 54//61 53//61 55//61
f 54//61 55//61 56//61
f 56//62 55//62 57//62
f 56//62 57//62 58//62
f 58//63 57//63 59//63
f 58//63 59//63 60//63
f 60//64 59//64 61//64
f 60//64 61//64 62//64
f 62//65 61//65 63//65
f 62//65 63//65 64//65
f 64//66 63//66 65//66
f 64//66 65//66 66//66
f 66//67 65//67 67//67
f 66//67 67//67 68//67
f 68//68 67//68 69//68
f 68//68 69//68 70//68
f 70//69 69//69 71//69
f 70//69 71//69 72//69
f 72//70 71//70 73//70
f 72//70 73//70 74//70
f 9//71 11//71 73//71
f 11//72 9//72 13//72
f 13//71 9//71 15//71
f 15//73 9//73 17//73
f 17//74 9//74 19//74
f 19//74 9//74 21//74
f 21//73 9//73 23//73
f 23//74 9//74 25//74
f 25//74 9//74 27//74
f 27//75 9//75 29//75
f 29//72 9//72 31//72
f 31//76 9//76 33//76
f 33//72 9//72 35//72
f 35//72 9//72 37//72
f 37//76 9//76 39//76
f 39//72 9//72 41//72
f 41//72 9//72 43//72
f 43//74 9//74 45//74
f 45//73 9//73 47//73
f 47//74 9//74 49//74
f 49//74 9//74 51//74
f 51//74 9//74 53//74
f 53//73 9//73 55//73
f 55//73 9//73 57//73
f 57//74 9//74 59//74
f 59//74 9//74 61//74
f 61//74 9//74 63//74
f 63//76 9//76 65//76
f 65//72 9//72 67//72
f 67//76 9//76 69//76
f 69//72 9//72 71//72
f 71//72 9//72 73//72
