# Blender v2.64 (sub 0) OBJ File: ''
# www.blender.org
mtllib untitled_000091.mtl
o Cube
v -8.729040 -2.858973 10.487860
v -8.729040 -2.858973 -7.293924
v 9.052744 -2.858973 -7.293924
v 9.052744 -2.858973 10.487860
v -8.729040 14.922812 10.487860
v -8.729040 14.922812 -7.293924
v 9.052744 14.922812 -7.293924
v 9.052744 14.922812 10.487860
vn -1.000000 -0.000000 0.000000
vn 0.000000 0.000000 -1.000000
vn 1.000000 -0.000000 0.000000
vn 0.000000 0.000000 1.000000
vn -0.000000 -1.000000 0.000000
vn -0.000000 1.000000 0.000000
usemtl Material.003
s off
f 2//1 1//1 5//1
f 2//1 5//1 6//1
usemtl Material.005
f 6//2 7//2 3//2
f 6//2 3//2 2//2
usemtl Material.004
f 7//3 8//3 4//3
f 7//3 4//3 3//3
usemtl Material.002
f 1//4 4//4 8//4
f 1//4 8//4 5//4
usemtl Material.001
f 1//5 2//5 3//5
f 1//5 3//5 4//5
f 8//6 7//6 6//6
f 8//6 6//6 5//6
o Diamond
v 1.639189 6.324404 4.158959
v 1.951910 4.721862 3.675213
v 0.957139 6.362795 3.590863
v 0.597615 5.900659 3.064905
v 1.076669 6.420208 3.477937
v 0.796832 5.996348 2.876694
v 1.217816 6.473940 3.391181
v 1.032077 6.085901 2.732102
v 1.375157 6.521925 3.333931
v 1.294311 6.165876 2.636685
v 1.542644 6.562320 3.308386
v 1.573457 6.233201 2.594110
v 1.713841 6.593572 3.315529
v 1.858786 6.285286 2.606014
v 1.882169 6.614479 3.355084
v 2.139332 6.320132 2.671939
v 2.041160 6.624239 3.425531
v 2.404317 6.336399 2.789351
v 2.184704 6.622477 3.524164
v 2.643556 6.333462 2.953739
v 2.307283 6.609260 3.647191
v 2.847855 6.311433 3.158785
v 2.404188 6.585095 3.789886
v 3.009363 6.271160 3.396609
v 2.471694 6.550913 3.946763
v 3.121874 6.214190 3.658072
v 2.507208 6.508026 4.111796
v 3.181064 6.142711 3.933126
v 2.509365 6.458083 4.278640
v 3.184657 6.059473 4.211200
v 2.478080 6.403003 4.440886
v 3.132517 5.967671 4.481610
v 2.414558 6.344902 4.592298
v 3.026647 5.870836 4.733962
v 2.321239 6.286013 4.727056
v 2.871115 5.772688 4.958559
v 2.201709 6.228599 4.839982
v 2.671898 5.676999 5.146770
v 2.060562 6.174868 4.926737
v 2.436653 5.587447 5.291362
v 1.903221 6.126883 4.983988
v 2.174418 5.507471 5.386779
v 1.735734 6.086488 5.009532
v 1.895273 5.440147 5.429354
v 1.564537 6.055236 5.002390
v 1.609945 5.388062 5.417450
v 1.396208 6.034329 4.962835
v 1.329397 5.353215 5.351525
v 1.237218 6.024569 4.892388
v 1.064413 5.336948 5.234113
v 1.093674 6.026331 4.793755
v 0.825173 5.339886 5.069725
v 0.971095 6.039548 4.670728
v 0.620875 5.361914 4.864679
v 0.874190 6.063712 4.528033
v 0.459366 5.402188 4.626854
v 0.806683 6.097894 4.371156
v 0.346855 5.459158 4.365392
v 0.771170 6.140781 4.206123
v 0.287666 5.530636 4.090339
v 0.769013 6.190725 4.039278
v 0.284072 5.613875 3.812263
v 0.800297 6.245805 3.877033
v 0.336212 5.705676 3.541855
v 0.863820 6.303906 3.725621
v 0.442083 5.802511 3.289502
vn -0.373226 -0.727113 -0.576202
vn -0.297815 -0.685908 -0.663955
vn -0.205460 -0.646530 -0.734701
vn -0.099708 -0.610493 -0.785721
vn 0.015377 -0.579180 -0.815054
vn 0.135370 -0.553797 -0.821574
vn 0.255662 -0.535317 -0.805030
vn 0.371627 -0.524452 -0.766057
vn 0.478813 -0.521618 -0.706153
vn 0.573100 -0.526926 -0.627620
vn 0.650860 -0.540169 -0.533478
vn 0.709110 -0.560841 -0.427341
vn 0.745609 -0.588146 -0.313291
vn 0.758956 -0.621035 -0.195709
vn 0.748636 -0.658244 -0.079115
vn 0.715047 -0.698344 0.032011
vn 0.659479 -0.739792 0.133399
vn 0.584068 -0.780997 0.221152
vn 0.491711 -0.820375 0.291898
vn 0.385960 -0.856412 0.342918
vn 0.270875 -0.887725 0.372251
vn 0.150883 -0.913108 0.378771
vn 0.030592 -0.931588 0.362227
vn -0.085375 -0.942453 0.323254
vn -0.192561 -0.945287 0.263350
vn -0.286846 -0.939980 0.184818
vn -0.364608 -0.926736 0.090673
vn -0.422857 -0.906064 -0.015462
vn -0.459357 -0.878759 -0.129512
vn -0.472703 -0.845870 -0.247094
vn -0.462383 -0.808661 -0.363688
vn -0.428794 -0.768561 -0.474815
vn -0.682096 0.713412 -0.160590
vn -0.602621 0.756838 -0.253072
vn -0.505287 0.798338 -0.327631
vn -0.393834 0.836318 -0.381401
vn -0.272547 0.869318 -0.412316
vn -0.146087 0.896070 -0.419187
vn -0.019311 0.915545 -0.401751
vn 0.102907 0.926996 -0.360677
vn 0.215869 0.929983 -0.297544
vn 0.315236 0.924389 -0.214779
vn 0.397190 0.910432 -0.115561
vn 0.458579 0.888646 -0.003705
vn 0.497046 0.859869 0.116494
vn 0.511111 0.825208 0.240412
vn 0.500235 0.785993 0.363291
vn 0.464836 0.743732 0.480407
vn 0.406273 0.700049 0.587260
vn 0.326796 0.656623 0.679743
vn 0.229464 0.615123 0.754301
vn 0.118011 0.577143 0.808071
vn -0.003276 0.544143 0.838986
vn -0.129738 0.517391 0.845857
vn -0.256512 0.497915 0.828421
vn -0.378730 0.486464 0.787347
vn -0.491692 0.483478 0.724215
vn -0.591060 0.489071 0.641450
vn -0.673014 0.503029 0.542231
vn -0.734402 0.524815 0.430375
vn -0.772869 0.553591 0.310178
vn -0.786935 0.588253 0.186258
vn -0.776059 0.627468 0.063379
vn -0.740659 0.669729 -0.053737
vn -0.183637 0.941054 0.284068
vn -0.183638 0.941054 0.284069
vn -0.183637 0.941054 0.284069
vn -0.183640 0.941053 0.284069
vn -0.183636 0.941054 0.284069
vn -0.183638 0.941054 0.284068
vn -0.183637 0.941054 0.284070
vn -0.183637 0.941053 0.284070
vn -0.183638 0.941054 0.284067
vn -0.183639 0.941053 0.284070
vn -0.183639 0.941054 0.284068
vn -0.183636 0.941054 0.284070
vn -0.183639 0.941054 0.284067
usemtl Material
s off
f 12//7 10//7 74//7
f 10//8 12//8 14//8
f 10//9 14//9 16//9
f 10//10 16//10 18//10
f 10//11 18//11 20//11
f 10//12 20//12 22//12
f 10//13 22//13 24//13
f 10//14 24//14 26//14
f 10//15 26//15 28//15
f 10//16 28//16 30//16
f 10//17 30//17 32//17
f 10//18 32//18 34//18
f 10//19 34//19 36//19
f 10//20 36//20 38//20
f 10//21 38//21 40//21
f 10//22 40//22 42//22
f 10//23 42//23 44//23
f 10//24 44//24 46//24
f 10//25 46//25 48//25
f 10//26 48//26 50//26
f 10//27 50//27 52//27
f 10//28 52//28 54//28
f 10//29 54//29 56//29
f 10//30 56//30 58//30
f 10//31 58//31 60//31
f 10//32 60//32 62//32
f 10//33 62//33 64//33
f 10//34 64//34 66//34
f 10//35 66//35 68//35
f 10//36 68//36 70//36
f 10//37 70//37 72//37
f 10//38 72//38 74//38
f 11//39 12//39 74//39
f 11//39 74//39 73//39
f 12//40 11//40 13//40
f 12//40 13//40 14//40
f 14//41 13//41 15//41
f 14//41 15//41 16//41
f 16//42 15//42 17//42
f 16//42 17//42 18//42
f 18//43 17//43 19//43
f 18//43 19//43 20//43
f 20//44 19//44 21//44
f 20//44 21//44 22//44
f 22//45 21//45 23//45
f 22//45 23//45 24//45
f 24//46 23//46 25//46
f 24//46 25//46 26//46
f 26//47 25//47 27//47
f 26//47 27//47 28//47
f 28//48 27//48 29//48
f 28//48 29//48 30//48
f 30//49 29//49 31//49
f 30//49 31//49 32//49
f 32//50 31//50 33//50
f 32//50 33//50 34//50
f 34//51 33//51 35//51
f 34//51 35//51 36//51
f 36//52 35//52 37//52
f 36//52 37//52 38//52
f 38//53 37//53 39//53
f 38//53 39//53 40//53
f 40//54 39//54 41//54
f 40//54 41//54 42//54
f 42//55 41//55 43//55
f 42//55 43//55 44//55
f 44//56 43//56 45//56
f 44//56 45//56 46//56
f 46//57 45//57 47//57
f 46//57 47//57 48//57
f 48//58 47//58 49//58
f 48//58 49//58 50//58
f 50//59 49//59 51//59
f 50//59 51//59 52//59
f 52//60 51//60 53//60
f 52//60 53//60 54//60
f 54//61 53//61 55//61
f 54//61 55//61 56//61
f 56//62 55//62 57//62
f 56//62 57//62 58//62
f 58//63 57//63 59//63
f 58//63 59//63 60//63
f 60//64 59//64 61//64
f 60//64 61//64 62//64
f 62//65 61//65 63//65
f 62//65 63//65 64//65
f 64//66 63//66 65//66
f 64//66 65//66 66//66
f 66//67 65//67 67//67
f 66//67 67//67 68//67
f 68//68 67//68 69//68
f 68//68 69//68 70//68
f 70//69 69//69 71//69
f 70//69 71//69 72//69
f 72//70 71//70 73//70
f 72//70 73//70 74//70
f 9//71 11//71 73//71
f 11//72 9//72 13//72
f 13//72 9//72 15//72
f 15//73 9//73 17//73
f 17//71 9//71 19//71
f 19//74 9//74 21//74
f 21//73 9//73 23//73
f 23//75 9//75 25//75
f 25//76 9//76 27//76
f 27//76 9//76 29//76
f 29//77 9//77 31//77
f 31//76 9//76 33//76
f 33//78 9//78 35//78
f 35//79 9//79 37//79
f 37//79 9//79 39//79
f 39//76 9//76 41//76
f 41//80 9//80 43//80
f 43//72 9//72 45//72
f 45//71 9//71 47//71
f 47//71 9//71 49//71
f 49//74 9//74 51//74
f 51//72 9//72 53//72
f 53//75 9//75 55//75
f 55//81 9//81 57//81
f 57//73 9//73 59//73
f 59//82 9//82 61//82
f 61//83 9//83 63//83
f 63//72 9//72 65//72
f 65//78 9//78 67//78
f 67//71 9//71 69//71
f 69//73 9//73 71//73
f 71//71 9//71 73//71
