# Blender v2.64 (sub 0) OBJ File: ''
# www.blender.org
mtllib untitled_000054.mtl
o Cube
v -8.729040 -2.858973 10.487860
v -8.729040 -2.858973 -7.293924
v 9.052744 -2.858973 -7.293924
v 9.052744 -2.858973 10.487860
v -8.729040 14.922812 10.487860
v -8.729040 14.922812 -7.293924
v 9.052744 14.922812 -7.293924
v 9.052744 14.922812 10.487860
vn -1.000000 -0.000000 0.000000
vn 0.000000 0.000000 -1.000000
vn 1.000000 -0.000000 0.000000
vn 0.000000 0.000000 1.000000
vn -0.000000 -1.000000 0.000000
vn -0.000000 1.000000 0.000000
usemtl Material.003
s off
f 2//1 1//1 5//1
f 2//1 5//1 6//1
usemtl Material.005
f 6//2 7//2 3//2
f 6//2 3//2 2//2
usemtl Material.004
f 7//3 8//3 4//3
f 7//3 4//3 3//3
usemtl Material.002
f 1//4 4//4 8//4
f 1//4 8//4 5//4
usemtl Material.001
f 1//5 2//5 3//5
f 1//5 3//5 4//5
f 8//6 7//6 6//6
f 8//6 6//6 5//6
o Diamond
v -1.947567 2.242723 -1.394512
v -2.942023 0.898691 -1.717902
v -1.411985 2.007337 -2.063201
v -1.357591 1.441360 -2.607417
v -1.328035 1.915836 -1.941070
v -1.217674 1.288858 -2.403864
v -1.267893 1.836897 -1.797934
v -1.117439 1.157293 -2.165305
v -1.233871 1.773553 -1.639296
v -1.060735 1.051721 -1.900907
v -1.227276 1.728240 -1.471250
v -1.049743 0.976198 -1.620831
v -1.248361 1.702697 -1.300255
v -1.084885 0.933628 -1.335840
v -1.296317 1.697908 -1.132883
v -1.164811 0.925645 -1.056886
v -1.369299 1.714056 -0.975565
v -1.286448 0.952558 -0.794689
v -1.464504 1.750520 -0.834346
v -1.445123 1.013331 -0.559325
v -1.578273 1.805898 -0.714655
v -1.634738 1.105629 -0.359840
v -1.706233 1.878064 -0.621090
v -1.848005 1.225906 -0.203898
v -1.843468 1.964244 -0.557248
v -2.076729 1.369538 -0.097494
v -1.984704 2.061125 -0.525581
v -2.312122 1.531007 -0.044716
v -2.124511 2.164985 -0.527306
v -2.545135 1.704107 -0.047592
v -2.257520 2.271832 -0.562358
v -2.766816 1.882186 -0.106011
v -2.378617 2.377561 -0.629389
v -2.968644 2.058400 -0.217730
v -2.483148 2.478108 -0.725823
v -3.142864 2.225978 -0.378453
v -2.567098 2.569609 -0.847955
v -3.282780 2.378480 -0.582006
v -2.627240 2.648548 -0.991090
v -3.383016 2.510046 -0.820565
v -2.661262 2.711892 -1.149729
v -3.439719 2.615618 -1.084964
v -2.667857 2.757205 -1.317775
v -3.450711 2.691141 -1.365040
v -2.646772 2.782748 -1.488769
v -3.415569 2.733711 -1.650030
v -2.598816 2.787537 -1.656142
v -3.335644 2.741693 -1.928985
v -2.525834 2.771390 -1.813460
v -3.214006 2.714781 -2.191181
v -2.430629 2.734926 -1.954679
v -3.055331 2.654008 -2.426546
v -2.316861 2.679547 -2.074370
v -2.865717 2.561710 -2.626031
v -2.188900 2.607381 -2.167935
v -2.652449 2.441433 -2.781972
v -2.051665 2.521201 -2.231777
v -2.423725 2.297801 -2.888377
v -1.910430 2.424320 -2.263444
v -2.188333 2.136332 -2.941155
v -1.770622 2.320460 -2.261719
v -1.955319 1.963232 -2.938279
v -1.637614 2.213613 -2.226667
v -1.733639 1.785153 -2.879860
v -1.516517 2.107884 -2.159636
v -1.531811 1.608938 -2.768141
vn -0.112673 -0.746305 -0.655998
vn -0.045896 -0.814346 -0.578562
vn 0.005155 -0.874732 -0.484580
vn 0.038516 -0.925142 -0.377663
vn 0.052907 -0.963638 -0.261921
vn 0.047773 -0.988742 -0.141802
vn 0.023312 -0.999488 -0.021921
vn -0.019535 -0.995464 0.093114
vn -0.079122 -0.976824 0.198883
vn -0.153160 -0.944285 0.291321
vn -0.238803 -0.899097 0.366877
vn -0.332760 -0.842996 0.422645
vn -0.431420 -0.778139 0.456483
vn -0.530991 -0.707018 0.467091
vn -0.627647 -0.632366 0.454061
vn -0.717676 -0.557051 0.417894
vn -0.797613 -0.483970 0.359980
vn -0.864392 -0.415928 0.282543
vn -0.915442 -0.355543 0.188562
vn -0.948803 -0.305133 0.081645
vn -0.963194 -0.266637 -0.034097
vn -0.958060 -0.241533 -0.154216
vn -0.933600 -0.230787 -0.274097
vn -0.890752 -0.234811 -0.389133
vn -0.831165 -0.253451 -0.494902
vn -0.757127 -0.285990 -0.587340
vn -0.671484 -0.331178 -0.662895
vn -0.577528 -0.387279 -0.718663
vn -0.478868 -0.452136 -0.752502
vn -0.379296 -0.523257 -0.763110
vn -0.282639 -0.597909 -0.750080
vn -0.192612 -0.673223 -0.713913
vn 0.799491 0.454488 -0.392753
vn 0.869868 0.382780 -0.311143
vn 0.923670 0.319139 -0.212095
vn 0.958829 0.266012 -0.099416
vn 0.973996 0.225441 0.022565
vn 0.968585 0.198984 0.149158
vn 0.942806 0.187659 0.275501
vn 0.897649 0.191900 0.396737
vn 0.834850 0.211544 0.508207
vn 0.756822 0.245837 0.605628
vn 0.666563 0.293461 0.685255
vn 0.567541 0.352586 0.744030
vn 0.463564 0.420938 0.779692
vn 0.358625 0.495893 0.790872
vn 0.256758 0.574569 0.777139
vn 0.161879 0.653942 0.739023
vn 0.077631 0.730963 0.677987
vn 0.007254 0.802672 0.596376
vn -0.046548 0.866312 0.497329
vn -0.081707 0.919439 0.384650
vn -0.096873 0.960011 0.262669
vn -0.091463 0.986467 0.136076
vn -0.065684 0.997793 0.009732
vn -0.020527 0.993552 -0.111503
vn 0.042272 0.973908 -0.222974
vn 0.120300 0.939615 -0.320394
vn 0.210560 0.891990 -0.400022
vn 0.309580 0.832866 -0.458796
vn 0.413558 0.764513 -0.494458
vn 0.518497 0.689559 -0.505638
vn 0.620363 0.610883 -0.491906
vn 0.715244 0.531509 -0.453789
vn 0.583970 0.789250 0.189903
vn 0.583970 0.789250 0.189902
vn 0.583971 0.789250 0.189902
vn 0.583971 0.789250 0.189903
vn 0.583970 0.789250 0.189904
usemtl Material
s off
f 12//7 10//7 74//7
f 10//8 12//8 14//8
f 10//9 14//9 16//9
f 10//10 16//10 18//10
f 10//11 18//11 20//11
f 10//12 20//12 22//12
f 10//13 22//13 24//13
f 10//14 24//14 26//14
f 10//15 26//15 28//15
f 10//16 28//16 30//16
f 10//17 30//17 32//17
f 10//18 32//18 34//18
f 10//19 34//19 36//19
f 10//20 36//20 38//20
f 10//21 38//21 40//21
f 10//22 40//22 42//22
f 10//23 42//23 44//23
f 10//24 44//24 46//24
f 10//25 46//25 48//25
f 10//26 48//26 50//26
f 10//27 50//27 52//27
f 10//28 52//28 54//28
f 10//29 54//29 56//29
f 10//30 56//30 58//30
f 10//31 58//31 60//31
f 10//32 60//32 62//32
f 10//33 62//33 64//33
f 10//34 64//34 66//34
f 10//35 66//35 68//35
f 10//36 68//36 70//36
f 10//37 70//37 72//37
f 10//38 72//38 74//38
f 11//39 12//39 74//39
f 11//39 74//39 73//39
f 12//40 11//40 13//40
f 12//40 13//40 14//40
f 14//41 13//41 15//41
f 14//41 15//41 16//41
f 16//42 15//42 17//42
f 16//42 17//42 18//42
f 18//43 17//43 19//43
f 18//43 19//43 20//43
f 20//44 19//44 21//44
f 20//44 21//44 22//44
f 22//45 21//45 23//45
f 22//45 23//45 24//45
f 24//46 23//46 25//46
f 24//46 25//46 26//46
f 26//47 25//47 27//47
f 26//47 27//47 28//47
f 28//48 27//48 29//48
f 28//48 29//48 30//48
f 30//49 29//49 31//49
f 30//49 31//49 32//49
f 32//50 31//50 33//50
f 32//50 33//50 34//50
f 34//51 33//51 35//51
f 34//51 35//51 36//51
f 36//52 35//52 37//52
f 36//52 37//52 38//52
f 38//53 37//53 39//53
f 38//53 39//53 40//53
f 40//54 39//54 41//54
f 40//54 41//54 42//54
f 42//55 41//55 43//55
f 42//55 43//55 44//55
f 44//56 43//56 45//56
f 44//56 45//56 46//56
f 46//57 45//57 47//57
f 46//57 47//57 48//57
f 48//58 47//58 49//58
f 48//58 49//58 50//58
f 50//59 49//59 51//59
f 50//59 51//59 52//59
f 52//60 51//60 53//60
f 52//60 53//60 54//60
f 54//61 53//61 55//61
f 54//61 55//61 56//61
f 56//62 55//62 57//62
f 56//62 57//62 58//62
f 58//63 57//63 59//63
f 58//63 59//63 60//63
f 60//64 59//64 61//64
f 60//64 61//64 62//64
f 62//65 61//65 63//65
f 62//65 63//65 64//65
f 64//66 63//66 65//66
f 64//66 65//66 66//66
f 66//67 65//67 67//67
f 66//67 67//67 68//67
f 68//68 67//68 69//68
f 68//68 69//68 70//68
f 70//69 69//69 71//69
f 70//69 71//69 72//69
f 72//70 71//70 73//70
f 72//70 73//70 74//70
f 9//71 11//71 73//71
f 11//71 9//71 13//71
f 13//72 9//72 15//72
f 15//71 9//71 17//71
f 17//71 9//71 19//71
f 19//71 9//71 21//71
f 21//71 9//71 23//71
f 23//73 9//73 25//73
f 25//71 9//71 27//71
f 27//71 9//71 29//71
f 29//74 9//74 31//74
f 31//71 9//71 33//71
f 33//74 9//74 35//74
f 35//71 9//71 37//71
f 37//71 9//71 39//71
f 39//71 9//71 41//71
f 41//74 9//74 43//74
f 43//71 9//71 45//71
f 45//72 9//72 47//72
f 47//71 9//71 49//71
f 49//72 9//72 51//72
f 51//75 9//75 53//75
f 53//71 9//71 55//71
f 55//74 9//74 57//74
f 57//71 9//71 59//71
f 59//73 9//73 61//73
f 61//71 9//71 63//71
f 63//71 9//71 65//71
f 65//74 9//74 67//74
f 67//71 9//71 69//71
f 69//71 9//71 71//71
f 71//74 9//74 73//74
