# Blender v2.64 (sub 0) OBJ File: ''
# www.blender.org
mtllib untitled_000041.mtl
o Cube
v -8.729040 -2.858973 10.487860
v -8.729040 -2.858973 -7.293924
v 9.052744 -2.858973 -7.293924
v 9.052744 -2.858973 10.487860
v -8.729040 14.922812 10.487860
v -8.729040 14.922812 -7.293924
v 9.052744 14.922812 -7.293924
v 9.052744 14.922812 10.487860
vn -1.000000 -0.000000 0.000000
vn 0.000000 0.000000 -1.000000
vn 1.000000 -0.000000 0.000000
vn 0.000000 0.000000 1.000000
vn -0.000000 -1.000000 0.000000
vn -0.000000 1.000000 0.000000
usemtl Material.003
s off
f 2//1 1//1 5//1
f 2//1 5//1 6//1
usemtl Material.005
f 6//2 7//2 3//2
f 6//2 3//2 2//2
usemtl Material.004
f 7//3 8//3 4//3
f 7//3 4//3 3//3
usemtl Material.002
f 1//4 4//4 8//4
f 1//4 8//4 5//4
usemtl Material.001
f 1//5 2//5 3//5
f 1//5 3//5 4//5
f 8//6 7//6 6//6
f 8//6 6//6 5//6
o Diamond
v -2.559063 2.313602 -0.373782
v -3.019456 0.736680 -0.822447
v -1.992436 2.342706 -1.057512
v -1.754805 1.882176 -1.649882
v -1.878308 2.276960 -0.943545
v -1.564591 1.772599 -1.459937
v -1.790341 2.212622 -0.807683
v -1.417980 1.665369 -1.233500
v -1.731916 2.152164 -0.655146
v -1.320605 1.564606 -0.979271
v -1.705277 2.097911 -0.491796
v -1.276207 1.474184 -0.707022
v -1.711449 2.051946 -0.323911
v -1.286494 1.397576 -0.427213
v -1.750195 2.016037 -0.157943
v -1.351069 1.337727 -0.150600
v -1.820024 1.991563 -0.000269
v -1.467452 1.296937 0.112190
v -1.918255 1.979465 0.143051
v -1.631169 1.276774 0.351056
v -2.041111 1.980207 0.266509
v -1.835930 1.278011 0.556820
v -2.183872 1.993762 0.365362
v -2.073865 1.300602 0.721574
v -2.341051 2.019608 0.435809
v -2.335830 1.343679 0.838986
v -2.506609 2.056752 0.475144
v -2.611759 1.405586 0.904545
v -2.674182 2.103766 0.481856
v -2.891047 1.483943 0.915730
v -2.837331 2.158845 0.455685
v -3.162963 1.575741 0.872113
v -2.989787 2.219871 0.397639
v -3.417055 1.677450 0.775370
v -3.125690 2.284498 0.309948
v -3.643560 1.785163 0.629217
v -3.239817 2.350245 0.195981
v -3.833774 1.894740 0.439273
v -3.327784 2.414583 0.060119
v -3.980385 2.001970 0.212835
v -3.386209 2.475040 -0.092419
v -4.077761 2.102733 -0.041394
v -3.412848 2.529294 -0.255768
v -4.122158 2.193155 -0.313643
v -3.406676 2.575258 -0.423653
v -4.111871 2.269763 -0.593450
v -3.367931 2.611167 -0.589622
v -4.047296 2.329612 -0.870065
v -3.298101 2.635642 -0.747295
v -3.930913 2.370401 -1.132854
v -3.199871 2.647740 -0.890616
v -3.767196 2.390565 -1.371721
v -3.077014 2.646997 -1.014074
v -3.562435 2.389328 -1.577485
v -2.934253 2.633442 -1.112926
v -3.324500 2.366736 -1.742239
v -2.777074 2.607596 -1.183373
v -3.062535 2.323660 -1.859651
v -2.611517 2.570453 -1.222708
v -2.786607 2.261754 -1.925209
v -2.443944 2.523438 -1.229420
v -2.507317 2.183396 -1.936395
v -2.280795 2.468359 -1.203250
v -2.235403 2.091598 -1.892778
v -2.128339 2.407334 -1.145203
v -1.981309 1.989888 -1.796034
vn 0.142641 -0.678207 -0.720894
vn 0.231225 -0.724398 -0.649448
vn 0.302825 -0.770486 -0.560936
vn 0.354691 -0.814700 -0.458758
vn 0.384828 -0.855341 -0.346841
vn 0.392079 -0.890847 -0.229488
vn 0.376166 -0.919855 -0.111206
vn 0.337698 -0.941248 0.003458
vn 0.278156 -0.954205 0.110098
vn 0.199826 -0.958228 0.204615
vn 0.105720 -0.953163 0.283378
vn -0.000546 -0.939204 0.343360
vn -0.114889 -0.916887 0.382255
vn -0.232915 -0.887070 0.398569
vn -0.350087 -0.850899 0.391675
vn -0.461904 -0.809765 0.361837
vn -0.564067 -0.765247 0.310204
vn -0.652651 -0.719056 0.238758
vn -0.724252 -0.672968 0.150245
vn -0.776117 -0.628754 0.048068
vn -0.806255 -0.588113 -0.063850
vn -0.813506 -0.552606 -0.181204
vn -0.797592 -0.523599 -0.299485
vn -0.759125 -0.502206 -0.414148
vn -0.699583 -0.489249 -0.520788
vn -0.621253 -0.485225 -0.615306
vn -0.527147 -0.490291 -0.694069
vn -0.420881 -0.504250 -0.754050
vn -0.306537 -0.526567 -0.792945
vn -0.188512 -0.556384 -0.809259
vn -0.071339 -0.592555 -0.802365
vn 0.040477 -0.633689 -0.772528
vn 0.575436 0.741297 -0.345474
vn 0.668795 0.692617 -0.270177
vn 0.744255 0.644045 -0.176893
vn 0.798916 0.597448 -0.069208
vn 0.830678 0.554616 0.048741
vn 0.838320 0.517195 0.172420
vn 0.821548 0.486625 0.297078
vn 0.781008 0.464078 0.417921
vn 0.718256 0.450423 0.530310
vn 0.635704 0.446183 0.629922
vn 0.536526 0.451521 0.712930
vn 0.424531 0.466233 0.776144
vn 0.304025 0.489753 0.817136
vn 0.179638 0.521177 0.834329
vn 0.056150 0.559297 0.827064
vn -0.061694 0.602649 0.795618
vn -0.169364 0.649567 0.741201
vn -0.262722 0.698247 0.665904
vn -0.338182 0.746819 0.572621
vn -0.392844 0.793416 0.464935
vn -0.424605 0.836248 0.346987
vn -0.432247 0.873668 0.223308
vn -0.415476 0.904239 0.098650
vn -0.374935 0.926785 -0.022194
vn -0.312184 0.940441 -0.134582
vn -0.229632 0.944681 -0.234194
vn -0.130453 0.939343 -0.317202
vn -0.018459 0.924631 -0.380417
vn 0.102047 0.901111 -0.421408
vn 0.226434 0.869687 -0.438602
vn 0.349923 0.831567 -0.431336
vn 0.467766 0.788215 -0.399890
vn 0.270355 0.926009 0.263467
vn 0.270355 0.926009 0.263468
vn 0.270354 0.926009 0.263468
vn 0.270356 0.926009 0.263467
vn 0.270356 0.926009 0.263468
vn 0.270354 0.926009 0.263467
usemtl Material
s off
f 12//7 10//7 74//7
f 10//8 12//8 14//8
f 10//9 14//9 16//9
f 10//10 16//10 18//10
f 10//11 18//11 20//11
f 10//12 20//12 22//12
f 10//13 22//13 24//13
f 10//14 24//14 26//14
f 10//15 26//15 28//15
f 10//16 28//16 30//16
f 10//17 30//17 32//17
f 10//18 32//18 34//18
f 10//19 34//19 36//19
f 10//20 36//20 38//20
f 10//21 38//21 40//21
f 10//22 40//22 42//22
f 10//23 42//23 44//23
f 10//24 44//24 46//24
f 10//25 46//25 48//25
f 10//26 48//26 50//26
f 10//27 50//27 52//27
f 10//28 52//28 54//28
f 10//29 54//29 56//29
f 10//30 56//30 58//30
f 10//31 58//31 60//31
f 10//32 60//32 62//32
f 10//33 62//33 64//33
f 10//34 64//34 66//34
f 10//35 66//35 68//35
f 10//36 68//36 70//36
f 10//37 70//37 72//37
f 10//38 72//38 74//38
f 11//39 12//39 74//39
f 11//39 74//39 73//39
f 12//40 11//40 13//40
f 12//40 13//40 14//40
f 14//41 13//41 15//41
f 14//41 15//41 16//41
f 16//42 15//42 17//42
f 16//42 17//42 18//42
f 18//43 17//43 19//43
f 18//43 19//43 20//43
f 20//44 19//44 21//44
f 20//44 21//44 22//44
f 22//45 21//45 23//45
f 22//45 23//45 24//45
f 24//46 23//46 25//46
f 24//46 25//46 26//46
f 26//47 25//47 27//47
f 26//47 27//47 28//47
f 28//48 27//48 29//48
f 28//48 29//48 30//48
f 30//49 29//49 31//49
f 30//49 31//49 32//49
f 32//50 31//50 33//50
f 32//50 33//50 34//50
f 34//51 33//51 35//51
f 34//51 35//51 36//51
f 36//52 35//52 37//52
f 36//52 37//52 38//52
f 38//53 37//53 39//53
f 38//53 39//53 40//53
f 40//54 39//54 41//54
f 40//54 41//54 42//54
f 42//55 41//55 43//55
f 42//55 43//55 44//55
f 44//56 43//56 45//56
f 44//56 45//56 46//56
f 46//57 45//57 47//57
f 46//57 47//57 48//57
f 48//58 47//58 49//58
f 48//58 49//58 50//58
f 50//59 49//59 51//59
f 50//59 51//59 52//59
f 52//60 51//60 53//60
f 52//60 53//60 54//60
f 54//61 53//61 55//61
f 54//61 55//61 56//61
f 56//62 55//62 57//62
f 56//62 57//62 58//62
f 58//63 57//63 59//63
f 58//63 59//63 60//63
f 60//64 59//64 61//64
f 60//64 61//64 62//64
f 62//65 61//65 63//65
f 62//65 63//65 64//65
f 64//66 63//66 65//66
f 64//66 65//66 66//66
f 66//67 65//67 67//67
f 66//67 67//67 68//67
f 68//68 67//68 69//68
f 68//68 69//68 70//68
f 70//69 69//69 71//69
f 70//69 71//69 72//69
f 72//70 71//70 73//70
f 72//70 73//70 74//70
f 9//71 11//71 73//71
f 11//72 9//72 13//72
f 13//71 9//71 15//71
f 15//72 9//72 17//72
f 17//71 9//71 19//71
f 19//72 9//72 21//72
f 21//72 9//72 23//72
f 23//71 9//71 25//71
f 25//72 9//72 27//72
f 27//73 9//73 29//73
f 29//71 9//71 31//71
f 31//73 9//73 33//73
f 33//72 9//72 35//72
f 35//72 9//72 37//72
f 37//72 9//72 39//72
f 39//72 9//72 41//72
f 41//71 9//71 43//71
f 43//72 9//72 45//72
f 45//72 9//72 47//72
f 47//71 9//71 49//71
f 49//72 9//72 51//72
f 51//72 9//72 53//72
f 53//71 9//71 55//71
f 55//72 9//72 57//72
f 57//72 9//72 59//72
f 59//74 9//74 61//74
f 61//71 9//71 63//71
f 63//74 9//74 65//74
f 65//73 9//73 67//73
f 67//72 9//72 69//72
f 69//75 9//75 71//75
f 71//76 9//76 73//76
