# Blender v2.64 (sub 0) OBJ File: ''
# www.blender.org
mtllib untitled_000039.mtl
o Cube
v -8.729040 -2.858973 10.487860
v -8.729040 -2.858973 -7.293924
v 9.052744 -2.858973 -7.293924
v 9.052744 -2.858973 10.487860
v -8.729040 14.922812 10.487860
v -8.729040 14.922812 -7.293924
v 9.052744 14.922812 -7.293924
v 9.052744 14.922812 10.487860
vn -1.000000 -0.000000 0.000000
vn 0.000000 0.000000 -1.000000
vn 1.000000 -0.000000 0.000000
vn 0.000000 0.000000 1.000000
vn -0.000000 -1.000000 0.000000
vn -0.000000 1.000000 0.000000
usemtl Material.003
s off
f 2//1 1//1 5//1
f 2//1 5//1 6//1
usemtl Material.005
f 6//2 7//2 3//2
f 6//2 3//2 2//2
usemtl Material.004
f 7//3 8//3 4//3
f 7//3 4//3 3//3
usemtl Material.002
f 1//4 4//4 8//4
f 1//4 8//4 5//4
usemtl Material.001
f 1//5 2//5 3//5
f 1//5 3//5 4//5
f 8//6 7//6 6//6
f 8//6 6//6 5//6
o Diamond
v -2.639801 2.330489 0.056571
v -2.834913 0.698081 -0.387414
v -2.100797 2.455153 -0.638651
v -1.800843 2.041442 -1.237258
v -1.974798 2.409802 -0.527279
v -1.590845 1.965857 -1.051638
v -1.874355 2.361403 -0.393470
v -1.423440 1.885192 -0.828623
v -1.803327 2.311816 -0.242366
v -1.305060 1.802547 -0.576783
v -1.764445 2.262946 -0.079774
v -1.240257 1.721098 -0.305796
v -1.759202 2.216673 0.088058
v -1.231518 1.643975 -0.026077
v -1.787800 2.174773 0.254679
v -1.279182 1.574142 0.251625
v -1.849140 2.138857 0.413688
v -1.381415 1.514283 0.516639
v -1.940865 2.110306 0.558972
v -1.534289 1.466697 0.758780
v -2.059449 2.090216 0.684950
v -1.731929 1.433214 0.968743
v -2.200336 2.079359 0.786779
v -1.966741 1.415120 1.138459
v -2.358111 2.078154 0.860547
v -2.229699 1.413110 1.261405
v -2.526711 2.086645 0.903418
v -2.510701 1.427263 1.332857
v -2.699658 2.104508 0.913746
v -2.798944 1.457034 1.350070
v -2.870304 2.131054 0.891133
v -3.083354 1.501278 1.312382
v -3.032092 2.165265 0.836448
v -3.353001 1.558296 1.221240
v -3.178804 2.205825 0.751793
v -3.597522 1.625896 1.080148
v -3.304803 2.251176 0.640421
v -3.807520 1.701482 0.894528
v -3.405246 2.299575 0.506612
v -3.974925 1.782146 0.671513
v -3.476274 2.349163 0.355508
v -4.093305 1.864792 0.419673
v -3.515156 2.398032 0.192916
v -4.158109 1.946240 0.148687
v -3.520399 2.444305 0.025085
v -4.166847 2.023363 -0.131032
v -3.491801 2.486205 -0.141537
v -4.119184 2.093196 -0.408735
v -3.430461 2.522121 -0.300545
v -4.016951 2.153056 -0.673748
v -3.338737 2.550673 -0.445830
v -3.864076 2.200642 -0.915890
v -3.220153 2.570763 -0.571807
v -3.666436 2.234125 -1.125852
v -3.079266 2.581619 -0.673637
v -3.431624 2.252219 -1.295568
v -2.921491 2.582824 -0.747405
v -3.168666 2.254228 -1.418514
v -2.752891 2.574333 -0.790276
v -2.887666 2.240076 -1.489967
v -2.579944 2.556471 -0.800604
v -2.599421 2.210305 -1.507180
v -2.409298 2.529924 -0.777991
v -2.315011 2.166061 -1.469491
v -2.247509 2.495713 -0.723306
v -2.045364 2.109043 -1.378350
vn 0.240652 -0.644417 -0.725820
vn 0.337271 -0.674854 -0.656368
vn 0.417498 -0.708069 -0.569503
vn 0.478249 -0.742785 -0.468560
vn 0.517189 -0.777667 -0.357420
vn 0.532822 -0.811376 -0.240354
vn 0.524548 -0.842615 -0.121859
vn 0.492684 -0.870184 -0.006492
vn 0.438454 -0.893025 0.101317
vn 0.363943 -0.910258 0.197423
vn 0.272014 -0.921222 0.278134
vn 0.166201 -0.925495 0.340346
vn 0.050568 -0.922914 0.381671
vn -0.070439 -0.913577 0.400519
vn -0.192171 -0.897843 0.396166
vn -0.309950 -0.876318 0.368780
vn -0.419249 -0.849827 0.319413
vn -0.515869 -0.819389 0.249962
vn -0.596096 -0.786174 0.163096
vn -0.656847 -0.751458 0.062154
vn -0.695787 -0.716576 -0.048986
vn -0.711420 -0.682867 -0.166053
vn -0.703146 -0.651628 -0.284547
vn -0.671281 -0.624059 -0.399915
vn -0.617052 -0.601218 -0.507724
vn -0.542541 -0.583985 -0.603830
vn -0.450612 -0.573021 -0.684540
vn -0.344799 -0.568748 -0.746753
vn -0.229166 -0.571329 -0.788077
vn -0.108159 -0.580666 -0.806925
vn 0.013573 -0.596400 -0.802573
vn 0.131352 -0.617926 -0.775187
vn 0.433780 0.828142 -0.354986
vn 0.535609 0.796064 -0.281791
vn 0.620159 0.761059 -0.190244
vn 0.684184 0.724472 -0.083860
vn 0.725223 0.687709 0.033271
vn 0.741699 0.652184 0.156647
vn 0.732979 0.619261 0.281529
vn 0.699397 0.590205 0.403114
vn 0.642245 0.566134 0.516734
vn 0.563717 0.547972 0.618021
vn 0.466834 0.536417 0.703081
vn 0.355316 0.531913 0.768647
vn 0.233452 0.534633 0.812199
vn 0.105922 0.544474 0.832063
vn -0.022372 0.561056 0.827476
vn -0.146499 0.583742 0.798614
vn -0.261690 0.611660 0.746586
vn -0.363518 0.643739 0.673391
vn -0.448068 0.678744 0.581844
vn -0.512093 0.715331 0.475460
vn -0.553133 0.752093 0.358329
vn -0.569608 0.787619 0.234953
vn -0.560888 0.820542 0.110072
vn -0.527306 0.849597 -0.011515
vn -0.470154 0.873669 -0.125134
vn -0.391627 0.891831 -0.226420
vn -0.294742 0.903386 -0.311482
vn -0.183226 0.907890 -0.377047
vn -0.061361 0.905169 -0.420599
vn 0.066169 0.895329 -0.440463
vn 0.194463 0.878747 -0.435876
vn 0.318590 0.856061 -0.407014
vn 0.114573 0.958592 0.260719
vn 0.114576 0.958591 0.260720
vn 0.114574 0.958592 0.260718
vn 0.114575 0.958591 0.260721
vn 0.114575 0.958592 0.260719
vn 0.114575 0.958592 0.260720
vn 0.114575 0.958592 0.260718
vn 0.114574 0.958592 0.260720
vn 0.114576 0.958592 0.260719
vn 0.114574 0.958592 0.260719
vn 0.114575 0.958591 0.260720
usemtl Material
s off
f 12//7 10//7 74//7
f 10//8 12//8 14//8
f 10//9 14//9 16//9
f 10//10 16//10 18//10
f 10//11 18//11 20//11
f 10//12 20//12 22//12
f 10//13 22//13 24//13
f 10//14 24//14 26//14
f 10//15 26//15 28//15
f 10//16 28//16 30//16
f 10//17 30//17 32//17
f 10//18 32//18 34//18
f 10//19 34//19 36//19
f 10//20 36//20 38//20
f 10//21 38//21 40//21
f 10//22 40//22 42//22
f 10//23 42//23 44//23
f 10//24 44//24 46//24
f 10//25 46//25 48//25
f 10//26 48//26 50//26
f 10//27 50//27 52//27
f 10//28 52//28 54//28
f 10//29 54//29 56//29
f 10//30 56//30 58//30
f 10//31 58//31 60//31
f 10//32 60//32 62//32
f 10//33 62//33 64//33
f 10//34 64//34 66//34
f 10//35 66//35 68//35
f 10//36 68//36 70//36
f 10//37 70//37 72//37
f 10//38 72//38 74//38
f 11//39 12//39 74//39
f 11//39 74//39 73//39
f 12//40 11//40 13//40
f 12//40 13//40 14//40
f 14//41 13//41 15//41
f 14//41 15//41 16//41
f 16//42 15//42 17//42
f 16//42 17//42 18//42
f 18//43 17//43 19//43
f 18//43 19//43 20//43
f 20//44 19//44 21//44
f 20//44 21//44 22//44
f 22//45 21//45 23//45
f 22//45 23//45 24//45
f 24//46 23//46 25//46
f 24//46 25//46 26//46
f 26//47 25//47 27//47
f 26//47 27//47 28//47
f 28//48 27//48 29//48
f 28//48 29//48 30//48
f 30//49 29//49 31//49
f 30//49 31//49 32//49
f 32//50 31//50 33//50
f 32//50 33//50 34//50
f 34//51 33//51 35//51
f 34//51 35//51 36//51
f 36//52 35//52 37//52
f 36//52 37//52 38//52
f 38//53 37//53 39//53
f 38//53 39//53 40//53
f 40//54 39//54 41//54
f 40//54 41//54 42//54
f 42//55 41//55 43//55
f 42//55 43//55 44//55
f 44//56 43//56 45//56
f 44//56 45//56 46//56
f 46//57 45//57 47//57
f 46//57 47//57 48//57
f 48//58 47//58 49//58
f 48//58 49//58 50//58
f 50//59 49//59 51//59
f 50//59 51//59 52//59
f 52//60 51//60 53//60
f 52//60 53//60 54//60
f 54//61 53//61 55//61
f 54//61 55//61 56//61
f 56//62 55//62 57//62
f 56//62 57//62 58//62
f 58//63 57//63 59//63
f 58//63 59//63 60//63
f 60//64 59//64 61//64
f 60//64 61//64 62//64
f 62//65 61//65 63//65
f 62//65 63//65 64//65
f 64//66 63//66 65//66
f 64//66 65//66 66//66
f 66//67 65//67 67//67
f 66//67 67//67 68//67
f 68//68 67//68 69//68
f 68//68 69//68 70//68
f 70//69 69//69 71//69
f 70//69 71//69 72//69
f 72//70 71//70 73//70
f 72//70 73//70 74//70
f 9//71 11//71 73//71
f 11//72 9//72 13//72
f 13//73 9//73 15//73
f 15//74 9//74 17//74
f 17//75 9//75 19//75
f 19//75 9//75 21//75
f 21//76 9//76 23//76
f 23//77 9//77 25//77
f 25//75 9//75 27//75
f 27//78 9//78 29//78
f 29//76 9//76 31//76
f 31//78 9//78 33//78
f 33//79 9//79 35//79
f 35//75 9//75 37//75
f 37//80 9//80 39//80
f 39//76 9//76 41//76
f 41//80 9//80 43//80
f 43//75 9//75 45//75
f 45//76 9//76 47//76
f 47//81 9//81 49//81
f 49//75 9//75 51//75
f 51//76 9//76 53//76
f 53//75 9//75 55//75
f 55//75 9//75 57//75
f 57//80 9//80 59//80
f 59//78 9//78 61//78
f 61//79 9//79 63//79
f 63//80 9//80 65//80
f 65//75 9//75 67//75
f 67//75 9//75 69//75
f 69//75 9//75 71//75
f 71//75 9//75 73//75
