# Blender v2.64 (sub 0) OBJ File: ''
# www.blender.org
mtllib untitled_000029.mtl
o Cube
v -8.729040 -2.858973 10.487860
v -8.729040 -2.858973 -7.293924
v 9.052744 -2.858973 -7.293924
v 9.052744 -2.858973 10.487860
v -8.729040 14.922812 10.487860
v -8.729040 14.922812 -7.293924
v 9.052744 14.922812 -7.293924
v 9.052744 14.922812 10.487860
vn -1.000000 -0.000000 0.000000
vn 0.000000 0.000000 -1.000000
vn 1.000000 -0.000000 0.000000
vn 0.000000 0.000000 1.000000
vn -0.000000 -1.000000 0.000000
vn -0.000000 1.000000 0.000000
usemtl Material.003
s off
f 2//1 1//1 5//1
f 2//1 5//1 6//1
usemtl Material.005
f 6//2 7//2 3//2
f 6//2 3//2 2//2
usemtl Material.004
f 7//3 8//3 4//3
f 7//3 4//3 3//3
usemtl Material.002
f 1//4 4//4 8//4
f 1//4 8//4 5//4
usemtl Material.001
f 1//5 2//5 3//5
f 1//5 3//5 4//5
f 8//6 7//6 6//6
f 8//6 6//6 5//6
o Diamond
v -2.982329 2.238162 1.978431
v -2.051991 0.909116 1.460691
v -2.620230 2.739990 1.340895
v -2.095685 2.670049 0.758298
v -2.500352 2.776819 1.461763
v -1.895889 2.731432 0.959745
v -2.398997 2.792949 1.602486
v -1.726963 2.758315 1.194283
v -2.320058 2.787758 1.757657
v -1.595399 2.749663 1.452901
v -2.266571 2.761446 1.921312
v -1.506253 2.705811 1.725660
v -2.240589 2.715025 2.087162
v -1.462950 2.628443 2.002076
v -2.243112 2.650279 2.248833
v -1.467155 2.520532 2.271528
v -2.274043 2.569695 2.400114
v -1.518706 2.386225 2.523662
v -2.332193 2.476370 2.535189
v -1.615622 2.230684 2.748787
v -2.415327 2.373891 2.648868
v -1.754179 2.059886 2.938253
v -2.520251 2.266196 2.736783
v -1.929052 1.880394 3.084777
v -2.642931 2.157424 2.795555
v -2.133520 1.699107 3.182730
v -2.778656 2.051754 2.822925
v -2.359727 1.522991 3.228347
v -2.922206 1.953249 2.817842
v -2.598979 1.358815 3.219875
v -3.068068 1.865692 2.780500
v -2.842081 1.212886 3.157639
v -3.210634 1.792448 2.712336
v -3.079692 1.090814 3.044032
v -3.344427 1.736334 2.615968
v -3.302680 0.997290 2.883419
v -3.464305 1.699504 2.495100
v -3.502476 0.935907 2.681972
v -3.565660 1.683375 2.354377
v -3.671402 0.909024 2.447433
v -3.644599 1.688565 2.199205
v -3.802966 0.917676 2.188815
v -3.698087 1.714877 2.035551
v -3.892112 0.961528 1.916057
v -3.724068 1.761297 1.869701
v -3.935415 1.038896 1.639641
v -3.721545 1.826044 1.708029
v -3.931210 1.146807 1.370188
v -3.690615 1.906628 1.556749
v -3.879659 1.281114 1.118055
v -3.632465 1.999953 1.421674
v -3.782743 1.436655 0.892929
v -3.549331 2.102432 1.307995
v -3.644186 1.607453 0.703464
v -3.444407 2.210127 1.220080
v -3.469313 1.786945 0.556939
v -3.321726 2.318899 1.161308
v -3.264845 1.968232 0.458986
v -3.186002 2.424568 1.133938
v -3.038639 2.144347 0.413369
v -3.042451 2.523075 1.139021
v -2.799386 2.308524 0.421842
v -2.896590 2.610631 1.176363
v -2.556284 2.454453 0.484077
v -2.754023 2.683875 1.244527
v -2.318673 2.576525 0.597685
vn 0.634973 -0.272572 -0.722851
vn 0.724847 -0.239642 -0.645885
vn 0.803228 -0.220879 -0.553206
vn 0.867105 -0.217004 -0.448373
vn 0.914023 -0.228165 -0.335415
vn 0.942178 -0.253933 -0.218674
vn 0.950489 -0.293319 -0.102636
vn 0.938637 -0.344809 0.008241
vn 0.907076 -0.406423 0.109694
vn 0.857020 -0.475795 0.197826
vn 0.790393 -0.550258 0.269249
vn 0.709755 -0.626951 0.321219
vn 0.618203 -0.702926 0.351738
vn 0.519258 -0.775264 0.359634
vn 0.416722 -0.841184 0.344604
vn 0.314534 -0.898155 0.307224
vn 0.216622 -0.943985 0.248931
vn 0.126748 -0.976915 0.171966
vn 0.048367 -0.995678 0.079286
vn -0.015510 -0.999553 -0.025546
vn -0.062427 -0.988392 -0.138504
vn -0.090583 -0.962624 -0.255245
vn -0.098894 -0.923238 -0.371283
vn -0.087041 -0.871749 -0.482160
vn -0.055481 -0.810134 -0.583614
vn -0.005425 -0.740762 -0.671745
vn 0.061202 -0.666299 -0.743169
vn 0.141841 -0.589607 -0.795138
vn 0.233392 -0.513632 -0.825658
vn 0.332337 -0.441294 -0.833554
vn 0.434874 -0.375373 -0.818523
vn 0.537061 -0.318403 -0.781144
vn -0.189834 0.939918 -0.283755
vn -0.095116 0.974623 -0.202641
vn -0.012510 0.994397 -0.104966
vn 0.054810 0.998482 0.005518
vn 0.104256 0.986719 0.124564
vn 0.133929 0.959562 0.247598
vn 0.142688 0.918052 0.369891
vn 0.130197 0.863788 0.486743
vn 0.096936 0.798853 0.593665
vn 0.044181 0.725741 0.686548
vn -0.026037 0.647265 0.761820
vn -0.111022 0.566438 0.816592
vn -0.207508 0.486368 0.848756
vn -0.311786 0.410131 0.857078
vn -0.419849 0.340657 0.841237
vn -0.527545 0.280616 0.801842
vn -0.630735 0.232316 0.740407
vn -0.725453 0.197611 0.659294
vn -0.808059 0.177837 0.561619
vn -0.875378 0.173752 0.451135
vn -0.924825 0.185515 0.332089
vn -0.954498 0.212672 0.209056
vn -0.963257 0.254181 0.086762
vn -0.950766 0.308446 -0.030090
vn -0.917504 0.373381 -0.137012
vn -0.864750 0.446492 -0.229895
vn -0.794532 0.524969 -0.305167
vn -0.709546 0.605795 -0.359938
vn -0.613061 0.685866 -0.392103
vn -0.508783 0.762103 -0.400424
vn -0.400720 0.831576 -0.384584
vn -0.293023 0.891618 -0.345189
vn -0.546319 0.780450 0.304030
vn -0.546318 0.780450 0.304031
vn -0.546318 0.780450 0.304030
vn -0.546319 0.780449 0.304030
vn -0.546317 0.780450 0.304032
vn -0.546319 0.780450 0.304029
vn -0.546317 0.780451 0.304030
usemtl Material
s off
f 12//7 10//7 74//7
f 10//8 12//8 14//8
f 10//9 14//9 16//9
f 10//10 16//10 18//10
f 10//11 18//11 20//11
f 10//12 20//12 22//12
f 10//13 22//13 24//13
f 10//14 24//14 26//14
f 10//15 26//15 28//15
f 10//16 28//16 30//16
f 10//17 30//17 32//17
f 10//18 32//18 34//18
f 10//19 34//19 36//19
f 10//20 36//20 38//20
f 10//21 38//21 40//21
f 10//22 40//22 42//22
f 10//23 42//23 44//23
f 10//24 44//24 46//24
f 10//25 46//25 48//25
f 10//26 48//26 50//26
f 10//27 50//27 52//27
f 10//28 52//28 54//28
f 10//29 54//29 56//29
f 10//30 56//30 58//30
f 10//31 58//31 60//31
f 10//32 60//32 62//32
f 10//33 62//33 64//33
f 10//34 64//34 66//34
f 10//35 66//35 68//35
f 10//36 68//36 70//36
f 10//37 70//37 72//37
f 10//38 72//38 74//38
f 11//39 12//39 74//39
f 11//39 74//39 73//39
f 12//40 11//40 13//40
f 12//40 13//40 14//40
f 14//41 13//41 15//41
f 14//41 15//41 16//41
f 16//42 15//42 17//42
f 16//42 17//42 18//42
f 18//43 17//43 19//43
f 18//43 19//43 20//43
f 20//44 19//44 21//44
f 20//44 21//44 22//44
f 22//45 21//45 23//45
f 22//45 23//45 24//45
f 24//46 23//46 25//46
f 24//46 25//46 26//46
f 26//47 25//47 27//47
f 26//47 27//47 28//47
f 28//48 27//48 29//48
f 28//48 29//48 30//48
f 30//49 29//49 31//49
f 30//49 31//49 32//49
f 32//50 31//50 33//50
f 32//50 33//50 34//50
f 34//51 33//51 35//51
f 34//51 35//51 36//51
f 36//52 35//52 37//52
f 36//52 37//52 38//52
f 38//53 37//53 39//53
f 38//53 39//53 40//53
f 40//54 39//54 41//54
f 40//54 41//54 42//54
f 42//55 41//55 43//55
f 42//55 43//55 44//55
f 44//56 43//56 45//56
f 44//56 45//56 46//56
f 46//57 45//57 47//57
f 46//57 47//57 48//57
f 48//58 47//58 49//58
f 48//58 49//58 50//58
f 50//59 49//59 51//59
f 50//59 51//59 52//59
f 52//60 51//60 53//60
f 52//60 53//60 54//60
f 54//61 53//61 55//61
f 54//61 55//61 56//61
f 56//62 55//62 57//62
f 56//62 57//62 58//62
f 58//63 57//63 59//63
f 58//63 59//63 60//63
f 60//64 59//64 61//64
f 60//64 61//64 62//64
f 62//65 61//65 63//65
f 62//65 63//65 64//65
f 64//66 63//66 65//66
f 64//66 65//66 66//66
f 66//67 65//67 67//67
f 66//67 67//67 68//67
f 68//68 67//68 69//68
f 68//68 69//68 70//68
f 70//69 69//69 71//69
f 70//69 71//69 72//69
f 72//70 71//70 73//70
f 72//70 73//70 74//70
f 9//71 11//71 73//71
f 11//72 9//72 13//72
f 13//73 9//73 15//73
f 15//72 9//72 17//72
f 17//73 9//73 19//73
f 19//73 9//73 21//73
f 21//73 9//73 23//73
f 23//73 9//73 25//73
f 25//73 9//73 27//73
f 27//72 9//72 29//72
f 29//73 9//73 31//73
f 31//73 9//73 33//73
f 33//74 9//74 35//74
f 35//73 9//73 37//73
f 37//73 9//73 39//73
f 39//73 9//73 41//73
f 41//73 9//73 43//73
f 43//71 9//71 45//71
f 45//75 9//75 47//75
f 47//76 9//76 49//76
f 49//72 9//72 51//72
f 51//72 9//72 53//72
f 53//73 9//73 55//73
f 55//72 9//72 57//72
f 57//72 9//72 59//72
f 59//73 9//73 61//73
f 61//72 9//72 63//72
f 63//77 9//77 65//77
f 65//73 9//73 67//73
f 67//74 9//74 69//74
f 69//72 9//72 71//72
f 71//73 9//73 73//73
