# Blender v2.64 (sub 0) OBJ File: ''
# www.blender.org
mtllib untitled_000028.mtl
o Cube
v -8.729040 -2.858973 10.487860
v -8.729040 -2.858973 -7.293924
v 9.052744 -2.858973 -7.293924
v 9.052744 -2.858973 10.487860
v -8.729040 14.922812 10.487860
v -8.729040 14.922812 -7.293924
v 9.052744 14.922812 -7.293924
v 9.052744 14.922812 10.487860
vn -1.000000 -0.000000 0.000000
vn 0.000000 0.000000 -1.000000
vn 1.000000 -0.000000 0.000000
vn 0.000000 0.000000 1.000000
vn -0.000000 -1.000000 0.000000
vn -0.000000 1.000000 0.000000
usemtl Material.003
s off
f 2//1 1//1 5//1
f 2//1 5//1 6//1
usemtl Material.005
f 6//2 7//2 3//2
f 6//2 3//2 2//2
usemtl Material.004
f 7//3 8//3 4//3
f 7//3 4//3 3//3
usemtl Material.002
f 1//4 4//4 8//4
f 1//4 8//4 5//4
usemtl Material.001
f 1//5 2//5 3//5
f 1//5 3//5 4//5
f 8//6 7//6 6//6
f 8//6 6//6 5//6
o Diamond
v -2.995494 2.228482 2.066705
v -2.021900 0.931240 1.547837
v -2.642781 2.745449 1.436040
v -2.111328 2.695281 0.857680
v -2.525102 2.784892 1.558237
v -1.915197 2.761019 1.061342
v -2.425501 2.802952 1.699975
v -1.749194 2.791120 1.297571
v -2.347803 2.798936 1.855805
v -1.619698 2.784426 1.557289
v -2.294996 2.772998 2.019741
v -1.531687 2.741195 1.830515
v -2.269109 2.726134 2.185481
v -1.488542 2.663089 2.106748
v -2.271137 2.660146 2.346656
v -1.491921 2.553108 2.375374
v -2.301001 2.577569 2.497074
v -1.541694 2.415480 2.626070
v -2.357553 2.481576 2.630952
v -1.635949 2.255493 2.849200
v -2.438622 2.375858 2.743147
v -1.771063 2.079296 3.036192
v -2.541091 2.264476 2.829347
v -1.941845 1.893659 3.179858
v -2.661022 2.151711 2.886238
v -2.141730 1.705718 3.274677
v -2.793808 2.041896 2.911636
v -2.363039 1.522692 3.317006
v -2.934343 1.939252 2.904563
v -2.597264 1.351619 3.305218
v -3.077229 1.847722 2.865292
v -2.835407 1.199069 3.239766
v -3.216973 1.770825 2.795331
v -3.068315 1.070907 3.123166
v -3.348206 1.711515 2.697370
v -3.287037 0.972058 2.959897
v -3.465885 1.672072 2.575173
v -3.483168 0.906320 2.756235
v -3.565487 1.654012 2.433436
v -3.649171 0.876219 2.520007
v -3.643184 1.658028 2.277605
v -3.778666 0.882913 2.260288
v -3.695991 1.683967 2.113670
v -3.866678 0.926144 1.987063
v -3.721878 1.730830 1.947930
v -3.909823 1.004250 1.710830
v -3.719851 1.796819 1.786754
v -3.906445 1.114230 1.442203
v -3.689987 1.879395 1.636337
v -3.856671 1.251858 1.191508
v -3.633434 1.975388 1.502458
v -3.762416 1.411846 0.968377
v -3.552365 2.081106 1.390263
v -3.627302 1.588042 0.781386
v -3.449896 2.192488 1.304064
v -3.456520 1.773680 0.637720
v -3.329965 2.305253 1.247172
v -3.256635 1.961621 0.542900
v -3.197180 2.415068 1.221775
v -3.035327 2.144646 0.500571
v -3.056644 2.517713 1.228847
v -2.801100 2.315720 0.512359
v -2.913759 2.609242 1.268118
v -2.562958 2.468269 0.577811
v -2.774014 2.686139 1.338079
v -2.330050 2.596431 0.694412
vn 0.649027 -0.248421 -0.719062
vn 0.737215 -0.213433 -0.641062
vn 0.814195 -0.193061 -0.547552
vn 0.877011 -0.188085 -0.442126
vn 0.923248 -0.198697 -0.328835
vn 0.951128 -0.224491 -0.212034
vn 0.959582 -0.264474 -0.096210
vn 0.948283 -0.317108 0.014184
vn 0.917666 -0.380375 0.114909
vn 0.868908 -0.451839 0.202091
vn 0.803882 -0.528756 0.272380
vn 0.725087 -0.608169 0.323076
vn 0.635551 -0.687028 0.352231
vn 0.538716 -0.762301 0.358723
vn 0.438302 -0.831095 0.342304
vn 0.338169 -0.890767 0.303604
vn 0.242163 -0.939025 0.244110
vn 0.153976 -0.974012 0.166110
vn 0.076995 -0.994385 0.072600
vn 0.014179 -0.999361 -0.032826
vn -0.032057 -0.988748 -0.146117
vn -0.059938 -0.962955 -0.262918
vn -0.068392 -0.922972 -0.378742
vn -0.057093 -0.870336 -0.489137
vn -0.026476 -0.807071 -0.589861
vn 0.022282 -0.735606 -0.677043
vn 0.087309 -0.658689 -0.747333
vn 0.166103 -0.579276 -0.798028
vn 0.255638 -0.500417 -0.827183
vn 0.352474 -0.425145 -0.833675
vn 0.452888 -0.356350 -0.817256
vn 0.553022 -0.296678 -0.778556
vn -0.214964 0.936005 -0.278720
vn -0.122022 0.972878 -0.196516
vn -0.040893 0.994349 -0.097966
vn 0.025309 0.999593 0.013143
vn 0.074038 0.988409 0.132540
vn 0.103422 0.961225 0.255638
vn 0.112330 0.919087 0.377705
vn 0.100423 0.863615 0.494050
vn 0.068156 0.796939 0.600203
vn 0.016769 0.721623 0.692084
vn -0.051762 0.640559 0.766162
vn -0.134804 0.556866 0.819591
vn -0.229165 0.473756 0.850316
vn -0.331220 0.394427 0.857159
vn -0.437047 0.321924 0.839854
vn -0.542577 0.259036 0.799069
vn -0.643757 0.208177 0.736369
vn -0.736698 0.171304 0.654164
vn -0.817829 0.149833 0.555613
vn -0.884030 0.144589 0.444505
vn -0.932759 0.155774 0.325108
vn -0.962143 0.182957 0.202010
vn -0.971052 0.225095 0.079945
vn -0.959144 0.280568 -0.036402
vn -0.926876 0.347244 -0.142555
vn -0.875490 0.422560 -0.234436
vn -0.806959 0.503623 -0.308514
vn -0.723918 0.587317 -0.361943
vn -0.629556 0.670426 -0.392668
vn -0.527501 0.749756 -0.399511
vn -0.421675 0.822258 -0.382206
vn -0.316144 0.885147 -0.341420
vn -0.571720 0.761774 0.304693
vn -0.571719 0.761774 0.304693
vn -0.571719 0.761773 0.304694
vn -0.571719 0.761774 0.304692
vn -0.571720 0.761773 0.304694
vn -0.571720 0.761773 0.304693
vn -0.571720 0.761774 0.304692
vn -0.571719 0.761773 0.304693
usemtl Material
s off
f 12//7 10//7 74//7
f 10//8 12//8 14//8
f 10//9 14//9 16//9
f 10//10 16//10 18//10
f 10//11 18//11 20//11
f 10//12 20//12 22//12
f 10//13 22//13 24//13
f 10//14 24//14 26//14
f 10//15 26//15 28//15
f 10//16 28//16 30//16
f 10//17 30//17 32//17
f 10//18 32//18 34//18
f 10//19 34//19 36//19
f 10//20 36//20 38//20
f 10//21 38//21 40//21
f 10//22 40//22 42//22
f 10//23 42//23 44//23
f 10//24 44//24 46//24
f 10//25 46//25 48//25
f 10//26 48//26 50//26
f 10//27 50//27 52//27
f 10//28 52//28 54//28
f 10//29 54//29 56//29
f 10//30 56//30 58//30
f 10//31 58//31 60//31
f 10//32 60//32 62//32
f 10//33 62//33 64//33
f 10//34 64//34 66//34
f 10//35 66//35 68//35
f 10//36 68//36 70//36
f 10//37 70//37 72//37
f 10//38 72//38 74//38
f 11//39 12//39 74//39
f 11//39 74//39 73//39
f 12//40 11//40 13//40
f 12//40 13//40 14//40
f 14//41 13//41 15//41
f 14//41 15//41 16//41
f 16//42 15//42 17//42
f 16//42 17//42 18//42
f 18//43 17//43 19//43
f 18//43 19//43 20//43
f 20//44 19//44 21//44
f 20//44 21//44 22//44
f 22//45 21//45 23//45
f 22//45 23//45 24//45
f 24//46 23//46 25//46
f 24//46 25//46 26//46
f 26//47 25//47 27//47
f 26//47 27//47 28//47
f 28//48 27//48 29//48
f 28//48 29//48 30//48
f 30//49 29//49 31//49
f 30//49 31//49 32//49
f 32//50 31//50 33//50
f 32//50 33//50 34//50
f 34//51 33//51 35//51
f 34//51 35//51 36//51
f 36//52 35//52 37//52
f 36//52 37//52 38//52
f 38//53 37//53 39//53
f 38//53 39//53 40//53
f 40//54 39//54 41//54
f 40//54 41//54 42//54
f 42//55 41//55 43//55
f 42//55 43//55 44//55
f 44//56 43//56 45//56
f 44//56 45//56 46//56
f 46//57 45//57 47//57
f 46//57 47//57 48//57
f 48//58 47//58 49//58
f 48//58 49//58 50//58
f 50//59 49//59 51//59
f 50//59 51//59 52//59
f 52//60 51//60 53//60
f 52//60 53//60 54//60
f 54//61 53//61 55//61
f 54//61 55//61 56//61
f 56//62 55//62 57//62
f 56//62 57//62 58//62
f 58//63 57//63 59//63
f 58//63 59//63 60//63
f 60//64 59//64 61//64
f 60//64 61//64 62//64
f 62//65 61//65 63//65
f 62//65 63//65 64//65
f 64//66 63//66 65//66
f 64//66 65//66 66//66
f 66//67 65//67 67//67
f 66//67 67//67 68//67
f 68//68 67//68 69//68
f 68//68 69//68 70//68
f 70//69 69//69 71//69
f 70//69 71//69 72//69
f 72//70 71//70 73//70
f 72//70 73//70 74//70
f 9//71 11//71 73//71
f 11//72 9//72 13//72
f 13//72 9//72 15//72
f 15//72 9//72 17//72
f 17//72 9//72 19//72
f 19//72 9//72 21//72
f 21//73 9//73 23//73
f 23//74 9//74 25//74
f 25//75 9//75 27//75
f 27//72 9//72 29//72
f 29//72 9//72 31//72
f 31//72 9//72 33//72
f 33//76 9//76 35//76
f 35//72 9//72 37//72
f 37//71 9//71 39//71
f 39//72 9//72 41//72
f 41//72 9//72 43//72
f 43//72 9//72 45//72
f 45//77 9//77 47//77
f 47//72 9//72 49//72
f 49//72 9//72 51//72
f 51//77 9//77 53//77
f 53//78 9//78 55//78
f 55//72 9//72 57//72
f 57//74 9//74 59//74
f 59//72 9//72 61//72
f 61//72 9//72 63//72
f 63//72 9//72 65//72
f 65//72 9//72 67//72
f 67//72 9//72 69//72
f 69//72 9//72 71//72
f 71//72 9//72 73//72
