# Blender v2.64 (sub 0) OBJ File: ''
# www.blender.org
mtllib untitled_000036.mtl
o Cube
v -8.729040 -2.858973 10.487860
v -8.729040 -2.858973 -7.293924
v 9.052744 -2.858973 -7.293924
v 9.052744 -2.858973 10.487860
v -8.729040 14.922812 10.487860
v -8.729040 14.922812 -7.293924
v 9.052744 14.922812 -7.293924
v 9.052744 14.922812 10.487860
vn -1.000000 -0.000000 0.000000
vn 0.000000 0.000000 -1.000000
vn 1.000000 -0.000000 0.000000
vn 0.000000 0.000000 1.000000
vn -0.000000 -1.000000 0.000000
vn -0.000000 1.000000 0.000000
usemtl Material.003
s off
f 2//1 1//1 5//1
f 2//1 5//1 6//1
usemtl Material.005
f 6//2 7//2 3//2
f 6//2 3//2 2//2
usemtl Material.004
f 7//3 8//3 4//3
f 7//3 4//3 3//3
usemtl Material.002
f 1//4 4//4 8//4
f 1//4 8//4 5//4
usemtl Material.001
f 1//5 2//5 3//5
f 1//5 3//5 4//5
f 8//6 7//6 6//6
f 8//6 6//6 5//6
o Diamond
v -2.771242 2.326971 0.748869
v -2.534474 0.706123 0.283319
v -2.287866 2.597147 0.054066
v -1.893556 2.283963 -0.550826
v -2.153728 2.585021 0.164502
v -1.669992 2.263753 -0.366766
v -2.043321 2.562979 0.297395
v -1.485980 2.227016 -0.145278
v -1.960887 2.531867 0.447637
v -1.348590 2.175163 0.105127
v -1.909594 2.492881 0.609456
v -1.263103 2.110186 0.374825
v -1.891415 2.447519 0.776633
v -1.232803 2.034583 0.653453
v -1.907046 2.397525 0.942742
v -1.258856 1.951259 0.930301
v -1.955889 2.344819 1.101401
v -1.340259 1.863415 1.194733
v -2.036064 2.291427 1.246513
v -1.473886 1.774429 1.436586
v -2.144493 2.239401 1.372500
v -1.654600 1.687720 1.646565
v -2.277007 2.190741 1.474522
v -1.875456 1.606619 1.816601
v -2.428513 2.147316 1.548657
v -2.127967 1.534244 1.940159
v -2.593192 2.110794 1.592057
v -2.402431 1.473375 2.012492
v -2.764712 2.082581 1.603053
v -2.688298 1.426352 2.030820
v -2.936483 2.063759 1.581224
v -2.974584 1.394982 1.994437
v -3.101904 2.055052 1.527408
v -3.250286 1.380471 1.904744
v -3.254619 2.056795 1.443673
v -3.504809 1.383376 1.765186
v -3.388757 2.068921 1.333237
v -3.728373 1.403586 1.581125
v -3.499164 2.090963 1.200344
v -3.912385 1.440323 1.359638
v -3.581598 2.122075 1.050101
v -4.049775 1.492176 1.109233
v -3.632890 2.161061 0.888282
v -4.135262 1.557153 0.839535
v -3.651070 2.206423 0.721106
v -4.165562 1.632756 0.560908
v -3.635438 2.256418 0.554996
v -4.139509 1.716080 0.284058
v -3.586596 2.309123 0.396338
v -4.058106 1.803923 0.019627
v -3.506420 2.362515 0.251226
v -3.924479 1.892910 -0.222226
v -3.397992 2.414541 0.125239
v -3.743766 1.979619 -0.432205
v -3.265478 2.463202 0.023217
v -3.522909 2.060720 -0.602241
v -3.113971 2.506627 -0.050918
v -3.270397 2.133095 -0.725799
v -2.949294 2.543148 -0.094318
v -2.995935 2.193964 -0.798132
v -2.777773 2.571362 -0.105315
v -2.710067 2.240987 -0.816460
v -2.606002 2.590183 -0.083485
v -2.423782 2.272357 -0.780078
v -2.440580 2.598890 -0.029669
v -2.148079 2.286868 -0.690384
vn 0.396772 -0.549771 -0.735067
vn 0.498401 -0.554684 -0.666274
vn 0.585042 -0.566790 -0.580065
vn 0.653364 -0.585622 -0.479752
vn 0.700742 -0.610457 -0.369191
vn 0.725356 -0.640341 -0.252630
vn 0.726259 -0.674125 -0.134550
vn 0.703416 -0.710511 -0.019487
vn 0.657706 -0.748101 0.088137
vn 0.590885 -0.785449 0.184186
vn 0.505521 -0.821122 0.264967
vn 0.404894 -0.853747 0.327378
vn 0.292872 -0.882071 0.369020
vn 0.173760 -0.905006 0.388292
vn 0.052134 -0.921671 0.384454
vn -0.067331 -0.931424 0.357653
vn -0.180043 -0.933891 0.308920
vn -0.281673 -0.928978 0.240127
vn -0.368314 -0.916872 0.153917
vn -0.436636 -0.898040 0.053605
vn -0.484014 -0.873205 -0.056956
vn -0.508627 -0.843321 -0.173517
vn -0.509530 -0.809537 -0.291597
vn -0.486688 -0.773151 -0.406660
vn -0.440977 -0.735561 -0.514285
vn -0.374157 -0.698213 -0.610332
vn -0.288792 -0.662540 -0.691115
vn -0.188166 -0.629915 -0.753525
vn -0.076144 -0.601591 -0.795167
vn 0.042969 -0.578656 -0.814439
vn 0.164595 -0.561991 -0.810601
vn 0.284058 -0.552238 -0.783801
vn 0.199537 0.917216 -0.344819
vn 0.306644 0.912037 -0.272318
vn 0.397955 0.899279 -0.181462
vn 0.469960 0.879432 -0.075742
vn 0.519892 0.853258 0.040779
vn 0.545832 0.821764 0.163622
vn 0.546783 0.786159 0.288067
vn 0.522710 0.747812 0.409332
vn 0.474535 0.708196 0.522757
vn 0.404112 0.668834 0.623983
vn 0.314148 0.631239 0.709118
vn 0.208097 0.596855 0.774893
vn 0.090037 0.567004 0.818779
vn -0.035495 0.542833 0.839090
vn -0.163677 0.525270 0.835045
vn -0.289581 0.514991 0.806800
vn -0.408369 0.512391 0.755440
vn -0.515477 0.517570 0.682939
vn -0.606787 0.530327 0.592083
vn -0.678792 0.550175 0.486363
vn -0.728724 0.576348 0.369843
vn -0.754664 0.607843 0.246999
vn -0.755616 0.643448 0.122554
vn -0.731542 0.681796 0.001289
vn -0.683368 0.721411 -0.112136
vn -0.612945 0.760773 -0.213361
vn -0.522980 0.798368 -0.298497
vn -0.416930 0.832752 -0.364272
vn -0.298870 0.862603 -0.408158
vn -0.173337 0.886774 -0.428469
vn -0.045155 0.904337 -0.424424
vn 0.080749 0.914616 -0.396179
vn -0.139036 0.951804 0.273384
vn -0.139037 0.951804 0.273383
vn -0.139036 0.951804 0.273383
vn -0.139037 0.951803 0.273384
vn -0.139036 0.951804 0.273382
vn -0.139037 0.951804 0.273384
usemtl Material
s off
f 12//7 10//7 74//7
f 10//8 12//8 14//8
f 10//9 14//9 16//9
f 10//10 16//10 18//10
f 10//11 18//11 20//11
f 10//12 20//12 22//12
f 10//13 22//13 24//13
f 10//14 24//14 26//14
f 10//15 26//15 28//15
f 10//16 28//16 30//16
f 10//17 30//17 32//17
f 10//18 32//18 34//18
f 10//19 34//19 36//19
f 10//20 36//20 38//20
f 10//21 38//21 40//21
f 10//22 40//22 42//22
f 10//23 42//23 44//23
f 10//24 44//24 46//24
f 10//25 46//25 48//25
f 10//26 48//26 50//26
f 10//27 50//27 52//27
f 10//28 52//28 54//28
f 10//29 54//29 56//29
f 10//30 56//30 58//30
f 10//31 58//31 60//31
f 10//32 60//32 62//32
f 10//33 62//33 64//33
f 10//34 64//34 66//34
f 10//35 66//35 68//35
f 10//36 68//36 70//36
f 10//37 70//37 72//37
f 10//38 72//38 74//38
f 11//39 12//39 74//39
f 11//39 74//39 73//39
f 12//40 11//40 13//40
f 12//40 13//40 14//40
f 14//41 13//41 15//41
f 14//41 15//41 16//41
f 16//42 15//42 17//42
f 16//42 17//42 18//42
f 18//43 17//43 19//43
f 18//43 19//43 20//43
f 20//44 19//44 21//44
f 20//44 21//44 22//44
f 22//45 21//45 23//45
f 22//45 23//45 24//45
f 24//46 23//46 25//46
f 24//46 25//46 26//46
f 26//47 25//47 27//47
f 26//47 27//47 28//47
f 28//48 27//48 29//48
f 28//48 29//48 30//48
f 30//49 29//49 31//49
f 30//49 31//49 32//49
f 32//50 31//50 33//50
f 32//50 33//50 34//50
f 34//51 33//51 35//51
f 34//51 35//51 36//51
f 36//52 35//52 37//52
f 36//52 37//52 38//52
f 38//53 37//53 39//53
f 38//53 39//53 40//53
f 40//54 39//54 41//54
f 40//54 41//54 42//54
f 42//55 41//55 43//55
f 42//55 43//55 44//55
f 44//56 43//56 45//56
f 44//56 45//56 46//56
f 46//57 45//57 47//57
f 46//57 47//57 48//57
f 48//58 47//58 49//58
f 48//58 49//58 50//58
f 50//59 49//59 51//59
f 50//59 51//59 52//59
f 52//60 51//60 53//60
f 52//60 53//60 54//60
f 54//61 53//61 55//61
f 54//61 55//61 56//61
f 56//62 55//62 57//62
f 56//62 57//62 58//62
f 58//63 57//63 59//63
f 58//63 59//63 60//63
f 60//64 59//64 61//64
f 60//64 61//64 62//64
f 62//65 61//65 63//65
f 62//65 63//65 64//65
f 64//66 63//66 65//66
f 64//66 65//66 66//66
f 66//67 65//67 67//67
f 66//67 67//67 68//67
f 68//68 67//68 69//68
f 68//68 69//68 70//68
f 70//69 69//69 71//69
f 70//69 71//69 72//69
f 72//70 71//70 73//70
f 72//70 73//70 74//70
f 9//71 11//71 73//71
f 11//72 9//72 13//72
f 13//72 9//72 15//72
f 15//71 9//71 17//71
f 17//71 9//71 19//71
f 19//71 9//71 21//71
f 21//73 9//73 23//73
f 23//73 9//73 25//73
f 25//73 9//73 27//73
f 27//74 9//74 29//74
f 29//73 9//73 31//73
f 31//73 9//73 33//73
f 33//73 9//73 35//73
f 35//73 9//73 37//73
f 37//72 9//72 39//72
f 39//72 9//72 41//72
f 41//71 9//71 43//71
f 43//72 9//72 45//72
f 45//71 9//71 47//71
f 47//71 9//71 49//71
f 49//73 9//73 51//73
f 51//73 9//73 53//73
f 53//71 9//71 55//71
f 55//75 9//75 57//75
f 57//76 9//76 59//76
f 59//73 9//73 61//73
f 61//76 9//76 63//76
f 63//73 9//73 65//73
f 65//76 9//76 67//76
f 67//73 9//73 69//73
f 69//73 9//73 71//73
f 71//72 9//72 73//72
