# Blender v2.64 (sub 0) OBJ File: ''
# www.blender.org
mtllib untitled_000007.mtl
o Cube
v -8.729040 -2.858973 10.487860
v -8.729040 -2.858973 -7.293924
v 9.052744 -2.858973 -7.293924
v 9.052744 -2.858973 10.487860
v -8.729040 14.922812 10.487860
v -8.729040 14.922812 -7.293924
v 9.052744 14.922812 -7.293924
v 9.052744 14.922812 10.487860
vn -1.000000 -0.000000 0.000000
vn 0.000000 0.000000 -1.000000
vn 1.000000 -0.000000 0.000000
vn 0.000000 0.000000 1.000000
vn -0.000000 -1.000000 0.000000
vn -0.000000 1.000000 0.000000
usemtl Material.003
s off
f 2//1 1//1 5//1
f 2//1 5//1 6//1
usemtl Material.005
f 6//2 7//2 3//2
f 6//2 3//2 2//2
usemtl Material.004
f 7//3 8//3 4//3
f 7//3 4//3 3//3
usemtl Material.002
f 1//4 4//4 8//4
f 1//4 8//4 5//4
usemtl Material.001
f 1//5 2//5 3//5
f 1//5 3//5 4//5
f 8//6 7//6 6//6
f 8//6 6//6 5//6
o Diamond
v 1.602686 2.347531 1.997678
v 1.810269 0.659130 2.076151
v 2.470583 2.446695 1.835441
v 3.112359 1.998944 1.751167
v 2.484396 2.456450 2.008791
v 3.135380 2.015203 2.040084
v 2.464325 2.462020 2.181714
v 3.101929 2.024485 2.328289
v 2.411142 2.463190 2.347565
v 3.013290 2.026434 2.604706
v 2.326891 2.459915 2.499969
v 2.872871 2.020976 2.858714
v 2.214808 2.452321 2.633071
v 2.686067 2.008320 3.080550
v 2.079203 2.440700 2.741755
v 2.460058 1.988952 3.261689
v 1.925285 2.425498 2.821844
v 2.203528 1.963616 3.395172
v 1.758969 2.407301 2.870261
v 1.926335 1.933287 3.475867
v 1.586648 2.386806 2.885146
v 1.639133 1.899129 3.500674
v 1.414943 2.364803 2.865925
v 1.352958 1.862456 3.468640
v 1.250453 2.342135 2.813338
v 1.078809 1.824677 3.380995
v 1.099499 2.319674 2.729406
v 0.827218 1.787243 3.241108
v 0.967882 2.298285 2.617354
v 0.607858 1.751593 3.054354
v 0.860661 2.278788 2.481488
v 0.429155 1.719098 2.827911
v 0.781955 2.261932 2.327029
v 0.297978 1.691005 2.570480
v 0.734789 2.248366 2.159914
v 0.219369 1.668395 2.291955
v 0.720976 2.238611 1.986564
v 0.196347 1.652136 2.003038
v 0.741047 2.233041 1.813641
v 0.229798 1.642854 1.714834
v 0.794230 2.231872 1.647790
v 0.318437 1.640904 1.438416
v 0.878481 2.235147 1.495386
v 0.458856 1.646363 1.184409
v 0.990563 2.242740 1.362285
v 0.645659 1.659019 0.962573
v 1.126169 2.254361 1.253601
v 0.871669 1.678387 0.781432
v 1.280087 2.269562 1.173511
v 1.128199 1.703723 0.647950
v 1.446403 2.287760 1.125094
v 1.405392 1.734052 0.567255
v 1.618724 2.308255 1.110210
v 1.692594 1.768210 0.542448
v 1.790429 2.330258 1.129430
v 1.978769 1.804883 0.574482
v 1.954919 2.352926 1.182017
v 2.252919 1.842662 0.662127
v 2.105873 2.375386 1.265949
v 2.504508 1.880096 0.802013
v 2.237490 2.396776 1.378002
v 2.723870 1.915746 0.988768
v 2.344711 2.416274 1.513867
v 2.902572 1.948241 1.215210
v 2.423418 2.433129 1.668326
v 3.033749 1.976334 1.472642
vn 0.693275 -0.707288 -0.138250
vn 0.714879 -0.699026 -0.017626
vn 0.712662 -0.693596 0.105056
vn 0.686709 -0.691209 0.225081
vn 0.638017 -0.691955 0.337836
vn 0.568457 -0.695805 0.438990
vn 0.480703 -0.702613 0.524652
vn 0.378128 -0.712116 0.591532
vn 0.264671 -0.723949 0.637061
vn 0.144694 -0.737657 0.659489
vn 0.022809 -0.752714 0.657952
vn -0.096302 -0.768541 0.632512
vn -0.208062 -0.784529 0.584144
vn -0.308175 -0.800065 0.514708
vn -0.392793 -0.814551 0.426873
vn -0.458666 -0.827431 0.324013
vn -0.503261 -0.838209 0.210082
vn -0.524866 -0.846471 0.089457
vn -0.522648 -0.851901 -0.033224
vn -0.496695 -0.854288 -0.153249
vn -0.448003 -0.853542 -0.266004
vn -0.378444 -0.849692 -0.367157
vn -0.290690 -0.842884 -0.452820
vn -0.188113 -0.833381 -0.519701
vn -0.074657 -0.821548 -0.565230
vn 0.045319 -0.807840 -0.587657
vn 0.167205 -0.792783 -0.586121
vn 0.286316 -0.776956 -0.560680
vn 0.398076 -0.760968 -0.512312
vn 0.498188 -0.745432 -0.442876
vn 0.582807 -0.730946 -0.355041
vn 0.648680 -0.718066 -0.252181
vn 0.538970 0.813583 -0.218160
vn 0.561738 0.822291 -0.091035
vn 0.559402 0.828013 0.038260
vn 0.532050 0.830529 0.164754
vn 0.480734 0.829743 0.283587
vn 0.407424 0.825685 0.390192
vn 0.314940 0.818511 0.480472
vn 0.206836 0.808495 0.550958
vn 0.087264 0.796025 0.598941
vn -0.039180 0.781577 0.622577
vn -0.167635 0.765709 0.620958
vn -0.293167 0.749029 0.594145
vn -0.410950 0.732179 0.543171
vn -0.516459 0.715806 0.469992
vn -0.605638 0.700539 0.377423
vn -0.675062 0.686965 0.269018
vn -0.722061 0.675606 0.148946
vn -0.744829 0.666898 0.021820
vn -0.742493 0.661176 -0.107474
vn -0.715141 0.658660 -0.233968
vn -0.663824 0.659446 -0.352802
vn -0.590516 0.663504 -0.459406
vn -0.498031 0.670678 -0.549686
vn -0.389927 0.680694 -0.620172
vn -0.270354 0.693164 -0.668155
vn -0.143911 0.707612 -0.691791
vn -0.015455 0.723480 -0.690172
vn 0.110076 0.740160 -0.663360
vn 0.227859 0.757010 -0.612385
vn 0.333368 0.773383 -0.539207
vn 0.422547 0.788650 -0.446637
vn 0.491971 0.802224 -0.338233
vn -0.121898 0.991472 -0.046082
vn -0.121898 0.991472 -0.046081
vn -0.121899 0.991472 -0.046080
vn -0.121899 0.991472 -0.046082
vn -0.121899 0.991472 -0.046081
vn -0.121897 0.991472 -0.046082
usemtl Material
s off
f 12//7 10//7 74//7
f 10//8 12//8 14//8
f 10//9 14//9 16//9
f 10//10 16//10 18//10
f 10//11 18//11 20//11
f 10//12 20//12 22//12
f 10//13 22//13 24//13
f 10//14 24//14 26//14
f 10//15 26//15 28//15
f 10//16 28//16 30//16
f 10//17 30//17 32//17
f 10//18 32//18 34//18
f 10//19 34//19 36//19
f 10//20 36//20 38//20
f 10//21 38//21 40//21
f 10//22 40//22 42//22
f 10//23 42//23 44//23
f 10//24 44//24 46//24
f 10//25 46//25 48//25
f 10//26 48//26 50//26
f 10//27 50//27 52//27
f 10//28 52//28 54//28
f 10//29 54//29 56//29
f 10//30 56//30 58//30
f 10//31 58//31 60//31
f 10//32 60//32 62//32
f 10//33 62//33 64//33
f 10//34 64//34 66//34
f 10//35 66//35 68//35
f 10//36 68//36 70//36
f 10//37 70//37 72//37
f 10//38 72//38 74//38
f 11//39 12//39 74//39
f 11//39 74//39 73//39
f 12//40 11//40 13//40
f 12//40 13//40 14//40
f 14//41 13//41 15//41
f 14//41 15//41 16//41
f 16//42 15//42 17//42
f 16//42 17//42 18//42
f 18//43 17//43 19//43
f 18//43 19//43 20//43
f 20//44 19//44 21//44
f 20//44 21//44 22//44
f 22//45 21//45 23//45
f 22//45 23//45 24//45
f 24//46 23//46 25//46
f 24//46 25//46 26//46
f 26//47 25//47 27//47
f 26//47 27//47 28//47
f 28//48 27//48 29//48
f 28//48 29//48 30//48
f 30//49 29//49 31//49
f 30//49 31//49 32//49
f 32//50 31//50 33//50
f 32//50 33//50 34//50
f 34//51 33//51 35//51
f 34//51 35//51 36//51
f 36//52 35//52 37//52
f 36//52 37//52 38//52
f 38//53 37//53 39//53
f 38//53 39//53 40//53
f 40//54 39//54 41//54
f 40//54 41//54 42//54
f 42//55 41//55 43//55
f 42//55 43//55 44//55
f 44//56 43//56 45//56
f 44//56 45//56 46//56
f 46//57 45//57 47//57
f 46//57 47//57 48//57
f 48//58 47//58 49//58
f 48//58 49//58 50//58
f 50//59 49//59 51//59
f 50//59 51//59 52//59
f 52//60 51//60 53//60
f 52//60 53//60 54//60
f 54//61 53//61 55//61
f 54//61 55//61 56//61
f 56//62 55//62 57//62
f 56//62 57//62 58//62
f 58//63 57//63 59//63
f 58//63 59//63 60//63
f 60//64 59//64 61//64
f 60//64 61//64 62//64
f 62//65 61//65 63//65
f 62//65 63//65 64//65
f 64//66 63//66 65//66
f 64//66 65//66 66//66
f 66//67 65//67 67//67
f 66//67 67//67 68//67
f 68//68 67//68 69//68
f 68//68 69//68 70//68
f 70//69 69//69 71//69
f 70//69 71//69 72//69
f 72//70 71//70 73//70
f 72//70 73//70 74//70
f 9//71 11//71 73//71
f 11//71 9//71 13//71
f 13//72 9//72 15//72
f 15//72 9//72 17//72
f 17//71 9//71 19//71
f 19//73 9//73 21//73
f 21//71 9//71 23//71
f 23//71 9//71 25//71
f 25//71 9//71 27//71
f 27//71 9//71 29//71
f 29//71 9//71 31//71
f 31//74 9//74 33//74
f 33//74 9//74 35//74
f 35//72 9//72 37//72
f 37//72 9//72 39//72
f 39//74 9//74 41//74
f 41//72 9//72 43//72
f 43//72 9//72 45//72
f 45//72 9//72 47//72
f 47//72 9//72 49//72
f 49//71 9//71 51//71
f 51//72 9//72 53//72
f 53//71 9//71 55//71
f 55//74 9//74 57//74
f 57//75 9//75 59//75
f 59//71 9//71 61//71
f 61//76 9//76 63//76
f 63//71 9//71 65//71
f 65//71 9//71 67//71
f 67//74 9//74 69//74
f 69//74 9//74 71//74
f 71//72 9//72 73//72
