# Blender v2.64 (sub 0) OBJ File: ''
# www.blender.org
mtllib untitled_000031.mtl
o Cube
v -8.729040 -2.858973 10.487860
v -8.729040 -2.858973 -7.293924
v 9.052744 -2.858973 -7.293924
v 9.052744 -2.858973 10.487860
v -8.729040 14.922812 10.487860
v -8.729040 14.922812 -7.293924
v 9.052744 14.922812 -7.293924
v 9.052744 14.922812 10.487860
vn -1.000000 -0.000000 0.000000
vn 0.000000 0.000000 -1.000000
vn 1.000000 -0.000000 0.000000
vn 0.000000 0.000000 1.000000
vn -0.000000 -1.000000 0.000000
vn -0.000000 1.000000 0.000000
usemtl Material.003
s off
f 2//1 1//1 5//1
f 2//1 5//1 6//1
usemtl Material.005
f 6//2 7//2 3//2
f 6//2 3//2 2//2
usemtl Material.004
f 7//3 8//3 4//3
f 7//3 4//3 3//3
usemtl Material.002
f 1//4 4//4 8//4
f 1//4 8//4 5//4
usemtl Material.001
f 1//5 2//5 3//5
f 1//5 3//5 4//5
f 8//6 7//6 6//6
f 8//6 6//6 5//6
o Diamond
v -2.943228 2.263585 1.727758
v -2.141365 0.851005 1.216309
v -2.554819 2.721241 1.072709
v -2.051834 2.596429 0.480351
v -2.429461 2.749864 1.190192
v -1.842905 2.644134 0.676157
v -2.323848 2.759799 1.328334
v -1.666883 2.660694 0.906394
v -2.242037 2.750666 1.481826
v -1.530531 2.645471 1.162213
v -2.187172 2.722814 1.644769
v -1.439089 2.599051 1.433784
v -2.161362 2.677315 1.810901
v -1.396073 2.523219 1.710671
v -2.165598 2.615916 1.973837
v -1.403134 2.420887 1.982232
v -2.199719 2.540977 2.127317
v -1.460001 2.295989 2.238032
v -2.262412 2.455378 2.265442
v -1.564490 2.153324 2.468240
v -2.351269 2.362408 2.382905
v -1.712584 1.998375 2.664011
v -2.462874 2.265641 2.475190
v -1.898592 1.837096 2.817820
v -2.592938 2.168795 2.538752
v -2.115367 1.675686 2.923756
v -2.736465 2.075591 2.571148
v -2.354578 1.520347 2.977749
v -2.887937 1.989613 2.571133
v -2.607031 1.377049 2.977724
v -3.041534 1.914162 2.538707
v -2.863026 1.251298 2.923682
v -3.191353 1.852140 2.475117
v -3.112725 1.147928 2.817698
v -3.331637 1.805929 2.382807
v -3.346531 1.070910 2.663848
v -3.456994 1.777306 2.265323
v -3.555459 1.023205 2.468041
v -3.562608 1.767370 2.127181
v -3.731482 1.006645 2.237805
v -3.644419 1.776504 1.973689
v -3.867835 1.021868 1.981985
v -3.699284 1.804356 1.810747
v -3.959276 1.068287 1.710415
v -3.725094 1.849855 1.644615
v -4.002293 1.144120 1.433529
v -3.720857 1.911254 1.481678
v -3.995232 1.246452 1.161967
v -3.686737 1.986193 1.328198
v -3.938364 1.371350 0.906167
v -3.624043 2.071792 1.190073
v -3.833875 1.514015 0.675958
v -3.535187 2.164762 1.072611
v -3.685781 1.668964 0.480188
v -3.423582 2.261529 0.980325
v -3.499772 1.830243 0.326379
v -3.293517 2.358375 0.916763
v -3.282998 1.991653 0.220442
v -3.149991 2.451578 0.884368
v -3.043788 2.146991 0.166449
v -2.998518 2.537557 0.884383
v -2.791334 2.290290 0.166474
v -2.844922 2.613008 0.916808
v -2.535339 2.416040 0.220517
v -2.695102 2.675030 0.980398
v -2.285640 2.519411 0.326500
vn 0.592517 -0.338595 -0.730943
vn 0.686631 -0.312082 -0.656615
vn 0.768462 -0.298421 -0.566049
vn 0.834866 -0.298136 -0.462725
vn 0.883289 -0.311240 -0.350614
vn 0.911871 -0.337228 -0.234026
vn 0.919515 -0.375101 -0.117439
vn 0.905925 -0.423404 -0.005336
vn 0.871624 -0.480282 0.097978
vn 0.817932 -0.543547 0.188531
vn 0.746910 -0.610770 0.262843
vn 0.661287 -0.679366 0.318058
vn 0.564356 -0.746699 0.352056
vn 0.459841 -0.810182 0.363528
vn 0.351757 -0.867375 0.352034
vn 0.244259 -0.916080 0.318017
vn 0.141478 -0.954426 0.262782
vn 0.047363 -0.980939 0.188454
vn -0.034468 -0.994600 0.097888
vn -0.100871 -0.994885 -0.005436
vn -0.149294 -0.981781 -0.117546
vn -0.177877 -0.955793 -0.234135
vn -0.185520 -0.917920 -0.350721
vn -0.171930 -0.869616 -0.462826
vn -0.137630 -0.812739 -0.566139
vn -0.083937 -0.749474 -0.656692
vn -0.012915 -0.682251 -0.731004
vn 0.072707 -0.613656 -0.786219
vn 0.169638 -0.546322 -0.820216
vn 0.274153 -0.482840 -0.831689
vn 0.382237 -0.425646 -0.820195
vn 0.489735 -0.376941 -0.786177
vn -0.115952 0.947469 -0.298092
vn -0.016764 0.975411 -0.219757
vn 0.069478 0.989808 -0.124309
vn 0.139460 0.990108 -0.015417
vn 0.190494 0.976298 0.102737
vn 0.220617 0.948909 0.225609
vn 0.228672 0.908994 0.348480
vn 0.214350 0.858087 0.466626
vn 0.178201 0.798144 0.575509
vn 0.121614 0.731469 0.670942
vn 0.046764 0.660623 0.749259
vn -0.043473 0.588330 0.807452
vn -0.145629 0.517367 0.843281
vn -0.255779 0.450463 0.855372
vn -0.369687 0.390187 0.843259
vn -0.482980 0.338856 0.807407
vn -0.591301 0.298443 0.749196
vn -0.690489 0.270501 0.670861
vn -0.776730 0.256104 0.575414
vn -0.846713 0.255804 0.466521
vn -0.897746 0.269614 0.348367
vn -0.927869 0.297002 0.225496
vn -0.935925 0.336918 0.102624
vn -0.921602 0.387825 -0.015523
vn -0.885453 0.447767 -0.124405
vn -0.828867 0.514443 -0.219838
vn -0.754016 0.585289 -0.298156
vn -0.663780 0.657581 -0.356347
vn -0.561624 0.728544 -0.392177
vn -0.451474 0.795449 -0.404267
vn -0.337565 0.855725 -0.392154
vn -0.224272 0.907056 -0.356303
vn -0.470875 0.829503 0.300335
vn -0.470874 0.829503 0.300337
vn -0.470874 0.829503 0.300336
vn -0.470875 0.829503 0.300337
vn -0.470874 0.829504 0.300336
vn -0.470875 0.829503 0.300336
usemtl Material
s off
f 12//7 10//7 74//7
f 10//8 12//8 14//8
f 10//9 14//9 16//9
f 10//10 16//10 18//10
f 10//11 18//11 20//11
f 10//12 20//12 22//12
f 10//13 22//13 24//13
f 10//14 24//14 26//14
f 10//15 26//15 28//15
f 10//16 28//16 30//16
f 10//17 30//17 32//17
f 10//18 32//18 34//18
f 10//19 34//19 36//19
f 10//20 36//20 38//20
f 10//21 38//21 40//21
f 10//22 40//22 42//22
f 10//23 42//23 44//23
f 10//24 44//24 46//24
f 10//25 46//25 48//25
f 10//26 48//26 50//26
f 10//27 50//27 52//27
f 10//28 52//28 54//28
f 10//29 54//29 56//29
f 10//30 56//30 58//30
f 10//31 58//31 60//31
f 10//32 60//32 62//32
f 10//33 62//33 64//33
f 10//34 64//34 66//34
f 10//35 66//35 68//35
f 10//36 68//36 70//36
f 10//37 70//37 72//37
f 10//38 72//38 74//38
f 11//39 12//39 74//39
f 11//39 74//39 73//39
f 12//40 11//40 13//40
f 12//40 13//40 14//40
f 14//41 13//41 15//41
f 14//41 15//41 16//41
f 16//42 15//42 17//42
f 16//42 17//42 18//42
f 18//43 17//43 19//43
f 18//43 19//43 20//43
f 20//44 19//44 21//44
f 20//44 21//44 22//44
f 22//45 21//45 23//45
f 22//45 23//45 24//45
f 24//46 23//46 25//46
f 24//46 25//46 26//46
f 26//47 25//47 27//47
f 26//47 27//47 28//47
f 28//48 27//48 29//48
f 28//48 29//48 30//48
f 30//49 29//49 31//49
f 30//49 31//49 32//49
f 32//50 31//50 33//50
f 32//50 33//50 34//50
f 34//51 33//51 35//51
f 34//51 35//51 36//51
f 36//52 35//52 37//52
f 36//52 37//52 38//52
f 38//53 37//53 39//53
f 38//53 39//53 40//53
f 40//54 39//54 41//54
f 40//54 41//54 42//54
f 42//55 41//55 43//55
f 42//55 43//55 44//55
f 44//56 43//56 45//56
f 44//56 45//56 46//56
f 46//57 45//57 47//57
f 46//57 47//57 48//57
f 48//58 47//58 49//58
f 48//58 49//58 50//58
f 50//59 49//59 51//59
f 50//59 51//59 52//59
f 52//60 51//60 53//60
f 52//60 53//60 54//60
f 54//61 53//61 55//61
f 54//61 55//61 56//61
f 56//62 55//62 57//62
f 56//62 57//62 58//62
f 58//63 57//63 59//63
f 58//63 59//63 60//63
f 60//64 59//64 61//64
f 60//64 61//64 62//64
f 62//65 61//65 63//65
f 62//65 63//65 64//65
f 64//66 63//66 65//66
f 64//66 65//66 66//66
f 66//67 65//67 67//67
f 66//67 67//67 68//67
f 68//68 67//68 69//68
f 68//68 69//68 70//68
f 70//69 69//69 71//69
f 70//69 71//69 72//69
f 72//70 71//70 73//70
f 72//70 73//70 74//70
f 9//71 11//71 73//71
f 11//72 9//72 13//72
f 13//71 9//71 15//71
f 15//71 9//71 17//71
f 17//72 9//72 19//72
f 19//73 9//73 21//73
f 21//73 9//73 23//73
f 23//73 9//73 25//73
f 25//73 9//73 27//73
f 27//74 9//74 29//74
f 29//75 9//75 31//75
f 31//76 9//76 33//76
f 33//76 9//76 35//76
f 35//73 9//73 37//73
f 37//73 9//73 39//73
f 39//76 9//76 41//76
f 41//73 9//73 43//73
f 43//73 9//73 45//73
f 45//76 9//76 47//76
f 47//72 9//72 49//72
f 49//76 9//76 51//76
f 51//74 9//74 53//74
f 53//76 9//76 55//76
f 55//76 9//76 57//76
f 57//76 9//76 59//76
f 59//76 9//76 61//76
f 61//73 9//73 63//73
f 63//73 9//73 65//73
f 65//76 9//76 67//76
f 67//76 9//76 69//76
f 69//73 9//73 71//73
f 71//73 9//73 73//73
