# Blender v2.64 (sub 0) OBJ File: ''
# www.blender.org
mtllib untitled_000016.mtl
o Cube
v -8.729040 -2.858973 10.487860
v -8.729040 -2.858973 -7.293924
v 9.052744 -2.858973 -7.293924
v 9.052744 -2.858973 10.487860
v -8.729040 14.922812 10.487860
v -8.729040 14.922812 -7.293924
v 9.052744 14.922812 -7.293924
v 9.052744 14.922812 10.487860
vn -1.000000 -0.000000 0.000000
vn 0.000000 0.000000 -1.000000
vn 1.000000 -0.000000 0.000000
vn 0.000000 0.000000 1.000000
vn -0.000000 -1.000000 0.000000
vn -0.000000 1.000000 0.000000
usemtl Material.003
s off
f 2//1 1//1 5//1
f 2//1 5//1 6//1
usemtl Material.005
f 6//2 7//2 3//2
f 6//2 3//2 2//2
usemtl Material.004
f 7//3 8//3 4//3
f 7//3 4//3 3//3
usemtl Material.002
f 1//4 4//4 8//4
f 1//4 8//4 5//4
usemtl Material.001
f 1//5 2//5 3//5
f 1//5 3//5 4//5
f 8//6 7//6 6//6
f 8//6 6//6 5//6
o Diamond
v -1.487868 2.278132 2.073841
v -0.628950 0.817755 1.902064
v -0.918660 2.677930 1.521063
v -0.277779 2.500000 1.100264
v -0.829248 2.713440 1.666255
v -0.128759 2.559183 1.342251
v -0.765146 2.732221 1.827110
v -0.021922 2.590484 1.610343
v -0.728818 2.733551 1.997447
v 0.038625 2.592702 1.894238
v -0.721660 2.717380 2.170719
v 0.050555 2.565750 2.183026
v -0.743946 2.684329 2.340269
v 0.013411 2.510665 2.465609
v -0.794821 2.635668 2.499580
v -0.071381 2.429564 2.731126
v -0.872330 2.573267 2.642530
v -0.200562 2.325562 2.969377
v -0.973493 2.499525 2.763626
v -0.369167 2.202657 3.171203
v -1.094424 2.417274 2.858213
v -0.570718 2.065573 3.328849
v -1.230474 2.329676 2.922658
v -0.797468 1.919576 3.436257
v -1.376415 2.240097 2.954483
v -1.040704 1.770278 3.489298
v -1.526641 2.151980 2.952466
v -1.291079 1.623416 3.485936
v -1.675375 2.068711 2.916683
v -1.538970 1.484634 3.426298
v -1.816904 1.993489 2.848510
v -1.774852 1.359266 3.312677
v -1.945788 1.929207 2.750567
v -1.989659 1.252128 3.149439
v -2.057075 1.878333 2.626619
v -2.175137 1.167339 2.942858
v -2.146487 1.842824 2.481427
v -2.324157 1.108156 2.700871
v -2.210589 1.824043 2.320572
v -2.430994 1.076855 2.432780
v -2.246917 1.822712 2.150234
v -2.491540 1.074637 2.148884
v -2.254076 1.838883 1.976962
v -2.503471 1.101589 1.860097
v -2.231789 1.871934 1.807413
v -2.466327 1.156674 1.577514
v -2.180914 1.920595 1.648101
v -2.381535 1.237775 1.311995
v -2.103405 1.982996 1.505151
v -2.252354 1.341777 1.073746
v -2.002242 2.056739 1.384055
v -2.083748 1.464682 0.871919
v -1.881312 2.138990 1.289468
v -1.882198 1.601766 0.714273
v -1.745261 2.226588 1.225023
v -1.655447 1.747763 0.606865
v -1.599320 2.316166 1.193198
v -1.412211 1.897061 0.553823
v -1.449095 2.404284 1.195216
v -1.161837 2.043922 0.557186
v -1.300360 2.487553 1.230998
v -0.913945 2.182705 0.616824
v -1.158831 2.562774 1.299171
v -0.678064 2.308073 0.730445
v -1.029947 2.627057 1.397114
v -0.463257 2.415211 0.893683
vn 0.757014 -0.403119 -0.514223
vn 0.828120 -0.372514 -0.418868
vn 0.882509 -0.353280 -0.310439
vn 0.918090 -0.346154 -0.193099
vn 0.933497 -0.351412 -0.071361
vn 0.928137 -0.368851 0.050098
vn 0.902217 -0.397801 0.166612
vn 0.856732 -0.437149 0.273700
vn 0.793429 -0.485384 0.367249
vn 0.714743 -0.540651 0.443664
vn 0.623697 -0.600828 0.500008
vn 0.523790 -0.663600 0.534116
vn 0.418860 -0.726556 0.544676
vn 0.312941 -0.787277 0.531284
vn 0.210102 -0.843429 0.494453
vn 0.114297 -0.892854 0.435600
vn 0.029207 -0.933653 0.356986
vn -0.041900 -0.964258 0.261631
vn -0.096289 -0.983493 0.153201
vn -0.131870 -0.990618 0.035862
vn -0.147277 -0.985360 -0.085876
vn -0.141917 -0.967921 -0.207335
vn -0.115997 -0.938972 -0.323848
vn -0.070511 -0.899623 -0.430937
vn -0.007209 -0.851388 -0.524486
vn 0.071477 -0.796121 -0.600902
vn 0.162523 -0.735945 -0.657246
vn 0.262431 -0.673173 -0.691353
vn 0.367360 -0.610216 -0.701914
vn 0.473280 -0.549495 -0.688521
vn 0.576117 -0.493343 -0.651691
vn 0.671923 -0.443918 -0.592837
vn 0.004730 0.923599 -0.383330
vn 0.079669 0.955854 -0.282835
vn 0.136990 0.976126 -0.168560
vn 0.174489 0.983635 -0.044897
vn 0.190727 0.978094 0.083403
vn 0.185078 0.959715 0.211410
vn 0.157760 0.929204 0.334202
vn 0.109823 0.887735 0.447063
vn 0.043109 0.836900 0.545655
vn -0.039818 0.778654 0.626189
vn -0.135772 0.715235 0.685569
vn -0.241065 0.649079 0.721515
vn -0.351650 0.582729 0.732645
vn -0.463279 0.518735 0.718531
vn -0.571660 0.459557 0.679715
vn -0.672629 0.407467 0.617690
vn -0.762306 0.364470 0.534838
vn -0.837245 0.332215 0.434343
vn -0.894565 0.311943 0.320069
vn -0.932065 0.304434 0.196405
vn -0.948302 0.309975 0.068106
vn -0.942654 0.328354 -0.059900
vn -0.915336 0.358864 -0.182693
vn -0.867398 0.400334 -0.295555
vn -0.800685 0.451168 -0.394146
vn -0.717757 0.509415 -0.474680
vn -0.621803 0.572834 -0.534061
vn -0.516510 0.638991 -0.570007
vn -0.405926 0.705340 -0.581137
vn -0.294298 0.769334 -0.567023
vn -0.185916 0.828512 -0.528207
vn -0.084946 0.880602 -0.466181
vn -0.504379 0.857570 0.100871
vn -0.504378 0.857571 0.100872
vn -0.504379 0.857571 0.100871
vn -0.504379 0.857570 0.100872
vn -0.504378 0.857571 0.100871
vn -0.504380 0.857570 0.100872
usemtl Material
s off
f 12//7 10//7 74//7
f 10//8 12//8 14//8
f 10//9 14//9 16//9
f 10//10 16//10 18//10
f 10//11 18//11 20//11
f 10//12 20//12 22//12
f 10//13 22//13 24//13
f 10//14 24//14 26//14
f 10//15 26//15 28//15
f 10//16 28//16 30//16
f 10//17 30//17 32//17
f 10//18 32//18 34//18
f 10//19 34//19 36//19
f 10//20 36//20 38//20
f 10//21 38//21 40//21
f 10//22 40//22 42//22
f 10//23 42//23 44//23
f 10//24 44//24 46//24
f 10//25 46//25 48//25
f 10//26 48//26 50//26
f 10//27 50//27 52//27
f 10//28 52//28 54//28
f 10//29 54//29 56//29
f 10//30 56//30 58//30
f 10//31 58//31 60//31
f 10//32 60//32 62//32
f 10//33 62//33 64//33
f 10//34 64//34 66//34
f 10//35 66//35 68//35
f 10//36 68//36 70//36
f 10//37 70//37 72//37
f 10//38 72//38 74//38
f 11//39 12//39 74//39
f 11//39 74//39 73//39
f 12//40 11//40 13//40
f 12//40 13//40 14//40
f 14//41 13//41 15//41
f 14//41 15//41 16//41
f 16//42 15//42 17//42
f 16//42 17//42 18//42
f 18//43 17//43 19//43
f 18//43 19//43 20//43
f 20//44 19//44 21//44
f 20//44 21//44 22//44
f 22//45 21//45 23//45
f 22//45 23//45 24//45
f 24//46 23//46 25//46
f 24//46 25//46 26//46
f 26//47 25//47 27//47
f 26//47 27//47 28//47
f 28//48 27//48 29//48
f 28//48 29//48 30//48
f 30//49 29//49 31//49
f 30//49 31//49 32//49
f 32//50 31//50 33//50
f 32//50 33//50 34//50
f 34//51 33//51 35//51
f 34//51 35//51 36//51
f 36//52 35//52 37//52
f 36//52 37//52 38//52
f 38//53 37//53 39//53
f 38//53 39//53 40//53
f 40//54 39//54 41//54
f 40//54 41//54 42//54
f 42//55 41//55 43//55
f 42//55 43//55 44//55
f 44//56 43//56 45//56
f 44//56 45//56 46//56
f 46//57 45//57 47//57
f 46//57 47//57 48//57
f 48//58 47//58 49//58
f 48//58 49//58 50//58
f 50//59 49//59 51//59
f 50//59 51//59 52//59
f 52//60 51//60 53//60
f 52//60 53//60 54//60
f 54//61 53//61 55//61
f 54//61 55//61 56//61
f 56//62 55//62 57//62
f 56//62 57//62 58//62
f 58//63 57//63 59//63
f 58//63 59//63 60//63
f 60//64 59//64 61//64
f 60//64 61//64 62//64
f 62//65 61//65 63//65
f 62//65 63//65 64//65
f 64//66 63//66 65//66
f 64//66 65//66 66//66
f 66//67 65//67 67//67
f 66//67 67//67 68//67
f 68//68 67//68 69//68
f 68//68 69//68 70//68
f 70//69 69//69 71//69
f 70//69 71//69 72//69
f 72//70 71//70 73//70
f 72//70 73//70 74//70
f 9//71 11//71 73//71
f 11//71 9//71 13//71
f 13//72 9//72 15//72
f 15//73 9//73 17//73
f 17//73 9//73 19//73
f 19//74 9//74 21//74
f 21//75 9//75 23//75
f 23//75 9//75 25//75
f 25//71 9//71 27//71
f 27//76 9//76 29//76
f 29//75 9//75 31//75
f 31//71 9//71 33//71
f 33//73 9//73 35//73
f 35//75 9//75 37//75
f 37//71 9//71 39//71
f 39//73 9//73 41//73
f 41//72 9//72 43//72
f 43//71 9//71 45//71
f 45//73 9//73 47//73
f 47//72 9//72 49//72
f 49//73 9//73 51//73
f 51//74 9//74 53//74
f 53//71 9//71 55//71
f 55//75 9//75 57//75
f 57//74 9//74 59//74
f 59//75 9//75 61//75
f 61//71 9//71 63//71
f 63//75 9//75 65//75
f 65//71 9//71 67//71
f 67//75 9//75 69//75
f 69//75 9//75 71//75
f 71//75 9//75 73//75
