# Blender v2.64 (sub 0) OBJ File: ''
# www.blender.org
mtllib untitled_000081.mtl
o Cube
v -8.729040 -2.858973 10.487860
v -8.729040 -2.858973 -7.293924
v 9.052744 -2.858973 -7.293924
v 9.052744 -2.858973 10.487860
v -8.729040 14.922812 10.487860
v -8.729040 14.922812 -7.293924
v 9.052744 14.922812 -7.293924
v 9.052744 14.922812 10.487860
vn -1.000000 -0.000000 0.000000
vn 0.000000 0.000000 -1.000000
vn 1.000000 -0.000000 0.000000
vn 0.000000 0.000000 1.000000
vn -0.000000 -1.000000 0.000000
vn -0.000000 1.000000 0.000000
usemtl Material.003
s off
f 2//1 1//1 5//1
f 2//1 5//1 6//1
usemtl Material.005
f 6//2 7//2 3//2
f 6//2 3//2 2//2
usemtl Material.004
f 7//3 8//3 4//3
f 7//3 4//3 3//3
usemtl Material.002
f 1//4 4//4 8//4
f 1//4 8//4 5//4
usemtl Material.001
f 1//5 2//5 3//5
f 1//5 3//5 4//5
f 8//6 7//6 6//6
f 8//6 6//6 5//6
o Diamond
v 4.195036 2.966353 -0.357344
v 5.066888 1.588098 -0.847479
v 3.539271 2.750405 -0.916574
v 3.367440 2.186970 -1.438565
v 3.628046 2.847233 -1.030940
v 3.515398 2.348350 -1.629175
v 3.738609 2.948638 -1.119420
v 3.699671 2.517359 -1.776643
v 3.866713 3.050724 -1.178615
v 3.913177 2.687502 -1.875300
v 4.007434 3.149568 -1.206248
v 4.147713 2.852242 -1.921355
v 4.155365 3.241371 -1.201258
v 4.394264 3.005247 -1.913039
v 4.304820 3.322605 -1.163838
v 4.643356 3.140637 -1.850671
v 4.450057 3.390149 -1.095424
v 4.885416 3.253210 -1.736648
v 4.585493 3.441406 -0.998646
v 5.111143 3.338639 -1.575352
v 4.705924 3.474408 -0.877223
v 5.311861 3.393642 -1.372981
v 4.806722 3.487885 -0.735822
v 5.479858 3.416104 -1.137312
v 4.884013 3.481320 -0.579876
v 5.608676 3.405162 -0.877402
v 4.934827 3.454965 -0.415378
v 5.693367 3.361237 -0.603239
v 4.957211 3.409833 -0.248650
v 5.730674 3.286017 -0.325359
v 4.950306 3.347659 -0.086099
v 5.719165 3.182393 -0.054441
v 4.914376 3.270831 0.066028
v 5.659281 3.054346 0.199104
v 4.850802 3.182302 0.201885
v 5.553325 2.906798 0.425533
v 4.762027 3.085474 0.316251
v 5.405367 2.745419 0.616143
v 4.651464 2.984069 0.404732
v 5.221095 2.576410 0.763611
v 4.523359 2.881983 0.463926
v 5.007587 2.406266 0.862268
v 4.382638 2.783139 0.491559
v 4.773052 2.241527 0.908323
v 4.234708 2.691336 0.486570
v 4.526502 2.088522 0.900008
v 4.085252 2.610101 0.449149
v 4.277409 1.953131 0.837640
v 3.940016 2.542558 0.380735
v 4.035349 1.840559 0.723617
v 3.804580 2.491300 0.283957
v 3.809622 1.755129 0.562320
v 3.684149 2.458299 0.162535
v 3.608904 1.700127 0.359950
v 3.583351 2.444822 0.021133
v 3.440907 1.677665 0.124280
v 3.506060 2.451387 -0.134812
v 3.312089 1.688607 -0.135630
v 3.455246 2.477741 -0.299310
v 3.227398 1.732531 -0.409792
v 3.432861 2.522873 -0.466038
v 3.190091 1.807751 -0.687673
v 3.439767 2.585048 -0.628589
v 3.201600 1.911375 -0.958590
v 3.475697 2.661876 -0.780717
v 3.261484 2.039422 -1.212136
vn -0.088159 -0.815184 -0.572454
vn -0.034183 -0.749513 -0.661106
vn 0.036440 -0.679281 -0.732973
vn 0.120999 -0.607185 -0.785293
vn 0.216242 -0.535997 -0.816055
vn 0.318508 -0.468453 -0.824078
vn 0.423871 -0.407147 -0.809052
vn 0.528277 -0.354436 -0.771556
vn 0.627717 -0.312346 -0.713030
vn 0.718370 -0.282493 -0.635722
vn 0.796748 -0.266027 -0.542607
vn 0.859844 -0.263578 -0.437258
vn 0.905231 -0.275241 -0.323728
vn 0.931165 -0.300568 -0.206377
vn 0.936649 -0.338586 -0.089717
vn 0.921472 -0.387834 0.021772
vn 0.886219 -0.446418 0.123803
vn 0.832243 -0.512089 0.212455
vn 0.761619 -0.582320 0.284322
vn 0.677061 -0.654417 0.336642
vn 0.581817 -0.725605 0.367405
vn 0.479551 -0.793149 0.375427
vn 0.374189 -0.854455 0.360401
vn 0.269782 -0.907166 0.322905
vn 0.170342 -0.949256 0.264379
vn 0.079691 -0.979108 0.187072
vn 0.001310 -0.995576 0.093955
vn -0.061785 -0.998024 -0.011392
vn -0.107171 -0.986361 -0.124923
vn -0.133105 -0.961034 -0.242273
vn -0.138589 -0.923016 -0.358935
vn -0.123413 -0.873769 -0.470423
vn -0.897941 0.413497 -0.150740
vn -0.841055 0.482708 -0.244171
vn -0.766625 0.556726 -0.319912
vn -0.677509 0.632707 -0.375052
vn -0.577133 0.707732 -0.407472
vn -0.469352 0.778918 -0.415927
vn -0.358312 0.843528 -0.400092
vn -0.248278 0.899080 -0.360574
vn -0.143478 0.943439 -0.298894
vn -0.047940 0.974900 -0.217419
vn 0.034664 0.992255 -0.119284
vn 0.101161 0.994836 -0.008257
vn 0.148994 0.982544 0.111392
vn 0.176326 0.955851 0.235068
vn 0.182106 0.915784 0.358017
vn 0.166111 0.863882 0.475515
vn 0.128958 0.802140 0.583045
vn 0.072072 0.732930 0.676476
vn -0.002359 0.658912 0.752216
vn -0.091474 0.582930 0.807356
vn -0.191851 0.507905 0.839777
vn -0.299630 0.436720 0.848232
vn -0.410671 0.372110 0.832396
vn -0.520705 0.316558 0.792879
vn -0.625506 0.272198 0.731198
vn -0.721043 0.240737 0.649725
vn -0.803648 0.223383 0.551589
vn -0.870144 0.220802 0.440563
vn -0.917977 0.233094 0.320913
vn -0.945309 0.259786 0.197237
vn -0.951089 0.299853 0.074287
vn -0.935094 0.351755 -0.043210
vn -0.511974 0.809347 0.287820
vn -0.511973 0.809348 0.287819
vn -0.511973 0.809347 0.287820
vn -0.511975 0.809346 0.287820
vn -0.511973 0.809348 0.287820
vn -0.511973 0.809347 0.287821
vn -0.511974 0.809347 0.287819
vn -0.511974 0.809346 0.287822
vn -0.511974 0.809346 0.287821
usemtl Material
s off
f 12//7 10//7 74//7
f 10//8 12//8 14//8
f 10//9 14//9 16//9
f 10//10 16//10 18//10
f 10//11 18//11 20//11
f 10//12 20//12 22//12
f 10//13 22//13 24//13
f 10//14 24//14 26//14
f 10//15 26//15 28//15
f 10//16 28//16 30//16
f 10//17 30//17 32//17
f 10//18 32//18 34//18
f 10//19 34//19 36//19
f 10//20 36//20 38//20
f 10//21 38//21 40//21
f 10//22 40//22 42//22
f 10//23 42//23 44//23
f 10//24 44//24 46//24
f 10//25 46//25 48//25
f 10//26 48//26 50//26
f 10//27 50//27 52//27
f 10//28 52//28 54//28
f 10//29 54//29 56//29
f 10//30 56//30 58//30
f 10//31 58//31 60//31
f 10//32 60//32 62//32
f 10//33 62//33 64//33
f 10//34 64//34 66//34
f 10//35 66//35 68//35
f 10//36 68//36 70//36
f 10//37 70//37 72//37
f 10//38 72//38 74//38
f 11//39 12//39 74//39
f 11//39 74//39 73//39
f 12//40 11//40 13//40
f 12//40 13//40 14//40
f 14//41 13//41 15//41
f 14//41 15//41 16//41
f 16//42 15//42 17//42
f 16//42 17//42 18//42
f 18//43 17//43 19//43
f 18//43 19//43 20//43
f 20//44 19//44 21//44
f 20//44 21//44 22//44
f 22//45 21//45 23//45
f 22//45 23//45 24//45
f 24//46 23//46 25//46
f 24//46 25//46 26//46
f 26//47 25//47 27//47
f 26//47 27//47 28//47
f 28//48 27//48 29//48
f 28//48 29//48 30//48
f 30//49 29//49 31//49
f 30//49 31//49 32//49
f 32//50 31//50 33//50
f 32//50 33//50 34//50
f 34//51 33//51 35//51
f 34//51 35//51 36//51
f 36//52 35//52 37//52
f 36//52 37//52 38//52
f 38//53 37//53 39//53
f 38//53 39//53 40//53
f 40//54 39//54 41//54
f 40//54 41//54 42//54
f 42//55 41//55 43//55
f 42//55 43//55 44//55
f 44//56 43//56 45//56
f 44//56 45//56 46//56
f 46//57 45//57 47//57
f 46//57 47//57 48//57
f 48//58 47//58 49//58
f 48//58 49//58 50//58
f 50//59 49//59 51//59
f 50//59 51//59 52//59
f 52//60 51//60 53//60
f 52//60 53//60 54//60
f 54//61 53//61 55//61
f 54//61 55//61 56//61
f 56//62 55//62 57//62
f 56//62 57//62 58//62
f 58//63 57//63 59//63
f 58//63 59//63 60//63
f 60//64 59//64 61//64
f 60//64 61//64 62//64
f 62//65 61//65 63//65
f 62//65 63//65 64//65
f 64//66 63//66 65//66
f 64//66 65//66 66//66
f 66//67 65//67 67//67
f 66//67 67//67 68//67
f 68//68 67//68 69//68
f 68//68 69//68 70//68
f 70//69 69//69 71//69
f 70//69 71//69 72//69
f 72//70 71//70 73//70
f 72//70 73//70 74//70
f 9//71 11//71 73//71
f 11//72 9//72 13//72
f 13//71 9//71 15//71
f 15//73 9//73 17//73
f 17//74 9//74 19//74
f 19//75 9//75 21//75
f 21//71 9//71 23//71
f 23//71 9//71 25//71
f 25//71 9//71 27//71
f 27//76 9//76 29//76
f 29//73 9//73 31//73
f 31//76 9//76 33//76
f 33//77 9//77 35//77
f 35//77 9//77 37//77
f 37//78 9//78 39//78
f 39//73 9//73 41//73
f 41//72 9//72 43//72
f 43//79 9//79 45//79
f 45//75 9//75 47//75
f 47//73 9//73 49//73
f 49//74 9//74 51//74
f 51//73 9//73 53//73
f 53//71 9//71 55//71
f 55//73 9//73 57//73
f 57//71 9//71 59//71
f 59//71 9//71 61//71
f 61//73 9//73 63//73
f 63//71 9//71 65//71
f 65//71 9//71 67//71
f 67//71 9//71 69//71
f 69//71 9//71 71//71
f 71//71 9//71 73//71
