# Blender v2.64 (sub 0) OBJ File: ''
# www.blender.org
mtllib untitled_000047.mtl
o Cube
v -8.729040 -2.858973 10.487860
v -8.729040 -2.858973 -7.293924
v 9.052744 -2.858973 -7.293924
v 9.052744 -2.858973 10.487860
v -8.729040 14.922812 10.487860
v -8.729040 14.922812 -7.293924
v 9.052744 14.922812 -7.293924
v 9.052744 14.922812 10.487860
vn -1.000000 -0.000000 0.000000
vn 0.000000 0.000000 -1.000000
vn 1.000000 -0.000000 0.000000
vn 0.000000 0.000000 1.000000
vn -0.000000 -1.000000 0.000000
vn -0.000000 1.000000 0.000000
usemtl Material.003
s off
f 2//1 1//1 5//1
f 2//1 5//1 6//1
usemtl Material.005
f 6//2 7//2 3//2
f 6//2 3//2 2//2
usemtl Material.004
f 7//3 8//3 4//3
f 7//3 4//3 3//3
usemtl Material.002
f 1//4 4//4 8//4
f 1//4 8//4 5//4
usemtl Material.001
f 1//5 2//5 3//5
f 1//5 3//5 4//5
f 8//6 7//6 6//6
f 8//6 6//6 5//6
o Diamond
v -2.414316 2.237199 -1.223225
v -3.350306 0.911316 -1.738880
v -1.816018 2.060922 -1.855970
v -1.702020 1.539875 -2.434738
v -1.741817 1.961117 -1.734031
v -1.578350 1.373532 -2.231506
v -1.693459 1.871921 -1.592462
v -1.497754 1.224872 -1.995558
v -1.672803 1.796762 -1.436703
v -1.463327 1.099608 -1.735961
v -1.680643 1.738530 -1.272741
v -1.476394 1.002553 -1.462690
v -1.716678 1.699461 -1.106876
v -1.536452 0.937438 -1.186248
v -1.779522 1.681056 -0.945482
v -1.641193 0.906765 -0.917258
v -1.866761 1.684025 -0.794761
v -1.786592 0.911712 -0.666057
v -1.975043 1.708251 -0.660506
v -1.967061 0.952089 -0.442299
v -2.100206 1.752804 -0.547877
v -2.175665 1.026345 -0.254583
v -2.237439 1.815973 -0.461200
v -2.404388 1.131626 -0.110122
v -2.381470 1.895329 -0.403808
v -2.644439 1.263885 -0.014468
v -2.526764 1.987823 -0.377905
v -2.886595 1.418042 0.028703
v -2.667735 2.089900 -0.384487
v -3.121548 1.588171 0.017732
v -2.798968 2.197638 -0.423302
v -3.340270 1.767734 -0.046959
v -2.915420 2.306896 -0.492858
v -3.534355 1.949831 -0.162884
v -3.012613 2.413476 -0.590480
v -3.696345 2.127464 -0.325589
v -3.086815 2.513282 -0.712419
v -3.820015 2.293807 -0.528821
v -3.135173 2.602478 -0.853988
v -3.900611 2.442466 -0.764769
v -3.155829 2.677636 -1.009747
v -3.935038 2.567731 -1.024367
v -3.147989 2.735869 -1.173709
v -3.921971 2.664785 -1.297637
v -3.111954 2.774938 -1.339574
v -3.861913 2.729900 -1.574079
v -3.049110 2.793342 -1.500968
v -3.757172 2.760574 -1.843069
v -2.961871 2.790374 -1.651689
v -3.611773 2.755627 -2.094270
v -2.853589 2.766148 -1.785944
v -3.431304 2.715250 -2.318028
v -2.728426 2.721594 -1.898574
v -3.222700 2.640995 -2.505744
v -2.591192 2.658425 -1.985250
v -2.993977 2.535713 -2.650206
v -2.447162 2.579070 -2.042643
v -2.753926 2.403453 -2.745860
v -2.301869 2.486576 -2.068545
v -2.511771 2.249297 -2.789031
v -2.160897 2.384498 -2.061963
v -2.276817 2.079168 -2.778060
v -2.029664 2.276761 -2.023148
v -2.058095 1.899605 -2.713369
v -1.913212 2.167502 -1.953593
v -1.864010 1.717508 -2.597443
vn -0.038876 -0.693978 -0.718946
vn 0.021849 -0.767099 -0.641157
vn 0.065271 -0.834061 -0.547798
vn 0.089722 -0.892290 -0.442457
vn 0.094262 -0.939550 -0.329182
vn 0.078718 -0.974023 -0.212327
vn 0.043686 -0.994385 -0.096381
vn -0.009488 -0.999854 0.014198
vn -0.078759 -0.990219 0.115163
vn -0.161467 -0.965851 0.202632
vn -0.254432 -0.927686 0.273245
vn -0.354082 -0.877191 0.324288
vn -0.456587 -0.816306 0.353798
vn -0.558009 -0.747370 0.360643
vn -0.654449 -0.673035 0.344559
vn -0.742201 -0.596155 0.306165
vn -0.817894 -0.519685 0.246935
vn -0.878618 -0.446564 0.169146
vn -0.922040 -0.379602 0.075787
vn -0.946492 -0.321372 -0.029554
vn -0.951032 -0.274114 -0.142828
vn -0.935488 -0.239640 -0.259685
vn -0.900455 -0.219278 -0.375629
vn -0.847282 -0.213809 -0.486209
vn -0.778010 -0.223443 -0.587174
vn -0.695303 -0.247812 -0.674643
vn -0.602337 -0.285977 -0.745256
vn -0.502688 -0.336472 -0.796298
vn -0.400182 -0.397358 -0.825810
vn -0.298762 -0.466292 -0.832654
vn -0.202321 -0.540628 -0.816571
vn -0.114568 -0.617509 -0.778176
vn 0.823282 0.492878 -0.281564
vn 0.887279 0.415817 -0.199582
vn 0.933041 0.345245 -0.101191
vn 0.958810 0.283877 0.009828
vn 0.963596 0.234070 0.129208
vn 0.947213 0.197739 0.252362
vn 0.910293 0.176279 0.374557
vn 0.854253 0.170515 0.491097
vn 0.781248 0.180670 0.597504
vn 0.694082 0.206351 0.689688
vn 0.596106 0.246574 0.764107
vn 0.491085 0.299790 0.817900
vn 0.383055 0.363957 0.849002
vn 0.276167 0.436608 0.856216
vn 0.174528 0.514951 0.839265
vn 0.082045 0.595975 0.798801
vn 0.002273 0.676566 0.736378
vn -0.061725 0.753629 0.654396
vn -0.107487 0.824199 0.556005
vn -0.133256 0.885568 0.444986
vn -0.138041 0.935374 0.325606
vn -0.121659 0.971706 0.202452
vn -0.084739 0.993166 0.080257
vn -0.028699 0.998929 -0.036283
vn 0.044307 0.988775 -0.142690
vn 0.131472 0.963094 -0.234873
vn 0.229449 0.922871 -0.309293
vn 0.334469 0.869654 -0.363086
vn 0.442499 0.805488 -0.394188
vn 0.549388 0.732837 -0.401402
vn 0.651026 0.654494 -0.384451
vn 0.743509 0.573470 -0.343987
vn 0.549638 0.778593 0.302806
vn 0.549637 0.778593 0.302806
vn 0.549638 0.778592 0.302807
vn 0.549637 0.778594 0.302805
vn 0.549638 0.778592 0.302808
vn 0.549638 0.778593 0.302805
vn 0.549637 0.778593 0.302807
vn 0.549639 0.778592 0.302806
usemtl Material
s off
f 12//7 10//7 74//7
f 10//8 12//8 14//8
f 10//9 14//9 16//9
f 10//10 16//10 18//10
f 10//11 18//11 20//11
f 10//12 20//12 22//12
f 10//13 22//13 24//13
f 10//14 24//14 26//14
f 10//15 26//15 28//15
f 10//16 28//16 30//16
f 10//17 30//17 32//17
f 10//18 32//18 34//18
f 10//19 34//19 36//19
f 10//20 36//20 38//20
f 10//21 38//21 40//21
f 10//22 40//22 42//22
f 10//23 42//23 44//23
f 10//24 44//24 46//24
f 10//25 46//25 48//25
f 10//26 48//26 50//26
f 10//27 50//27 52//27
f 10//28 52//28 54//28
f 10//29 54//29 56//29
f 10//30 56//30 58//30
f 10//31 58//31 60//31
f 10//32 60//32 62//32
f 10//33 62//33 64//33
f 10//34 64//34 66//34
f 10//35 66//35 68//35
f 10//36 68//36 70//36
f 10//37 70//37 72//37
f 10//38 72//38 74//38
f 11//39 12//39 74//39
f 11//39 74//39 73//39
f 12//40 11//40 13//40
f 12//40 13//40 14//40
f 14//41 13//41 15//41
f 14//41 15//41 16//41
f 16//42 15//42 17//42
f 16//42 17//42 18//42
f 18//43 17//43 19//43
f 18//43 19//43 20//43
f 20//44 19//44 21//44
f 20//44 21//44 22//44
f 22//45 21//45 23//45
f 22//45 23//45 24//45
f 24//46 23//46 25//46
f 24//46 25//46 26//46
f 26//47 25//47 27//47
f 26//47 27//47 28//47
f 28//48 27//48 29//48
f 28//48 29//48 30//48
f 30//49 29//49 31//49
f 30//49 31//49 32//49
f 32//50 31//50 33//50
f 32//50 33//50 34//50
f 34//51 33//51 35//51
f 34//51 35//51 36//51
f 36//52 35//52 37//52
f 36//52 37//52 38//52
f 38//53 37//53 39//53
f 38//53 39//53 40//53
f 40//54 39//54 41//54
f 40//54 41//54 42//54
f 42//55 41//55 43//55
f 42//55 43//55 44//55
f 44//56 43//56 45//56
f 44//56 45//56 46//56
f 46//57 45//57 47//57
f 46//57 47//57 48//57
f 48//58 47//58 49//58
f 48//58 49//58 50//58
f 50//59 49//59 51//59
f 50//59 51//59 52//59
f 52//60 51//60 53//60
f 52//60 53//60 54//60
f 54//61 53//61 55//61
f 54//61 55//61 56//61
f 56//62 55//62 57//62
f 56//62 57//62 58//62
f 58//63 57//63 59//63
f 58//63 59//63 60//63
f 60//64 59//64 61//64
f 60//64 61//64 62//64
f 62//65 61//65 63//65
f 62//65 63//65 64//65
f 64//66 63//66 65//66
f 64//66 65//66 66//66
f 66//67 65//67 67//67
f 66//67 67//67 68//67
f 68//68 67//68 69//68
f 68//68 69//68 70//68
f 70//69 69//69 71//69
f 70//69 71//69 72//69
f 72//70 71//70 73//70
f 72//70 73//70 74//70
f 9//71 11//71 73//71
f 11//71 9//71 13//71
f 13//71 9//71 15//71
f 15//71 9//71 17//71
f 17//71 9//71 19//71
f 19//71 9//71 21//71
f 21//72 9//72 23//72
f 23//71 9//71 25//71
f 25//72 9//72 27//72
f 27//71 9//71 29//71
f 29//72 9//72 31//72
f 31//71 9//71 33//71
f 33//72 9//72 35//72
f 35//71 9//71 37//71
f 37//71 9//71 39//71
f 39//72 9//72 41//72
f 41//73 9//73 43//73
f 43//74 9//74 45//74
f 45//75 9//75 47//75
f 47//71 9//71 49//71
f 49//76 9//76 51//76
f 51//72 9//72 53//72
f 53//71 9//71 55//71
f 55//76 9//76 57//76
f 57//77 9//77 59//77
f 59//71 9//71 61//71
f 61//71 9//71 63//71
f 63//72 9//72 65//72
f 65//72 9//72 67//72
f 67//78 9//78 69//78
f 69//72 9//72 71//72
f 71//71 9//71 73//71
