# Blender v2.64 (sub 0) OBJ File: ''
# www.blender.org
mtllib untitled_000030.mtl
o Cube
v -8.729040 -2.858973 10.487860
v -8.729040 -2.858973 -7.293924
v 9.052744 -2.858973 -7.293924
v 9.052744 -2.858973 10.487860
v -8.729040 14.922812 10.487860
v -8.729040 14.922812 -7.293924
v 9.052744 14.922812 -7.293924
v 9.052744 14.922812 10.487860
vn -1.000000 -0.000000 0.000000
vn 0.000000 0.000000 -1.000000
vn 1.000000 -0.000000 0.000000
vn 0.000000 0.000000 1.000000
vn -0.000000 -1.000000 0.000000
vn -0.000000 1.000000 0.000000
usemtl Material.003
s off
f 2//1 1//1 5//1
f 2//1 5//1 6//1
usemtl Material.005
f 6//2 7//2 3//2
f 6//2 3//2 2//2
usemtl Material.004
f 7//3 8//3 4//3
f 7//3 4//3 3//3
usemtl Material.002
f 1//4 4//4 8//4
f 1//4 8//4 5//4
usemtl Material.001
f 1//5 2//5 3//5
f 1//5 3//5 4//5
f 8//6 7//6 6//6
f 8//6 6//6 5//6
o Diamond
v -2.964968 2.250042 1.865177
v -2.091672 0.881961 1.349758
v -2.590913 2.732124 1.219360
v -2.075758 2.637139 0.631949
v -2.468416 2.765385 1.338626
v -1.871595 2.692575 0.830725
v -2.365001 2.778843 1.478126
v -1.699237 2.715004 1.063226
v -2.284642 2.771978 1.632501
v -1.565306 2.703564 1.320517
v -2.230428 2.745056 1.795817
v -1.474949 2.658694 1.592711
v -2.204442 2.699111 1.961799
v -1.431639 2.582119 1.869347
v -2.207683 2.635909 2.124068
v -1.437040 2.476781 2.139795
v -2.240025 2.557878 2.276387
v -1.490944 2.346729 2.393661
v -2.300227 2.468016 2.412904
v -1.591280 2.196960 2.621189
v -2.385974 2.369778 2.528372
v -1.734192 2.033231 2.813636
v -2.493972 2.266939 2.618354
v -1.914189 1.861832 2.963606
v -2.620070 2.163450 2.679392
v -2.124352 1.689351 3.065335
v -2.759422 2.063289 2.709140
v -2.356606 1.522416 3.114915
v -2.906673 1.970305 2.706455
v -2.602024 1.367442 3.110440
v -3.056164 1.888071 2.671440
v -2.851176 1.230385 3.052082
v -3.202151 1.819747 2.605441
v -3.094487 1.116512 2.942083
v -3.339023 1.767960 2.510993
v -3.322607 1.030200 2.784671
v -3.461520 1.734698 2.391728
v -3.526769 0.974763 2.585895
v -3.564935 1.721241 2.252228
v -3.699128 0.952335 2.353395
v -3.645294 1.728105 2.097853
v -3.833059 0.963775 2.096103
v -3.699508 1.755027 1.934537
v -3.923416 1.008645 1.823910
v -3.725494 1.800972 1.768555
v -3.966726 1.085220 1.547274
v -3.722254 1.864175 1.606286
v -3.961325 1.190558 1.276826
v -3.689911 1.942206 1.453967
v -3.907421 1.320610 1.022960
v -3.629710 2.032067 1.317449
v -3.807085 1.470379 0.795431
v -3.543962 2.130305 1.201981
v -3.664173 1.634108 0.602984
v -3.435964 2.233144 1.111999
v -3.484176 1.805507 0.453014
v -3.309867 2.336633 1.050962
v -3.274014 1.977988 0.351285
v -3.170515 2.436794 1.021214
v -3.041760 2.144923 0.301705
v -3.023263 2.529778 1.023899
v -2.796341 2.299897 0.306180
v -2.873772 2.612012 1.058914
v -2.547189 2.436953 0.364538
v -2.727785 2.680336 1.124913
v -2.303877 2.550827 0.474537
vn 0.616247 -0.302896 -0.726975
vn 0.708140 -0.272764 -0.651258
vn 0.788179 -0.256212 -0.559579
vn 0.853289 -0.253876 -0.455462
vn 0.900967 -0.265846 -0.342906
vn 0.929381 -0.291662 -0.226239
vn 0.937440 -0.330333 -0.109941
vn 0.924833 -0.380370 0.001514
vn 0.892045 -0.439853 0.103847
vn 0.840337 -0.506495 0.193123
vn 0.771694 -0.577735 0.265913
vn 0.688756 -0.650836 0.319418
vn 0.594710 -0.722987 0.351582
vn 0.493167 -0.791418 0.361171
vn 0.388034 -0.853496 0.347814
vn 0.283349 -0.906837 0.312025
vn 0.183134 -0.949392 0.255180
vn 0.091241 -0.979524 0.179464
vn 0.011202 -0.996076 0.087785
vn -0.053907 -0.998412 -0.016333
vn -0.101586 -0.986442 -0.128889
vn -0.130000 -0.960626 -0.245556
vn -0.138059 -0.921956 -0.361853
vn -0.125452 -0.871918 -0.473309
vn -0.092664 -0.812435 -0.575642
vn -0.040955 -0.745793 -0.664918
vn 0.027687 -0.674552 -0.737708
vn 0.110625 -0.601452 -0.791213
vn 0.204672 -0.529300 -0.823377
vn 0.306213 -0.460871 -0.832965
vn 0.411347 -0.398792 -0.819609
vn 0.516033 -0.345450 -0.783820
vn -0.156898 0.944003 -0.290244
vn -0.060053 0.975759 -0.210446
vn 0.024299 0.993203 -0.113827
vn 0.092919 0.995665 -0.004096
vn 0.143167 0.983050 0.114527
vn 0.173113 0.955842 0.237482
vn 0.181606 0.915087 0.360048
vn 0.168320 0.862353 0.477511
vn 0.133765 0.799663 0.585359
vn 0.079268 0.729429 0.679449
vn 0.006927 0.654349 0.756161
vn -0.080482 0.577308 0.812550
vn -0.179599 0.501268 0.846448
vn -0.286613 0.429150 0.856553
vn -0.397414 0.363725 0.842477
vn -0.507741 0.307508 0.804759
vn -0.613358 0.262660 0.744850
vn -0.710204 0.230903 0.665052
vn -0.794556 0.213459 0.568432
vn -0.863176 0.210997 0.458702
vn -0.913424 0.223613 0.340080
vn -0.943370 0.250820 0.217123
vn -0.951863 0.291575 0.094558
vn -0.938577 0.344310 -0.022905
vn -0.904022 0.406999 -0.130754
vn -0.849526 0.477234 -0.224842
vn -0.777183 0.552314 -0.301555
vn -0.689775 0.629354 -0.357944
vn -0.590659 0.705395 -0.391842
vn -0.483644 0.777513 -0.401948
vn -0.372844 0.842938 -0.387871
vn -0.262516 0.899154 -0.350153
vn -0.512821 0.803372 0.302668
vn -0.512822 0.803372 0.302666
vn -0.512822 0.803372 0.302667
vn -0.512822 0.803372 0.302668
vn -0.512822 0.803371 0.302668
vn -0.512821 0.803372 0.302667
vn -0.512822 0.803371 0.302667
vn -0.512823 0.803372 0.302667
usemtl Material
s off
f 12//7 10//7 74//7
f 10//8 12//8 14//8
f 10//9 14//9 16//9
f 10//10 16//10 18//10
f 10//11 18//11 20//11
f 10//12 20//12 22//12
f 10//13 22//13 24//13
f 10//14 24//14 26//14
f 10//15 26//15 28//15
f 10//16 28//16 30//16
f 10//17 30//17 32//17
f 10//18 32//18 34//18
f 10//19 34//19 36//19
f 10//20 36//20 38//20
f 10//21 38//21 40//21
f 10//22 40//22 42//22
f 10//23 42//23 44//23
f 10//24 44//24 46//24
f 10//25 46//25 48//25
f 10//26 48//26 50//26
f 10//27 50//27 52//27
f 10//28 52//28 54//28
f 10//29 54//29 56//29
f 10//30 56//30 58//30
f 10//31 58//31 60//31
f 10//32 60//32 62//32
f 10//33 62//33 64//33
f 10//34 64//34 66//34
f 10//35 66//35 68//35
f 10//36 68//36 70//36
f 10//37 70//37 72//37
f 10//38 72//38 74//38
f 11//39 12//39 74//39
f 11//39 74//39 73//39
f 12//40 11//40 13//40
f 12//40 13//40 14//40
f 14//41 13//41 15//41
f 14//41 15//41 16//41
f 16//42 15//42 17//42
f 16//42 17//42 18//42
f 18//43 17//43 19//43
f 18//43 19//43 20//43
f 20//44 19//44 21//44
f 20//44 21//44 22//44
f 22//45 21//45 23//45
f 22//45 23//45 24//45
f 24//46 23//46 25//46
f 24//46 25//46 26//46
f 26//47 25//47 27//47
f 26//47 27//47 28//47
f 28//48 27//48 29//48
f 28//48 29//48 30//48
f 30//49 29//49 31//49
f 30//49 31//49 32//49
f 32//50 31//50 33//50
f 32//50 33//50 34//50
f 34//51 33//51 35//51
f 34//51 35//51 36//51
f 36//52 35//52 37//52
f 36//52 37//52 38//52
f 38//53 37//53 39//53
f 38//53 39//53 40//53
f 40//54 39//54 41//54
f 40//54 41//54 42//54
f 42//55 41//55 43//55
f 42//55 43//55 44//55
f 44//56 43//56 45//56
f 44//56 45//56 46//56
f 46//57 45//57 47//57
f 46//57 47//57 48//57
f 48//58 47//58 49//58
f 48//58 49//58 50//58
f 50//59 49//59 51//59
f 50//59 51//59 52//59
f 52//60 51//60 53//60
f 52//60 53//60 54//60
f 54//61 53//61 55//61
f 54//61 55//61 56//61
f 56//62 55//62 57//62
f 56//62 57//62 58//62
f 58//63 57//63 59//63
f 58//63 59//63 60//63
f 60//64 59//64 61//64
f 60//64 61//64 62//64
f 62//65 61//65 63//65
f 62//65 63//65 64//65
f 64//66 63//66 65//66
f 64//66 65//66 66//66
f 66//67 65//67 67//67
f 66//67 67//67 68//67
f 68//68 67//68 69//68
f 68//68 69//68 70//68
f 70//69 69//69 71//69
f 70//69 71//69 72//69
f 72//70 71//70 73//70
f 72//70 73//70 74//70
f 9//71 11//71 73//71
f 11//71 9//71 13//71
f 13//72 9//72 15//72
f 15//71 9//71 17//71
f 17//73 9//73 19//73
f 19//74 9//74 21//74
f 21//73 9//73 23//73
f 23//73 9//73 25//73
f 25//75 9//75 27//75
f 27//74 9//74 29//74
f 29//73 9//73 31//73
f 31//74 9//74 33//74
f 33//74 9//74 35//74
f 35//71 9//71 37//71
f 37//73 9//73 39//73
f 39//71 9//71 41//71
f 41//73 9//73 43//73
f 43//73 9//73 45//73
f 45//73 9//73 47//73
f 47//71 9//71 49//71
f 49//73 9//73 51//73
f 51//73 9//73 53//73
f 53//73 9//73 55//73
f 55//73 9//73 57//73
f 57//73 9//73 59//73
f 59//73 9//73 61//73
f 61//76 9//76 63//76
f 63//73 9//73 65//73
f 65//77 9//77 67//77
f 67//76 9//76 69//76
f 69//76 9//76 71//76
f 71//78 9//78 73//78
