# Blender v2.64 (sub 0) OBJ File: ''
# www.blender.org
mtllib untitled_000087.mtl
o Cube
v -8.729040 -2.858973 10.487860
v -8.729040 -2.858973 -7.293924
v 9.052744 -2.858973 -7.293924
v 9.052744 -2.858973 10.487860
v -8.729040 14.922812 10.487860
v -8.729040 14.922812 -7.293924
v 9.052744 14.922812 -7.293924
v 9.052744 14.922812 10.487860
vn -1.000000 -0.000000 0.000000
vn 0.000000 0.000000 -1.000000
vn 1.000000 -0.000000 0.000000
vn 0.000000 0.000000 1.000000
vn -0.000000 -1.000000 0.000000
vn -0.000000 1.000000 0.000000
usemtl Material.003
s off
f 2//1 1//1 5//1
f 2//1 5//1 6//1
usemtl Material.005
f 6//2 7//2 3//2
f 6//2 3//2 2//2
usemtl Material.004
f 7//3 8//3 4//3
f 7//3 4//3 3//3
usemtl Material.002
f 1//4 4//4 8//4
f 1//4 8//4 5//4
usemtl Material.001
f 1//5 2//5 3//5
f 1//5 3//5 4//5
f 8//6 7//6 6//6
f 8//6 6//6 5//6
o Diamond
v 2.731210 4.891911 2.215947
v 3.296837 3.360214 1.732296
v 2.052263 4.820746 1.647295
v 1.771778 4.307135 1.120996
v 2.161149 4.896581 1.534472
v 1.953256 4.433527 0.932958
v 2.291943 4.972237 1.447838
v 2.171245 4.559618 0.788568
v 2.439617 5.044805 1.390722
v 2.417369 4.680566 0.693374
v 2.598498 5.111498 1.365319
v 2.682170 4.791721 0.651036
v 2.762478 5.169752 1.372605
v 2.955470 4.888811 0.663179
v 2.925256 5.217329 1.412300
v 3.226768 4.968106 0.729338
v 3.080578 5.252400 1.482879
v 3.485637 5.026558 0.846969
v 3.222474 5.273618 1.581629
v 3.722130 5.061921 1.011553
v 3.345490 5.280167 1.704756
v 3.927158 5.072836 1.216764
v 3.444901 5.271796 1.847528
v 4.092841 5.058884 1.454717
v 3.516884 5.248826 2.004457
v 4.212813 5.020600 1.716266
v 3.558674 5.212139 2.169514
v 4.282465 4.959456 1.991362
v 3.568666 5.163147 2.336356
v 4.299117 4.877802 2.269430
v 3.546474 5.103731 2.498570
v 4.262131 4.778776 2.539787
v 3.492953 5.036175 2.649923
v 4.172928 4.666183 2.792043
v 3.410158 4.963075 2.784599
v 4.034937 4.544349 3.016502
v 3.301271 4.887240 2.897422
v 3.853459 4.417958 3.204540
v 3.170478 4.811585 2.984056
v 3.635470 4.291866 3.348930
v 3.022803 4.739016 3.041172
v 3.389345 4.170918 3.444124
v 2.863923 4.672324 3.066575
v 3.124546 4.059764 3.486462
v 2.699943 4.614069 3.059289
v 2.851246 3.962673 3.474319
v 2.537164 4.566493 3.019594
v 2.579947 3.883379 3.408160
v 2.381843 4.531421 2.949015
v 2.321078 3.824926 3.290529
v 2.239947 4.510203 2.850265
v 2.084585 3.789563 3.125945
v 2.116930 4.503654 2.727138
v 1.879558 3.778648 2.920734
v 2.017520 4.512026 2.584366
v 1.713874 3.792601 2.682781
v 1.945536 4.534996 2.427437
v 1.593901 3.830884 2.421232
v 1.903746 4.571682 2.262380
v 1.524251 3.892028 2.146137
v 1.893754 4.620675 2.095538
v 1.507598 3.973682 1.868068
v 1.915946 4.680090 1.933324
v 1.544584 4.072708 1.597711
v 1.969468 4.747646 1.781971
v 1.633787 4.185302 1.345455
vn -0.251549 -0.777352 -0.576582
vn -0.183638 -0.724586 -0.664268
vn -0.098721 -0.670915 -0.734934
vn -0.000061 -0.618399 -0.785864
vn 0.108548 -0.569061 -0.815100
vn 0.222935 -0.524793 -0.821518
vn 0.338704 -0.487298 -0.804873
vn 0.451404 -0.458016 -0.765804
vn 0.556706 -0.438073 -0.705812
vn 0.650562 -0.428236 -0.627203
vn 0.729367 -0.428881 -0.532996
vn 0.790090 -0.439986 -0.426815
vn 0.830399 -0.461121 -0.312738
vn 0.848745 -0.491476 -0.195149
vn 0.844422 -0.529885 -0.078565
vn 0.817598 -0.574870 0.032528
vn 0.769302 -0.624703 0.133866
vn 0.701391 -0.677470 0.221553
vn 0.616474 -0.731142 0.292219
vn 0.517815 -0.783656 0.343148
vn 0.409204 -0.832996 0.372385
vn 0.294819 -0.877263 0.378803
vn 0.179049 -0.914758 0.362158
vn 0.066350 -0.944040 0.323089
vn -0.038953 -0.963983 0.263097
vn -0.132809 -0.973820 0.184487
vn -0.211614 -0.973175 0.090282
vn -0.272337 -0.962071 -0.015900
vn -0.312646 -0.940935 -0.129977
vn -0.330992 -0.910580 -0.247567
vn -0.326670 -0.872171 -0.364149
vn -0.299845 -0.827186 -0.475243
vn -0.787382 0.595049 -0.161078
vn -0.715811 0.650659 -0.253491
vn -0.626317 0.707224 -0.327966
vn -0.522340 0.762569 -0.381641
vn -0.407875 0.814568 -0.412452
vn -0.287323 0.861221 -0.419217
vn -0.165315 0.900738 -0.401675
vn -0.046540 0.931597 -0.360500
vn 0.064438 0.952615 -0.297274
vn 0.163354 0.962983 -0.214427
vn 0.246405 0.962303 -0.115145
vn 0.310401 0.950600 -0.003239
vn 0.352883 0.928325 0.116987
vn 0.372218 0.896334 0.240914
vn 0.367663 0.855855 0.363781
vn 0.339393 0.808445 0.480863
vn 0.288493 0.755926 0.587663
vn 0.216922 0.700315 0.680076
vn 0.127428 0.643750 0.754551
vn 0.023450 0.588405 0.808226
vn -0.091012 0.536407 0.839038
vn -0.211567 0.489753 0.845803
vn -0.333574 0.450236 0.828260
vn -0.452349 0.419377 0.787085
vn -0.563327 0.398359 0.723859
vn -0.662242 0.387991 0.641013
vn -0.745294 0.388671 0.541730
vn -0.809291 0.400374 0.429825
vn -0.851773 0.422649 0.309598
vn -0.871108 0.454640 0.185671
vn -0.866552 0.495119 0.062805
vn -0.838281 0.542529 -0.054278
vn -0.332151 0.899451 0.284012
vn -0.332150 0.899452 0.284012
vn -0.332151 0.899451 0.284013
vn -0.332151 0.899452 0.284012
vn -0.332150 0.899452 0.284013
vn -0.332151 0.899452 0.284011
vn -0.332150 0.899452 0.284011
vn -0.332152 0.899451 0.284013
vn -0.332149 0.899452 0.284012
vn -0.332150 0.899451 0.284013
usemtl Material
s off
f 12//7 10//7 74//7
f 10//8 12//8 14//8
f 10//9 14//9 16//9
f 10//10 16//10 18//10
f 10//11 18//11 20//11
f 10//12 20//12 22//12
f 10//13 22//13 24//13
f 10//14 24//14 26//14
f 10//15 26//15 28//15
f 10//16 28//16 30//16
f 10//17 30//17 32//17
f 10//18 32//18 34//18
f 10//19 34//19 36//19
f 10//20 36//20 38//20
f 10//21 38//21 40//21
f 10//22 40//22 42//22
f 10//23 42//23 44//23
f 10//24 44//24 46//24
f 10//25 46//25 48//25
f 10//26 48//26 50//26
f 10//27 50//27 52//27
f 10//28 52//28 54//28
f 10//29 54//29 56//29
f 10//30 56//30 58//30
f 10//31 58//31 60//31
f 10//32 60//32 62//32
f 10//33 62//33 64//33
f 10//34 64//34 66//34
f 10//35 66//35 68//35
f 10//36 68//36 70//36
f 10//37 70//37 72//37
f 10//38 72//38 74//38
f 11//39 12//39 74//39
f 11//39 74//39 73//39
f 12//40 11//40 13//40
f 12//40 13//40 14//40
f 14//41 13//41 15//41
f 14//41 15//41 16//41
f 16//42 15//42 17//42
f 16//42 17//42 18//42
f 18//43 17//43 19//43
f 18//43 19//43 20//43
f 20//44 19//44 21//44
f 20//44 21//44 22//44
f 22//45 21//45 23//45
f 22//45 23//45 24//45
f 24//46 23//46 25//46
f 24//46 25//46 26//46
f 26//47 25//47 27//47
f 26//47 27//47 28//47
f 28//48 27//48 29//48
f 28//48 29//48 30//48
f 30//49 29//49 31//49
f 30//49 31//49 32//49
f 32//50 31//50 33//50
f 32//50 33//50 34//50
f 34//51 33//51 35//51
f 34//51 35//51 36//51
f 36//52 35//52 37//52
f 36//52 37//52 38//52
f 38//53 37//53 39//53
f 38//53 39//53 40//53
f 40//54 39//54 41//54
f 40//54 41//54 42//54
f 42//55 41//55 43//55
f 42//55 43//55 44//55
f 44//56 43//56 45//56
f 44//56 45//56 46//56
f 46//57 45//57 47//57
f 46//57 47//57 48//57
f 48//58 47//58 49//58
f 48//58 49//58 50//58
f 50//59 49//59 51//59
f 50//59 51//59 52//59
f 52//60 51//60 53//60
f 52//60 53//60 54//60
f 54//61 53//61 55//61
f 54//61 55//61 56//61
f 56//62 55//62 57//62
f 56//62 57//62 58//62
f 58//63 57//63 59//63
f 58//63 59//63 60//63
f 60//64 59//64 61//64
f 60//64 61//64 62//64
f 62//65 61//65 63//65
f 62//65 63//65 64//65
f 64//66 63//66 65//66
f 64//66 65//66 66//66
f 66//67 65//67 67//67
f 66//67 67//67 68//67
f 68//68 67//68 69//68
f 68//68 69//68 70//68
f 70//69 69//69 71//69
f 70//69 71//69 72//69
f 72//70 71//70 73//70
f 72//70 73//70 74//70
f 9//71 11//71 73//71
f 11//72 9//72 13//72
f 13//73 9//73 15//73
f 15//71 9//71 17//71
f 17//72 9//72 19//72
f 19//74 9//74 21//74
f 21//71 9//71 23//71
f 23//71 9//71 25//71
f 25//71 9//71 27//71
f 27//75 9//75 29//75
f 29//74 9//74 31//74
f 31//71 9//71 33//71
f 33//73 9//73 35//73
f 35//76 9//76 37//76
f 37//76 9//76 39//76
f 39//73 9//73 41//73
f 41//73 9//73 43//73
f 43//77 9//77 45//77
f 45//72 9//72 47//72
f 47//78 9//78 49//78
f 49//79 9//79 51//79
f 51//71 9//71 53//71
f 53//72 9//72 55//72
f 55//71 9//71 57//71
f 57//72 9//72 59//72
f 59//75 9//75 61//75
f 61//76 9//76 63//76
f 63//72 9//72 65//72
f 65//76 9//76 67//76
f 67//80 9//80 69//80
f 69//72 9//72 71//72
f 71//77 9//77 73//77
