# Blender v2.64 (sub 0) OBJ File: ''
# www.blender.org
mtllib untitled_000080.mtl
o Cube
v -8.729040 -2.858973 10.487860
v -8.729040 -2.858973 -7.293924
v 9.052744 -2.858973 -7.293924
v 9.052744 -2.858973 10.487860
v -8.729040 14.922812 10.487860
v -8.729040 14.922812 -7.293924
v 9.052744 14.922812 -7.293924
v 9.052744 14.922812 10.487860
vn -1.000000 -0.000000 0.000000
vn 0.000000 0.000000 -1.000000
vn 1.000000 -0.000000 0.000000
vn 0.000000 0.000000 1.000000
vn -0.000000 -1.000000 0.000000
vn -0.000000 1.000000 0.000000
usemtl Material.003
s off
f 2//1 1//1 5//1
f 2//1 5//1 6//1
usemtl Material.005
f 6//2 7//2 3//2
f 6//2 3//2 2//2
usemtl Material.004
f 7//3 8//3 4//3
f 7//3 4//3 3//3
usemtl Material.002
f 1//4 4//4 8//4
f 1//4 8//4 5//4
usemtl Material.001
f 1//5 2//5 3//5
f 1//5 3//5 4//5
f 8//6 7//6 6//6
f 8//6 6//6 5//6
o Diamond
v 4.363076 2.744560 -0.653710
v 5.267132 1.387501 -1.144646
v 3.711675 2.512410 -1.211547
v 3.552555 1.944625 -1.732853
v 3.797860 2.611283 -1.326144
v 3.696197 2.109413 -1.923848
v 3.905766 2.715277 -1.414899
v 3.876040 2.282737 -2.071774
v 4.031247 2.820397 -1.474403
v 4.085175 2.457937 -2.170947
v 4.169479 2.922602 -1.502368
v 4.315562 2.628279 -2.217555
v 4.315151 3.017966 -1.497719
v 4.558349 2.787218 -2.209807
v 4.462665 3.102822 -1.460636
v 4.804205 2.928646 -2.148002
v 4.606352 3.173911 -1.392542
v 5.043683 3.047127 -2.034513
v 4.740690 3.228500 -1.296056
v 5.267580 3.138108 -1.873703
v 4.860516 3.264491 -1.174885
v 5.467290 3.198094 -1.671751
v 4.961226 3.280502 -1.033686
v 5.635140 3.224779 -1.436418
v 5.038949 3.275917 -0.877884
v 5.764679 3.217137 -1.176749
v 5.090700 3.250912 -0.713467
v 5.850929 3.175462 -0.902720
v 5.114487 3.206448 -0.546754
v 5.890576 3.101356 -0.624866
v 5.109399 3.144234 -0.384151
v 5.882095 2.997666 -0.353861
v 5.075630 3.066661 -0.231907
v 5.825813 2.868377 -0.100121
v 5.014477 2.976710 -0.095873
v 5.723892 2.718458 0.126603
v 4.928292 2.877837 0.018724
v 5.580250 2.553670 0.317598
v 4.820386 2.773843 0.107480
v 5.400407 2.380347 0.465524
v 4.694905 2.668723 0.166983
v 5.191273 2.205147 0.564697
v 4.556673 2.566517 0.194948
v 4.960886 2.034805 0.611305
v 4.411001 2.471154 0.190300
v 4.718099 1.875866 0.603557
v 4.263487 2.386297 0.153216
v 4.472242 1.734438 0.541751
v 4.119801 2.315209 0.085123
v 4.232764 1.615957 0.428263
v 3.985462 2.260620 -0.011363
v 4.008867 1.524975 0.267452
v 3.865636 2.224628 -0.132534
v 3.809157 1.464989 0.065501
v 3.764926 2.208617 -0.273734
v 3.641307 1.438305 -0.169832
v 3.687202 2.213203 -0.429536
v 3.511768 1.445947 -0.429502
v 3.635453 2.238208 -0.593952
v 3.425518 1.487622 -0.703529
v 3.611665 2.282671 -0.760666
v 3.385871 1.561728 -0.981385
v 3.616753 2.344885 -0.923268
v 3.394352 1.665418 -1.252389
v 3.650523 2.422459 -1.075513
v 3.450634 1.794706 -1.506130
vn -0.069470 -0.817467 -0.571771
vn -0.017269 -0.750568 -0.660568
vn 0.051496 -0.678694 -0.732614
vn 0.134183 -0.604606 -0.785141
vn 0.227615 -0.531152 -0.816130
vn 0.328200 -0.461155 -0.824391
vn 0.432074 -0.397305 -0.809606
vn 0.535244 -0.342054 -0.772342
vn 0.633745 -0.297528 -0.714033
vn 0.723794 -0.265436 -0.636919
vn 0.801929 -0.247012 -0.543963
vn 0.865146 -0.242964 -0.438737
vn 0.911017 -0.253447 -0.325287
vn 0.937780 -0.278059 -0.207971
vn 0.944405 -0.315855 -0.091295
vn 0.930638 -0.365380 0.020252
vn 0.897008 -0.424733 0.122387
vn 0.844808 -0.491631 0.211183
vn 0.776042 -0.563506 0.283230
vn 0.693356 -0.637593 0.335757
vn 0.599923 -0.711048 0.366746
vn 0.499339 -0.781044 0.375007
vn 0.395465 -0.844895 0.360222
vn 0.292295 -0.900145 0.322958
vn 0.193793 -0.944672 0.264650
vn 0.103744 -0.976764 0.187535
vn 0.025610 -0.995188 0.094579
vn -0.037608 -0.999236 -0.010646
vn -0.083479 -0.988752 -0.124097
vn -0.110242 -0.964140 -0.241414
vn -0.116867 -0.926345 -0.358088
vn -0.103100 -0.876820 -0.469636
vn -0.907980 0.391519 -0.149281
vn -0.852966 0.462025 -0.242864
vn -0.780494 0.537773 -0.318793
vn -0.693350 0.615854 -0.374152
vn -0.594882 0.693267 -0.406812
vn -0.488876 0.767036 -0.415518
vn -0.379403 0.834329 -0.399935
vn -0.270672 0.892557 -0.360664
vn -0.166861 0.939484 -0.299212
vn -0.071958 0.973306 -0.217940
vn 0.010387 0.992723 -0.119975
vn 0.077012 0.996989 -0.009077
vn 0.125356 0.985940 0.110489
vn 0.153561 0.960001 0.234129
vn 0.160543 0.920169 0.357092
vn 0.146034 0.867974 0.474653
vn 0.110592 0.805422 0.582292
vn 0.055577 0.734917 0.675875
vn -0.016894 0.659169 0.751805
vn -0.104038 0.581088 0.807163
vn -0.202505 0.503675 0.839823
vn -0.308512 0.429905 0.848529
vn -0.417985 0.362613 0.832947
vn -0.526716 0.304385 0.793675
vn -0.630527 0.257458 0.732223
vn -0.725430 0.223636 0.650952
vn -0.807776 0.204219 0.552985
vn -0.874400 0.199953 0.442089
vn -0.922745 0.211002 0.322522
vn -0.950949 0.236941 0.198883
vn -0.957932 0.276773 0.075920
vn -0.943422 0.328968 -0.041642
vn -0.530885 0.796900 0.288291
vn -0.530885 0.796900 0.288290
vn -0.530886 0.796899 0.288290
vn -0.530884 0.796900 0.288291
vn -0.530886 0.796900 0.288290
vn -0.530886 0.796900 0.288289
vn -0.530885 0.796900 0.288289
vn -0.530885 0.796901 0.288289
vn -0.530886 0.796899 0.288291
vn -0.530884 0.796901 0.288289
vn -0.530884 0.796901 0.288291
usemtl Material
s off
f 12//7 10//7 74//7
f 10//8 12//8 14//8
f 10//9 14//9 16//9
f 10//10 16//10 18//10
f 10//11 18//11 20//11
f 10//12 20//12 22//12
f 10//13 22//13 24//13
f 10//14 24//14 26//14
f 10//15 26//15 28//15
f 10//16 28//16 30//16
f 10//17 30//17 32//17
f 10//18 32//18 34//18
f 10//19 34//19 36//19
f 10//20 36//20 38//20
f 10//21 38//21 40//21
f 10//22 40//22 42//22
f 10//23 42//23 44//23
f 10//24 44//24 46//24
f 10//25 46//25 48//25
f 10//26 48//26 50//26
f 10//27 50//27 52//27
f 10//28 52//28 54//28
f 10//29 54//29 56//29
f 10//30 56//30 58//30
f 10//31 58//31 60//31
f 10//32 60//32 62//32
f 10//33 62//33 64//33
f 10//34 64//34 66//34
f 10//35 66//35 68//35
f 10//36 68//36 70//36
f 10//37 70//37 72//37
f 10//38 72//38 74//38
f 11//39 12//39 74//39
f 11//39 74//39 73//39
f 12//40 11//40 13//40
f 12//40 13//40 14//40
f 14//41 13//41 15//41
f 14//41 15//41 16//41
f 16//42 15//42 17//42
f 16//42 17//42 18//42
f 18//43 17//43 19//43
f 18//43 19//43 20//43
f 20//44 19//44 21//44
f 20//44 21//44 22//44
f 22//45 21//45 23//45
f 22//45 23//45 24//45
f 24//46 23//46 25//46
f 24//46 25//46 26//46
f 26//47 25//47 27//47
f 26//47 27//47 28//47
f 28//48 27//48 29//48
f 28//48 29//48 30//48
f 30//49 29//49 31//49
f 30//49 31//49 32//49
f 32//50 31//50 33//50
f 32//50 33//50 34//50
f 34//51 33//51 35//51
f 34//51 35//51 36//51
f 36//52 35//52 37//52
f 36//52 37//52 38//52
f 38//53 37//53 39//53
f 38//53 39//53 40//53
f 40//54 39//54 41//54
f 40//54 41//54 42//54
f 42//55 41//55 43//55
f 42//55 43//55 44//55
f 44//56 43//56 45//56
f 44//56 45//56 46//56
f 46//57 45//57 47//57
f 46//57 47//57 48//57
f 48//58 47//58 49//58
f 48//58 49//58 50//58
f 50//59 49//59 51//59
f 50//59 51//59 52//59
f 52//60 51//60 53//60
f 52//60 53//60 54//60
f 54//61 53//61 55//61
f 54//61 55//61 56//61
f 56//62 55//62 57//62
f 56//62 57//62 58//62
f 58//63 57//63 59//63
f 58//63 59//63 60//63
f 60//64 59//64 61//64
f 60//64 61//64 62//64
f 62//65 61//65 63//65
f 62//65 63//65 64//65
f 64//66 63//66 65//66
f 64//66 65//66 66//66
f 66//67 65//67 67//67
f 66//67 67//67 68//67
f 68//68 67//68 69//68
f 68//68 69//68 70//68
f 70//69 69//69 71//69
f 70//69 71//69 72//69
f 72//70 71//70 73//70
f 72//70 73//70 74//70
f 9//71 11//71 73//71
f 11//72 9//72 13//72
f 13//72 9//72 15//72
f 15//71 9//71 17//71
f 17//72 9//72 19//72
f 19//73 9//73 21//73
f 21//74 9//74 23//74
f 23//75 9//75 25//75
f 25//72 9//72 27//72
f 27//71 9//71 29//71
f 29//76 9//76 31//76
f 31//71 9//71 33//71
f 33//71 9//71 35//71
f 35//77 9//77 37//77
f 37//71 9//71 39//71
f 39//71 9//71 41//71
f 41//78 9//78 43//78
f 43//79 9//79 45//79
f 45//80 9//80 47//80
f 47//75 9//75 49//75
f 49//72 9//72 51//72
f 51//72 9//72 53//72
f 53//72 9//72 55//72
f 55//75 9//75 57//75
f 57//81 9//81 59//81
f 59//72 9//72 61//72
f 61//76 9//76 63//76
f 63//71 9//71 65//71
f 65//72 9//72 67//72
f 67//72 9//72 69//72
f 69//72 9//72 71//72
f 71//72 9//72 73//72
