# Blender v2.64 (sub 0) OBJ File: ''
# www.blender.org
mtllib untitled_000023.mtl
o Cube
v -8.729040 -2.858973 10.487860
v -8.729040 -2.858973 -7.293924
v 9.052744 -2.858973 -7.293924
v 9.052744 -2.858973 10.487860
v -8.729040 14.922812 10.487860
v -8.729040 14.922812 -7.293924
v 9.052744 14.922812 -7.293924
v 9.052744 14.922812 10.487860
vn -1.000000 -0.000000 0.000000
vn 0.000000 0.000000 -1.000000
vn 1.000000 -0.000000 0.000000
vn 0.000000 0.000000 1.000000
vn -0.000000 -1.000000 0.000000
vn -0.000000 1.000000 0.000000
usemtl Material.003
s off
f 2//1 1//1 5//1
f 2//1 5//1 6//1
usemtl Material.005
f 6//2 7//2 3//2
f 6//2 3//2 2//2
usemtl Material.004
f 7//3 8//3 4//3
f 7//3 4//3 3//3
usemtl Material.002
f 1//4 4//4 8//4
f 1//4 8//4 5//4
usemtl Material.001
f 1//5 2//5 3//5
f 1//5 3//5 4//5
f 8//6 7//6 6//6
f 8//6 6//6 5//6
o Diamond
v -2.934867 2.219120 2.173693
v -1.912071 0.952640 1.673831
v -2.582442 2.748586 1.553320
v -2.036207 2.716113 0.987607
v -2.468884 2.790922 1.678413
v -1.846943 2.786673 1.196095
v -2.373233 2.811284 1.822540
v -1.687525 2.820610 1.436306
v -2.299165 2.808890 1.980161
v -1.564079 2.816619 1.699008
v -2.249527 2.783831 2.145219
v -1.481349 2.774854 1.974106
v -2.226226 2.737070 2.311372
v -1.442514 2.696920 2.251027
v -2.230158 2.670405 2.472234
v -1.449067 2.585812 2.519129
v -2.261172 2.586398 2.621623
v -1.500756 2.445799 2.768111
v -2.318075 2.488276 2.753798
v -1.595594 2.282262 2.988403
v -2.398681 2.379810 2.863680
v -1.729938 2.101486 3.171540
v -2.499892 2.265169 2.947046
v -1.898623 1.910419 3.310484
v -2.617819 2.148759 3.000693
v -2.095168 1.716402 3.399895
v -2.747931 2.035053 3.022559
v -2.312021 1.526890 3.436337
v -2.885226 1.928420 3.011803
v -2.540845 1.349169 3.418411
v -3.024428 1.832958 2.968839
v -2.772850 1.190067 3.346804
v -3.160189 1.752337 2.895318
v -2.999118 1.055698 3.224269
v -3.287291 1.689654 2.794065
v -3.210955 0.951226 3.055515
v -3.400849 1.647318 2.668972
v -3.400219 0.880666 2.847026
v -3.496500 1.626956 2.524846
v -3.559637 0.846729 2.606816
v -3.570568 1.629350 2.367224
v -3.683083 0.850720 2.344113
v -3.620206 1.654409 2.202166
v -3.765813 0.892485 2.069017
v -3.643507 1.701169 2.036014
v -3.804648 0.970419 1.792096
v -3.639575 1.767835 1.875152
v -3.798095 1.081527 1.523993
v -3.608562 1.851842 1.725763
v -3.746406 1.221540 1.275012
v -3.551659 1.949964 1.593587
v -3.651567 1.385077 1.054719
v -3.471053 2.058430 1.483705
v -3.517224 1.565852 0.871582
v -3.369841 2.173071 1.400339
v -3.348538 1.756920 0.732638
v -3.251914 2.289481 1.346692
v -3.151993 1.950937 0.643227
v -3.121803 2.403187 1.324827
v -2.935142 2.140448 0.606784
v -2.984508 2.509820 1.335582
v -2.706316 2.318170 0.624711
v -2.845305 2.605281 1.378546
v -2.474312 2.477272 0.696317
v -2.709544 2.685903 1.452068
v -2.248043 2.611641 0.818852
vn 0.672805 -0.226680 -0.704236
vn 0.758070 -0.189473 -0.624044
vn 0.832191 -0.167259 -0.528661
vn 0.892321 -0.160893 -0.421755
vn 0.936149 -0.170620 -0.307431
vn 0.961991 -0.196065 -0.190086
vn 0.968853 -0.236251 -0.074227
vn 0.956472 -0.289633 0.035692
vn 0.925324 -0.354160 0.135448
vn 0.876605 -0.427352 0.221207
vn 0.812189 -0.506397 0.289674
vn 0.734550 -0.588257 0.338216
vn 0.646672 -0.669786 0.364970
vn 0.551932 -0.747850 0.368906
vn 0.453970 -0.819451 0.349873
vn 0.356553 -0.881835 0.308604
vn 0.263423 -0.932607 0.246683
vn 0.178159 -0.969815 0.166490
vn 0.104037 -0.992028 0.071108
vn 0.043907 -0.998394 -0.035799
vn 0.000079 -0.988667 -0.150122
vn -0.025762 -0.963223 -0.267467
vn -0.032625 -0.923037 -0.383326
vn -0.020244 -0.869654 -0.493246
vn 0.010904 -0.805127 -0.593002
vn 0.059623 -0.731935 -0.678761
vn 0.124039 -0.652890 -0.747228
vn 0.201678 -0.571031 -0.795770
vn 0.289556 -0.489502 -0.822523
vn 0.384296 -0.411437 -0.826460
vn 0.482258 -0.339837 -0.807427
vn 0.579675 -0.277452 -0.766158
vn -0.235335 0.930514 -0.280646
vn -0.145475 0.969727 -0.196130
vn -0.067359 0.993137 -0.095607
vn -0.003987 0.999846 0.017063
vn 0.042203 0.989596 0.137547
vn 0.069438 0.962779 0.261218
vn 0.076670 0.920427 0.383322
vn 0.063622 0.864168 0.499166
vn 0.030795 0.796162 0.604299
vn -0.020550 0.719025 0.694681
vn -0.088438 0.635720 0.766837
vn -0.170262 0.549448 0.817996
vn -0.262877 0.463525 0.846192
vn -0.362724 0.381252 0.850340
vn -0.465965 0.305792 0.830282
vn -0.568633 0.240045 0.786787
vn -0.666783 0.186537 0.721529
vn -0.756644 0.147324 0.637013
vn -0.834760 0.123913 0.536490
vn -0.898131 0.117204 0.423821
vn -0.944321 0.127455 0.303336
vn -0.971556 0.154271 0.179665
vn -0.978788 0.196623 0.057562
vn -0.965740 0.252883 -0.058283
vn -0.932913 0.320888 -0.163415
vn -0.881569 0.398025 -0.253797
vn -0.813679 0.481331 -0.325954
vn -0.731856 0.567603 -0.377113
vn -0.639241 0.653526 -0.405308
vn -0.539395 0.735798 -0.409457
vn -0.436154 0.811258 -0.389398
vn -0.333484 0.877005 -0.345904
vn -0.600612 0.743710 0.293531
vn -0.600612 0.743710 0.293532
vn -0.600613 0.743709 0.293532
vn -0.600613 0.743709 0.293531
vn -0.600613 0.743710 0.293531
usemtl Material
s off
f 12//7 10//7 74//7
f 10//8 12//8 14//8
f 10//9 14//9 16//9
f 10//10 16//10 18//10
f 10//11 18//11 20//11
f 10//12 20//12 22//12
f 10//13 22//13 24//13
f 10//14 24//14 26//14
f 10//15 26//15 28//15
f 10//16 28//16 30//16
f 10//17 30//17 32//17
f 10//18 32//18 34//18
f 10//19 34//19 36//19
f 10//20 36//20 38//20
f 10//21 38//21 40//21
f 10//22 40//22 42//22
f 10//23 42//23 44//23
f 10//24 44//24 46//24
f 10//25 46//25 48//25
f 10//26 48//26 50//26
f 10//27 50//27 52//27
f 10//28 52//28 54//28
f 10//29 54//29 56//29
f 10//30 56//30 58//30
f 10//31 58//31 60//31
f 10//32 60//32 62//32
f 10//33 62//33 64//33
f 10//34 64//34 66//34
f 10//35 66//35 68//35
f 10//36 68//36 70//36
f 10//37 70//37 72//37
f 10//38 72//38 74//38
f 11//39 12//39 74//39
f 11//39 74//39 73//39
f 12//40 11//40 13//40
f 12//40 13//40 14//40
f 14//41 13//41 15//41
f 14//41 15//41 16//41
f 16//42 15//42 17//42
f 16//42 17//42 18//42
f 18//43 17//43 19//43
f 18//43 19//43 20//43
f 20//44 19//44 21//44
f 20//44 21//44 22//44
f 22//45 21//45 23//45
f 22//45 23//45 24//45
f 24//46 23//46 25//46
f 24//46 25//46 26//46
f 26//47 25//47 27//47
f 26//47 27//47 28//47
f 28//48 27//48 29//48
f 28//48 29//48 30//48
f 30//49 29//49 31//49
f 30//49 31//49 32//49
f 32//50 31//50 33//50
f 32//50 33//50 34//50
f 34//51 33//51 35//51
f 34//51 35//51 36//51
f 36//52 35//52 37//52
f 36//52 37//52 38//52
f 38//53 37//53 39//53
f 38//53 39//53 40//53
f 40//54 39//54 41//54
f 40//54 41//54 42//54
f 42//55 41//55 43//55
f 42//55 43//55 44//55
f 44//56 43//56 45//56
f 44//56 45//56 46//56
f 46//57 45//57 47//57
f 46//57 47//57 48//57
f 48//58 47//58 49//58
f 48//58 49//58 50//58
f 50//59 49//59 51//59
f 50//59 51//59 52//59
f 52//60 51//60 53//60
f 52//60 53//60 54//60
f 54//61 53//61 55//61
f 54//61 55//61 56//61
f 56//62 55//62 57//62
f 56//62 57//62 58//62
f 58//63 57//63 59//63
f 58//63 59//63 60//63
f 60//64 59//64 61//64
f 60//64 61//64 62//64
f 62//65 61//65 63//65
f 62//65 63//65 64//65
f 64//66 63//66 65//66
f 64//66 65//66 66//66
f 66//67 65//67 67//67
f 66//67 67//67 68//67
f 68//68 67//68 69//68
f 68//68 69//68 70//68
f 70//69 69//69 71//69
f 70//69 71//69 72//69
f 72//70 71//70 73//70
f 72//70 73//70 74//70
f 9//71 11//71 73//71
f 11//71 9//71 13//71
f 13//71 9//71 15//71
f 15//72 9//72 17//72
f 17//71 9//71 19//71
f 19//72 9//72 21//72
f 21//71 9//71 23//71
f 23//72 9//72 25//72
f 25//71 9//71 27//71
f 27//73 9//73 29//73
f 29//71 9//71 31//71
f 31//71 9//71 33//71
f 33//71 9//71 35//71
f 35//71 9//71 37//71
f 37//74 9//74 39//74
f 39//72 9//72 41//72
f 41//72 9//72 43//72
f 43//75 9//75 45//75
f 45//72 9//72 47//72
f 47//71 9//71 49//71
f 49//72 9//72 51//72
f 51//71 9//71 53//71
f 53//71 9//71 55//71
f 55//71 9//71 57//71
f 57//71 9//71 59//71
f 59//73 9//73 61//73
f 61//71 9//71 63//71
f 63//71 9//71 65//71
f 65//71 9//71 67//71
f 67//71 9//71 69//71
f 69//75 9//75 71//75
f 71//71 9//71 73//71
