# Blender v2.64 (sub 0) OBJ File: ''
# www.blender.org
mtllib untitled_000052.mtl
o Cube
v -8.729040 -2.858973 10.487860
v -8.729040 -2.858973 -7.293924
v 9.052744 -2.858973 -7.293924
v 9.052744 -2.858973 10.487860
v -8.729040 14.922812 10.487860
v -8.729040 14.922812 -7.293924
v 9.052744 14.922812 -7.293924
v 9.052744 14.922812 10.487860
vn -1.000000 -0.000000 0.000000
vn 0.000000 0.000000 -1.000000
vn 1.000000 -0.000000 0.000000
vn 0.000000 0.000000 1.000000
vn -0.000000 -1.000000 0.000000
vn -0.000000 1.000000 0.000000
usemtl Material.003
s off
f 2//1 1//1 5//1
f 2//1 5//1 6//1
usemtl Material.005
f 6//2 7//2 3//2
f 6//2 3//2 2//2
usemtl Material.004
f 7//3 8//3 4//3
f 7//3 4//3 3//3
usemtl Material.002
f 1//4 4//4 8//4
f 1//4 8//4 5//4
usemtl Material.001
f 1//5 2//5 3//5
f 1//5 3//5 4//5
f 8//6 7//6 6//6
f 8//6 6//6 5//6
o Diamond
v -2.280715 2.227020 -1.351576
v -3.287602 0.934582 -1.816042
v -1.699149 2.001297 -1.984213
v -1.617883 1.457465 -2.547331
v -1.628664 1.901714 -1.859911
v -1.500407 1.291493 -2.340160
v -1.583236 1.814632 -1.716074
v -1.424694 1.146356 -2.100431
v -1.564612 1.743398 -1.558229
v -1.393654 1.027632 -1.837357
v -1.573508 1.690749 -1.392442
v -1.408480 0.939884 -1.561046
v -1.609581 1.658708 -1.225085
v -1.468602 0.886483 -1.282117
v -1.671445 1.648508 -1.062590
v -1.571709 0.869483 -1.011292
v -1.756723 1.660540 -0.911199
v -1.713839 0.889535 -0.758974
v -1.862138 1.694340 -0.776732
v -1.889531 0.945870 -0.534863
v -1.983639 1.748612 -0.664356
v -2.092032 1.036323 -0.347569
v -2.116556 1.821269 -0.578390
v -2.313561 1.157417 -0.204292
v -2.255782 1.909518 -0.522137
v -2.545603 1.304499 -0.110536
v -2.395966 2.009969 -0.497758
v -2.779243 1.471917 -0.069905
v -2.531720 2.118761 -0.506191
v -3.005501 1.653237 -0.083961
v -2.657829 2.231713 -0.547112
v -3.215683 1.841491 -0.152162
v -2.769446 2.344485 -0.618948
v -3.401710 2.029444 -0.271889
v -2.862281 2.452743 -0.718939
v -3.556435 2.209874 -0.438540
v -2.932766 2.552326 -0.843241
v -3.673911 2.375846 -0.645711
v -2.978194 2.639408 -0.987078
v -3.749624 2.520983 -0.885439
v -2.996818 2.710642 -1.144924
v -3.780664 2.639707 -1.148515
v -2.987922 2.763291 -1.310710
v -3.765838 2.727455 -1.424825
v -2.951849 2.795331 -1.478066
v -3.705716 2.780855 -1.703752
v -2.889985 2.805532 -1.640563
v -3.602609 2.797856 -1.974580
v -2.804707 2.793501 -1.791953
v -3.460479 2.777804 -2.226896
v -2.699292 2.759700 -1.926420
v -3.284787 2.721468 -2.451008
v -2.577791 2.705428 -2.038796
v -3.082286 2.631016 -2.638301
v -2.444874 2.632771 -2.124763
v -2.860757 2.509922 -2.781579
v -2.305648 2.544522 -2.181016
v -2.628715 2.362840 -2.875335
v -2.165465 2.444072 -2.205394
v -2.395075 2.195422 -2.915966
v -2.029710 2.335279 -2.196961
v -2.168817 2.014102 -2.901910
v -1.903601 2.222327 -2.156040
v -1.958636 1.825848 -2.833709
v -1.791984 2.109555 -2.084204
v -1.772607 1.637895 -2.713982
vn -0.081635 -0.713113 -0.696280
vn -0.023772 -0.786749 -0.616815
vn 0.017295 -0.852883 -0.521815
vn 0.039988 -0.908974 -0.414931
vn 0.043435 -0.952864 -0.300271
vn 0.027503 -0.982869 -0.182241
vn -0.007195 -0.997835 -0.065377
vn -0.059327 -0.997186 0.045830
vn -0.126888 -0.980948 0.147108
vn -0.207283 -0.949744 0.234562
vn -0.297421 -0.904775 0.304833
vn -0.393839 -0.847767 0.355221
vn -0.492831 -0.780912 0.383788
vn -0.590595 -0.706779 0.389437
vn -0.683371 -0.628217 0.371952
vn -0.767595 -0.548245 0.332003
vn -0.840031 -0.469935 0.271126
vn -0.897894 -0.396299 0.191660
vn -0.938961 -0.330164 0.096660
vn -0.961654 -0.274074 -0.010223
vn -0.965101 -0.230183 -0.124883
vn -0.949169 -0.200178 -0.242914
vn -0.914471 -0.185213 -0.359777
vn -0.862339 -0.185862 -0.470985
vn -0.794778 -0.202100 -0.572262
vn -0.714383 -0.233303 -0.659717
vn -0.624245 -0.278273 -0.729988
vn -0.527827 -0.335280 -0.780375
vn -0.428834 -0.402135 -0.808943
vn -0.331071 -0.476269 -0.814592
vn -0.238295 -0.554831 -0.797106
vn -0.154071 -0.634803 -0.757157
vn 0.843680 0.441830 -0.304943
vn 0.904662 0.364224 -0.221194
vn 0.947943 0.294526 -0.121074
vn 0.971859 0.235412 -0.008429
vn 0.975492 0.189155 0.112412
vn 0.958701 0.157533 0.236804
vn 0.922132 0.141761 0.359967
vn 0.867191 0.142445 0.477168
vn 0.795988 0.159558 0.583905
vn 0.711260 0.192444 0.676073
vn 0.616263 0.239837 0.750132
vn 0.514648 0.299918 0.803235
vn 0.410320 0.370376 0.833342
vn 0.307287 0.448505 0.839296
vn 0.209510 0.531302 0.820868
vn 0.120746 0.615585 0.778765
vn 0.044406 0.698115 0.714608
vn -0.016576 0.775721 0.630858
vn -0.059857 0.845419 0.530739
vn -0.083773 0.904533 0.418093
vn -0.087406 0.950789 0.297254
vn -0.070615 0.982412 0.172861
vn -0.034046 0.998184 0.049698
vn 0.020895 0.997500 -0.067504
vn 0.092098 0.980387 -0.174240
vn 0.176826 0.947502 -0.266408
vn 0.271824 0.900108 -0.340468
vn 0.373438 0.840028 -0.393570
vn 0.477766 0.769569 -0.423678
vn 0.580799 0.691440 -0.429631
vn 0.678576 0.608643 -0.411203
vn 0.767340 0.524360 -0.369101
vn 0.591270 0.758953 0.272747
vn 0.591270 0.758953 0.272746
vn 0.591270 0.758952 0.272747
vn 0.591270 0.758952 0.272746
vn 0.591269 0.758953 0.272747
vn 0.591271 0.758952 0.272747
vn 0.591270 0.758952 0.272748
vn 0.591271 0.758952 0.272746
usemtl Material
s off
f 12//7 10//7 74//7
f 10//8 12//8 14//8
f 10//9 14//9 16//9
f 10//10 16//10 18//10
f 10//11 18//11 20//11
f 10//12 20//12 22//12
f 10//13 22//13 24//13
f 10//14 24//14 26//14
f 10//15 26//15 28//15
f 10//16 28//16 30//16
f 10//17 30//17 32//17
f 10//18 32//18 34//18
f 10//19 34//19 36//19
f 10//20 36//20 38//20
f 10//21 38//21 40//21
f 10//22 40//22 42//22
f 10//23 42//23 44//23
f 10//24 44//24 46//24
f 10//25 46//25 48//25
f 10//26 48//26 50//26
f 10//27 50//27 52//27
f 10//28 52//28 54//28
f 10//29 54//29 56//29
f 10//30 56//30 58//30
f 10//31 58//31 60//31
f 10//32 60//32 62//32
f 10//33 62//33 64//33
f 10//34 64//34 66//34
f 10//35 66//35 68//35
f 10//36 68//36 70//36
f 10//37 70//37 72//37
f 10//38 72//38 74//38
f 11//39 12//39 74//39
f 11//39 74//39 73//39
f 12//40 11//40 13//40
f 12//40 13//40 14//40
f 14//41 13//41 15//41
f 14//41 15//41 16//41
f 16//42 15//42 17//42
f 16//42 17//42 18//42
f 18//43 17//43 19//43
f 18//43 19//43 20//43
f 20//44 19//44 21//44
f 20//44 21//44 22//44
f 22//45 21//45 23//45
f 22//45 23//45 24//45
f 24//46 23//46 25//46
f 24//46 25//46 26//46
f 26//47 25//47 27//47
f 26//47 27//47 28//47
f 28//48 27//48 29//48
f 28//48 29//48 30//48
f 30//49 29//49 31//49
f 30//49 31//49 32//49
f 32//50 31//50 33//50
f 32//50 33//50 34//50
f 34//51 33//51 35//51
f 34//51 35//51 36//51
f 36//52 35//52 37//52
f 36//52 37//52 38//52
f 38//53 37//53 39//53
f 38//53 39//53 40//53
f 40//54 39//54 41//54
f 40//54 41//54 42//54
f 42//55 41//55 43//55
f 42//55 43//55 44//55
f 44//56 43//56 45//56
f 44//56 45//56 46//56
f 46//57 45//57 47//57
f 46//57 47//57 48//57
f 48//58 47//58 49//58
f 48//58 49//58 50//58
f 50//59 49//59 51//59
f 50//59 51//59 52//59
f 52//60 51//60 53//60
f 52//60 53//60 54//60
f 54//61 53//61 55//61
f 54//61 55//61 56//61
f 56//62 55//62 57//62
f 56//62 57//62 58//62
f 58//63 57//63 59//63
f 58//63 59//63 60//63
f 60//64 59//64 61//64
f 60//64 61//64 62//64
f 62//65 61//65 63//65
f 62//65 63//65 64//65
f 64//66 63//66 65//66
f 64//66 65//66 66//66
f 66//67 65//67 67//67
f 66//67 67//67 68//67
f 68//68 67//68 69//68
f 68//68 69//68 70//68
f 70//69 69//69 71//69
f 70//69 71//69 72//69
f 72//70 71//70 73//70
f 72//70 73//70 74//70
f 9//71 11//71 73//71
f 11//72 9//72 13//72
f 13//72 9//72 15//72
f 15//72 9//72 17//72
f 17//73 9//73 19//73
f 19//73 9//73 21//73
f 21//72 9//72 23//72
f 23//72 9//72 25//72
f 25//71 9//71 27//71
f 27//71 9//71 29//71
f 29//74 9//74 31//74
f 31//75 9//75 33//75
f 33//71 9//71 35//71
f 35//76 9//76 37//76
f 37//71 9//71 39//71
f 39//71 9//71 41//71
f 41//73 9//73 43//73
f 43//72 9//72 45//72
f 45//73 9//73 47//73
f 47//72 9//72 49//72
f 49//77 9//77 51//77
f 51//72 9//72 53//72
f 53//72 9//72 55//72
f 55//71 9//71 57//71
f 57//71 9//71 59//71
f 59//71 9//71 61//71
f 61//78 9//78 63//78
f 63//75 9//75 65//75
f 65//73 9//73 67//73
f 67//71 9//71 69//71
f 69//71 9//71 71//71
f 71//73 9//73 73//73
