# Blender v2.64 (sub 0) OBJ File: ''
# www.blender.org
mtllib untitled_000021.mtl
o Cube
v -8.729040 -2.858973 10.487860
v -8.729040 -2.858973 -7.293924
v 9.052744 -2.858973 -7.293924
v 9.052744 -2.858973 10.487860
v -8.729040 14.922812 10.487860
v -8.729040 14.922812 -7.293924
v 9.052744 14.922812 -7.293924
v 9.052744 14.922812 10.487860
vn -1.000000 -0.000000 0.000000
vn 0.000000 0.000000 -1.000000
vn 1.000000 -0.000000 0.000000
vn 0.000000 0.000000 1.000000
vn -0.000000 -1.000000 0.000000
vn -0.000000 1.000000 0.000000
usemtl Material.003
s off
f 2//1 1//1 5//1
f 2//1 5//1 6//1
usemtl Material.005
f 6//2 7//2 3//2
f 6//2 3//2 2//2
usemtl Material.004
f 7//3 8//3 4//3
f 7//3 4//3 3//3
usemtl Material.002
f 1//4 4//4 8//4
f 1//4 8//4 5//4
usemtl Material.001
f 1//5 2//5 3//5
f 1//5 3//5 4//5
f 8//6 7//6 6//6
f 8//6 6//6 5//6
o Diamond
v -2.702815 2.229525 2.156051
v -1.696365 0.928858 1.714155
v -2.314731 2.739032 1.540265
v -1.749698 2.682849 0.995251
v -2.204638 2.780596 1.668671
v -1.566209 2.752122 1.209262
v -2.113689 2.800983 1.815807
v -1.414628 2.786100 1.454488
v -2.045381 2.799409 1.976018
v -1.300781 2.783477 1.721506
v -2.002337 2.775934 2.143148
v -1.229041 2.744352 2.000056
v -1.986212 2.731462 2.310774
v -1.202166 2.670231 2.279432
v -1.997625 2.667700 2.472453
v -1.221189 2.563961 2.548898
v -2.036139 2.587099 2.621974
v -1.285379 2.429627 2.798099
v -2.100273 2.492757 2.753589
v -1.392268 2.272390 3.017458
v -2.187562 2.388299 2.862242
v -1.537750 2.098293 3.198545
v -2.294652 2.277739 2.943755
v -1.716233 1.914027 3.334401
v -2.417427 2.165327 2.994998
v -1.920858 1.726673 3.419806
v -2.551170 2.055381 3.014000
v -2.143764 1.543431 3.451477
v -2.690740 1.952128 3.000033
v -2.376380 1.371343 3.428197
v -2.830775 1.859535 2.953631
v -2.609771 1.217021 3.350861
v -2.965891 1.781161 2.876578
v -2.834965 1.086397 3.222440
v -3.090898 1.720017 2.771837
v -3.043310 0.984490 3.047871
v -3.200991 1.678453 2.643431
v -3.226799 0.915216 2.833860
v -3.291940 1.658066 2.496295
v -3.378379 0.881239 2.588634
v -3.360249 1.659640 2.336084
v -3.492227 0.883862 2.321615
v -3.403292 1.683115 2.168954
v -3.563967 0.922987 2.043066
v -3.419417 1.727587 2.001329
v -3.590842 0.997108 1.763691
v -3.408003 1.791349 1.839649
v -3.571819 1.103378 1.494224
v -3.369490 1.871950 1.690129
v -3.507629 1.237712 1.245023
v -3.305356 1.966292 1.558513
v -3.400740 1.394949 1.025664
v -3.218067 2.070750 1.449861
v -3.255258 1.569045 0.844577
v -3.110977 2.181310 1.368347
v -3.076775 1.753312 0.708720
v -2.988202 2.293722 1.317104
v -2.872149 1.940665 0.623316
v -2.854459 2.403667 1.298102
v -2.649245 2.123907 0.591645
v -2.714889 2.506921 1.312070
v -2.416628 2.295996 0.614925
v -2.574855 2.599514 1.358471
v -2.183238 2.450318 0.692261
v -2.439738 2.677888 1.435524
v -1.958042 2.580942 0.820682
vn 0.691334 -0.255924 -0.675693
vn 0.774628 -0.219535 -0.593090
vn 0.845855 -0.197586 -0.495468
vn 0.902279 -0.190921 -0.386577
vn 0.941730 -0.199796 -0.270603
vn 0.962693 -0.223869 -0.152002
vn 0.964362 -0.262216 -0.035331
vn 0.946673 -0.313362 0.074924
vn 0.910306 -0.375343 0.174529
vn 0.856658 -0.445776 0.259654
vn 0.787791 -0.521955 0.327028
vn 0.706352 -0.600953 0.374063
vn 0.615469 -0.679733 0.398950
vn 0.518637 -0.755267 0.400734
vn 0.419575 -0.824654 0.379345
vn 0.322091 -0.885226 0.335607
vn 0.229931 -0.934657 0.271199
vn 0.146637 -0.971045 0.188596
vn 0.075409 -0.992994 0.090973
vn 0.018986 -0.999659 -0.017917
vn -0.020466 -0.990785 -0.133892
vn -0.041429 -0.966712 -0.252493
vn -0.043098 -0.928365 -0.369163
vn -0.025409 -0.877218 -0.479419
vn 0.010958 -0.815237 -0.579023
vn 0.064606 -0.744804 -0.664148
vn 0.133474 -0.668624 -0.731523
vn 0.214913 -0.589628 -0.778557
vn 0.305795 -0.510848 -0.803445
vn 0.402628 -0.435313 -0.805229
vn 0.501690 -0.365926 -0.783840
vn 0.599174 -0.305354 -0.740101
vn -0.200713 0.931260 -0.304086
vn -0.112930 0.969610 -0.217031
vn -0.037863 0.992742 -0.114147
vn 0.021602 0.999766 0.000613
vn 0.063180 0.990414 0.122839
vn 0.085273 0.965043 0.247833
vn 0.087032 0.924629 0.370792
vn 0.068389 0.870726 0.486990
vn 0.030062 0.805404 0.591964
vn -0.026478 0.731174 0.681677
vn -0.099057 0.650889 0.752683
vn -0.184886 0.567634 0.802253
vn -0.280667 0.484608 0.828481
vn -0.382719 0.405002 0.830361
vn -0.487120 0.331875 0.807820
vn -0.589859 0.268037 0.761723
vn -0.686986 0.215943 0.693844
vn -0.774770 0.177593 0.606789
vn -0.849837 0.154461 0.503904
vn -0.909301 0.147437 0.389145
vn -0.950879 0.156790 0.266919
vn -0.972972 0.182160 0.141926
vn -0.974731 0.222574 0.018965
vn -0.956089 0.276477 -0.097232
vn -0.917762 0.341799 -0.202206
vn -0.861222 0.416029 -0.291919
vn -0.788643 0.496314 -0.362925
vn -0.702814 0.579570 -0.412495
vn -0.607033 0.662595 -0.438724
vn -0.504981 0.742201 -0.440604
vn -0.400579 0.815328 -0.418062
vn -0.297841 0.879166 -0.371966
vn -0.591012 0.763785 0.259493
vn -0.591013 0.763785 0.259492
vn -0.591012 0.763785 0.259494
vn -0.591013 0.763785 0.259493
vn -0.591013 0.763784 0.259494
vn -0.591012 0.763786 0.259492
vn -0.591013 0.763785 0.259494
vn -0.591013 0.763785 0.259491
vn -0.591012 0.763785 0.259492
vn -0.591013 0.763784 0.259493
vn -0.591014 0.763784 0.259492
usemtl Material
s off
f 12//7 10//7 74//7
f 10//8 12//8 14//8
f 10//9 14//9 16//9
f 10//10 16//10 18//10
f 10//11 18//11 20//11
f 10//12 20//12 22//12
f 10//13 22//13 24//13
f 10//14 24//14 26//14
f 10//15 26//15 28//15
f 10//16 28//16 30//16
f 10//17 30//17 32//17
f 10//18 32//18 34//18
f 10//19 34//19 36//19
f 10//20 36//20 38//20
f 10//21 38//21 40//21
f 10//22 40//22 42//22
f 10//23 42//23 44//23
f 10//24 44//24 46//24
f 10//25 46//25 48//25
f 10//26 48//26 50//26
f 10//27 50//27 52//27
f 10//28 52//28 54//28
f 10//29 54//29 56//29
f 10//30 56//30 58//30
f 10//31 58//31 60//31
f 10//32 60//32 62//32
f 10//33 62//33 64//33
f 10//34 64//34 66//34
f 10//35 66//35 68//35
f 10//36 68//36 70//36
f 10//37 70//37 72//37
f 10//38 72//38 74//38
f 11//39 12//39 74//39
f 11//39 74//39 73//39
f 12//40 11//40 13//40
f 12//40 13//40 14//40
f 14//41 13//41 15//41
f 14//41 15//41 16//41
f 16//42 15//42 17//42
f 16//42 17//42 18//42
f 18//43 17//43 19//43
f 18//43 19//43 20//43
f 20//44 19//44 21//44
f 20//44 21//44 22//44
f 22//45 21//45 23//45
f 22//45 23//45 24//45
f 24//46 23//46 25//46
f 24//46 25//46 26//46
f 26//47 25//47 27//47
f 26//47 27//47 28//47
f 28//48 27//48 29//48
f 28//48 29//48 30//48
f 30//49 29//49 31//49
f 30//49 31//49 32//49
f 32//50 31//50 33//50
f 32//50 33//50 34//50
f 34//51 33//51 35//51
f 34//51 35//51 36//51
f 36//52 35//52 37//52
f 36//52 37//52 38//52
f 38//53 37//53 39//53
f 38//53 39//53 40//53
f 40//54 39//54 41//54
f 40//54 41//54 42//54
f 42//55 41//55 43//55
f 42//55 43//55 44//55
f 44//56 43//56 45//56
f 44//56 45//56 46//56
f 46//57 45//57 47//57
f 46//57 47//57 48//57
f 48//58 47//58 49//58
f 48//58 49//58 50//58
f 50//59 49//59 51//59
f 50//59 51//59 52//59
f 52//60 51//60 53//60
f 52//60 53//60 54//60
f 54//61 53//61 55//61
f 54//61 55//61 56//61
f 56//62 55//62 57//62
f 56//62 57//62 58//62
f 58//63 57//63 59//63
f 58//63 59//63 60//63
f 60//64 59//64 61//64
f 60//64 61//64 62//64
f 62//65 61//65 63//65
f 62//65 63//65 64//65
f 64//66 63//66 65//66
f 64//66 65//66 66//66
f 66//67 65//67 67//67
f 66//67 67//67 68//67
f 68//68 67//68 69//68
f 68//68 69//68 70//68
f 70//69 69//69 71//69
f 70//69 71//69 72//69
f 72//70 71//70 73//70
f 72//70 73//70 74//70
f 9//71 11//71 73//71
f 11//71 9//71 13//71
f 13//72 9//72 15//72
f 15//72 9//72 17//72
f 17//73 9//73 19//73
f 19//72 9//72 21//72
f 21//74 9//74 23//74
f 23//74 9//74 25//74
f 25//74 9//74 27//74
f 27//75 9//75 29//75
f 29//76 9//76 31//76
f 31//74 9//74 33//74
f 33//74 9//74 35//74
f 35//71 9//71 37//71
f 37//74 9//74 39//74
f 39//74 9//74 41//74
f 41//74 9//74 43//74
f 43//74 9//74 45//74
f 45//74 9//74 47//74
f 47//74 9//74 49//74
f 49//72 9//72 51//72
f 51//77 9//77 53//77
f 53//78 9//78 55//78
f 55//74 9//74 57//74
f 57//74 9//74 59//74
f 59//79 9//79 61//79
f 61//79 9//79 63//79
f 63//74 9//74 65//74
f 65//80 9//80 67//80
f 67//71 9//71 69//71
f 69//74 9//74 71//74
f 71//81 9//81 73//81
