# Blender v2.64 (sub 0) OBJ File: ''
# www.blender.org
mtllib untitled_000079.mtl
o Cube
v -8.729040 -2.858973 10.487860
v -8.729040 -2.858973 -7.293924
v 9.052744 -2.858973 -7.293924
v 9.052744 -2.858973 10.487860
v -8.729040 14.922812 10.487860
v -8.729040 14.922812 -7.293924
v 9.052744 14.922812 -7.293924
v 9.052744 14.922812 10.487860
vn -1.000000 -0.000000 0.000000
vn 0.000000 0.000000 -1.000000
vn 1.000000 -0.000000 0.000000
vn 0.000000 0.000000 1.000000
vn -0.000000 -1.000000 0.000000
vn -0.000000 1.000000 0.000000
usemtl Material.003
s off
f 2//1 1//1 5//1
f 2//1 5//1 6//1
usemtl Material.005
f 6//2 7//2 3//2
f 6//2 3//2 2//2
usemtl Material.004
f 7//3 8//3 4//3
f 7//3 4//3 3//3
usemtl Material.002
f 1//4 4//4 8//4
f 1//4 8//4 5//4
usemtl Material.001
f 1//5 2//5 3//5
f 1//5 3//5 4//5
f 8//6 7//6 6//6
f 8//6 6//6 5//6
o Diamond
v 4.502148 2.560748 -0.899856
v 5.432497 1.221697 -1.391120
v 3.854803 2.315281 -1.456714
v 3.706390 1.744100 -1.977468
v 3.938851 2.415782 -1.571482
v 3.846471 1.911601 -2.168748
v 4.044547 2.521854 -1.660440
v 4.022629 2.088387 -2.317011
v 4.167827 2.629420 -1.720169
v 4.228097 2.267665 -2.416559
v 4.303956 2.734347 -1.748374
v 4.454978 2.442544 -2.463567
v 4.447701 2.832603 -1.743970
v 4.694552 2.606303 -2.456229
v 4.593537 2.920412 -1.707128
v 4.937613 2.752651 -2.394825
v 4.735862 2.994399 -1.639263
v 5.174822 2.875963 -2.281717
v 4.869206 3.051721 -1.542983
v 5.397061 2.971499 -2.121250
v 4.988444 3.090175 -1.421988
v 5.595791 3.035590 -1.919591
v 5.088994 3.108284 -1.280927
v 5.763373 3.065771 -1.684490
v 5.166991 3.105351 -1.125223
v 5.893369 3.060883 -1.424983
v 5.219439 3.081489 -0.960857
v 5.980783 3.021113 -1.151040
v 5.244321 3.037616 -0.794148
v 6.022254 2.947991 -0.873191
v 5.240683 2.975416 -0.631500
v 6.016190 2.844325 -0.602112
v 5.208663 2.897282 -0.479166
v 5.962823 2.714100 -0.348221
v 5.149492 2.806214 -0.342998
v 5.864204 2.562321 -0.121274
v 5.065444 2.705713 -0.228230
v 5.724124 2.394820 0.070006
v 4.959749 2.599642 -0.139272
v 5.547966 2.218034 0.218269
v 4.836468 2.492075 -0.079543
v 5.342498 2.038756 0.317817
v 4.700340 2.387148 -0.051338
v 5.115618 1.863878 0.364825
v 4.556595 2.288892 -0.055741
v 4.876044 1.700118 0.357486
v 4.410758 2.201083 -0.092583
v 4.632981 1.553770 0.296083
v 4.268433 2.127096 -0.160448
v 4.395773 1.430459 0.182975
v 4.135089 2.069774 -0.256729
v 4.173533 1.334922 0.022507
v 4.015851 2.031320 -0.377724
v 3.974804 1.270831 -0.179151
v 3.915302 2.013211 -0.518784
v 3.807221 1.240650 -0.414252
v 3.837305 2.016144 -0.674489
v 3.677226 1.245539 -0.673759
v 3.784857 2.040006 -0.838854
v 3.589813 1.285308 -0.947701
v 3.759974 2.083880 -1.005564
v 3.548341 1.358431 -1.225552
v 3.763612 2.146079 -1.168211
v 3.554405 1.462096 -1.496630
v 3.795632 2.224214 -1.320546
v 3.607772 1.592321 -1.750522
vn -0.053859 -0.819056 -0.571180
vn -0.003117 -0.751184 -0.660085
vn 0.064107 -0.677998 -0.732263
vn 0.145231 -0.602307 -0.784942
vn 0.237138 -0.527022 -0.816096
vn 0.336294 -0.455036 -0.824529
vn 0.438892 -0.389114 -0.809916
vn 0.540984 -0.331792 -0.772820
vn 0.638653 -0.285270 -0.714663
vn 0.728140 -0.251337 -0.637685
vn 0.806009 -0.231297 -0.544840
vn 0.869266 -0.225921 -0.439700
vn 0.915483 -0.235414 -0.326300
vn 0.942880 -0.259412 -0.209004
vn 0.950407 -0.296993 -0.092314
vn 0.937773 -0.346712 0.019281
vn 0.905465 -0.406660 0.121496
vn 0.854724 -0.474530 0.210400
vn 0.787499 -0.547718 0.282579
vn 0.706375 -0.623407 0.335257
vn 0.614468 -0.698693 0.366412
vn 0.515311 -0.770679 0.374845
vn 0.412715 -0.836600 0.360232
vn 0.310621 -0.893923 0.323135
vn 0.212954 -0.940445 0.264980
vn 0.123466 -0.974378 0.188000
vn 0.045597 -0.994418 0.095156
vn -0.017661 -0.999794 -0.009986
vn -0.063877 -0.990301 -0.123384
vn -0.091274 -0.966303 -0.240681
vn -0.098801 -0.928722 -0.357370
vn -0.086168 -0.879003 -0.468966
vn -0.915806 0.373217 -0.148356
vn -0.862329 0.444746 -0.242052
vn -0.791482 0.521877 -0.318121
vn -0.705984 0.601648 -0.373639
vn -0.609124 0.680991 -0.406473
vn -0.504622 0.756857 -0.415360
vn -0.396495 0.826332 -0.399959
vn -0.288899 0.886744 -0.360863
vn -0.185967 0.935774 -0.299573
vn -0.091656 0.971536 -0.218444
vn -0.009590 0.992655 -0.120596
vn 0.057077 0.998322 -0.009787
vn 0.105785 0.988317 0.109724
vn 0.134659 0.963026 0.233343
vn 0.142591 0.923419 0.356322
vn 0.129277 0.871020 0.473932
vn 0.095227 0.807841 0.581656
vn 0.041750 0.736312 0.675353
vn -0.029098 0.659180 0.751422
vn -0.114595 0.579410 0.806940
vn -0.211455 0.500067 0.839774
vn -0.315956 0.424201 0.848661
vn -0.424083 0.354726 0.833260
vn -0.531679 0.294314 0.794164
vn -0.634612 0.245284 0.732874
vn -0.728922 0.209522 0.651746
vn -0.810989 0.188402 0.553896
vn -0.877656 0.182736 0.443088
vn -0.926363 0.192741 0.323578
vn -0.955238 0.218032 0.199957
vn -0.963170 0.257639 0.076979
vn -0.949855 0.310038 -0.040631
vn -0.546325 0.786325 0.288483
vn -0.546324 0.786325 0.288483
vn -0.546326 0.786324 0.288483
vn -0.546325 0.786325 0.288484
vn -0.546324 0.786325 0.288484
vn -0.546325 0.786325 0.288482
vn -0.546325 0.786324 0.288485
vn -0.546326 0.786324 0.288484
vn -0.546325 0.786324 0.288483
vn -0.546326 0.786325 0.288482
vn -0.546324 0.786324 0.288485
usemtl Material
s off
f 12//7 10//7 74//7
f 10//8 12//8 14//8
f 10//9 14//9 16//9
f 10//10 16//10 18//10
f 10//11 18//11 20//11
f 10//12 20//12 22//12
f 10//13 22//13 24//13
f 10//14 24//14 26//14
f 10//15 26//15 28//15
f 10//16 28//16 30//16
f 10//17 30//17 32//17
f 10//18 32//18 34//18
f 10//19 34//19 36//19
f 10//20 36//20 38//20
f 10//21 38//21 40//21
f 10//22 40//22 42//22
f 10//23 42//23 44//23
f 10//24 44//24 46//24
f 10//25 46//25 48//25
f 10//26 48//26 50//26
f 10//27 50//27 52//27
f 10//28 52//28 54//28
f 10//29 54//29 56//29
f 10//30 56//30 58//30
f 10//31 58//31 60//31
f 10//32 60//32 62//32
f 10//33 62//33 64//33
f 10//34 64//34 66//34
f 10//35 66//35 68//35
f 10//36 68//36 70//36
f 10//37 70//37 72//37
f 10//38 72//38 74//38
f 11//39 12//39 74//39
f 11//39 74//39 73//39
f 12//40 11//40 13//40
f 12//40 13//40 14//40
f 14//41 13//41 15//41
f 14//41 15//41 16//41
f 16//42 15//42 17//42
f 16//42 17//42 18//42
f 18//43 17//43 19//43
f 18//43 19//43 20//43
f 20//44 19//44 21//44
f 20//44 21//44 22//44
f 22//45 21//45 23//45
f 22//45 23//45 24//45
f 24//46 23//46 25//46
f 24//46 25//46 26//46
f 26//47 25//47 27//47
f 26//47 27//47 28//47
f 28//48 27//48 29//48
f 28//48 29//48 30//48
f 30//49 29//49 31//49
f 30//49 31//49 32//49
f 32//50 31//50 33//50
f 32//50 33//50 34//50
f 34//51 33//51 35//51
f 34//51 35//51 36//51
f 36//52 35//52 37//52
f 36//52 37//52 38//52
f 38//53 37//53 39//53
f 38//53 39//53 40//53
f 40//54 39//54 41//54
f 40//54 41//54 42//54
f 42//55 41//55 43//55
f 42//55 43//55 44//55
f 44//56 43//56 45//56
f 44//56 45//56 46//56
f 46//57 45//57 47//57
f 46//57 47//57 48//57
f 48//58 47//58 49//58
f 48//58 49//58 50//58
f 50//59 49//59 51//59
f 50//59 51//59 52//59
f 52//60 51//60 53//60
f 52//60 53//60 54//60
f 54//61 53//61 55//61
f 54//61 55//61 56//61
f 56//62 55//62 57//62
f 56//62 57//62 58//62
f 58//63 57//63 59//63
f 58//63 59//63 60//63
f 60//64 59//64 61//64
f 60//64 61//64 62//64
f 62//65 61//65 63//65
f 62//65 63//65 64//65
f 64//66 63//66 65//66
f 64//66 65//66 66//66
f 66//67 65//67 67//67
f 66//67 67//67 68//67
f 68//68 67//68 69//68
f 68//68 69//68 70//68
f 70//69 69//69 71//69
f 70//69 71//69 72//69
f 72//70 71//70 73//70
f 72//70 73//70 74//70
f 9//71 11//71 73//71
f 11//71 9//71 13//71
f 13//71 9//71 15//71
f 15//71 9//71 17//71
f 17//71 9//71 19//71
f 19//71 9//71 21//71
f 21//72 9//72 23//72
f 23//73 9//73 25//73
f 25//74 9//74 27//74
f 27//75 9//75 29//75
f 29//71 9//71 31//71
f 31//76 9//76 33//76
f 33//71 9//71 35//71
f 35//71 9//71 37//71
f 37//77 9//77 39//77
f 39//76 9//76 41//76
f 41//76 9//76 43//76
f 43//78 9//78 45//78
f 45//71 9//71 47//71
f 47//71 9//71 49//71
f 49//79 9//79 51//79
f 51//71 9//71 53//71
f 53//71 9//71 55//71
f 55//71 9//71 57//71
f 57//75 9//75 59//75
f 59//80 9//80 61//80
f 61//71 9//71 63//71
f 63//76 9//76 65//76
f 65//81 9//81 67//81
f 67//76 9//76 69//76
f 69//71 9//71 71//71
f 71//71 9//71 73//71
