# Blender v2.64 (sub 0) OBJ File: ''
# www.blender.org
mtllib untitled_000063.mtl
o Cube
v -8.729040 -2.858973 10.487860
v -8.729040 -2.858973 -7.293924
v 9.052744 -2.858973 -7.293924
v 9.052744 -2.858973 10.487860
v -8.729040 14.922812 10.487860
v -8.729040 14.922812 -7.293924
v 9.052744 14.922812 -7.293924
v 9.052744 14.922812 10.487860
vn -1.000000 -0.000000 0.000000
vn 0.000000 0.000000 -1.000000
vn 1.000000 -0.000000 0.000000
vn 0.000000 0.000000 1.000000
vn -0.000000 -1.000000 0.000000
vn -0.000000 1.000000 0.000000
usemtl Material.003
s off
f 2//1 1//1 5//1
f 2//1 5//1 6//1
usemtl Material.005
f 6//2 7//2 3//2
f 6//2 3//2 2//2
usemtl Material.004
f 7//3 8//3 4//3
f 7//3 4//3 3//3
usemtl Material.002
f 1//4 4//4 8//4
f 1//4 8//4 5//4
usemtl Material.001
f 1//5 2//5 3//5
f 1//5 3//5 4//5
f 8//6 7//6 6//6
f 8//6 6//6 5//6
o Diamond
v 1.423489 2.328614 -1.645121
v 1.495766 0.702366 -1.145082
v 1.351939 2.065434 -2.490707
v 1.326236 1.395035 -2.902246
v 1.525928 2.073394 -2.489969
v 1.616218 1.408301 -2.901015
v 1.695981 2.091161 -2.456764
v 1.899639 1.437914 -2.845673
v 1.855562 2.118054 -2.392368
v 2.165607 1.482736 -2.738346
v 1.998538 2.153039 -2.299255
v 2.403902 1.541044 -2.583158
v 2.119416 2.194771 -2.181005
v 2.605365 1.610597 -2.386075
v 2.213550 2.241646 -2.042161
v 2.762254 1.688722 -2.154668
v 2.277322 2.291864 -1.888058
v 2.868541 1.772418 -1.897831
v 2.308282 2.343494 -1.724620
v 2.920141 1.858468 -1.625434
v 2.305240 2.394552 -1.558127
v 2.915071 1.943565 -1.347945
v 2.268312 2.443076 -1.394977
v 2.853525 2.024439 -1.076028
v 2.198919 2.487202 -1.241440
v 2.737869 2.097981 -0.820134
v 2.099726 2.525233 -1.103416
v 2.572547 2.161366 -0.590093
v 1.974546 2.555708 -0.986209
v 2.363914 2.212158 -0.394749
v 1.828189 2.577456 -0.894324
v 2.119986 2.248405 -0.241608
v 1.666280 2.589641 -0.831292
v 1.850137 2.268714 -0.136554
v 1.495040 2.591795 -0.799535
v 1.564738 2.272304 -0.083625
v 1.321051 2.583835 -0.800273
v 1.274755 2.259037 -0.084856
v 1.150998 2.566068 -0.833478
v 0.991335 2.229425 -0.140198
v 0.991417 2.539175 -0.897875
v 0.725366 2.184603 -0.247525
v 0.848441 2.504190 -0.990987
v 0.487072 2.126295 -0.402712
v 0.727563 2.462458 -1.109237
v 0.285609 2.056742 -0.599796
v 0.633429 2.415583 -1.248082
v 0.128719 1.978616 -0.831203
v 0.569657 2.365365 -1.402184
v 0.022433 1.894920 -1.088040
v 0.538697 2.313735 -1.565622
v -0.029167 1.808870 -1.360437
v 0.541739 2.262677 -1.732115
v -0.024097 1.723774 -1.637925
v 0.578667 2.214153 -1.895265
v 0.037449 1.642900 -1.909843
v 0.648060 2.170027 -2.048802
v 0.153104 1.569358 -2.165738
v 0.747253 2.131996 -2.186826
v 0.318425 1.505973 -2.395777
v 0.872433 2.101521 -2.304033
v 0.527059 1.455181 -2.591122
v 1.018790 2.079773 -2.395918
v 0.770987 1.418934 -2.744263
v 1.180699 2.067588 -2.458950
v 1.040837 1.398625 -2.849317
vn -0.078289 -0.930025 -0.359060
vn 0.044023 -0.927968 -0.370050
vn 0.165915 -0.918853 -0.358024
vn 0.282701 -0.903030 -0.323445
vn 0.389895 -0.881107 -0.267640
vn 0.483377 -0.853927 -0.192756
vn 0.559554 -0.822534 -0.101669
vn 0.615499 -0.788135 0.002119
vn 0.649061 -0.752051 0.114621
vn 0.658952 -0.715670 0.231514
vn 0.644792 -0.680389 0.348303
vn 0.607123 -0.647563 0.460504
vn 0.547394 -0.618456 0.563801
vn 0.467901 -0.594185 0.654227
vn 0.371697 -0.575682 0.728307
vn 0.262481 -0.563660 0.783193
vn 0.144449 -0.558580 0.816776
vn 0.022136 -0.560637 0.827766
vn -0.099755 -0.569752 0.815740
vn -0.216542 -0.585575 0.781161
vn -0.323735 -0.607498 0.725357
vn -0.417217 -0.634678 0.650472
vn -0.493394 -0.666070 0.559386
vn -0.549339 -0.700470 0.455597
vn -0.582902 -0.736554 0.343095
vn -0.592793 -0.772935 0.226203
vn -0.578632 -0.808217 0.109412
vn -0.540963 -0.841042 -0.002787
vn -0.481235 -0.870149 -0.106085
vn -0.401741 -0.894420 -0.196511
vn -0.305538 -0.912922 -0.270591
vn -0.196321 -0.924945 -0.325477
vn -0.149245 0.521452 -0.840127
vn -0.020341 0.523620 -0.851709
vn 0.108120 0.533226 -0.839035
vn 0.231201 0.549902 -0.802592
vn 0.344174 0.573006 -0.743780
vn 0.442694 0.601651 -0.664859
vn 0.522977 0.634736 -0.568863
vn 0.581937 0.670990 -0.459481
vn 0.617309 0.709018 -0.340914
vn 0.627733 0.747361 -0.217721
vn 0.612809 0.784544 -0.094636
vn 0.573110 0.819138 0.023611
vn 0.510161 0.849815 0.132477
vn 0.426383 0.875394 0.227777
vn 0.324994 0.894894 0.305850
vn 0.209891 0.907564 0.363694
vn 0.085497 0.912918 0.399087
vn -0.043408 0.910750 0.410670
vn -0.171869 0.901144 0.397996
vn -0.294951 0.884468 0.361552
vn -0.407923 0.861364 0.302740
vn -0.506442 0.832719 0.223820
vn -0.586726 0.799634 0.127823
vn -0.645686 0.763380 0.018441
vn -0.681058 0.725351 -0.100125
vn -0.691482 0.687009 -0.223318
vn -0.676558 0.649826 -0.346404
vn -0.636859 0.615232 -0.464651
vn -0.573911 0.584555 -0.573517
vn -0.490132 0.558976 -0.668817
vn -0.388744 0.539476 -0.746889
vn -0.273640 0.526806 -0.804734
vn -0.042443 0.954975 -0.293636
vn -0.042443 0.954975 -0.293635
vn -0.042444 0.954975 -0.293636
vn -0.042442 0.954975 -0.293635
vn -0.042444 0.954975 -0.293635
vn -0.042444 0.954974 -0.293636
vn -0.042443 0.954974 -0.293636
vn -0.042442 0.954975 -0.293636
usemtl Material
s off
f 12//7 10//7 74//7
f 10//8 12//8 14//8
f 10//9 14//9 16//9
f 10//10 16//10 18//10
f 10//11 18//11 20//11
f 10//12 20//12 22//12
f 10//13 22//13 24//13
f 10//14 24//14 26//14
f 10//15 26//15 28//15
f 10//16 28//16 30//16
f 10//17 30//17 32//17
f 10//18 32//18 34//18
f 10//19 34//19 36//19
f 10//20 36//20 38//20
f 10//21 38//21 40//21
f 10//22 40//22 42//22
f 10//23 42//23 44//23
f 10//24 44//24 46//24
f 10//25 46//25 48//25
f 10//26 48//26 50//26
f 10//27 50//27 52//27
f 10//28 52//28 54//28
f 10//29 54//29 56//29
f 10//30 56//30 58//30
f 10//31 58//31 60//31
f 10//32 60//32 62//32
f 10//33 62//33 64//33
f 10//34 64//34 66//34
f 10//35 66//35 68//35
f 10//36 68//36 70//36
f 10//37 70//37 72//37
f 10//38 72//38 74//38
f 11//39 12//39 74//39
f 11//39 74//39 73//39
f 12//40 11//40 13//40
f 12//40 13//40 14//40
f 14//41 13//41 15//41
f 14//41 15//41 16//41
f 16//42 15//42 17//42
f 16//42 17//42 18//42
f 18//43 17//43 19//43
f 18//43 19//43 20//43
f 20//44 19//44 21//44
f 20//44 21//44 22//44
f 22//45 21//45 23//45
f 22//45 23//45 24//45
f 24//46 23//46 25//46
f 24//46 25//46 26//46
f 26//47 25//47 27//47
f 26//47 27//47 28//47
f 28//48 27//48 29//48
f 28//48 29//48 30//48
f 30//49 29//49 31//49
f 30//49 31//49 32//49
f 32//50 31//50 33//50
f 32//50 33//50 34//50
f 34//51 33//51 35//51
f 34//51 35//51 36//51
f 36//52 35//52 37//52
f 36//52 37//52 38//52
f 38//53 37//53 39//53
f 38//53 39//53 40//53
f 40//54 39//54 41//54
f 40//54 41//54 42//54
f 42//55 41//55 43//55
f 42//55 43//55 44//55
f 44//56 43//56 45//56
f 44//56 45//56 46//56
f 46//57 45//57 47//57
f 46//57 47//57 48//57
f 48//58 47//58 49//58
f 48//58 49//58 50//58
f 50//59 49//59 51//59
f 50//59 51//59 52//59
f 52//60 51//60 53//60
f 52//60 53//60 54//60
f 54//61 53//61 55//61
f 54//61 55//61 56//61
f 56//62 55//62 57//62
f 56//62 57//62 58//62
f 58//63 57//63 59//63
f 58//63 59//63 60//63
f 60//64 59//64 61//64
f 60//64 61//64 62//64
f 62//65 61//65 63//65
f 62//65 63//65 64//65
f 64//66 63//66 65//66
f 64//66 65//66 66//66
f 66//67 65//67 67//67
f 66//67 67//67 68//67
f 68//68 67//68 69//68
f 68//68 69//68 70//68
f 70//69 69//69 71//69
f 70//69 71//69 72//69
f 72//70 71//70 73//70
f 72//70 73//70 74//70
f 9//71 11//71 73//71
f 11//71 9//71 13//71
f 13//72 9//72 15//72
f 15//73 9//73 17//73
f 17//72 9//72 19//72
f 19//74 9//74 21//74
f 21//71 9//71 23//71
f 23//71 9//71 25//71
f 25//71 9//71 27//71
f 27//72 9//72 29//72
f 29//72 9//72 31//72
f 31//71 9//71 33//71
f 33//72 9//72 35//72
f 35//71 9//71 37//71
f 37//71 9//71 39//71
f 39//75 9//75 41//75
f 41//71 9//71 43//71
f 43//71 9//71 45//71
f 45//72 9//72 47//72
f 47//74 9//74 49//74
f 49//76 9//76 51//76
f 51//74 9//74 53//74
f 53//77 9//77 55//77
f 55//72 9//72 57//72
f 57//72 9//72 59//72
f 59//71 9//71 61//71
f 61//71 9//71 63//71
f 63//72 9//72 65//72
f 65//78 9//78 67//78
f 67//72 9//72 69//72
f 69//71 9//71 71//71
f 71//71 9//71 73//71
