# Blender v2.64 (sub 0) OBJ File: ''
# www.blender.org
mtllib untitled_000068.mtl
o Cube
v -8.729040 -2.858973 10.487860
v -8.729040 -2.858973 -7.293924
v 9.052744 -2.858973 -7.293924
v 9.052744 -2.858973 10.487860
v -8.729040 14.922812 10.487860
v -8.729040 14.922812 -7.293924
v 9.052744 14.922812 -7.293924
v 9.052744 14.922812 10.487860
vn -1.000000 -0.000000 0.000000
vn 0.000000 0.000000 -1.000000
vn 1.000000 -0.000000 0.000000
vn 0.000000 0.000000 1.000000
vn -0.000000 -1.000000 0.000000
vn -0.000000 1.000000 0.000000
usemtl Material.003
s off
f 2//1 1//1 5//1
f 2//1 5//1 6//1
usemtl Material.005
f 6//2 7//2 3//2
f 6//2 3//2 2//2
usemtl Material.004
f 7//3 8//3 4//3
f 7//3 4//3 3//3
usemtl Material.002
f 1//4 4//4 8//4
f 1//4 8//4 5//4
usemtl Material.001
f 1//5 2//5 3//5
f 1//5 3//5 4//5
f 8//6 7//6 6//6
f 8//6 6//6 5//6
o Diamond
v 3.463955 2.287381 -1.505685
v 4.286028 0.796614 -1.463794
v 3.014459 2.019335 -2.223671
v 2.964992 1.386925 -2.689579
v 3.147004 2.089947 -2.311887
v 3.185900 1.504612 -2.836605
v 3.291729 2.168146 -2.369120
v 3.427109 1.634944 -2.931994
v 3.443073 2.250927 -2.393173
v 3.679348 1.772913 -2.972082
v 3.595219 2.335110 -2.383119
v 3.932925 1.913217 -2.955326
v 3.742321 2.417458 -2.339346
v 4.178094 2.050464 -2.882371
v 3.878725 2.494807 -2.263537
v 4.405434 2.179380 -2.756022
v 3.999190 2.564186 -2.158603
v 4.606209 2.295010 -2.581132
v 4.099086 2.622926 -2.028578
v 4.772702 2.392911 -2.364424
v 4.174574 2.668772 -1.878459
v 4.898517 2.469321 -2.114225
v 4.222754 2.699962 -1.714014
v 4.978816 2.521303 -1.840150
v 4.241773 2.715296 -1.541563
v 5.010515 2.546860 -1.552733
v 4.230901 2.714185 -1.367733
v 4.992395 2.545009 -1.263016
v 4.190557 2.696673 -1.199205
v 4.925154 2.515822 -0.982136
v 4.122288 2.663432 -1.042455
v 4.811374 2.460420 -0.720885
v 4.028721 2.615739 -0.903506
v 4.655428 2.380933 -0.489304
v 3.913450 2.555428 -0.787699
v 4.463310 2.280414 -0.296292
v 3.780905 2.484816 -0.699483
v 4.242402 2.162727 -0.149266
v 3.636180 2.406617 -0.642249
v 4.001194 2.032395 -0.053877
v 3.484836 2.323835 -0.618197
v 3.748954 1.894425 -0.013789
v 3.332691 2.239653 -0.628251
v 3.495378 1.754122 -0.030545
v 3.185589 2.157305 -0.672023
v 3.250208 1.616875 -0.103499
v 3.049185 2.079955 -0.747833
v 3.022867 1.487959 -0.229849
v 2.928720 2.010577 -0.852766
v 2.822093 1.372329 -0.404738
v 2.828824 1.951836 -0.982792
v 2.655599 1.274427 -0.621447
v 2.753335 1.905990 -1.132911
v 2.529786 1.198018 -0.871645
v 2.705156 1.874801 -1.297356
v 2.449486 1.146035 -1.145721
v 2.686136 1.859467 -1.469807
v 2.417787 1.120479 -1.433138
v 2.697008 1.860577 -1.643636
v 2.435906 1.122329 -1.722854
v 2.737353 1.878090 -1.812165
v 2.503148 1.151517 -2.003735
v 2.805621 1.911331 -1.968915
v 2.616928 1.206919 -2.264985
v 2.899189 1.959023 -2.107864
v 2.772874 1.286406 -2.496567
vn 0.016902 -0.893597 -0.448552
vn 0.104701 -0.847212 -0.520835
vn 0.202936 -0.794489 -0.572367
vn 0.307831 -0.737455 -0.601166
vn 0.415355 -0.678300 -0.606126
vn 0.521376 -0.619300 -0.587056
vn 0.621821 -0.562720 -0.544688
vn 0.712826 -0.510736 -0.480653
vn 0.790899 -0.465345 -0.397408
vn 0.853036 -0.428291 -0.298157
vn 0.896851 -0.400997 -0.186708
vn 0.920659 -0.384515 -0.067347
vn 0.923546 -0.379475 0.055335
vn 0.905400 -0.386073 0.176632
vn 0.866919 -0.404055 0.291875
vn 0.809582 -0.432729 0.396639
vn 0.735592 -0.470994 0.486897
vn 0.647793 -0.517379 0.559181
vn 0.549558 -0.570102 0.610713
vn 0.444664 -0.627136 0.639511
vn 0.337139 -0.686290 0.644471
vn 0.231119 -0.745290 0.625401
vn 0.130674 -0.801870 0.583034
vn 0.039668 -0.853855 0.518998
vn -0.038405 -0.899246 0.435754
vn -0.100542 -0.936301 0.336501
vn -0.144357 -0.963594 0.225053
vn -0.168165 -0.980076 0.105694
vn -0.171051 -0.985116 -0.016991
vn -0.152906 -0.978518 -0.138286
vn -0.114425 -0.960536 -0.253530
vn -0.057088 -0.931862 -0.358293
vn -0.741253 0.434746 -0.511409
vn -0.648722 0.483631 -0.587589
vn -0.545192 0.539196 -0.641898
vn -0.434643 0.599304 -0.672249
vn -0.321323 0.661647 -0.677477
vn -0.209588 0.723828 -0.657379
vn -0.103730 0.783457 -0.612728
vn -0.007818 0.838243 -0.545240
vn 0.074462 0.886081 -0.457510
vn 0.139950 0.925133 -0.352906
vn 0.186125 0.953897 -0.235452
vn 0.211217 0.971268 -0.109658
vn 0.214259 0.976579 0.019640
vn 0.195136 0.969626 0.147471
vn 0.154580 0.950675 0.268928
vn 0.094153 0.920455 0.379338
vn 0.016175 0.880128 0.474461
vn -0.076357 0.831243 0.550641
vn -0.179886 0.775678 0.604950
vn -0.290435 0.715569 0.635302
vn -0.403755 0.653227 0.640528
vn -0.515490 0.591046 0.620430
vn -0.621348 0.531417 0.575780
vn -0.717260 0.476631 0.508292
vn -0.799541 0.428792 0.420561
vn -0.865028 0.389741 0.315958
vn -0.911204 0.360977 0.198503
vn -0.936295 0.343605 0.072711
vn -0.939337 0.338295 -0.056587
vn -0.920214 0.345248 -0.184419
vn -0.879659 0.364199 -0.305876
vn -0.819231 0.394419 -0.416286
vn -0.482743 0.875416 -0.024599
vn -0.482742 0.875417 -0.024600
vn -0.482743 0.875417 -0.024599
vn -0.482742 0.875417 -0.024599
vn -0.482743 0.875417 -0.024600
vn -0.482743 0.875417 -0.024598
vn -0.482741 0.875418 -0.024600
vn -0.482743 0.875416 -0.024600
usemtl Material
s off
f 12//7 10//7 74//7
f 10//8 12//8 14//8
f 10//9 14//9 16//9
f 10//10 16//10 18//10
f 10//11 18//11 20//11
f 10//12 20//12 22//12
f 10//13 22//13 24//13
f 10//14 24//14 26//14
f 10//15 26//15 28//15
f 10//16 28//16 30//16
f 10//17 30//17 32//17
f 10//18 32//18 34//18
f 10//19 34//19 36//19
f 10//20 36//20 38//20
f 10//21 38//21 40//21
f 10//22 40//22 42//22
f 10//23 42//23 44//23
f 10//24 44//24 46//24
f 10//25 46//25 48//25
f 10//26 48//26 50//26
f 10//27 50//27 52//27
f 10//28 52//28 54//28
f 10//29 54//29 56//29
f 10//30 56//30 58//30
f 10//31 58//31 60//31
f 10//32 60//32 62//32
f 10//33 62//33 64//33
f 10//34 64//34 66//34
f 10//35 66//35 68//35
f 10//36 68//36 70//36
f 10//37 70//37 72//37
f 10//38 72//38 74//38
f 11//39 12//39 74//39
f 11//39 74//39 73//39
f 12//40 11//40 13//40
f 12//40 13//40 14//40
f 14//41 13//41 15//41
f 14//41 15//41 16//41
f 16//42 15//42 17//42
f 16//42 17//42 18//42
f 18//43 17//43 19//43
f 18//43 19//43 20//43
f 20//44 19//44 21//44
f 20//44 21//44 22//44
f 22//45 21//45 23//45
f 22//45 23//45 24//45
f 24//46 23//46 25//46
f 24//46 25//46 26//46
f 26//47 25//47 27//47
f 26//47 27//47 28//47
f 28//48 27//48 29//48
f 28//48 29//48 30//48
f 30//49 29//49 31//49
f 30//49 31//49 32//49
f 32//50 31//50 33//50
f 32//50 33//50 34//50
f 34//51 33//51 35//51
f 34//51 35//51 36//51
f 36//52 35//52 37//52
f 36//52 37//52 38//52
f 38//53 37//53 39//53
f 38//53 39//53 40//53
f 40//54 39//54 41//54
f 40//54 41//54 42//54
f 42//55 41//55 43//55
f 42//55 43//55 44//55
f 44//56 43//56 45//56
f 44//56 45//56 46//56
f 46//57 45//57 47//57
f 46//57 47//57 48//57
f 48//58 47//58 49//58
f 48//58 49//58 50//58
f 50//59 49//59 51//59
f 50//59 51//59 52//59
f 52//60 51//60 53//60
f 52//60 53//60 54//60
f 54//61 53//61 55//61
f 54//61 55//61 56//61
f 56//62 55//62 57//62
f 56//62 57//62 58//62
f 58//63 57//63 59//63
f 58//63 59//63 60//63
f 60//64 59//64 61//64
f 60//64 61//64 62//64
f 62//65 61//65 63//65
f 62//65 63//65 64//65
f 64//66 63//66 65//66
f 64//66 65//66 66//66
f 66//67 65//67 67//67
f 66//67 67//67 68//67
f 68//68 67//68 69//68
f 68//68 69//68 70//68
f 70//69 69//69 71//69
f 70//69 71//69 72//69
f 72//70 71//70 73//70
f 72//70 73//70 74//70
f 9//71 11//71 73//71
f 11//72 9//72 13//72
f 13//73 9//73 15//73
f 15//73 9//73 17//73
f 17//74 9//74 19//74
f 19//75 9//75 21//75
f 21//74 9//74 23//74
f 23//75 9//75 25//75
f 25//75 9//75 27//75
f 27//74 9//74 29//74
f 29//75 9//75 31//75
f 31//76 9//76 33//76
f 33//74 9//74 35//74
f 35//72 9//72 37//72
f 37//72 9//72 39//72
f 39//73 9//73 41//73
f 41//72 9//72 43//72
f 43//71 9//71 45//71
f 45//77 9//77 47//77
f 47//73 9//73 49//73
f 49//71 9//71 51//71
f 51//73 9//73 53//73
f 53//74 9//74 55//74
f 55//75 9//75 57//75
f 57//74 9//74 59//74
f 59//78 9//78 61//78
f 61//75 9//75 63//75
f 63//73 9//73 65//73
f 65//73 9//73 67//73
f 67//73 9//73 69//73
f 69//72 9//72 71//72
f 71//75 9//75 73//75
