# Blender v2.64 (sub 0) OBJ File: ''
# www.blender.org
mtllib untitled_000057.mtl
o Cube
v -8.729040 -2.858973 10.487860
v -8.729040 -2.858973 -7.293924
v 9.052744 -2.858973 -7.293924
v 9.052744 -2.858973 10.487860
v -8.729040 14.922812 10.487860
v -8.729040 14.922812 -7.293924
v 9.052744 14.922812 -7.293924
v 9.052744 14.922812 10.487860
vn -1.000000 -0.000000 0.000000
vn 0.000000 0.000000 -1.000000
vn 1.000000 -0.000000 0.000000
vn 0.000000 0.000000 1.000000
vn -0.000000 -1.000000 0.000000
vn -0.000000 1.000000 0.000000
usemtl Material.003
s off
f 2//1 1//1 5//1
f 2//1 5//1 6//1
usemtl Material.005
f 6//2 7//2 3//2
f 6//2 3//2 2//2
usemtl Material.004
f 7//3 8//3 4//3
f 7//3 4//3 3//3
usemtl Material.002
f 1//4 4//4 8//4
f 1//4 8//4 5//4
usemtl Material.001
f 1//5 2//5 3//5
f 1//5 3//5 4//5
f 8//6 7//6 6//6
f 8//6 6//6 5//6
o Diamond
v -1.080764 2.279911 -1.498892
v -1.946650 0.813689 -1.479320
v -0.678424 2.032262 -2.251349
v -0.673727 1.420921 -2.747030
v -0.559207 1.963281 -2.144742
v -0.475032 1.305953 -2.569352
v -0.460033 1.906467 -2.013316
v -0.309742 1.211264 -2.350308
v -0.384713 1.864005 -1.862120
v -0.184209 1.140493 -2.098315
v -0.336142 1.837526 -1.696966
v -0.103258 1.096362 -1.823058
v -0.316187 1.828047 -1.524200
v -0.069999 1.080564 -1.535115
v -0.325614 1.835934 -1.350461
v -0.085711 1.093708 -1.245551
v -0.364061 1.860882 -1.182427
v -0.149789 1.135288 -0.965493
v -0.430050 1.901933 -1.026554
v -0.259771 1.203707 -0.705705
v -0.521046 1.957510 -0.888833
v -0.411432 1.296334 -0.476170
v -0.633552 2.025476 -0.774556
v -0.598941 1.409611 -0.285708
v -0.763244 2.103220 -0.688115
v -0.815094 1.539185 -0.141639
v -0.905138 2.187754 -0.632831
v -1.051584 1.680075 -0.049500
v -1.053781 2.275830 -0.610830
v -1.299322 1.826868 -0.012832
v -1.203461 2.364062 -0.622956
v -1.548789 1.973922 -0.033043
v -1.348426 2.449061 -0.668745
v -1.790397 2.115587 -0.109357
v -1.483105 2.527559 -0.746435
v -2.014862 2.246417 -0.238840
v -1.602322 2.596541 -0.853042
v -2.213557 2.361386 -0.416519
v -1.701496 2.653354 -0.984468
v -2.378847 2.456075 -0.635562
v -1.776816 2.695816 -1.135664
v -2.504380 2.526845 -0.887556
v -1.825386 2.722295 -1.300818
v -2.585331 2.570977 -1.162812
v -1.845342 2.731774 -1.473584
v -2.618590 2.586775 -1.450755
v -1.835915 2.723888 -1.647323
v -2.602879 2.573631 -1.740320
v -1.797468 2.698940 -1.815357
v -2.538801 2.532051 -2.020377
v -1.731478 2.657888 -1.971231
v -2.428818 2.463632 -2.280166
v -1.640482 2.602312 -2.108952
v -2.277158 2.371005 -2.509701
v -1.527976 2.534345 -2.223229
v -2.089648 2.257727 -2.700163
v -1.398285 2.456601 -2.309670
v -1.873496 2.128154 -2.844232
v -1.256391 2.372067 -2.364953
v -1.637006 1.987264 -2.936370
v -1.107748 2.283991 -2.386954
v -1.389267 1.840471 -2.973039
v -0.958068 2.195759 -2.374828
v -1.139801 1.693417 -2.952828
v -0.813103 2.110760 -2.329039
v -0.898192 1.551752 -2.876514
vn -0.158922 -0.818730 -0.551747
vn -0.068969 -0.870981 -0.486452
vn 0.008405 -0.915549 -0.402118
vn 0.070227 -0.950722 -0.301987
vn 0.114120 -0.975147 -0.189907
vn 0.138399 -0.987887 -0.070185
vn 0.142129 -0.988451 0.052580
vn 0.125168 -0.976818 0.173667
vn 0.088166 -0.953435 0.288425
vn 0.032548 -0.919200 0.392443
vn -0.039551 -0.875430 0.481724
vn -0.125360 -0.823806 0.552837
vn -0.221581 -0.766312 0.603049
vn -0.324516 -0.705157 0.630430
vn -0.430210 -0.642693 0.633929
vn -0.534600 -0.581318 0.613410
vn -0.633676 -0.523393 0.569662
vn -0.723630 -0.471141 0.504367
vn -0.801003 -0.426574 0.420034
vn -0.862825 -0.391401 0.319903
vn -0.906719 -0.366976 0.207823
vn -0.930997 -0.354236 0.088100
vn -0.934727 -0.353672 -0.034663
vn -0.917766 -0.365305 -0.155751
vn -0.880764 -0.388688 -0.270510
vn -0.825146 -0.422922 -0.374528
vn -0.753047 -0.466692 -0.463808
vn -0.667238 -0.518317 -0.534922
vn -0.571017 -0.575811 -0.585133
vn -0.468082 -0.636965 -0.612515
vn -0.362389 -0.699430 -0.616013
vn -0.257998 -0.760805 -0.595494
vn 0.632032 0.490984 -0.599559
vn 0.726834 0.435917 -0.530744
vn 0.808379 0.388946 -0.441865
vn 0.873533 0.351878 -0.336337
vn 0.919792 0.326136 -0.218215
vn 0.945379 0.312710 -0.092040
vn 0.949310 0.312115 0.037342
vn 0.931435 0.324375 0.164955
vn 0.892439 0.349019 0.285899
vn 0.833822 0.385099 0.395524
vn 0.757837 0.431228 0.489617
vn 0.667403 0.485635 0.564563
vn 0.565996 0.546228 0.617482
vn 0.457513 0.610678 0.646339
vn 0.346122 0.676510 0.650026
vn 0.236105 0.741192 0.628401
vn 0.131689 0.802240 0.582296
vn 0.036887 0.857308 0.513481
vn -0.044658 0.904278 0.424602
vn -0.109812 0.941347 0.319074
vn -0.156071 0.967088 0.200952
vn -0.181658 0.980514 0.074778
vn -0.185589 0.981109 -0.054604
vn -0.167714 0.968849 -0.182218
vn -0.128718 0.944206 -0.303162
vn -0.070101 0.908126 -0.412787
vn 0.005884 0.861996 -0.506881
vn 0.096317 0.807590 -0.581826
vn 0.197725 0.746997 -0.634744
vn 0.306208 0.682546 -0.663602
vn 0.417598 0.616715 -0.667289
vn 0.527617 0.552032 -0.645664
vn 0.508470 0.861003 -0.011493
vn 0.508470 0.861003 -0.011494
vn 0.508469 0.861003 -0.011493
vn 0.508471 0.861003 -0.011493
vn 0.508471 0.861002 -0.011493
vn 0.508470 0.861003 -0.011492
usemtl Material
s off
f 12//7 10//7 74//7
f 10//8 12//8 14//8
f 10//9 14//9 16//9
f 10//10 16//10 18//10
f 10//11 18//11 20//11
f 10//12 20//12 22//12
f 10//13 22//13 24//13
f 10//14 24//14 26//14
f 10//15 26//15 28//15
f 10//16 28//16 30//16
f 10//17 30//17 32//17
f 10//18 32//18 34//18
f 10//19 34//19 36//19
f 10//20 36//20 38//20
f 10//21 38//21 40//21
f 10//22 40//22 42//22
f 10//23 42//23 44//23
f 10//24 44//24 46//24
f 10//25 46//25 48//25
f 10//26 48//26 50//26
f 10//27 50//27 52//27
f 10//28 52//28 54//28
f 10//29 54//29 56//29
f 10//30 56//30 58//30
f 10//31 58//31 60//31
f 10//32 60//32 62//32
f 10//33 62//33 64//33
f 10//34 64//34 66//34
f 10//35 66//35 68//35
f 10//36 68//36 70//36
f 10//37 70//37 72//37
f 10//38 72//38 74//38
f 11//39 12//39 74//39
f 11//39 74//39 73//39
f 12//40 11//40 13//40
f 12//40 13//40 14//40
f 14//41 13//41 15//41
f 14//41 15//41 16//41
f 16//42 15//42 17//42
f 16//42 17//42 18//42
f 18//43 17//43 19//43
f 18//43 19//43 20//43
f 20//44 19//44 21//44
f 20//44 21//44 22//44
f 22//45 21//45 23//45
f 22//45 23//45 24//45
f 24//46 23//46 25//46
f 24//46 25//46 26//46
f 26//47 25//47 27//47
f 26//47 27//47 28//47
f 28//48 27//48 29//48
f 28//48 29//48 30//48
f 30//49 29//49 31//49
f 30//49 31//49 32//49
f 32//50 31//50 33//50
f 32//50 33//50 34//50
f 34//51 33//51 35//51
f 34//51 35//51 36//51
f 36//52 35//52 37//52
f 36//52 37//52 38//52
f 38//53 37//53 39//53
f 38//53 39//53 40//53
f 40//54 39//54 41//54
f 40//54 41//54 42//54
f 42//55 41//55 43//55
f 42//55 43//55 44//55
f 44//56 43//56 45//56
f 44//56 45//56 46//56
f 46//57 45//57 47//57
f 46//57 47//57 48//57
f 48//58 47//58 49//58
f 48//58 49//58 50//58
f 50//59 49//59 51//59
f 50//59 51//59 52//59
f 52//60 51//60 53//60
f 52//60 53//60 54//60
f 54//61 53//61 55//61
f 54//61 55//61 56//61
f 56//62 55//62 57//62
f 56//62 57//62 58//62
f 58//63 57//63 59//63
f 58//63 59//63 60//63
f 60//64 59//64 61//64
f 60//64 61//64 62//64
f 62//65 61//65 63//65
f 62//65 63//65 64//65
f 64//66 63//66 65//66
f 64//66 65//66 66//66
f 66//67 65//67 67//67
f 66//67 67//67 68//67
f 68//68 67//68 69//68
f 68//68 69//68 70//68
f 70//69 69//69 71//69
f 70//69 71//69 72//69
f 72//70 71//70 73//70
f 72//70 73//70 74//70
f 9//71 11//71 73//71
f 11//71 9//71 13//71
f 13//71 9//71 15//71
f 15//72 9//72 17//72
f 17//71 9//71 19//71
f 19//72 9//72 21//72
f 21//71 9//71 23//71
f 23//72 9//72 25//72
f 25//71 9//71 27//71
f 27//71 9//71 29//71
f 29//72 9//72 31//72
f 31//73 9//73 33//73
f 33//71 9//71 35//71
f 35//74 9//74 37//74
f 37//71 9//71 39//71
f 39//75 9//75 41//75
f 41//72 9//72 43//72
f 43//71 9//71 45//71
f 45//74 9//74 47//74
f 47//72 9//72 49//72
f 49//72 9//72 51//72
f 51//76 9//76 53//76
f 53//72 9//72 55//72
f 55//71 9//71 57//71
f 57//71 9//71 59//71
f 59//72 9//72 61//72
f 61//71 9//71 63//71
f 63//71 9//71 65//71
f 65//71 9//71 67//71
f 67//74 9//74 69//74
f 69//71 9//71 71//71
f 71//71 9//71 73//71
