# Blender v2.64 (sub 0) OBJ File: ''
# www.blender.org
mtllib untitled_000024.mtl
o Cube
v -8.729040 -2.858973 10.487860
v -8.729040 -2.858973 -7.293924
v 9.052744 -2.858973 -7.293924
v 9.052744 -2.858973 10.487860
v -8.729040 14.922812 10.487860
v -8.729040 14.922812 -7.293924
v 9.052744 14.922812 -7.293924
v 9.052744 14.922812 10.487860
vn -1.000000 -0.000000 0.000000
vn 0.000000 0.000000 -1.000000
vn 1.000000 -0.000000 0.000000
vn 0.000000 0.000000 1.000000
vn -0.000000 -1.000000 0.000000
vn -0.000000 1.000000 0.000000
usemtl Material.003
s off
f 2//1 1//1 5//1
f 2//1 5//1 6//1
usemtl Material.005
f 6//2 7//2 3//2
f 6//2 3//2 2//2
usemtl Material.004
f 7//3 8//3 4//3
f 7//3 4//3 3//3
usemtl Material.002
f 1//4 4//4 8//4
f 1//4 8//4 5//4
usemtl Material.001
f 1//5 2//5 3//5
f 1//5 3//5 4//5
f 8//6 7//6 6//6
f 8//6 6//6 5//6
o Diamond
v -2.992669 2.216485 2.178141
v -1.966442 0.958663 1.663664
v -2.649099 2.750854 1.557006
v -2.107722 2.724284 0.986336
v -2.534700 2.793361 1.681273
v -1.917057 2.795129 1.193447
v -2.437901 2.813699 1.824634
v -1.755726 2.829026 1.432383
v -2.362421 2.811087 1.981580
v -1.629926 2.824672 1.693960
v -2.311162 2.785624 2.146080
v -1.544493 2.782234 1.968127
v -2.286092 2.738290 2.311813
v -1.502711 2.703344 2.244347
v -2.288176 2.670903 2.472408
v -1.506184 2.591033 2.512006
v -2.317333 2.586053 2.621695
v -1.554778 2.449616 2.760817
v -2.372442 2.487000 2.753936
v -1.646628 2.284528 2.981219
v -2.451387 2.377552 2.864049
v -1.778203 2.102115 3.164742
v -2.551133 2.261914 2.947804
v -1.944446 1.909385 3.304333
v -2.667847 2.144531 3.001981
v -2.138968 1.713747 3.394628
v -2.797044 2.029912 3.024498
v -2.354297 1.522715 3.432156
v -2.933758 1.922464 3.014490
v -2.582154 1.343635 3.415477
v -3.072736 1.826314 2.972342
v -2.813784 1.183385 3.345229
v -3.208637 1.745159 2.899673
v -3.040287 1.048126 3.224114
v -3.336239 1.682116 2.799276
v -3.252956 0.943055 3.056786
v -3.450638 1.639609 2.675009
v -3.443620 0.872210 2.849674
v -3.547437 1.619271 2.531648
v -3.604952 0.838313 2.610739
v -3.622917 1.621883 2.374701
v -3.730752 0.842667 2.349161
v -3.674176 1.647346 2.210201
v -3.816184 0.885104 2.074995
v -3.699246 1.694680 2.044470
v -3.857967 0.963995 1.798775
v -3.697162 1.762067 1.883874
v -3.854494 1.076306 1.531116
v -3.668005 1.846917 1.734587
v -3.805900 1.217723 1.282305
v -3.612895 1.945970 1.602346
v -3.714050 1.382810 1.061903
v -3.533951 2.055417 1.492232
v -3.582475 1.565223 0.878380
v -3.434205 2.171055 1.408477
v -3.416232 1.757954 0.738789
v -3.317491 2.288439 1.354301
v -3.221709 1.953593 0.648494
v -3.188295 2.403057 1.331784
v -3.006382 2.144623 0.610965
v -3.051580 2.510506 1.341791
v -2.778524 2.323704 0.627645
v -2.912602 2.606655 1.383939
v -2.546894 2.483953 0.697892
v -2.776700 2.687811 1.456609
v -2.320391 2.619213 0.819007
vn 0.667925 -0.219371 -0.711163
vn 0.753664 -0.181975 -0.631566
vn 0.828489 -0.159710 -0.536748
vn 0.889527 -0.153430 -0.430351
vn 0.934429 -0.163377 -0.316464
vn 0.961472 -0.189168 -0.199466
vn 0.969616 -0.229813 -0.083850
vn 0.958548 -0.283749 0.025938
vn 0.928693 -0.348904 0.125681
vn 0.881198 -0.422775 0.211546
vn 0.817889 -0.502521 0.280232
vn 0.741199 -0.585078 0.329100
vn 0.654075 -0.667275 0.356272
vn 0.559865 -0.745952 0.360704
vn 0.462189 -0.818085 0.342226
vn 0.364801 -0.880903 0.301547
vn 0.271444 -0.931991 0.240231
vn 0.185705 -0.969386 0.160634
vn 0.110879 -0.991652 0.065815
vn 0.049842 -0.997932 -0.040581
vn 0.004940 -0.987985 -0.154467
vn -0.022103 -0.962194 -0.271466
vn -0.030247 -0.921549 -0.387081
vn -0.019179 -0.867613 -0.496870
vn 0.010676 -0.802458 -0.596614
vn 0.058171 -0.728588 -0.682478
vn 0.121480 -0.648841 -0.751164
vn 0.198169 -0.566284 -0.800032
vn 0.285294 -0.484087 -0.827204
vn 0.379504 -0.405411 -0.831636
vn 0.477180 -0.333277 -0.813158
vn 0.574568 -0.270459 -0.772479
vn -0.243647 0.930222 -0.274450
vn -0.153286 0.969634 -0.190563
vn -0.074428 0.993099 -0.090634
vn -0.010100 0.999718 0.021498
vn 0.037223 0.989235 0.141523
vn 0.065723 0.962053 0.264828
vn 0.074306 0.919218 0.386675
vn 0.062641 0.862374 0.502381
vn 0.031177 0.793707 0.607501
vn -0.018878 0.715855 0.697993
vn -0.085599 0.631810 0.770382
vn -0.166423 0.544803 0.821884
vn -0.258243 0.458176 0.850521
vn -0.357531 0.375259 0.855191
vn -0.460472 0.299237 0.835717
vn -0.563109 0.233034 0.792846
vn -0.661498 0.179191 0.728224
vn -0.751858 0.139780 0.644337
vn -0.830717 0.116315 0.544408
vn -0.895044 0.109696 0.432277
vn -0.942367 0.120179 0.312252
vn -0.970868 0.147360 0.188947
vn -0.979450 0.190196 0.067100
vn -0.967786 0.247039 -0.048606
vn -0.936321 0.315707 -0.153726
vn -0.886266 0.393559 -0.244219
vn -0.819545 0.477604 -0.316608
vn -0.738723 0.564610 -0.368109
vn -0.646902 0.651238 -0.396746
vn -0.547613 0.734155 -0.401417
vn -0.444673 0.810177 -0.381942
vn -0.342036 0.876380 -0.339071
vn -0.602627 0.738626 0.302114
vn -0.602628 0.738626 0.302113
vn -0.602627 0.738626 0.302115
vn -0.602627 0.738626 0.302112
vn -0.602627 0.738625 0.302114
vn -0.602628 0.738625 0.302115
vn -0.602626 0.738626 0.302114
vn -0.602628 0.738625 0.302113
vn -0.602627 0.738626 0.302113
vn -0.602628 0.738625 0.302114
usemtl Material
s off
f 12//7 10//7 74//7
f 10//8 12//8 14//8
f 10//9 14//9 16//9
f 10//10 16//10 18//10
f 10//11 18//11 20//11
f 10//12 20//12 22//12
f 10//13 22//13 24//13
f 10//14 24//14 26//14
f 10//15 26//15 28//15
f 10//16 28//16 30//16
f 10//17 30//17 32//17
f 10//18 32//18 34//18
f 10//19 34//19 36//19
f 10//20 36//20 38//20
f 10//21 38//21 40//21
f 10//22 40//22 42//22
f 10//23 42//23 44//23
f 10//24 44//24 46//24
f 10//25 46//25 48//25
f 10//26 48//26 50//26
f 10//27 50//27 52//27
f 10//28 52//28 54//28
f 10//29 54//29 56//29
f 10//30 56//30 58//30
f 10//31 58//31 60//31
f 10//32 60//32 62//32
f 10//33 62//33 64//33
f 10//34 64//34 66//34
f 10//35 66//35 68//35
f 10//36 68//36 70//36
f 10//37 70//37 72//37
f 10//38 72//38 74//38
f 11//39 12//39 74//39
f 11//39 74//39 73//39
f 12//40 11//40 13//40
f 12//40 13//40 14//40
f 14//41 13//41 15//41
f 14//41 15//41 16//41
f 16//42 15//42 17//42
f 16//42 17//42 18//42
f 18//43 17//43 19//43
f 18//43 19//43 20//43
f 20//44 19//44 21//44
f 20//44 21//44 22//44
f 22//45 21//45 23//45
f 22//45 23//45 24//45
f 24//46 23//46 25//46
f 24//46 25//46 26//46
f 26//47 25//47 27//47
f 26//47 27//47 28//47
f 28//48 27//48 29//48
f 28//48 29//48 30//48
f 30//49 29//49 31//49
f 30//49 31//49 32//49
f 32//50 31//50 33//50
f 32//50 33//50 34//50
f 34//51 33//51 35//51
f 34//51 35//51 36//51
f 36//52 35//52 37//52
f 36//52 37//52 38//52
f 38//53 37//53 39//53
f 38//53 39//53 40//53
f 40//54 39//54 41//54
f 40//54 41//54 42//54
f 42//55 41//55 43//55
f 42//55 43//55 44//55
f 44//56 43//56 45//56
f 44//56 45//56 46//56
f 46//57 45//57 47//57
f 46//57 47//57 48//57
f 48//58 47//58 49//58
f 48//58 49//58 50//58
f 50//59 49//59 51//59
f 50//59 51//59 52//59
f 52//60 51//60 53//60
f 52//60 53//60 54//60
f 54//61 53//61 55//61
f 54//61 55//61 56//61
f 56//62 55//62 57//62
f 56//62 57//62 58//62
f 58//63 57//63 59//63
f 58//63 59//63 60//63
f 60//64 59//64 61//64
f 60//64 61//64 62//64
f 62//65 61//65 63//65
f 62//65 63//65 64//65
f 64//66 63//66 65//66
f 64//66 65//66 66//66
f 66//67 65//67 67//67
f 66//67 67//67 68//67
f 68//68 67//68 69//68
f 68//68 69//68 70//68
f 70//69 69//69 71//69
f 70//69 71//69 72//69
f 72//70 71//70 73//70
f 72//70 73//70 74//70
f 9//71 11//71 73//71
f 11//71 9//71 13//71
f 13//72 9//72 15//72
f 15//71 9//71 17//71
f 17//71 9//71 19//71
f 19//73 9//73 21//73
f 21//71 9//71 23//71
f 23//74 9//74 25//74
f 25//75 9//75 27//75
f 27//76 9//76 29//76
f 29//71 9//71 31//71
f 31//75 9//75 33//75
f 33//75 9//75 35//75
f 35//77 9//77 37//77
f 37//71 9//71 39//71
f 39//71 9//71 41//71
f 41//71 9//71 43//71
f 43//78 9//78 45//78
f 45//75 9//75 47//75
f 47//71 9//71 49//71
f 49//71 9//71 51//71
f 51//75 9//75 53//75
f 53//71 9//71 55//71
f 55//75 9//75 57//75
f 57//75 9//75 59//75
f 59//79 9//79 61//79
f 61//79 9//79 63//79
f 63//80 9//80 65//80
f 65//80 9//80 67//80
f 67//77 9//77 69//77
f 69//71 9//71 71//71
f 71//75 9//75 73//75
