# Blender v2.64 (sub 0) OBJ File: ''
# www.blender.org
mtllib untitled_000076.mtl
o Cube
v -8.729040 -2.858973 10.487860
v -8.729040 -2.858973 -7.293924
v 9.052744 -2.858973 -7.293924
v 9.052744 -2.858973 10.487860
v -8.729040 14.922812 10.487860
v -8.729040 14.922812 -7.293924
v 9.052744 14.922812 -7.293924
v 9.052744 14.922812 10.487860
vn -1.000000 -0.000000 0.000000
vn 0.000000 0.000000 -1.000000
vn 1.000000 -0.000000 0.000000
vn 0.000000 0.000000 1.000000
vn -0.000000 -1.000000 0.000000
vn -0.000000 1.000000 0.000000
usemtl Material.003
s off
f 2//1 1//1 5//1
f 2//1 5//1 6//1
usemtl Material.005
f 6//2 7//2 3//2
f 6//2 3//2 2//2
usemtl Material.004
f 7//3 8//3 4//3
f 7//3 4//3 3//3
usemtl Material.002
f 1//4 4//4 8//4
f 1//4 8//4 5//4
usemtl Material.001
f 1//5 2//5 3//5
f 1//5 3//5 4//5
f 8//6 7//6 6//6
f 8//6 6//6 5//6
o Diamond
v 4.735059 2.251657 -1.316496
v 5.710049 0.943676 -1.804885
v 4.096926 1.984075 -1.873798
v 3.968241 1.407606 -2.393973
v 4.177725 2.087170 -1.988599
v 4.102906 1.579430 -2.585308
v 4.279943 2.196585 -2.077571
v 4.273267 1.761789 -2.733594
v 4.399649 2.308117 -2.137295
v 4.472779 1.947676 -2.833135
v 4.532246 2.417480 -2.165477
v 4.693773 2.129947 -2.880105
v 4.672637 2.520470 -2.161033
v 4.927758 2.301597 -2.872698
v 4.815426 2.613129 -2.124134
v 5.165740 2.456029 -2.811199
v 4.955127 2.691898 -2.056197
v 5.398575 2.587310 -2.697972
v 5.086370 2.753748 -1.959835
v 5.617314 2.690393 -2.537367
v 5.204114 2.796303 -1.838749
v 5.813553 2.761319 -2.335557
v 5.303832 2.817928 -1.697593
v 5.979749 2.797360 -2.100298
v 5.381691 2.817791 -1.541792
v 6.109516 2.797132 -1.840630
v 5.434702 2.795898 -1.377333
v 6.197866 2.760644 -1.566531
v 5.460825 2.753091 -1.210536
v 6.241405 2.689298 -1.288536
v 5.459058 2.691013 -1.047811
v 6.238460 2.585835 -1.017328
v 5.429468 2.612051 -0.895411
v 6.189143 2.454232 -0.763328
v 5.373192 2.519240 -0.759194
v 6.095349 2.299546 -0.536299
v 5.292393 2.416145 -0.644393
v 5.960684 2.127722 -0.344965
v 5.190176 2.306730 -0.555421
v 5.790323 1.945363 -0.196678
v 5.070468 2.195197 -0.495696
v 5.590811 1.759476 -0.097137
v 4.937872 2.085835 -0.467515
v 5.369817 1.577206 -0.050167
v 4.797482 1.982846 -0.471959
v 5.135833 1.405556 -0.057574
v 4.654692 1.890186 -0.508858
v 4.897850 1.251123 -0.119073
v 4.514991 1.811417 -0.576794
v 4.665016 1.119843 -0.232300
v 4.383747 1.749567 -0.673157
v 4.446275 1.016759 -0.392905
v 4.266004 1.707012 -0.794243
v 4.250037 0.945833 -0.594714
v 4.166286 1.685387 -0.935399
v 4.083841 0.909792 -0.829975
v 4.088427 1.685524 -1.091200
v 3.954074 0.910020 -1.089643
v 4.035416 1.707417 -1.255658
v 3.865724 0.946508 -1.363740
v 4.009293 1.750224 -1.422456
v 3.822185 1.017854 -1.641736
v 4.011060 1.812302 -1.585181
v 3.825130 1.121317 -1.912944
v 4.040650 1.891264 -1.737581
v 3.874447 1.252920 -2.166944
vn -0.025875 -0.821125 -0.570162
vn 0.022689 -0.751717 -0.659095
vn 0.087531 -0.676426 -0.731291
vn 0.166157 -0.598147 -0.783972
vn 0.255546 -0.519885 -0.815117
vn 0.352263 -0.444651 -0.823527
vn 0.452593 -0.375333 -0.808879
vn 0.552675 -0.314598 -0.771737
vn 0.648670 -0.264777 -0.713527
vn 0.736884 -0.227787 -0.636487
vn 0.813929 -0.205049 -0.543576
vn 0.876843 -0.197436 -0.438367
vn 0.923209 -0.205241 -0.324901
vn 0.951246 -0.228164 -0.207540
vn 0.959875 -0.265324 -0.090791
vn 0.948765 -0.315293 0.020853
vn 0.918343 -0.376151 0.123109
vn 0.869779 -0.445559 0.212042
vn 0.804938 -0.520850 0.284238
vn 0.726312 -0.599129 0.336920
vn 0.636922 -0.677391 0.368064
vn 0.540206 -0.752625 0.376474
vn 0.439877 -0.821943 0.361827
vn 0.339793 -0.882678 0.324684
vn 0.243799 -0.932499 0.266474
vn 0.155585 -0.969489 0.189434
vn 0.078540 -0.992227 0.096523
vn 0.015626 -0.999840 -0.008686
vn -0.030741 -0.992035 -0.122152
vn -0.058777 -0.969112 -0.239513
vn -0.067407 -0.931952 -0.356260
vn -0.056297 -0.881983 -0.467906
vn -0.927533 0.342348 -0.149937
vn -0.876350 0.415497 -0.243664
vn -0.808014 0.494846 -0.319750
vn -0.725150 0.577346 -0.375272
vn -0.630943 0.659825 -0.408095
vn -0.529012 0.739115 -0.416959
vn -0.423276 0.812169 -0.401521
vn -0.317798 0.876178 -0.362377
vn -0.216629 0.928684 -0.301029
vn -0.123660 0.967668 -0.219836
vn -0.042463 0.991631 -0.121919
vn 0.023842 0.999655 -0.011038
vn 0.072708 0.991429 0.108544
vn 0.102256 0.967271 0.232231
vn 0.111350 0.928108 0.355271
vn 0.099641 0.875445 0.472935
vn 0.067580 0.811307 0.580701
vn 0.016398 0.738158 0.674429
vn -0.051938 0.658809 0.750515
vn -0.134803 0.576309 0.806037
vn -0.229009 0.493830 0.838860
vn -0.330940 0.414540 0.847724
vn -0.436676 0.341487 0.832286
vn -0.542155 0.277477 0.793142
vn -0.643323 0.224972 0.731794
vn -0.736292 0.185988 0.650602
vn -0.817490 0.162024 0.552683
vn -0.883795 0.154000 0.441803
vn -0.932661 0.162226 0.322222
vn -0.962208 0.186384 0.198534
vn -0.971303 0.225547 0.075494
vn -0.959594 0.278210 -0.042170
vn -0.572540 0.768080 0.286795
vn -0.572539 0.768081 0.286794
vn -0.572539 0.768081 0.286795
vn -0.572541 0.768080 0.286794
vn -0.572539 0.768080 0.286795
vn -0.572538 0.768081 0.286796
vn -0.572540 0.768080 0.286794
vn -0.572539 0.768080 0.286796
usemtl Material
s off
f 12//7 10//7 74//7
f 10//8 12//8 14//8
f 10//9 14//9 16//9
f 10//10 16//10 18//10
f 10//11 18//11 20//11
f 10//12 20//12 22//12
f 10//13 22//13 24//13
f 10//14 24//14 26//14
f 10//15 26//15 28//15
f 10//16 28//16 30//16
f 10//17 30//17 32//17
f 10//18 32//18 34//18
f 10//19 34//19 36//19
f 10//20 36//20 38//20
f 10//21 38//21 40//21
f 10//22 40//22 42//22
f 10//23 42//23 44//23
f 10//24 44//24 46//24
f 10//25 46//25 48//25
f 10//26 48//26 50//26
f 10//27 50//27 52//27
f 10//28 52//28 54//28
f 10//29 54//29 56//29
f 10//30 56//30 58//30
f 10//31 58//31 60//31
f 10//32 60//32 62//32
f 10//33 62//33 64//33
f 10//34 64//34 66//34
f 10//35 66//35 68//35
f 10//36 68//36 70//36
f 10//37 70//37 72//37
f 10//38 72//38 74//38
f 11//39 12//39 74//39
f 11//39 74//39 73//39
f 12//40 11//40 13//40
f 12//40 13//40 14//40
f 14//41 13//41 15//41
f 14//41 15//41 16//41
f 16//42 15//42 17//42
f 16//42 17//42 18//42
f 18//43 17//43 19//43
f 18//43 19//43 20//43
f 20//44 19//44 21//44
f 20//44 21//44 22//44
f 22//45 21//45 23//45
f 22//45 23//45 24//45
f 24//46 23//46 25//46
f 24//46 25//46 26//46
f 26//47 25//47 27//47
f 26//47 27//47 28//47
f 28//48 27//48 29//48
f 28//48 29//48 30//48
f 30//49 29//49 31//49
f 30//49 31//49 32//49
f 32//50 31//50 33//50
f 32//50 33//50 34//50
f 34//51 33//51 35//51
f 34//51 35//51 36//51
f 36//52 35//52 37//52
f 36//52 37//52 38//52
f 38//53 37//53 39//53
f 38//53 39//53 40//53
f 40//54 39//54 41//54
f 40//54 41//54 42//54
f 42//55 41//55 43//55
f 42//55 43//55 44//55
f 44//56 43//56 45//56
f 44//56 45//56 46//56
f 46//57 45//57 47//57
f 46//57 47//57 48//57
f 48//58 47//58 49//58
f 48//58 49//58 50//58
f 50//59 49//59 51//59
f 50//59 51//59 52//59
f 52//60 51//60 53//60
f 52//60 53//60 54//60
f 54//61 53//61 55//61
f 54//61 55//61 56//61
f 56//62 55//62 57//62
f 56//62 57//62 58//62
f 58//63 57//63 59//63
f 58//63 59//63 60//63
f 60//64 59//64 61//64
f 60//64 61//64 62//64
f 62//65 61//65 63//65
f 62//65 63//65 64//65
f 64//66 63//66 65//66
f 64//66 65//66 66//66
f 66//67 65//67 67//67
f 66//67 67//67 68//67
f 68//68 67//68 69//68
f 68//68 69//68 70//68
f 70//69 69//69 71//69
f 70//69 71//69 72//69
f 72//70 71//70 73//70
f 72//70 73//70 74//70
f 9//71 11//71 73//71
f 11//72 9//72 13//72
f 13//71 9//71 15//71
f 15//71 9//71 17//71
f 17//73 9//73 19//73
f 19//73 9//73 21//73
f 21//73 9//73 23//73
f 23//74 9//74 25//74
f 25//75 9//75 27//75
f 27//76 9//76 29//76
f 29//77 9//77 31//77
f 31//73 9//73 33//73
f 33//73 9//73 35//73
f 35//72 9//72 37//72
f 37//78 9//78 39//78
f 39//78 9//78 41//78
f 41//72 9//72 43//72
f 43//75 9//75 45//75
f 45//72 9//72 47//72
f 47//71 9//71 49//71
f 49//73 9//73 51//73
f 51//71 9//71 53//71
f 53//75 9//75 55//75
f 55//73 9//73 57//73
f 57//73 9//73 59//73
f 59//73 9//73 61//73
f 61//77 9//77 63//77
f 63//75 9//75 65//75
f 65//75 9//75 67//75
f 67//75 9//75 69//75
f 69//75 9//75 71//75
f 71//72 9//72 73//72
