# Blender v2.64 (sub 0) OBJ File: ''
# www.blender.org
mtllib untitled_000032.mtl
o Cube
v -8.729040 -2.858973 10.487860
v -8.729040 -2.858973 -7.293924
v 9.052744 -2.858973 -7.293924
v 9.052744 -2.858973 10.487860
v -8.729040 14.922812 10.487860
v -8.729040 14.922812 -7.293924
v 9.052744 14.922812 -7.293924
v 9.052744 14.922812 10.487860
vn -1.000000 -0.000000 0.000000
vn 0.000000 0.000000 -1.000000
vn 1.000000 -0.000000 0.000000
vn 0.000000 0.000000 1.000000
vn -0.000000 -1.000000 0.000000
vn -0.000000 1.000000 0.000000
usemtl Material.003
s off
f 2//1 1//1 5//1
f 2//1 5//1 6//1
usemtl Material.005
f 6//2 7//2 3//2
f 6//2 3//2 2//2
usemtl Material.004
f 7//3 8//3 4//3
f 7//3 4//3 3//3
usemtl Material.002
f 1//4 4//4 8//4
f 1//4 8//4 5//4
usemtl Material.001
f 1//5 2//5 3//5
f 1//5 3//5 4//5
f 8//6 7//6 6//6
f 8//6 6//6 5//6
o Diamond
v -2.917002 2.278080 1.567538
v -2.201309 0.817874 1.062040
v -2.512107 2.706633 0.902857
v -2.024356 2.547925 0.305889
v -2.383878 2.729449 1.018499
v -1.810642 2.585951 0.498625
v -2.276137 2.734919 1.155240
v -1.631074 2.595068 0.726527
v -2.193024 2.722832 1.307825
v -1.492553 2.574924 0.980837
v -2.137734 2.693655 1.470392
v -1.400401 2.526294 1.251780
v -2.112390 2.648506 1.636691
v -1.358162 2.451047 1.528946
v -2.117967 2.589123 1.800333
v -1.367457 2.352075 1.801682
v -2.154250 2.517787 1.955029
v -1.427929 2.233181 2.059509
v -2.219846 2.437238 2.094833
v -1.537255 2.098933 2.292516
v -2.312232 2.350573 2.214374
v -1.691233 1.954492 2.491752
v -2.427860 2.261122 2.309058
v -1.883946 1.805407 2.649558
v -2.562286 2.172324 2.375245
v -2.107988 1.657409 2.759869
v -2.710343 2.087589 2.410393
v -2.354750 1.516184 2.818449
v -2.866341 2.010175 2.413150
v -2.614747 1.387160 2.823044
v -3.024287 1.943055 2.383410
v -2.877990 1.275295 2.773478
v -3.178109 1.888811 2.322317
v -3.134361 1.184889 2.671657
v -3.321898 1.849527 2.232219
v -3.374009 1.119414 2.521492
v -3.450126 1.826711 2.116577
v -3.587723 1.081388 2.328756
v -3.557867 1.821241 1.979836
v -3.767291 1.072272 2.100854
v -3.640980 1.833327 1.827250
v -3.905812 1.092415 1.846544
v -3.696271 1.862505 1.664684
v -3.997963 1.141045 1.575601
v -3.721615 1.907653 1.498385
v -4.040203 1.216292 1.298436
v -3.716038 1.967037 1.334743
v -4.030909 1.315264 1.025699
v -3.679754 2.038373 1.180047
v -3.970436 1.434158 0.767873
v -3.614159 2.118922 1.040242
v -3.861110 1.568406 0.534864
v -3.521772 2.205586 0.920701
v -3.707132 1.712847 0.335630
v -3.406144 2.295037 0.826017
v -3.514419 1.861932 0.177824
v -3.271719 2.383836 0.759830
v -3.290377 2.009930 0.067512
v -3.123662 2.468571 0.724683
v -3.043616 2.151154 0.008933
v -2.967663 2.545985 0.721926
v -2.783617 2.280179 0.004337
v -2.809718 2.613104 0.751665
v -2.520375 2.392043 0.053903
v -2.655895 2.667348 0.812758
v -2.264004 2.482450 0.155725
vn 0.563519 -0.378560 -0.734261
vn 0.659892 -0.356558 -0.661368
vn 0.743495 -0.346537 -0.571951
vn 0.811113 -0.348881 -0.469444
vn 0.860148 -0.363501 -0.357789
vn 0.888716 -0.389834 -0.241274
vn 0.895719 -0.426869 -0.124378
vn 0.880889 -0.473182 -0.011594
vn 0.844794 -0.526993 0.092745
vn 0.788821 -0.586236 0.184630
vn 0.715124 -0.648632 0.260528
vn 0.626532 -0.711784 0.317523
vn 0.526450 -0.773267 0.353425
vn 0.418726 -0.830714 0.366854
vn 0.307498 -0.881921 0.357295
vn 0.197041 -0.924920 0.325114
vn 0.091599 -0.958056 0.271548
vn -0.004774 -0.980058 0.198655
vn -0.088376 -0.990079 0.109238
vn -0.155994 -0.987735 0.006732
vn -0.205030 -0.973116 -0.104924
vn -0.233598 -0.946782 -0.221439
vn -0.240601 -0.909748 -0.338334
vn -0.225770 -0.863435 -0.451119
vn -0.189676 -0.809623 -0.555458
vn -0.133703 -0.750380 -0.647343
vn -0.060005 -0.687984 -0.723241
vn 0.028586 -0.624832 -0.780236
vn 0.128668 -0.563350 -0.816138
vn 0.236392 -0.505902 -0.829567
vn 0.347620 -0.454695 -0.820008
vn 0.458078 -0.411697 -0.787827
vn -0.066947 0.949325 -0.307084
vn 0.034621 0.972513 -0.230262
vn 0.122729 0.983074 -0.136026
vn 0.193993 0.980604 -0.027993
vn 0.245671 0.965196 0.089681
vn 0.275779 0.937444 0.212475
vn 0.283160 0.898412 0.335672
vn 0.267530 0.849603 0.454535
vn 0.229489 0.792891 0.564499
vn 0.170500 0.730455 0.661336
vn 0.092830 0.664696 0.741324
vn -0.000538 0.598139 0.801392
vn -0.106014 0.533343 0.839229
vn -0.219544 0.472799 0.853382
vn -0.336767 0.418832 0.843308
vn -0.453179 0.373516 0.809392
vn -0.564303 0.338594 0.752939
vn -0.665872 0.315406 0.676117
vn -0.753979 0.304844 0.581881
vn -0.825243 0.307315 0.473848
vn -0.876921 0.322722 0.356175
vn -0.907029 0.350475 0.233380
vn -0.914410 0.389506 0.110184
vn -0.898779 0.438316 -0.008681
vn -0.860739 0.495027 -0.118644
vn -0.801750 0.557463 -0.215480
vn -0.724079 0.623223 -0.295470
vn -0.630713 0.689779 -0.355537
vn -0.525237 0.754574 -0.393374
vn -0.411706 0.815120 -0.407527
vn -0.294482 0.869087 -0.397452
vn -0.178071 0.914402 -0.363537
vn -0.420274 0.857470 0.296841
vn -0.420273 0.857470 0.296841
vn -0.420273 0.857470 0.296842
vn -0.420273 0.857471 0.296840
vn -0.420274 0.857470 0.296842
vn -0.420273 0.857471 0.296841
usemtl Material
s off
f 12//7 10//7 74//7
f 10//8 12//8 14//8
f 10//9 14//9 16//9
f 10//10 16//10 18//10
f 10//11 18//11 20//11
f 10//12 20//12 22//12
f 10//13 22//13 24//13
f 10//14 24//14 26//14
f 10//15 26//15 28//15
f 10//16 28//16 30//16
f 10//17 30//17 32//17
f 10//18 32//18 34//18
f 10//19 34//19 36//19
f 10//20 36//20 38//20
f 10//21 38//21 40//21
f 10//22 40//22 42//22
f 10//23 42//23 44//23
f 10//24 44//24 46//24
f 10//25 46//25 48//25
f 10//26 48//26 50//26
f 10//27 50//27 52//27
f 10//28 52//28 54//28
f 10//29 54//29 56//29
f 10//30 56//30 58//30
f 10//31 58//31 60//31
f 10//32 60//32 62//32
f 10//33 62//33 64//33
f 10//34 64//34 66//34
f 10//35 66//35 68//35
f 10//36 68//36 70//36
f 10//37 70//37 72//37
f 10//38 72//38 74//38
f 11//39 12//39 74//39
f 11//39 74//39 73//39
f 12//40 11//40 13//40
f 12//40 13//40 14//40
f 14//41 13//41 15//41
f 14//41 15//41 16//41
f 16//42 15//42 17//42
f 16//42 17//42 18//42
f 18//43 17//43 19//43
f 18//43 19//43 20//43
f 20//44 19//44 21//44
f 20//44 21//44 22//44
f 22//45 21//45 23//45
f 22//45 23//45 24//45
f 24//46 23//46 25//46
f 24//46 25//46 26//46
f 26//47 25//47 27//47
f 26//47 27//47 28//47
f 28//48 27//48 29//48
f 28//48 29//48 30//48
f 30//49 29//49 31//49
f 30//49 31//49 32//49
f 32//50 31//50 33//50
f 32//50 33//50 34//50
f 34//51 33//51 35//51
f 34//51 35//51 36//51
f 36//52 35//52 37//52
f 36//52 37//52 38//52
f 38//53 37//53 39//53
f 38//53 39//53 40//53
f 40//54 39//54 41//54
f 40//54 41//54 42//54
f 42//55 41//55 43//55
f 42//55 43//55 44//55
f 44//56 43//56 45//56
f 44//56 45//56 46//56
f 46//57 45//57 47//57
f 46//57 47//57 48//57
f 48//58 47//58 49//58
f 48//58 49//58 50//58
f 50//59 49//59 51//59
f 50//59 51//59 52//59
f 52//60 51//60 53//60
f 52//60 53//60 54//60
f 54//61 53//61 55//61
f 54//61 55//61 56//61
f 56//62 55//62 57//62
f 56//62 57//62 58//62
f 58//63 57//63 59//63
f 58//63 59//63 60//63
f 60//64 59//64 61//64
f 60//64 61//64 62//64
f 62//65 61//65 63//65
f 62//65 63//65 64//65
f 64//66 63//66 65//66
f 64//66 65//66 66//66
f 66//67 65//67 67//67
f 66//67 67//67 68//67
f 68//68 67//68 69//68
f 68//68 69//68 70//68
f 70//69 69//69 71//69
f 70//69 71//69 72//69
f 72//70 71//70 73//70
f 72//70 73//70 74//70
f 9//71 11//71 73//71
f 11//72 9//72 13//72
f 13//72 9//72 15//72
f 15//71 9//71 17//71
f 17//73 9//73 19//73
f 19//73 9//73 21//73
f 21//74 9//74 23//74
f 23//75 9//75 25//75
f 25//71 9//71 27//71
f 27//75 9//75 29//75
f 29//76 9//76 31//76
f 31//76 9//76 33//76
f 33//71 9//71 35//71
f 35//76 9//76 37//76
f 37//71 9//71 39//71
f 39//71 9//71 41//71
f 41//73 9//73 43//73
f 43//71 9//71 45//71
f 45//73 9//73 47//73
f 47//71 9//71 49//71
f 49//71 9//71 51//71
f 51//71 9//71 53//71
f 53//71 9//71 55//71
f 55//74 9//74 57//74
f 57//75 9//75 59//75
f 59//71 9//71 61//71
f 61//76 9//76 63//76
f 63//72 9//72 65//72
f 65//71 9//71 67//71
f 67//76 9//76 69//76
f 69//71 9//71 71//71
f 71//71 9//71 73//71
