# Blender v2.64 (sub 0) OBJ File: ''
# www.blender.org
mtllib untitled_000004.mtl
o Cube
v -8.729040 -2.858973 10.487860
v -8.729040 -2.858973 -7.293924
v 9.052744 -2.858973 -7.293924
v 9.052744 -2.858973 10.487860
v -8.729040 14.922812 10.487860
v -8.729040 14.922812 -7.293924
v 9.052744 14.922812 -7.293924
v 9.052744 14.922812 10.487860
vn -1.000000 -0.000000 0.000000
vn 0.000000 0.000000 -1.000000
vn 1.000000 -0.000000 0.000000
vn 0.000000 0.000000 1.000000
vn -0.000000 -1.000000 0.000000
vn -0.000000 1.000000 0.000000
usemtl Material.003
s off
f 2//1 1//1 5//1
f 2//1 5//1 6//1
usemtl Material.005
f 6//2 7//2 3//2
f 6//2 3//2 2//2
usemtl Material.004
f 7//3 8//3 4//3
f 7//3 4//3 3//3
usemtl Material.002
f 1//4 4//4 8//4
f 1//4 8//4 5//4
usemtl Material.001
f 1//5 2//5 3//5
f 1//5 3//5 4//5
f 8//6 7//6 6//6
f 8//6 6//6 5//6
o Diamond
v 2.270846 2.351469 2.011169
v 2.335827 0.650129 2.045314
v 3.157075 2.384231 1.957081
v 3.767670 1.888274 1.931414
v 3.150460 2.387471 2.131098
v 3.756646 1.893674 2.221442
v 3.110043 2.389328 2.300506
v 3.689284 1.896768 2.503789
v 3.037375 2.389729 2.458795
v 3.568171 1.897436 2.767604
v 2.935251 2.388660 2.599882
v 3.397963 1.895655 3.002750
v 2.807593 2.386161 2.718346
v 3.185201 1.891491 3.200188
v 2.659309 2.382330 2.809632
v 2.938061 1.885105 3.352333
v 2.496097 2.377313 2.870235
v 2.666040 1.876743 3.453337
v 2.324228 2.371302 2.897824
v 2.379592 1.866725 3.499319
v 2.150307 2.364529 2.891339
v 2.089725 1.855437 3.488511
v 1.981019 2.357254 2.851030
v 1.807578 1.843313 3.421329
v 1.822870 2.349757 2.778445
v 1.543995 1.830817 3.300355
v 1.681935 2.342326 2.676374
v 1.309103 1.818432 3.130237
v 1.563632 2.335246 2.548741
v 1.111932 1.806632 2.917514
v 1.472507 2.328789 2.400448
v 0.960057 1.795871 2.670360
v 1.412061 2.323205 2.237196
v 0.859314 1.786563 2.398272
v 1.384618 2.318706 2.065258
v 0.813576 1.779065 2.111708
v 1.391233 2.315466 1.891240
v 0.824600 1.773665 1.821680
v 1.431650 2.313610 1.721833
v 0.891963 1.770571 1.539333
v 1.504318 2.313208 1.563543
v 1.013075 1.769902 1.275517
v 1.606442 2.314277 1.422456
v 1.183283 1.771684 1.040373
v 1.734099 2.316776 1.303993
v 1.396044 1.775848 0.842934
v 1.882384 2.320607 1.212706
v 1.643185 1.782234 0.690789
v 2.045596 2.325624 1.152103
v 1.915206 1.790596 0.589785
v 2.217465 2.331635 1.124514
v 2.201655 1.800614 0.543803
v 2.391385 2.338408 1.130999
v 2.491521 1.811902 0.554611
v 2.560674 2.345683 1.171308
v 2.773669 1.824026 0.621793
v 2.718823 2.353180 1.243893
v 3.037252 1.836522 0.742767
v 2.859758 2.360611 1.345963
v 3.272142 1.848907 0.912884
v 2.978061 2.367691 1.473597
v 3.469315 1.860707 1.125608
v 3.069186 2.374147 1.621890
v 3.621190 1.871468 1.372762
v 3.129632 2.379733 1.785142
v 3.721932 1.880776 1.644850
vn 0.647985 -0.757049 -0.083615
vn 0.655365 -0.754308 0.038954
vn 0.638702 -0.752502 0.160627
vn 0.598637 -0.751702 0.276728
vn 0.536709 -0.751939 0.382795
vn 0.455299 -0.753202 0.474751
vn 0.357535 -0.755445 0.549064
vn 0.247174 -0.758580 0.602877
vn 0.128458 -0.762487 0.634123
vn 0.005947 -0.767016 0.641600
vn -0.115650 -0.771993 0.625021
vn -0.231658 -0.777227 0.585024
vn -0.337622 -0.782516 0.523145
vn -0.429467 -0.787657 0.441762
vn -0.503666 -0.792453 0.344004
vn -0.557366 -0.796719 0.233626
vn -0.588505 -0.800292 0.114870
vn -0.595884 -0.803034 -0.007700
vn -0.579221 -0.804839 -0.129372
vn -0.539156 -0.805639 -0.245473
vn -0.477228 -0.805402 -0.351540
vn -0.395818 -0.804139 -0.443496
vn -0.298055 -0.801896 -0.517809
vn -0.187693 -0.798761 -0.571622
vn -0.068977 -0.794854 -0.602868
vn 0.053534 -0.790325 -0.610345
vn 0.175130 -0.785348 -0.593766
vn 0.291139 -0.780114 -0.553769
vn 0.397102 -0.774825 -0.491890
vn 0.488948 -0.769684 -0.410508
vn 0.563147 -0.764888 -0.312749
vn 0.616847 -0.760622 -0.202371
vn 0.622912 0.773088 -0.119650
vn 0.630689 0.775977 0.009526
vn 0.613128 0.777880 0.137757
vn 0.570903 0.778723 0.260116
vn 0.505638 0.778473 0.371900
vn 0.419840 0.777142 0.468813
vn 0.316806 0.774778 0.547131
vn 0.200497 0.771474 0.603845
vn 0.075381 0.767356 0.636775
vn -0.053733 0.762583 0.644655
vn -0.181883 0.757338 0.627183
vn -0.304145 0.751822 0.585029
vn -0.415820 0.746248 0.519815
vn -0.512616 0.740830 0.434046
vn -0.590814 0.735775 0.331018
vn -0.647409 0.731279 0.214691
vn -0.680226 0.727514 0.089534
vn -0.688003 0.724624 -0.039642
vn -0.670442 0.722722 -0.167873
vn -0.628217 0.721879 -0.290232
vn -0.562951 0.722128 -0.402016
vn -0.477154 0.723460 -0.498929
vn -0.374120 0.725823 -0.577247
vn -0.257811 0.729128 -0.633961
vn -0.132695 0.733245 -0.666891
vn -0.003581 0.738018 -0.674771
vn 0.124570 0.743264 -0.657299
vn 0.246831 0.748779 -0.615146
vn 0.358506 0.754354 -0.549931
vn 0.455302 0.759772 -0.464162
vn 0.533501 0.764826 -0.361134
vn 0.590095 0.769322 -0.244807
vn -0.038158 0.999071 -0.020050
vn -0.038158 0.999071 -0.020051
vn -0.038159 0.999070 -0.020050
vn -0.038157 0.999071 -0.020051
vn -0.038159 0.999071 -0.020051
vn -0.038159 0.999070 -0.020051
vn -0.038158 0.999070 -0.020052
vn -0.038159 0.999071 -0.020050
vn -0.038159 0.999071 -0.020052
usemtl Material
s off
f 12//7 10//7 74//7
f 10//8 12//8 14//8
f 10//9 14//9 16//9
f 10//10 16//10 18//10
f 10//11 18//11 20//11
f 10//12 20//12 22//12
f 10//13 22//13 24//13
f 10//14 24//14 26//14
f 10//15 26//15 28//15
f 10//16 28//16 30//16
f 10//17 30//17 32//17
f 10//18 32//18 34//18
f 10//19 34//19 36//19
f 10//20 36//20 38//20
f 10//21 38//21 40//21
f 10//22 40//22 42//22
f 10//23 42//23 44//23
f 10//24 44//24 46//24
f 10//25 46//25 48//25
f 10//26 48//26 50//26
f 10//27 50//27 52//27
f 10//28 52//28 54//28
f 10//29 54//29 56//29
f 10//30 56//30 58//30
f 10//31 58//31 60//31
f 10//32 60//32 62//32
f 10//33 62//33 64//33
f 10//34 64//34 66//34
f 10//35 66//35 68//35
f 10//36 68//36 70//36
f 10//37 70//37 72//37
f 10//38 72//38 74//38
f 11//39 12//39 74//39
f 11//39 74//39 73//39
f 12//40 11//40 13//40
f 12//40 13//40 14//40
f 14//41 13//41 15//41
f 14//41 15//41 16//41
f 16//42 15//42 17//42
f 16//42 17//42 18//42
f 18//43 17//43 19//43
f 18//43 19//43 20//43
f 20//44 19//44 21//44
f 20//44 21//44 22//44
f 22//45 21//45 23//45
f 22//45 23//45 24//45
f 24//46 23//46 25//46
f 24//46 25//46 26//46
f 26//47 25//47 27//47
f 26//47 27//47 28//47
f 28//48 27//48 29//48
f 28//48 29//48 30//48
f 30//49 29//49 31//49
f 30//49 31//49 32//49
f 32//50 31//50 33//50
f 32//50 33//50 34//50
f 34//51 33//51 35//51
f 34//51 35//51 36//51
f 36//52 35//52 37//52
f 36//52 37//52 38//52
f 38//53 37//53 39//53
f 38//53 39//53 40//53
f 40//54 39//54 41//54
f 40//54 41//54 42//54
f 42//55 41//55 43//55
f 42//55 43//55 44//55
f 44//56 43//56 45//56
f 44//56 45//56 46//56
f 46//57 45//57 47//57
f 46//57 47//57 48//57
f 48//58 47//58 49//58
f 48//58 49//58 50//58
f 50//59 49//59 51//59
f 50//59 51//59 52//59
f 52//60 51//60 53//60
f 52//60 53//60 54//60
f 54//61 53//61 55//61
f 54//61 55//61 56//61
f 56//62 55//62 57//62
f 56//62 57//62 58//62
f 58//63 57//63 59//63
f 58//63 59//63 60//63
f 60//64 59//64 61//64
f 60//64 61//64 62//64
f 62//65 61//65 63//65
f 62//65 63//65 64//65
f 64//66 63//66 65//66
f 64//66 65//66 66//66
f 66//67 65//67 67//67
f 66//67 67//67 68//67
f 68//68 67//68 69//68
f 68//68 69//68 70//68
f 70//69 69//69 71//69
f 70//69 71//69 72//69
f 72//70 71//70 73//70
f 72//70 73//70 74//70
f 9//71 11//71 73//71
f 11//72 9//72 13//72
f 13//72 9//72 15//72
f 15//71 9//71 17//71
f 17//71 9//71 19//71
f 19//73 9//73 21//73
f 21//72 9//72 23//72
f 23//74 9//74 25//74
f 25//75 9//75 27//75
f 27//72 9//72 29//72
f 29//76 9//76 31//76
f 31//72 9//72 33//72
f 33//71 9//71 35//71
f 35//71 9//71 37//71
f 37//72 9//72 39//72
f 39//71 9//71 41//71
f 41//72 9//72 43//72
f 43//71 9//71 45//71
f 45//72 9//72 47//72
f 47//71 9//71 49//71
f 49//77 9//77 51//77
f 51//78 9//78 53//78
f 53//72 9//72 55//72
f 55//75 9//75 57//75
f 57//75 9//75 59//75
f 59//72 9//72 61//72
f 61//72 9//72 63//72
f 63//72 9//72 65//72
f 65//72 9//72 67//72
f 67//75 9//75 69//75
f 69//71 9//71 71//71
f 71//79 9//79 73//79
