# Blender v2.64 (sub 0) OBJ File: ''
# www.blender.org
mtllib untitled_000058.mtl
o Cube
v -8.729040 -2.858973 10.487860
v -8.729040 -2.858973 -7.293924
v 9.052744 -2.858973 -7.293924
v 9.052744 -2.858973 10.487860
v -8.729040 14.922812 10.487860
v -8.729040 14.922812 -7.293924
v 9.052744 14.922812 -7.293924
v 9.052744 14.922812 10.487860
vn -1.000000 -0.000000 0.000000
vn 0.000000 0.000000 -1.000000
vn 1.000000 -0.000000 0.000000
vn 0.000000 0.000000 1.000000
vn -0.000000 -1.000000 0.000000
vn -0.000000 1.000000 0.000000
usemtl Material.003
s off
f 2//1 1//1 5//1
f 2//1 5//1 6//1
usemtl Material.005
f 6//2 7//2 3//2
f 6//2 3//2 2//2
usemtl Material.004
f 7//3 8//3 4//3
f 7//3 4//3 3//3
usemtl Material.002
f 1//4 4//4 8//4
f 1//4 8//4 5//4
usemtl Material.001
f 1//5 2//5 3//5
f 1//5 3//5 4//5
f 8//6 7//6 6//6
f 8//6 6//6 5//6
o Diamond
v -0.712989 2.293172 -1.538218
v -1.486509 0.783378 -1.389433
v -0.373253 2.042087 -2.319841
v -0.382181 1.415195 -2.795641
v -0.240308 1.983438 -2.223810
v -0.160606 1.317446 -2.635589
v -0.125527 1.936692 -2.101432
v 0.030695 1.239536 -2.431625
v -0.033322 1.903645 -1.957410
v 0.184370 1.184458 -2.191588
v 0.032763 1.885568 -1.797278
v 0.294512 1.154329 -1.924703
v 0.070190 1.883154 -1.627191
v 0.356890 1.150307 -1.641224
v 0.077519 1.896497 -1.453685
v 0.369105 1.172545 -1.352048
v 0.054470 1.925085 -1.283427
v 0.330690 1.220191 -1.068285
v 0.001928 1.967817 -1.122961
v 0.243120 1.291412 -0.800841
v -0.078088 2.023053 -0.978453
v 0.109760 1.383472 -0.559994
v -0.182503 2.088670 -0.855456
v -0.064266 1.492832 -0.354999
v -0.307304 2.162145 -0.758698
v -0.272267 1.615291 -0.193736
v -0.447696 2.240655 -0.691896
v -0.506254 1.746142 -0.082399
v -0.598282 2.321184 -0.657618
v -0.757231 1.880356 -0.025268
v -0.753277 2.400636 -0.657180
v -1.015555 2.012777 -0.024539
v -0.906723 2.475959 -0.690601
v -1.271299 2.138314 -0.080240
v -1.052725 2.544257 -0.756594
v -1.514634 2.252144 -0.190230
v -1.185670 2.602906 -0.852626
v -1.736210 2.349893 -0.350282
v -1.300450 2.649652 -0.975004
v -1.927510 2.427803 -0.554245
v -1.392655 2.682698 -1.119026
v -2.081185 2.482881 -0.794283
v -1.458741 2.700776 -1.279157
v -2.191327 2.513010 -1.061168
v -1.496167 2.703189 -1.449244
v -2.253705 2.517032 -1.344646
v -1.503497 2.689846 -1.622751
v -2.265921 2.494793 -1.633823
v -1.480448 2.661259 -1.793008
v -2.227506 2.447148 -1.917586
v -1.427905 2.618526 -1.953475
v -2.139935 2.375927 -2.185030
v -1.347889 2.563291 -2.097982
v -2.006575 2.283867 -2.425877
v -1.243474 2.497674 -2.220979
v -1.832550 2.174506 -2.630871
v -1.118673 2.424199 -2.317738
v -1.624548 2.052048 -2.792135
v -0.978282 2.345688 -2.384540
v -1.390563 1.921197 -2.903472
v -0.827695 2.265160 -2.418818
v -1.139585 1.786982 -2.960603
v -0.672701 2.185708 -2.419256
v -0.881261 1.654562 -2.961332
v -0.519254 2.110385 -2.385835
v -0.625517 1.529024 -2.905631
vn -0.165021 -0.844721 -0.509131
vn -0.066192 -0.889697 -0.451727
vn 0.021575 -0.927038 -0.374347
vn 0.094909 -0.955308 -0.279963
vn 0.150990 -0.973421 -0.172203
vn 0.187663 -0.980681 -0.055209
vn 0.203520 -0.976808 0.066523
vn 0.197951 -0.961953 0.188316
vn 0.171169 -0.936685 0.305488
vn 0.124205 -0.901975 0.413539
vn 0.058862 -0.859158 0.508314
vn -0.022347 -0.809879 0.586171
vn -0.116303 -0.756032 0.644120
vn -0.219395 -0.699685 0.679932
vn -0.327660 -0.643005 0.692231
vn -0.436937 -0.588170 0.680546
vn -0.543030 -0.537286 0.645324
vn -0.641858 -0.492309 0.587919
vn -0.729626 -0.454969 0.510539
vn -0.802959 -0.426699 0.416156
vn -0.859040 -0.408586 0.308395
vn -0.895714 -0.401326 0.191402
vn -0.911570 -0.405198 0.069670
vn -0.906001 -0.420054 -0.052123
vn -0.879219 -0.445322 -0.169296
vn -0.832255 -0.480032 -0.277347
vn -0.766912 -0.522849 -0.372122
vn -0.685703 -0.572128 -0.449979
vn -0.591747 -0.625975 -0.507927
vn -0.488656 -0.682322 -0.543739
vn -0.380391 -0.739002 -0.556039
vn -0.271112 -0.793837 -0.544353
vn 0.540319 0.503825 -0.673956
vn 0.644475 0.456424 -0.613457
vn 0.736972 0.417071 -0.531906
vn 0.814258 0.387277 -0.432435
vn 0.873362 0.368188 -0.318867
vn 0.912013 0.360537 -0.195567
vn 0.928724 0.364618 -0.067273
vn 0.922855 0.380274 0.061084
vn 0.894629 0.406904 0.184573
vn 0.845134 0.443484 0.298447
vn 0.776269 0.488609 0.398331
vn 0.690682 0.540545 0.480385
vn 0.591662 0.597294 0.541457
vn 0.483014 0.656678 0.579199
vn 0.368914 0.716413 0.592161
vn 0.253745 0.774204 0.579846
vn 0.141935 0.827830 0.542726
vn 0.037779 0.875231 0.482227
vn -0.054719 0.914585 0.400676
vn -0.132005 0.944378 0.301204
vn -0.191109 0.963468 0.187637
vn -0.229759 0.971119 0.064337
vn -0.246471 0.967038 -0.063957
vn -0.240601 0.951381 -0.192314
vn -0.212376 0.924751 -0.315803
vn -0.162880 0.888171 -0.429677
vn -0.094015 0.843046 -0.529561
vn -0.008429 0.791111 -0.611615
vn 0.090592 0.734361 -0.672687
vn 0.199238 0.674978 -0.710429
vn 0.313339 0.615242 -0.723392
vn 0.428509 0.557451 -0.711076
vn 0.454230 0.886590 -0.087371
vn 0.454231 0.886589 -0.087370
vn 0.454231 0.886590 -0.087371
vn 0.454231 0.886589 -0.087371
vn 0.454231 0.886590 -0.087370
vn 0.454230 0.886590 -0.087370
vn 0.454232 0.886589 -0.087370
usemtl Material
s off
f 12//7 10//7 74//7
f 10//8 12//8 14//8
f 10//9 14//9 16//9
f 10//10 16//10 18//10
f 10//11 18//11 20//11
f 10//12 20//12 22//12
f 10//13 22//13 24//13
f 10//14 24//14 26//14
f 10//15 26//15 28//15
f 10//16 28//16 30//16
f 10//17 30//17 32//17
f 10//18 32//18 34//18
f 10//19 34//19 36//19
f 10//20 36//20 38//20
f 10//21 38//21 40//21
f 10//22 40//22 42//22
f 10//23 42//23 44//23
f 10//24 44//24 46//24
f 10//25 46//25 48//25
f 10//26 48//26 50//26
f 10//27 50//27 52//27
f 10//28 52//28 54//28
f 10//29 54//29 56//29
f 10//30 56//30 58//30
f 10//31 58//31 60//31
f 10//32 60//32 62//32
f 10//33 62//33 64//33
f 10//34 64//34 66//34
f 10//35 66//35 68//35
f 10//36 68//36 70//36
f 10//37 70//37 72//37
f 10//38 72//38 74//38
f 11//39 12//39 74//39
f 11//39 74//39 73//39
f 12//40 11//40 13//40
f 12//40 13//40 14//40
f 14//41 13//41 15//41
f 14//41 15//41 16//41
f 16//42 15//42 17//42
f 16//42 17//42 18//42
f 18//43 17//43 19//43
f 18//43 19//43 20//43
f 20//44 19//44 21//44
f 20//44 21//44 22//44
f 22//45 21//45 23//45
f 22//45 23//45 24//45
f 24//46 23//46 25//46
f 24//46 25//46 26//46
f 26//47 25//47 27//47
f 26//47 27//47 28//47
f 28//48 27//48 29//48
f 28//48 29//48 30//48
f 30//49 29//49 31//49
f 30//49 31//49 32//49
f 32//50 31//50 33//50
f 32//50 33//50 34//50
f 34//51 33//51 35//51
f 34//51 35//51 36//51
f 36//52 35//52 37//52
f 36//52 37//52 38//52
f 38//53 37//53 39//53
f 38//53 39//53 40//53
f 40//54 39//54 41//54
f 40//54 41//54 42//54
f 42//55 41//55 43//55
f 42//55 43//55 44//55
f 44//56 43//56 45//56
f 44//56 45//56 46//56
f 46//57 45//57 47//57
f 46//57 47//57 48//57
f 48//58 47//58 49//58
f 48//58 49//58 50//58
f 50//59 49//59 51//59
f 50//59 51//59 52//59
f 52//60 51//60 53//60
f 52//60 53//60 54//60
f 54//61 53//61 55//61
f 54//61 55//61 56//61
f 56//62 55//62 57//62
f 56//62 57//62 58//62
f 58//63 57//63 59//63
f 58//63 59//63 60//63
f 60//64 59//64 61//64
f 60//64 61//64 62//64
f 62//65 61//65 63//65
f 62//65 63//65 64//65
f 64//66 63//66 65//66
f 64//66 65//66 66//66
f 66//67 65//67 67//67
f 66//67 67//67 68//67
f 68//68 67//68 69//68
f 68//68 69//68 70//68
f 70//69 69//69 71//69
f 70//69 71//69 72//69
f 72//70 71//70 73//70
f 72//70 73//70 74//70
f 9//71 11//71 73//71
f 11//72 9//72 13//72
f 13//73 9//73 15//73
f 15//74 9//74 17//74
f 17//72 9//72 19//72
f 19//72 9//72 21//72
f 21//72 9//72 23//72
f 23//74 9//74 25//74
f 25//75 9//75 27//75
f 27//72 9//72 29//72
f 29//72 9//72 31//72
f 31//72 9//72 33//72
f 33//72 9//72 35//72
f 35//72 9//72 37//72
f 37//75 9//75 39//75
f 39//76 9//76 41//76
f 41//72 9//72 43//72
f 43//72 9//72 45//72
f 45//72 9//72 47//72
f 47//71 9//71 49//71
f 49//71 9//71 51//71
f 51//75 9//75 53//75
f 53//71 9//71 55//71
f 55//76 9//76 57//76
f 57//76 9//76 59//76
f 59//76 9//76 61//76
f 61//74 9//74 63//74
f 63//74 9//74 65//74
f 65//74 9//74 67//74
f 67//76 9//76 69//76
f 69//75 9//75 71//75
f 71//77 9//77 73//77
