# Blender v2.64 (sub 0) OBJ File: ''
# www.blender.org
mtllib untitled_000006.mtl
o Cube
v -8.729040 -2.858973 10.487860
v -8.729040 -2.858973 -7.293924
v 9.052744 -2.858973 -7.293924
v 9.052744 -2.858973 10.487860
v -8.729040 14.922812 10.487860
v -8.729040 14.922812 -7.293924
v 9.052744 14.922812 -7.293924
v 9.052744 14.922812 10.487860
vn -1.000000 -0.000000 0.000000
vn 0.000000 0.000000 -1.000000
vn 1.000000 -0.000000 0.000000
vn 0.000000 0.000000 1.000000
vn -0.000000 -1.000000 0.000000
vn -0.000000 1.000000 0.000000
usemtl Material.003
s off
f 2//1 1//1 5//1
f 2//1 5//1 6//1
usemtl Material.005
f 6//2 7//2 3//2
f 6//2 3//2 2//2
usemtl Material.004
f 7//3 8//3 4//3
f 7//3 4//3 3//3
usemtl Material.002
f 1//4 4//4 8//4
f 1//4 8//4 5//4
usemtl Material.001
f 1//5 2//5 3//5
f 1//5 3//5 4//5
f 8//6 7//6 6//6
f 8//6 6//6 5//6
o Diamond
v 1.862138 2.349533 2.001683
v 2.012873 0.654553 2.066998
v 2.739338 2.422896 1.881108
v 3.370013 1.955942 1.820604
v 2.745347 2.430133 2.055027
v 3.380028 1.968002 2.110468
v 2.717415 2.434272 2.226895
v 3.333475 1.974900 2.396916
v 2.656615 2.435154 2.390109
v 3.232141 1.976371 2.668939
v 2.565283 2.432746 2.538396
v 3.079923 1.972358 2.916084
v 2.446931 2.427140 2.666058
v 2.882668 1.963015 3.128853
v 2.306105 2.418552 2.768187
v 2.647959 1.948701 3.299068
v 2.148217 2.407311 2.840860
v 2.384813 1.929967 3.420191
v 1.979336 2.393851 2.881284
v 2.103344 1.907532 3.487565
v 1.805951 2.378686 2.887906
v 1.814369 1.882258 3.498600
v 1.634725 2.362402 2.860471
v 1.528993 1.855118 3.452875
v 1.472239 2.345623 2.800032
v 1.258182 1.827153 3.352144
v 1.324736 2.328994 2.708914
v 1.012344 1.799438 3.200280
v 1.197885 2.313155 2.590617
v 0.800926 1.773039 3.003119
v 1.096561 2.298714 2.449688
v 0.632053 1.748971 2.768236
v 1.024658 2.286225 2.291542
v 0.512214 1.728156 2.504660
v 0.984939 2.276170 2.122257
v 0.446015 1.711397 2.222518
v 0.978930 2.268933 1.948338
v 0.436000 1.699337 1.932654
v 1.006862 2.264795 1.776470
v 0.482553 1.692439 1.646206
v 1.067662 2.263912 1.613255
v 0.583887 1.690968 1.374182
v 1.158993 2.266320 1.464969
v 0.736105 1.694981 1.127038
v 1.277345 2.271926 1.337308
v 0.933359 1.704324 0.914270
v 1.418171 2.280514 1.235178
v 1.168070 1.718638 0.744053
v 1.576058 2.291755 1.162504
v 1.431215 1.737372 0.622931
v 1.744940 2.305216 1.122080
v 1.712684 1.759807 0.555557
v 1.918325 2.320380 1.115459
v 2.001659 1.785080 0.544521
v 2.089551 2.336664 1.142894
v 2.287036 1.812221 0.590248
v 2.252037 2.353443 1.203332
v 2.557846 1.840186 0.690978
v 2.399540 2.370072 1.294451
v 2.803684 1.867900 0.842841
v 2.526391 2.385911 1.412748
v 3.015102 1.894299 1.040003
v 2.627715 2.400352 1.553677
v 3.183975 1.918368 1.274885
v 2.699618 2.412841 1.711823
v 3.303814 1.939183 1.538462
vn 0.676486 -0.727338 -0.115520
vn 0.692688 -0.721212 0.006075
vn 0.684921 -0.717182 0.128584
vn 0.653484 -0.715403 0.247301
vn 0.599585 -0.715943 0.357664
vn 0.525295 -0.718783 0.455430
vn 0.433470 -0.723811 0.536843
vn 0.327638 -0.730837 0.598774
vn 0.211867 -0.739588 0.638844
vn 0.090604 -0.749730 0.655512
vn -0.031489 -0.760872 0.648138
vn -0.149721 -0.772586 0.617005
vn -0.259547 -0.784422 0.563309
vn -0.356749 -0.795925 0.489115
vn -0.437589 -0.806653 0.397273
vn -0.498962 -0.816194 0.291313
vn -0.538509 -0.824181 0.175307
vn -0.554711 -0.830308 0.053712
vn -0.546943 -0.834338 -0.068797
vn -0.515506 -0.836117 -0.187515
vn -0.461608 -0.835576 -0.297876
vn -0.387318 -0.832737 -0.395643
vn -0.295493 -0.827708 -0.477056
vn -0.189661 -0.820683 -0.538988
vn -0.073890 -0.811932 -0.579057
vn 0.047373 -0.801790 -0.595725
vn 0.169466 -0.790648 -0.588351
vn 0.287697 -0.778934 -0.557218
vn 0.397524 -0.767098 -0.503523
vn 0.494726 -0.755595 -0.429328
vn 0.575566 -0.744867 -0.337486
vn 0.636940 -0.735326 -0.231526
vn 0.573768 0.798528 -0.182056
vn 0.590842 0.804984 -0.053907
vn 0.582656 0.809232 0.075206
vn 0.549525 0.811107 0.200322
vn 0.492720 0.810537 0.316633
vn 0.414427 0.807545 0.419669
vn 0.317652 0.802245 0.505470
vn 0.206116 0.794841 0.570740
vn 0.084104 0.785618 0.612969
vn -0.043694 0.774929 0.630536
vn -0.172368 0.763187 0.622764
vn -0.296973 0.750842 0.589953
vn -0.412719 0.738367 0.533363
vn -0.515160 0.726244 0.455170
vn -0.600358 0.714938 0.358378
vn -0.665039 0.704882 0.246706
vn -0.706717 0.696465 0.124448
vn -0.723792 0.690008 -0.003702
vn -0.715606 0.685761 -0.132815
vn -0.682475 0.683886 -0.257931
vn -0.625671 0.684456 -0.374242
vn -0.547377 0.687448 -0.477277
vn -0.450603 0.692748 -0.563079
vn -0.339067 0.700151 -0.628349
vn -0.217054 0.709375 -0.670578
vn -0.089257 0.720063 -0.688144
vn 0.039419 0.731806 -0.680373
vn 0.164022 0.744151 -0.647562
vn 0.279768 0.756625 -0.590972
vn 0.382210 0.768748 -0.512778
vn 0.467408 0.780055 -0.415986
vn 0.532089 0.790110 -0.304315
vn -0.088515 0.995336 -0.038355
vn -0.088516 0.995336 -0.038355
vn -0.088516 0.995336 -0.038354
vn -0.088515 0.995336 -0.038354
vn -0.088515 0.995336 -0.038353
vn -0.088516 0.995336 -0.038356
vn -0.088515 0.995336 -0.038356
vn -0.088514 0.995336 -0.038355
usemtl Material
s off
f 12//7 10//7 74//7
f 10//8 12//8 14//8
f 10//9 14//9 16//9
f 10//10 16//10 18//10
f 10//11 18//11 20//11
f 10//12 20//12 22//12
f 10//13 22//13 24//13
f 10//14 24//14 26//14
f 10//15 26//15 28//15
f 10//16 28//16 30//16
f 10//17 30//17 32//17
f 10//18 32//18 34//18
f 10//19 34//19 36//19
f 10//20 36//20 38//20
f 10//21 38//21 40//21
f 10//22 40//22 42//22
f 10//23 42//23 44//23
f 10//24 44//24 46//24
f 10//25 46//25 48//25
f 10//26 48//26 50//26
f 10//27 50//27 52//27
f 10//28 52//28 54//28
f 10//29 54//29 56//29
f 10//30 56//30 58//30
f 10//31 58//31 60//31
f 10//32 60//32 62//32
f 10//33 62//33 64//33
f 10//34 64//34 66//34
f 10//35 66//35 68//35
f 10//36 68//36 70//36
f 10//37 70//37 72//37
f 10//38 72//38 74//38
f 11//39 12//39 74//39
f 11//39 74//39 73//39
f 12//40 11//40 13//40
f 12//40 13//40 14//40
f 14//41 13//41 15//41
f 14//41 15//41 16//41
f 16//42 15//42 17//42
f 16//42 17//42 18//42
f 18//43 17//43 19//43
f 18//43 19//43 20//43
f 20//44 19//44 21//44
f 20//44 21//44 22//44
f 22//45 21//45 23//45
f 22//45 23//45 24//45
f 24//46 23//46 25//46
f 24//46 25//46 26//46
f 26//47 25//47 27//47
f 26//47 27//47 28//47
f 28//48 27//48 29//48
f 28//48 29//48 30//48
f 30//49 29//49 31//49
f 30//49 31//49 32//49
f 32//50 31//50 33//50
f 32//50 33//50 34//50
f 34//51 33//51 35//51
f 34//51 35//51 36//51
f 36//52 35//52 37//52
f 36//52 37//52 38//52
f 38//53 37//53 39//53
f 38//53 39//53 40//53
f 40//54 39//54 41//54
f 40//54 41//54 42//54
f 42//55 41//55 43//55
f 42//55 43//55 44//55
f 44//56 43//56 45//56
f 44//56 45//56 46//56
f 46//57 45//57 47//57
f 46//57 47//57 48//57
f 48//58 47//58 49//58
f 48//58 49//58 50//58
f 50//59 49//59 51//59
f 50//59 51//59 52//59
f 52//60 51//60 53//60
f 52//60 53//60 54//60
f 54//61 53//61 55//61
f 54//61 55//61 56//61
f 56//62 55//62 57//62
f 56//62 57//62 58//62
f 58//63 57//63 59//63
f 58//63 59//63 60//63
f 60//64 59//64 61//64
f 60//64 61//64 62//64
f 62//65 61//65 63//65
f 62//65 63//65 64//65
f 64//66 63//66 65//66
f 64//66 65//66 66//66
f 66//67 65//67 67//67
f 66//67 67//67 68//67
f 68//68 67//68 69//68
f 68//68 69//68 70//68
f 70//69 69//69 71//69
f 70//69 71//69 72//69
f 72//70 71//70 73//70
f 72//70 73//70 74//70
f 9//71 11//71 73//71
f 11//71 9//71 13//71
f 13//71 9//71 15//71
f 15//72 9//72 17//72
f 17//73 9//73 19//73
f 19//73 9//73 21//73
f 21//71 9//71 23//71
f 23//71 9//71 25//71
f 25//71 9//71 27//71
f 27//72 9//72 29//72
f 29//72 9//72 31//72
f 31//72 9//72 33//72
f 33//72 9//72 35//72
f 35//74 9//74 37//74
f 37//72 9//72 39//72
f 39//72 9//72 41//72
f 41//75 9//75 43//75
f 43//76 9//76 45//76
f 45//73 9//73 47//73
f 47//72 9//72 49//72
f 49//77 9//77 51//77
f 51//73 9//73 53//73
f 53//73 9//73 55//73
f 55//71 9//71 57//71
f 57//71 9//71 59//71
f 59//72 9//72 61//72
f 61//78 9//78 63//78
f 63//72 9//72 65//72
f 65//72 9//72 67//72
f 67//74 9//74 69//74
f 69//72 9//72 71//72
f 71//74 9//74 73//74
