# Blender v2.64 (sub 0) OBJ File: ''
# www.blender.org
mtllib untitled_000099.mtl
o Cube
v -8.729040 -2.858973 10.487860
v -8.729040 -2.858973 -7.293924
v 9.052744 -2.858973 -7.293924
v 9.052744 -2.858973 10.487860
v -8.729040 14.922812 10.487860
v -8.729040 14.922812 -7.293924
v 9.052744 14.922812 -7.293924
v 9.052744 14.922812 10.487860
vn -1.000000 -0.000000 0.000000
vn 0.000000 0.000000 -1.000000
vn 1.000000 -0.000000 0.000000
vn 0.000000 0.000000 1.000000
vn -0.000000 -1.000000 0.000000
vn -0.000000 1.000000 0.000000
usemtl Material.003
s off
f 2//1 1//1 5//1
f 2//1 5//1 6//1
usemtl Material.005
f 6//2 7//2 3//2
f 6//2 3//2 2//2
usemtl Material.004
f 7//3 8//3 4//3
f 7//3 4//3 3//3
usemtl Material.002
f 1//4 4//4 8//4
f 1//4 8//4 5//4
usemtl Material.001
f 1//5 2//5 3//5
f 1//5 3//5 4//5
f 8//6 7//6 6//6
f 8//6 6//6 5//6
o Diamond
v 0.434672 7.904679 6.366991
v 0.457861 6.272737 5.881013
v -0.237932 8.061563 5.808072
v -0.679277 7.669474 5.287552
v -0.111779 8.097480 5.693479
v -0.469022 7.729336 5.096564
v 0.035374 8.125988 5.604769
v -0.223767 7.776850 4.948714
v 0.197872 8.145991 5.545350
v 0.047062 7.810188 4.849684
v 0.369469 8.156721 5.517507
v 0.333059 7.828071 4.803278
v 0.543573 8.157764 5.522309
v 0.623231 7.829811 4.811282
v 0.713491 8.149083 5.559572
v 0.906428 7.815341 4.873386
v 0.872695 8.131008 5.627863
v 1.171768 7.785217 4.987206
v 1.015065 8.104237 5.724559
v 1.409052 7.740597 5.148365
v 1.135132 8.069796 5.845943
v 1.609163 7.683195 5.350671
v 1.228280 8.029009 5.987350
v 1.764410 7.615218 5.586350
v 1.290930 7.983445 6.143347
v 1.868827 7.539278 5.846345
v 1.320675 7.934854 6.307939
v 1.918401 7.458292 6.120665
v 1.316371 7.885103 6.474799
v 1.911228 7.375374 6.398765
v 1.278184 7.836104 6.637517
v 1.847582 7.293710 6.669961
v 1.207581 7.789741 6.789839
v 1.729911 7.216438 6.923831
v 1.107275 7.747795 6.925910
v 1.562735 7.146528 7.150617
v 0.981122 7.711878 7.040504
v 1.352480 7.086666 7.341605
v 0.833970 7.683370 7.129213
v 1.107226 7.039152 7.489455
v 0.671471 7.663366 7.188632
v 0.836395 7.005814 7.588486
v 0.499874 7.652637 7.216475
v 0.550400 6.987931 7.634891
v 0.325771 7.651593 7.211673
v 0.260228 6.986191 7.626888
v 0.155852 7.660275 7.174410
v -0.022970 7.000661 7.564783
v -0.003352 7.678349 7.106119
v -0.288309 7.030785 7.450964
v -0.145723 7.705121 7.009423
v -0.525594 7.075405 7.289804
v -0.265789 7.739562 6.888040
v -0.725705 7.132806 7.087499
v -0.358937 7.780349 6.746632
v -0.880952 7.200784 6.851819
v -0.421587 7.825912 6.590635
v -0.985368 7.276724 6.591825
v -0.451332 7.874504 6.426044
v -1.034943 7.357709 6.317506
v -0.447028 7.924255 6.259182
v -1.027770 7.440628 6.039404
v -0.408841 7.973253 6.096465
v -0.964124 7.522292 5.768209
v -0.338238 8.019616 5.944143
v -0.846453 7.599564 5.514338
vn -0.501521 -0.650604 -0.570255
vn -0.421289 -0.623018 -0.659064
vn -0.324458 -0.600192 -0.731093
vn -0.214752 -0.583005 -0.783573
vn -0.096384 -0.572117 -0.814489
vn 0.026097 -0.567945 -0.822653
vn 0.147979 -0.570651 -0.807749
vn 0.264586 -0.580131 -0.770352
vn 0.371429 -0.596019 -0.711900
vn 0.464410 -0.617707 -0.634635
vn 0.539950 -0.644360 -0.541529
vn 0.595149 -0.674953 -0.436161
vn 0.627883 -0.708311 -0.322580
vn 0.636897 -0.743153 -0.205150
vn 0.621842 -0.778139 -0.088381
vn 0.583299 -0.811925 0.023235
vn 0.522748 -0.843212 0.125410
vn 0.442515 -0.870799 0.214219
vn 0.345685 -0.893624 0.286247
vn 0.235977 -0.910812 0.338728
vn 0.117610 -0.921700 0.369644
vn -0.004868 -0.925871 0.377807
vn -0.126753 -0.923165 0.362904
vn -0.243358 -0.913686 0.325507
vn -0.350205 -0.897797 0.267053
vn -0.443183 -0.876110 0.189790
vn -0.518724 -0.849457 0.096684
vn -0.573922 -0.818864 -0.008683
vn -0.606657 -0.785505 -0.122266
vn -0.615670 -0.750663 -0.239696
vn -0.600616 -0.715677 -0.356464
vn -0.562073 -0.681892 -0.468079
vn -0.549965 0.821191 -0.152261
vn -0.465408 0.850264 -0.245857
vn -0.363359 0.874320 -0.321768
vn -0.247738 0.892434 -0.377078
vn -0.122991 0.903909 -0.409661
vn 0.006092 0.908305 -0.418264
vn 0.134543 0.905453 -0.402558
vn 0.257436 0.895463 -0.363144
vn 0.370039 0.878718 -0.301541
vn 0.468031 0.855861 -0.220112
vn 0.547642 0.827772 -0.121988
vn 0.605815 0.795530 -0.010942
vn 0.640315 0.760373 0.108764
vn 0.649814 0.723653 0.232524
vn 0.633949 0.686781 0.355585
vn 0.593328 0.651175 0.473217
vn 0.529512 0.618201 0.580900
vn 0.444955 0.589127 0.674495
vn 0.342905 0.565071 0.750407
vn 0.227285 0.546958 0.805716
vn 0.102538 0.535483 0.838298
vn -0.026542 0.531087 0.846902
vn -0.154997 0.533939 0.831195
vn -0.277887 0.543929 0.791783
vn -0.390493 0.560674 0.730178
vn -0.488483 0.583530 0.648750
vn -0.568095 0.611619 0.550627
vn -0.626269 0.643862 0.439578
vn -0.660768 0.679018 0.319875
vn -0.670267 0.715738 0.196115
vn -0.654401 0.752610 0.073053
vn -0.613780 0.788218 -0.044580
vn -0.013618 0.958318 0.285379
vn -0.013617 0.958318 0.285378
vn -0.013617 0.958318 0.285379
vn -0.013614 0.958318 0.285378
vn -0.013621 0.958318 0.285378
vn -0.013614 0.958318 0.285380
vn -0.013619 0.958319 0.285377
vn -0.013616 0.958318 0.285381
vn -0.013618 0.958319 0.285376
vn -0.013617 0.958318 0.285380
vn -0.013617 0.958319 0.285377
vn -0.013618 0.958318 0.285380
vn -0.013616 0.958318 0.285377
vn -0.013616 0.958318 0.285379
vn -0.013618 0.958318 0.285378
vn -0.013616 0.958318 0.285380
vn -0.013616 0.958319 0.285376
usemtl Material
s off
f 12//7 10//7 74//7
f 10//8 12//8 14//8
f 10//9 14//9 16//9
f 10//10 16//10 18//10
f 10//11 18//11 20//11
f 10//12 20//12 22//12
f 10//13 22//13 24//13
f 10//14 24//14 26//14
f 10//15 26//15 28//15
f 10//16 28//16 30//16
f 10//17 30//17 32//17
f 10//18 32//18 34//18
f 10//19 34//19 36//19
f 10//20 36//20 38//20
f 10//21 38//21 40//21
f 10//22 40//22 42//22
f 10//23 42//23 44//23
f 10//24 44//24 46//24
f 10//25 46//25 48//25
f 10//26 48//26 50//26
f 10//27 50//27 52//27
f 10//28 52//28 54//28
f 10//29 54//29 56//29
f 10//30 56//30 58//30
f 10//31 58//31 60//31
f 10//32 60//32 62//32
f 10//33 62//33 64//33
f 10//34 64//34 66//34
f 10//35 66//35 68//35
f 10//36 68//36 70//36
f 10//37 70//37 72//37
f 10//38 72//38 74//38
f 11//39 12//39 74//39
f 11//39 74//39 73//39
f 12//40 11//40 13//40
f 12//40 13//40 14//40
f 14//41 13//41 15//41
f 14//41 15//41 16//41
f 16//42 15//42 17//42
f 16//42 17//42 18//42
f 18//43 17//43 19//43
f 18//43 19//43 20//43
f 20//44 19//44 21//44
f 20//44 21//44 22//44
f 22//45 21//45 23//45
f 22//45 23//45 24//45
f 24//46 23//46 25//46
f 24//46 25//46 26//46
f 26//47 25//47 27//47
f 26//47 27//47 28//47
f 28//48 27//48 29//48
f 28//48 29//48 30//48
f 30//49 29//49 31//49
f 30//49 31//49 32//49
f 32//50 31//50 33//50
f 32//50 33//50 34//50
f 34//51 33//51 35//51
f 34//51 35//51 36//51
f 36//52 35//52 37//52
f 36//52 37//52 38//52
f 38//53 37//53 39//53
f 38//53 39//53 40//53
f 40//54 39//54 41//54
f 40//54 41//54 42//54
f 42//55 41//55 43//55
f 42//55 43//55 44//55
f 44//56 43//56 45//56
f 44//56 45//56 46//56
f 46//57 45//57 47//57
f 46//57 47//57 48//57
f 48//58 47//58 49//58
f 48//58 49//58 50//58
f 50//59 49//59 51//59
f 50//59 51//59 52//59
f 52//60 51//60 53//60
f 52//60 53//60 54//60
f 54//61 53//61 55//61
f 54//61 55//61 56//61
f 56//62 55//62 57//62
f 56//62 57//62 58//62
f 58//63 57//63 59//63
f 58//63 59//63 60//63
f 60//64 59//64 61//64
f 60//64 61//64 62//64
f 62//65 61//65 63//65
f 62//65 63//65 64//65
f 64//66 63//66 65//66
f 64//66 65//66 66//66
f 66//67 65//67 67//67
f 66//67 67//67 68//67
f 68//68 67//68 69//68
f 68//68 69//68 70//68
f 70//69 69//69 71//69
f 70//69 71//69 72//69
f 72//70 71//70 73//70
f 72//70 73//70 74//70
f 9//71 11//71 73//71
f 11//72 9//72 13//72
f 13//71 9//71 15//71
f 15//73 9//73 17//73
f 17//71 9//71 19//71
f 19//74 9//74 21//74
f 21//75 9//75 23//75
f 23//76 9//76 25//76
f 25//77 9//77 27//77
f 27//73 9//73 29//73
f 29//78 9//78 31//78
f 31//79 9//79 33//79
f 33//80 9//80 35//80
f 35//81 9//81 37//81
f 37//82 9//82 39//82
f 39//73 9//73 41//73
f 41//83 9//83 43//83
f 43//72 9//72 45//72
f 45//71 9//71 47//71
f 47//71 9//71 49//71
f 49//71 9//71 51//71
f 51//84 9//84 53//84
f 53//84 9//84 55//84
f 55//85 9//85 57//85
f 57//85 9//85 59//85
f 59//73 9//73 61//73
f 61//86 9//86 63//86
f 63//79 9//79 65//79
f 65//73 9//73 67//73
f 67//80 9//80 69//80
f 69//72 9//72 71//72
f 71//87 9//87 73//87
