# Blender v2.64 (sub 0) OBJ File: ''
# www.blender.org
mtllib untitled_000048.mtl
o Cube
v -8.729040 -2.858973 10.487860
v -8.729040 -2.858973 -7.293924
v 9.052744 -2.858973 -7.293924
v 9.052744 -2.858973 10.487860
v -8.729040 14.922812 10.487860
v -8.729040 14.922812 -7.293924
v 9.052744 14.922812 -7.293924
v 9.052744 14.922812 10.487860
vn -1.000000 -0.000000 0.000000
vn 0.000000 0.000000 -1.000000
vn 1.000000 -0.000000 0.000000
vn 0.000000 0.000000 1.000000
vn -0.000000 -1.000000 0.000000
vn -0.000000 1.000000 0.000000
usemtl Material.003
s off
f 2//1 1//1 5//1
f 2//1 5//1 6//1
usemtl Material.005
f 6//2 7//2 3//2
f 6//2 3//2 2//2
usemtl Material.004
f 7//3 8//3 4//3
f 7//3 4//3 3//3
usemtl Material.002
f 1//4 4//4 8//4
f 1//4 8//4 5//4
usemtl Material.001
f 1//5 2//5 3//5
f 1//5 3//5 4//5
f 8//6 7//6 6//6
f 8//6 6//6 5//6
o Diamond
v -2.404585 2.229454 -1.284278
v -3.372549 0.929020 -1.805681
v -1.805941 2.035318 -1.911443
v -1.701442 1.510110 -2.488241
v -1.735604 1.933742 -1.788678
v -1.584215 1.340817 -2.283632
v -1.690977 1.843530 -1.646529
v -1.509836 1.190463 -2.046717
v -1.673772 1.768149 -1.490459
v -1.481162 1.064828 -1.786601
v -1.684653 1.710495 -1.326465
v -1.499297 0.968738 -1.513278
v -1.723200 1.672785 -1.160850
v -1.563542 0.905888 -1.237254
v -1.787932 1.656467 -0.999979
v -1.671429 0.878691 -0.969135
v -1.876362 1.662169 -0.850033
v -1.818812 0.888194 -0.719225
v -1.985092 1.689671 -0.716775
v -2.000028 0.934031 -0.497128
v -2.109942 1.737916 -0.605325
v -2.208111 1.014441 -0.311379
v -2.246115 1.805052 -0.519968
v -2.435066 1.126333 -0.169116
v -2.388378 1.888496 -0.463982
v -2.672171 1.265407 -0.075806
v -2.531264 1.985044 -0.439520
v -2.910314 1.426320 -0.035036
v -2.669281 2.090984 -0.447521
v -3.140343 1.602887 -0.048372
v -2.797127 2.202245 -0.487679
v -3.353419 1.788322 -0.115301
v -2.909887 2.314553 -0.558449
v -3.541353 1.975501 -0.233251
v -3.003228 2.423589 -0.657112
v -3.696923 2.157228 -0.397690
v -3.073565 2.525165 -0.779878
v -3.814150 2.326522 -0.602299
v -3.118192 2.615377 -0.922026
v -3.888529 2.476875 -0.839213
v -3.135397 2.690759 -1.078097
v -3.917202 2.602511 -1.099331
v -3.124516 2.748412 -1.242090
v -3.899068 2.698600 -1.372653
v -3.085969 2.786123 -1.407704
v -3.834823 2.761451 -1.648676
v -3.021237 2.802441 -1.568576
v -3.726936 2.788647 -1.916796
v -2.932807 2.796739 -1.718522
v -3.579553 2.779145 -2.166706
v -2.824077 2.769237 -1.851780
v -3.398337 2.733308 -2.388803
v -2.699228 2.720991 -1.963230
v -3.190254 2.652898 -2.574552
v -2.563054 2.653856 -2.048588
v -2.963299 2.541006 -2.716815
v -2.420792 2.570411 -2.104573
v -2.726194 2.401932 -2.810125
v -2.277906 2.473864 -2.129035
v -2.488052 2.241019 -2.850895
v -2.139888 2.367923 -2.121034
v -2.258022 2.064452 -2.837559
v -2.012043 2.256662 -2.080877
v -2.044946 1.879017 -2.770630
v -1.899282 2.144355 -2.010106
v -1.857012 1.691838 -2.652680
vn -0.051899 -0.694114 -0.717992
vn 0.006091 -0.768733 -0.639541
vn 0.046822 -0.836682 -0.545684
vn 0.068728 -0.895350 -0.440028
vn 0.070969 -0.942484 -0.326631
vn 0.053457 -0.976270 -0.209854
vn 0.016865 -0.995412 -0.094182
vn -0.037398 -0.999173 0.015938
vn -0.107251 -0.987409 0.116275
vn -0.190006 -0.960573 0.202973
vn -0.282485 -0.919694 0.272701
vn -0.381132 -0.866345 0.322778
vn -0.482158 -0.802575 0.351280
vn -0.581680 -0.730835 0.357112
vn -0.675874 -0.653882 0.340049
vn -0.761118 -0.574674 0.300749
vn -0.834139 -0.496253 0.240719
vn -0.892128 -0.421634 0.162269
vn -0.932859 -0.353685 0.068411
vn -0.954766 -0.295017 -0.037245
vn -0.957006 -0.247884 -0.150641
vn -0.939494 -0.214097 -0.267419
vn -0.902903 -0.194955 -0.383090
vn -0.848639 -0.191194 -0.493210
vn -0.778787 -0.202958 -0.593548
vn -0.696032 -0.229795 -0.680246
vn -0.603553 -0.270674 -0.749973
vn -0.504906 -0.324022 -0.800050
vn -0.403879 -0.387793 -0.828552
vn -0.304358 -0.459532 -0.834384
vn -0.210164 -0.536486 -0.817321
vn -0.124920 -0.615694 -0.778021
vn 0.839080 0.469236 -0.275251
vn 0.900195 0.390595 -0.192572
vn 0.943121 0.318984 -0.093656
vn 0.966209 0.257153 0.017695
vn 0.968570 0.207479 0.137204
vn 0.950114 0.171871 0.260276
vn 0.911551 0.151698 0.382182
vn 0.854362 0.147734 0.498238
vn 0.780744 0.160132 0.603983
vn 0.693528 0.188415 0.695355
vn 0.596066 0.231497 0.768840
vn 0.492100 0.287722 0.821616
vn 0.385629 0.354930 0.851655
vn 0.280743 0.430536 0.857801
vn 0.181472 0.511637 0.839819
vn 0.091633 0.595115 0.798400
vn 0.014677 0.677762 0.735135
vn -0.046439 0.756403 0.652456
vn -0.089365 0.828014 0.553540
vn -0.112453 0.889845 0.442188
vn -0.114814 0.939519 0.322679
vn -0.096358 0.975127 0.199609
vn -0.057795 0.995300 0.077702
vn -0.000606 0.999264 -0.038354
vn 0.073012 0.986866 -0.144100
vn 0.160227 0.958583 -0.235470
vn 0.257691 0.915500 -0.308957
vn 0.361655 0.859276 -0.361732
vn 0.468127 0.792068 -0.391771
vn 0.573013 0.716462 -0.397917
vn 0.672284 0.635361 -0.379935
vn 0.762123 0.551883 -0.338516
vn 0.568414 0.763648 0.306182
vn 0.568414 0.763648 0.306181
vn 0.568413 0.763649 0.306182
vn 0.568414 0.763649 0.306181
vn 0.568413 0.763649 0.306180
vn 0.568414 0.763648 0.306183
vn 0.568414 0.763649 0.306180
vn 0.568413 0.763648 0.306182
vn 0.568413 0.763648 0.306183
vn 0.568415 0.763648 0.306181
vn 0.568413 0.763649 0.306181
usemtl Material
s off
f 12//7 10//7 74//7
f 10//8 12//8 14//8
f 10//9 14//9 16//9
f 10//10 16//10 18//10
f 10//11 18//11 20//11
f 10//12 20//12 22//12
f 10//13 22//13 24//13
f 10//14 24//14 26//14
f 10//15 26//15 28//15
f 10//16 28//16 30//16
f 10//17 30//17 32//17
f 10//18 32//18 34//18
f 10//19 34//19 36//19
f 10//20 36//20 38//20
f 10//21 38//21 40//21
f 10//22 40//22 42//22
f 10//23 42//23 44//23
f 10//24 44//24 46//24
f 10//25 46//25 48//25
f 10//26 48//26 50//26
f 10//27 50//27 52//27
f 10//28 52//28 54//28
f 10//29 54//29 56//29
f 10//30 56//30 58//30
f 10//31 58//31 60//31
f 10//32 60//32 62//32
f 10//33 62//33 64//33
f 10//34 64//34 66//34
f 10//35 66//35 68//35
f 10//36 68//36 70//36
f 10//37 70//37 72//37
f 10//38 72//38 74//38
f 11//39 12//39 74//39
f 11//39 74//39 73//39
f 12//40 11//40 13//40
f 12//40 13//40 14//40
f 14//41 13//41 15//41
f 14//41 15//41 16//41
f 16//42 15//42 17//42
f 16//42 17//42 18//42
f 18//43 17//43 19//43
f 18//43 19//43 20//43
f 20//44 19//44 21//44
f 20//44 21//44 22//44
f 22//45 21//45 23//45
f 22//45 23//45 24//45
f 24//46 23//46 25//46
f 24//46 25//46 26//46
f 26//47 25//47 27//47
f 26//47 27//47 28//47
f 28//48 27//48 29//48
f 28//48 29//48 30//48
f 30//49 29//49 31//49
f 30//49 31//49 32//49
f 32//50 31//50 33//50
f 32//50 33//50 34//50
f 34//51 33//51 35//51
f 34//51 35//51 36//51
f 36//52 35//52 37//52
f 36//52 37//52 38//52
f 38//53 37//53 39//53
f 38//53 39//53 40//53
f 40//54 39//54 41//54
f 40//54 41//54 42//54
f 42//55 41//55 43//55
f 42//55 43//55 44//55
f 44//56 43//56 45//56
f 44//56 45//56 46//56
f 46//57 45//57 47//57
f 46//57 47//57 48//57
f 48//58 47//58 49//58
f 48//58 49//58 50//58
f 50//59 49//59 51//59
f 50//59 51//59 52//59
f 52//60 51//60 53//60
f 52//60 53//60 54//60
f 54//61 53//61 55//61
f 54//61 55//61 56//61
f 56//62 55//62 57//62
f 56//62 57//62 58//62
f 58//63 57//63 59//63
f 58//63 59//63 60//63
f 60//64 59//64 61//64
f 60//64 61//64 62//64
f 62//65 61//65 63//65
f 62//65 63//65 64//65
f 64//66 63//66 65//66
f 64//66 65//66 66//66
f 66//67 65//67 67//67
f 66//67 67//67 68//67
f 68//68 67//68 69//68
f 68//68 69//68 70//68
f 70//69 69//69 71//69
f 70//69 71//69 72//69
f 72//70 71//70 73//70
f 72//70 73//70 74//70
f 9//71 11//71 73//71
f 11//72 9//72 13//72
f 13//72 9//72 15//72
f 15//72 9//72 17//72
f 17//71 9//71 19//71
f 19//72 9//72 21//72
f 21//72 9//72 23//72
f 23//72 9//72 25//72
f 25//72 9//72 27//72
f 27//71 9//71 29//71
f 29//72 9//72 31//72
f 31//73 9//73 33//73
f 33//72 9//72 35//72
f 35//72 9//72 37//72
f 37//74 9//74 39//74
f 39//72 9//72 41//72
f 41//71 9//71 43//71
f 43//75 9//75 45//75
f 45//76 9//76 47//76
f 47//77 9//77 49//77
f 49//74 9//74 51//74
f 51//78 9//78 53//78
f 53//79 9//79 55//79
f 55//72 9//72 57//72
f 57//72 9//72 59//72
f 59//73 9//73 61//73
f 61//72 9//72 63//72
f 63//80 9//80 65//80
f 65//81 9//81 67//81
f 67//81 9//81 69//81
f 69//72 9//72 71//72
f 71//72 9//72 73//72
