# Blender v2.64 (sub 0) OBJ File: ''
# www.blender.org
mtllib untitled_000062.mtl
o Cube
v -8.729040 -2.858973 10.487860
v -8.729040 -2.858973 -7.293924
v 9.052744 -2.858973 -7.293924
v 9.052744 -2.858973 10.487860
v -8.729040 14.922812 10.487860
v -8.729040 14.922812 -7.293924
v 9.052744 14.922812 -7.293924
v 9.052744 14.922812 10.487860
vn -1.000000 -0.000000 0.000000
vn 0.000000 0.000000 -1.000000
vn 1.000000 -0.000000 0.000000
vn 0.000000 0.000000 1.000000
vn -0.000000 -1.000000 0.000000
vn -0.000000 1.000000 0.000000
usemtl Material.003
s off
f 2//1 1//1 5//1
f 2//1 5//1 6//1
usemtl Material.005
f 6//2 7//2 3//2
f 6//2 3//2 2//2
usemtl Material.004
f 7//3 8//3 4//3
f 7//3 4//3 3//3
usemtl Material.002
f 1//4 4//4 8//4
f 1//4 8//4 5//4
usemtl Material.001
f 1//5 2//5 3//5
f 1//5 3//5 4//5
f 8//6 7//6 6//6
f 8//6 6//6 5//6
o Diamond
v 0.978741 2.327822 -1.644294
v 0.850700 0.704177 -1.146972
v 0.996248 2.066402 -2.493266
v 0.968951 1.397969 -2.907887
v 1.168722 2.059969 -2.469862
v 1.256407 1.387248 -2.868881
v 1.333894 2.063830 -2.414732
v 1.531694 1.393683 -2.776998
v 1.485418 2.077836 -2.329994
v 1.784235 1.417026 -2.635768
v 1.617471 2.101449 -2.218905
v 2.004323 1.456380 -2.450621
v 1.724978 2.133761 -2.085735
v 2.183501 1.510234 -2.228670
v 1.803807 2.173531 -1.935600
v 2.314882 1.576517 -1.978445
v 1.850929 2.219230 -1.774271
v 2.393420 1.652682 -1.709562
v 1.864534 2.269102 -1.607946
v 2.416094 1.735803 -1.432355
v 1.844098 2.321231 -1.443018
v 2.382035 1.822684 -1.157475
v 1.790407 2.373613 -1.285825
v 2.292550 1.909988 -0.895487
v 1.705525 2.424236 -1.142409
v 2.151078 1.994358 -0.656460
v 1.592711 2.471153 -1.018279
v 1.963056 2.072554 -0.449576
v 1.456304 2.512562 -0.918207
v 1.735711 2.141569 -0.282789
v 1.301544 2.546872 -0.846037
v 1.477778 2.198752 -0.162507
v 1.134379 2.572764 -0.804545
v 1.199170 2.241905 -0.093353
v 0.961233 2.589242 -0.795323
v 0.910593 2.269370 -0.077983
v 0.788760 2.595675 -0.818727
v 0.623137 2.280091 -0.116990
v 0.623588 2.591814 -0.873857
v 0.347850 2.273656 -0.208873
v 0.472063 2.577808 -0.958595
v 0.095309 2.250313 -0.350103
v 0.340011 2.554196 -1.069683
v -0.124778 2.210958 -0.535250
v 0.232504 2.521883 -1.202853
v -0.303956 2.157105 -0.757200
v 0.153674 2.482114 -1.352988
v -0.435338 2.090822 -1.007426
v 0.106552 2.436415 -1.514318
v -0.513876 2.014657 -1.276308
v 0.092947 2.386542 -1.680643
v -0.536550 1.931536 -1.553516
v 0.113383 2.334414 -1.845570
v -0.502491 1.844655 -1.828395
v 0.167074 2.282031 -2.002763
v -0.413005 1.757351 -2.090384
v 0.251957 2.231409 -2.146180
v -0.271534 1.672980 -2.329412
v 0.364770 2.184492 -2.270309
v -0.083513 1.594785 -2.536294
v 0.501177 2.143082 -2.370382
v 0.143833 1.525769 -2.703082
v 0.655937 2.108773 -2.442551
v 0.401766 1.468587 -2.823364
v 0.823102 2.082881 -2.484044
v 0.680375 1.425434 -2.892518
vn -0.107541 -0.922511 -0.370686
vn 0.014910 -0.930628 -0.365662
vn 0.134535 -0.931540 -0.337838
vn 0.246738 -0.925210 -0.288284
vn 0.347208 -0.911882 -0.218904
vn 0.432082 -0.892068 -0.132365
vn 0.498099 -0.866530 -0.031992
vn 0.542723 -0.836249 0.078358
vn 0.564238 -0.802388 0.194443
vn 0.561818 -0.766250 0.311803
vn 0.535555 -0.729223 0.425928
vn 0.486459 -0.692729 0.532432
vn 0.416418 -0.658171 0.627222
vn 0.328121 -0.626878 0.706655
vn 0.224963 -0.600051 0.767678
vn 0.110907 -0.578722 0.807948
vn -0.009663 -0.563711 0.825916
vn -0.132113 -0.555593 0.820891
vn -0.251739 -0.554682 0.793067
vn -0.363941 -0.561012 0.743513
vn -0.464411 -0.574340 0.674133
vn -0.549285 -0.594154 0.587594
vn -0.615302 -0.619692 0.487222
vn -0.659926 -0.649973 0.376871
vn -0.681441 -0.683833 0.260787
vn -0.679021 -0.719972 0.143426
vn -0.652759 -0.756999 0.029301
vn -0.603663 -0.793493 -0.077202
vn -0.533621 -0.828051 -0.171992
vn -0.445324 -0.859344 -0.251425
vn -0.342165 -0.886171 -0.312449
vn -0.228110 -0.907500 -0.352719
vn 0.004890 0.526967 -0.849872
vn 0.133941 0.518412 -0.844576
vn 0.260013 0.517452 -0.815253
vn 0.378264 0.524123 -0.763028
vn 0.484149 0.538169 -0.689908
vn 0.573598 0.559051 -0.598705
vn 0.643174 0.585966 -0.492921
vn 0.690203 0.617879 -0.376624
vn 0.712878 0.653564 -0.254282
vn 0.710327 0.691650 -0.130595
vn 0.682649 0.730674 -0.010319
vn 0.630907 0.769134 0.101925
vn 0.557089 0.805555 0.201824
vn 0.464034 0.838535 0.285539
vn 0.355315 0.866807 0.349852
vn 0.235112 0.889286 0.392292
vn 0.108044 0.905107 0.411228
vn -0.021008 0.913662 0.405932
vn -0.147080 0.914622 0.376609
vn -0.265332 0.907951 0.324384
vn -0.371216 0.893904 0.251265
vn -0.460665 0.873022 0.160061
vn -0.530241 0.846108 0.054278
vn -0.577270 0.814195 -0.062019
vn -0.599945 0.778509 -0.184362
vn -0.597394 0.740423 -0.308048
vn -0.569716 0.701400 -0.428325
vn -0.517974 0.662939 -0.540569
vn -0.444157 0.626519 -0.640468
vn -0.351101 0.593539 -0.724182
vn -0.242381 0.565266 -0.788496
vn -0.122179 0.542788 -0.830936
vn 0.075188 0.953446 -0.292040
vn 0.075190 0.953446 -0.292040
vn 0.075188 0.953446 -0.292041
vn 0.075189 0.953446 -0.292040
vn 0.075189 0.953446 -0.292041
vn 0.075189 0.953446 -0.292039
usemtl Material
s off
f 12//7 10//7 74//7
f 10//8 12//8 14//8
f 10//9 14//9 16//9
f 10//10 16//10 18//10
f 10//11 18//11 20//11
f 10//12 20//12 22//12
f 10//13 22//13 24//13
f 10//14 24//14 26//14
f 10//15 26//15 28//15
f 10//16 28//16 30//16
f 10//17 30//17 32//17
f 10//18 32//18 34//18
f 10//19 34//19 36//19
f 10//20 36//20 38//20
f 10//21 38//21 40//21
f 10//22 40//22 42//22
f 10//23 42//23 44//23
f 10//24 44//24 46//24
f 10//25 46//25 48//25
f 10//26 48//26 50//26
f 10//27 50//27 52//27
f 10//28 52//28 54//28
f 10//29 54//29 56//29
f 10//30 56//30 58//30
f 10//31 58//31 60//31
f 10//32 60//32 62//32
f 10//33 62//33 64//33
f 10//34 64//34 66//34
f 10//35 66//35 68//35
f 10//36 68//36 70//36
f 10//37 70//37 72//37
f 10//38 72//38 74//38
f 11//39 12//39 74//39
f 11//39 74//39 73//39
f 12//40 11//40 13//40
f 12//40 13//40 14//40
f 14//41 13//41 15//41
f 14//41 15//41 16//41
f 16//42 15//42 17//42
f 16//42 17//42 18//42
f 18//43 17//43 19//43
f 18//43 19//43 20//43
f 20//44 19//44 21//44
f 20//44 21//44 22//44
f 22//45 21//45 23//45
f 22//45 23//45 24//45
f 24//46 23//46 25//46
f 24//46 25//46 26//46
f 26//47 25//47 27//47
f 26//47 27//47 28//47
f 28//48 27//48 29//48
f 28//48 29//48 30//48
f 30//49 29//49 31//49
f 30//49 31//49 32//49
f 32//50 31//50 33//50
f 32//50 33//50 34//50
f 34//51 33//51 35//51
f 34//51 35//51 36//51
f 36//52 35//52 37//52
f 36//52 37//52 38//52
f 38//53 37//53 39//53
f 38//53 39//53 40//53
f 40//54 39//54 41//54
f 40//54 41//54 42//54
f 42//55 41//55 43//55
f 42//55 43//55 44//55
f 44//56 43//56 45//56
f 44//56 45//56 46//56
f 46//57 45//57 47//57
f 46//57 47//57 48//57
f 48//58 47//58 49//58
f 48//58 49//58 50//58
f 50//59 49//59 51//59
f 50//59 51//59 52//59
f 52//60 51//60 53//60
f 52//60 53//60 54//60
f 54//61 53//61 55//61
f 54//61 55//61 56//61
f 56//62 55//62 57//62
f 56//62 57//62 58//62
f 58//63 57//63 59//63
f 58//63 59//63 60//63
f 60//64 59//64 61//64
f 60//64 61//64 62//64
f 62//65 61//65 63//65
f 62//65 63//65 64//65
f 64//66 63//66 65//66
f 64//66 65//66 66//66
f 66//67 65//67 67//67
f 66//67 67//67 68//67
f 68//68 67//68 69//68
f 68//68 69//68 70//68
f 70//69 69//69 71//69
f 70//69 71//69 72//69
f 72//70 71//70 73//70
f 72//70 73//70 74//70
f 9//71 11//71 73//71
f 11//72 9//72 13//72
f 13//73 9//73 15//73
f 15//71 9//71 17//71
f 17//74 9//74 19//74
f 19//74 9//74 21//74
f 21//74 9//74 23//74
f 23//73 9//73 25//73
f 25//73 9//73 27//73
f 27//71 9//71 29//71
f 29//75 9//75 31//75
f 31//71 9//71 33//71
f 33//74 9//74 35//74
f 35//75 9//75 37//75
f 37//71 9//71 39//71
f 39//74 9//74 41//74
f 41//71 9//71 43//71
f 43//71 9//71 45//71
f 45//74 9//74 47//74
f 47//74 9//74 49//74
f 49//71 9//71 51//71
f 51//73 9//73 53//73
f 53//74 9//74 55//74
f 55//76 9//76 57//76
f 57//74 9//74 59//74
f 59//74 9//74 61//74
f 61//75 9//75 63//75
f 63//71 9//71 65//71
f 65//74 9//74 67//74
f 67//75 9//75 69//75
f 69//74 9//74 71//74
f 71//71 9//71 73//71
