# Blender v2.64 (sub 0) OBJ File: ''
# www.blender.org
mtllib untitled_000040.mtl
o Cube
v -8.729040 -2.858973 10.487860
v -8.729040 -2.858973 -7.293924
v 9.052744 -2.858973 -7.293924
v 9.052744 -2.858973 10.487860
v -8.729040 14.922812 10.487860
v -8.729040 14.922812 -7.293924
v 9.052744 14.922812 -7.293924
v 9.052744 14.922812 10.487860
vn -1.000000 -0.000000 0.000000
vn 0.000000 0.000000 -1.000000
vn 1.000000 -0.000000 0.000000
vn 0.000000 0.000000 1.000000
vn -0.000000 -1.000000 0.000000
vn -0.000000 1.000000 0.000000
usemtl Material.003
s off
f 2//1 1//1 5//1
f 2//1 5//1 6//1
usemtl Material.005
f 6//2 7//2 3//2
f 6//2 3//2 2//2
usemtl Material.004
f 7//3 8//3 4//3
f 7//3 4//3 3//3
usemtl Material.002
f 1//4 4//4 8//4
f 1//4 8//4 5//4
usemtl Material.001
f 1//5 2//5 3//5
f 1//5 3//5 4//5
f 8//6 7//6 6//6
f 8//6 6//6 5//6
o Diamond
v -2.597964 2.323666 -0.164614
v -2.930539 0.713678 -0.608774
v -2.043990 2.399713 -0.855070
v -1.775893 1.960415 -1.450553
v -1.923415 2.343757 -0.742523
v -1.574934 1.867154 -1.262975
v -1.828762 2.287028 -0.607768
v -1.417180 1.772607 -1.038384
v -1.763669 2.231708 -0.455983
v -1.308692 1.680406 -0.785408
v -1.730638 2.179921 -0.293000
v -1.253640 1.594095 -0.513771
v -1.730938 2.133659 -0.125084
v -1.254139 1.516991 -0.233910
v -1.764557 2.094698 0.041313
v -1.310171 1.452057 0.043418
v -1.830203 2.064537 0.199796
v -1.419581 1.401787 0.307557
v -1.925354 2.044333 0.344276
v -1.578166 1.368115 0.548356
v -2.046353 2.034864 0.469199
v -1.779831 1.352334 0.756561
v -2.188550 2.036494 0.569765
v -2.016826 1.355050 0.924171
v -2.346480 2.049160 0.642109
v -2.280043 1.376159 1.044745
v -2.514076 2.072374 0.683452
v -2.559369 1.414850 1.113649
v -2.684894 2.105246 0.692203
v -2.844066 1.469636 1.128235
v -2.852372 2.146511 0.668028
v -3.123196 1.538412 1.087943
v -3.010073 2.194585 0.611855
v -3.386032 1.618534 0.994321
v -3.151937 2.247619 0.525842
v -3.622472 1.706924 0.850967
v -3.272513 2.303575 0.413296
v -3.823431 1.800185 0.663389
v -3.367165 2.360303 0.278541
v -3.981185 1.894732 0.438798
v -3.432258 2.415624 0.126755
v -4.089673 1.986933 0.185822
v -3.465289 2.467410 -0.036227
v -4.144725 2.073244 -0.085815
v -3.464990 2.513673 -0.204143
v -4.144226 2.150348 -0.365675
v -3.431371 2.552634 -0.370540
v -4.088194 2.215282 -0.643004
v -3.365725 2.582795 -0.529024
v -3.978784 2.265552 -0.907143
v -3.270574 2.602998 -0.673503
v -3.820199 2.299224 -1.147942
v -3.149575 2.612467 -0.798426
v -3.618534 2.315005 -1.356147
v -3.007378 2.610837 -0.898992
v -3.381539 2.312289 -1.523757
v -2.849447 2.598172 -0.971337
v -3.118322 2.291180 -1.644331
v -2.681853 2.574957 -1.012679
v -2.838997 2.252489 -1.713235
v -2.511034 2.542086 -1.021431
v -2.554299 2.197702 -1.727821
v -2.343556 2.500820 -0.997255
v -2.275169 2.128927 -1.687529
v -2.185854 2.452747 -0.941082
v -2.012333 2.048804 -1.593907
vn 0.190063 -0.664185 -0.723004
vn 0.283043 -0.702799 -0.652656
vn 0.359296 -0.742723 -0.565039
vn 0.415893 -0.782421 -0.463520
vn 0.450658 -0.820368 -0.352000
vn 0.462254 -0.855106 -0.234765
vn 0.450237 -0.885300 -0.116320
vn 0.415068 -0.909789 -0.001218
vn 0.358099 -0.927633 0.106120
vn 0.281518 -0.938146 0.201567
vn 0.188271 -0.940923 0.281456
vn 0.081937 -0.935859 0.342717
vn -0.033393 -0.923147 0.382995
vn -0.153291 -0.903276 0.400743
vn -0.273147 -0.877009 0.395279
vn -0.388355 -0.845357 0.366812
vn -0.494490 -0.809536 0.316436
vn -0.587470 -0.770921 0.246088
vn -0.663723 -0.730998 0.158472
vn -0.720320 -0.691300 0.056952
vn -0.755085 -0.653353 -0.054568
vn -0.766681 -0.618615 -0.171801
vn -0.754664 -0.588421 -0.290247
vn -0.719495 -0.563931 -0.405350
vn -0.662526 -0.546087 -0.512687
vn -0.585946 -0.535575 -0.608134
vn -0.492697 -0.532798 -0.688024
vn -0.386365 -0.537862 -0.749284
vn -0.271033 -0.550574 -0.789563
vn -0.151136 -0.570445 -0.807310
vn -0.031279 -0.596712 -0.801846
vn 0.083928 -0.628363 -0.773379
vn 0.507392 0.786607 -0.351856
vn 0.605385 0.745911 -0.277716
vn 0.685748 0.703836 -0.185377
vn 0.745396 0.661998 -0.078386
vn 0.782034 0.622005 0.039145
vn 0.794256 0.585395 0.162699
vn 0.781591 0.553573 0.287529
vn 0.744527 0.527764 0.408834
vn 0.684486 0.508958 0.521958
vn 0.603778 0.497879 0.622550
vn 0.505504 0.494952 0.706745
vn 0.393440 0.500290 0.771308
vn 0.271892 0.513687 0.813757
vn 0.145532 0.534629 0.832462
vn 0.019216 0.562311 0.826703
vn -0.102203 0.595669 0.796701
vn -0.214057 0.633421 0.743611
vn -0.312049 0.674117 0.669471
vn -0.392413 0.716192 0.577132
vn -0.452060 0.758030 0.470140
vn -0.488698 0.798023 0.352610
vn -0.500920 0.834633 0.229057
vn -0.488255 0.866455 0.104226
vn -0.451191 0.892264 -0.017079
vn -0.391151 0.911070 -0.130204
vn -0.310443 0.922149 -0.230795
vn -0.212168 0.925076 -0.314991
vn -0.100104 0.919738 -0.379553
vn 0.021443 0.906341 -0.422002
vn 0.147803 0.885399 -0.440707
vn 0.274120 0.857717 -0.434948
vn 0.395539 0.824359 -0.404946
vn 0.195296 0.945427 0.260822
vn 0.195297 0.945426 0.260823
vn 0.195297 0.945426 0.260822
vn 0.195297 0.945427 0.260821
vn 0.195296 0.945426 0.260823
vn 0.195296 0.945426 0.260822
vn 0.195298 0.945426 0.260823
vn 0.195296 0.945427 0.260821
vn 0.195297 0.945426 0.260824
vn 0.195298 0.945426 0.260822
usemtl Material
s off
f 12//7 10//7 74//7
f 10//8 12//8 14//8
f 10//9 14//9 16//9
f 10//10 16//10 18//10
f 10//11 18//11 20//11
f 10//12 20//12 22//12
f 10//13 22//13 24//13
f 10//14 24//14 26//14
f 10//15 26//15 28//15
f 10//16 28//16 30//16
f 10//17 30//17 32//17
f 10//18 32//18 34//18
f 10//19 34//19 36//19
f 10//20 36//20 38//20
f 10//21 38//21 40//21
f 10//22 40//22 42//22
f 10//23 42//23 44//23
f 10//24 44//24 46//24
f 10//25 46//25 48//25
f 10//26 48//26 50//26
f 10//27 50//27 52//27
f 10//28 52//28 54//28
f 10//29 54//29 56//29
f 10//30 56//30 58//30
f 10//31 58//31 60//31
f 10//32 60//32 62//32
f 10//33 62//33 64//33
f 10//34 64//34 66//34
f 10//35 66//35 68//35
f 10//36 68//36 70//36
f 10//37 70//37 72//37
f 10//38 72//38 74//38
f 11//39 12//39 74//39
f 11//39 74//39 73//39
f 12//40 11//40 13//40
f 12//40 13//40 14//40
f 14//41 13//41 15//41
f 14//41 15//41 16//41
f 16//42 15//42 17//42
f 16//42 17//42 18//42
f 18//43 17//43 19//43
f 18//43 19//43 20//43
f 20//44 19//44 21//44
f 20//44 21//44 22//44
f 22//45 21//45 23//45
f 22//45 23//45 24//45
f 24//46 23//46 25//46
f 24//46 25//46 26//46
f 26//47 25//47 27//47
f 26//47 27//47 28//47
f 28//48 27//48 29//48
f 28//48 29//48 30//48
f 30//49 29//49 31//49
f 30//49 31//49 32//49
f 32//50 31//50 33//50
f 32//50 33//50 34//50
f 34//51 33//51 35//51
f 34//51 35//51 36//51
f 36//52 35//52 37//52
f 36//52 37//52 38//52
f 38//53 37//53 39//53
f 38//53 39//53 40//53
f 40//54 39//54 41//54
f 40//54 41//54 42//54
f 42//55 41//55 43//55
f 42//55 43//55 44//55
f 44//56 43//56 45//56
f 44//56 45//56 46//56
f 46//57 45//57 47//57
f 46//57 47//57 48//57
f 48//58 47//58 49//58
f 48//58 49//58 50//58
f 50//59 49//59 51//59
f 50//59 51//59 52//59
f 52//60 51//60 53//60
f 52//60 53//60 54//60
f 54//61 53//61 55//61
f 54//61 55//61 56//61
f 56//62 55//62 57//62
f 56//62 57//62 58//62
f 58//63 57//63 59//63
f 58//63 59//63 60//63
f 60//64 59//64 61//64
f 60//64 61//64 62//64
f 62//65 61//65 63//65
f 62//65 63//65 64//65
f 64//66 63//66 65//66
f 64//66 65//66 66//66
f 66//67 65//67 67//67
f 66//67 67//67 68//67
f 68//68 67//68 69//68
f 68//68 69//68 70//68
f 70//69 69//69 71//69
f 70//69 71//69 72//69
f 72//70 71//70 73//70
f 72//70 73//70 74//70
f 9//71 11//71 73//71
f 11//72 9//72 13//72
f 13//72 9//72 15//72
f 15//72 9//72 17//72
f 17//72 9//72 19//72
f 19//73 9//73 21//73
f 21//72 9//72 23//72
f 23//74 9//74 25//74
f 25//75 9//75 27//75
f 27//73 9//73 29//73
f 29//73 9//73 31//73
f 31//73 9//73 33//73
f 33//73 9//73 35//73
f 35//76 9//76 37//76
f 37//73 9//73 39//73
f 39//73 9//73 41//73
f 41//77 9//77 43//77
f 43//78 9//78 45//78
f 45//72 9//72 47//72
f 47//73 9//73 49//73
f 49//73 9//73 51//73
f 51//79 9//79 53//79
f 53//73 9//73 55//73
f 55//72 9//72 57//72
f 57//72 9//72 59//72
f 59//72 9//72 61//72
f 61//80 9//80 63//80
f 63//72 9//72 65//72
f 65//72 9//72 67//72
f 67//72 9//72 69//72
f 69//77 9//77 71//77
f 71//72 9//72 73//72
