# Blender v2.64 (sub 0) OBJ File: ''
# www.blender.org
mtllib untitled_000049.mtl
o Cube
v -8.729040 -2.858973 10.487860
v -8.729040 -2.858973 -7.293924
v 9.052744 -2.858973 -7.293924
v 9.052744 -2.858973 10.487860
v -8.729040 14.922812 10.487860
v -8.729040 14.922812 -7.293924
v 9.052744 14.922812 -7.293924
v 9.052744 14.922812 10.487860
vn -1.000000 -0.000000 0.000000
vn 0.000000 0.000000 -1.000000
vn 1.000000 -0.000000 0.000000
vn 0.000000 0.000000 1.000000
vn -0.000000 -1.000000 0.000000
vn -0.000000 1.000000 0.000000
usemtl Material.003
s off
f 2//1 1//1 5//1
f 2//1 5//1 6//1
usemtl Material.005
f 6//2 7//2 3//2
f 6//2 3//2 2//2
usemtl Material.004
f 7//3 8//3 4//3
f 7//3 4//3 3//3
usemtl Material.002
f 1//4 4//4 8//4
f 1//4 8//4 5//4
usemtl Material.001
f 1//5 2//5 3//5
f 1//5 3//5 4//5
f 8//6 7//6 6//6
f 8//6 6//6 5//6
o Diamond
v -2.398213 2.224459 -1.321393
v -3.387113 0.940435 -1.844179
v -1.799876 2.017430 -1.944715
v -1.701953 1.488620 -2.519372
v -1.732081 1.914956 -1.821267
v -1.588962 1.317830 -2.313626
v -1.689885 1.824376 -1.678610
v -1.518636 1.166864 -2.075865
v -1.674910 1.749172 -1.522226
v -1.493678 1.041523 -1.815223
v -1.687732 1.692232 -1.358123
v -1.515046 0.946624 -1.541719
v -1.727856 1.655746 -1.192609
v -1.581921 0.885813 -1.265862
v -1.793742 1.641115 -1.032044
v -1.691730 0.861428 -0.998254
v -1.882857 1.648901 -0.882598
v -1.840256 0.874406 -0.749178
v -1.991778 1.678806 -0.750015
v -2.021790 0.924247 -0.528206
v -2.116317 1.729680 -0.639390
v -2.229356 1.009037 -0.343831
v -2.251690 1.799568 -0.554974
v -2.454977 1.125518 -0.203137
v -2.392693 1.885785 -0.500011
v -2.689982 1.269211 -0.111532
v -2.533909 1.985016 -0.476613
v -2.925342 1.434598 -0.072535
v -2.669909 2.093450 -0.485679
v -3.152009 1.615319 -0.087646
v -2.795469 2.206917 -0.526862
v -3.361275 1.804433 -0.156283
v -2.905762 2.321059 -0.598577
v -3.545097 1.994669 -0.275810
v -2.996551 2.431489 -0.698071
v -3.696412 2.178719 -0.441632
v -3.064345 2.533963 -0.821518
v -3.809403 2.349508 -0.647377
v -3.106541 2.624542 -0.964175
v -3.879729 2.500474 -0.885138
v -3.121516 2.699747 -1.120560
v -3.904687 2.625816 -1.145780
v -3.108695 2.756687 -1.284662
v -3.883319 2.720715 -1.419284
v -3.068571 2.793173 -1.450176
v -3.816445 2.781526 -1.695140
v -3.002684 2.807804 -1.610741
v -3.706635 2.805911 -1.962750
v -2.913569 2.800018 -1.760187
v -3.558109 2.792933 -2.211825
v -2.804648 2.770113 -1.892770
v -3.376575 2.743092 -2.432797
v -2.680109 2.719239 -2.003395
v -3.169009 2.658302 -2.617172
v -2.544736 2.649350 -2.087811
v -2.943388 2.541821 -2.757866
v -2.403733 2.563134 -2.142775
v -2.708383 2.398127 -2.849472
v -2.262518 2.463903 -2.166173
v -2.473024 2.232742 -2.888468
v -2.126517 2.355469 -2.157106
v -2.246356 2.052019 -2.873358
v -2.000958 2.242002 -2.115924
v -2.037090 1.862906 -2.804720
v -1.890664 2.127859 -2.044208
v -1.853267 1.672669 -2.685194
vn -0.060793 -0.695247 -0.716195
vn -0.004608 -0.770677 -0.637209
vn 0.034360 -0.839074 -0.542931
vn 0.054616 -0.897810 -0.436983
vn 0.055379 -0.944628 -0.323436
vn 0.036621 -0.977728 -0.206656
vn -0.000938 -0.995839 -0.091128
vn -0.055854 -0.998264 0.018706
vn -0.126017 -0.984910 0.118627
vn -0.208730 -0.956290 0.204794
vn -0.300815 -0.913505 0.273895
vn -0.398732 -0.858199 0.323276
vn -0.498720 -0.792496 0.351039
vn -0.596936 -0.718922 0.356117
vn -0.689605 -0.640304 0.338314
vn -0.773166 -0.559663 0.298315
vn -0.844407 -0.480100 0.237657
vn -0.900592 -0.404670 0.158671
vn -0.939561 -0.336272 0.064392
vn -0.959816 -0.277536 -0.041556
vn -0.960579 -0.230718 -0.155102
vn -0.941821 -0.197618 -0.271883
vn -0.904262 -0.179508 -0.387410
vn -0.849346 -0.177083 -0.497245
vn -0.779184 -0.190436 -0.597165
vn -0.696471 -0.219056 -0.683332
vn -0.604386 -0.261841 -0.752434
vn -0.506468 -0.317148 -0.801815
vn -0.406481 -0.382850 -0.829578
vn -0.308265 -0.456425 -0.834655
vn -0.215595 -0.535043 -0.816852
vn -0.132035 -0.615682 -0.776854
vn 0.849036 0.452890 -0.272081
vn 0.908249 0.373394 -0.188837
vn 0.949319 0.301311 -0.089477
vn 0.970666 0.239408 0.022182
vn 0.971470 0.190067 0.141849
vn 0.951700 0.155183 0.264924
vn 0.912117 0.136096 0.386678
vn 0.854242 0.133540 0.502432
vn 0.780297 0.147614 0.607739
vn 0.693126 0.177776 0.698550
vn 0.596078 0.222867 0.771377
vn 0.492882 0.281155 0.823419
vn 0.387504 0.350399 0.852679
vn 0.283995 0.427939 0.858030
vn 0.186331 0.510795 0.839267
vn 0.098266 0.595781 0.797113
vn 0.023184 0.679634 0.733185
vn -0.036029 0.759130 0.649941
vn -0.077098 0.831214 0.550581
vn -0.098445 0.893116 0.438922
vn -0.099249 0.942457 0.319256
vn -0.079480 0.977341 0.196181
vn -0.039896 0.996428 0.074426
vn 0.017979 0.998984 -0.041328
vn 0.091924 0.984910 -0.146635
vn 0.179095 0.954748 -0.237446
vn 0.276144 0.909657 -0.310273
vn 0.379339 0.851369 -0.362315
vn 0.484717 0.782125 -0.391575
vn 0.588226 0.704585 -0.396926
vn 0.685890 0.621730 -0.378163
vn 0.773955 0.536743 -0.336008
vn 0.580707 0.754012 0.306994
vn 0.580707 0.754012 0.306993
vn 0.580708 0.754012 0.306993
vn 0.580708 0.754012 0.306994
vn 0.580706 0.754013 0.306993
vn 0.580706 0.754012 0.306995
usemtl Material
s off
f 12//7 10//7 74//7
f 10//8 12//8 14//8
f 10//9 14//9 16//9
f 10//10 16//10 18//10
f 10//11 18//11 20//11
f 10//12 20//12 22//12
f 10//13 22//13 24//13
f 10//14 24//14 26//14
f 10//15 26//15 28//15
f 10//16 28//16 30//16
f 10//17 30//17 32//17
f 10//18 32//18 34//18
f 10//19 34//19 36//19
f 10//20 36//20 38//20
f 10//21 38//21 40//21
f 10//22 40//22 42//22
f 10//23 42//23 44//23
f 10//24 44//24 46//24
f 10//25 46//25 48//25
f 10//26 48//26 50//26
f 10//27 50//27 52//27
f 10//28 52//28 54//28
f 10//29 54//29 56//29
f 10//30 56//30 58//30
f 10//31 58//31 60//31
f 10//32 60//32 62//32
f 10//33 62//33 64//33
f 10//34 64//34 66//34
f 10//35 66//35 68//35
f 10//36 68//36 70//36
f 10//37 70//37 72//37
f 10//38 72//38 74//38
f 11//39 12//39 74//39
f 11//39 74//39 73//39
f 12//40 11//40 13//40
f 12//40 13//40 14//40
f 14//41 13//41 15//41
f 14//41 15//41 16//41
f 16//42 15//42 17//42
f 16//42 17//42 18//42
f 18//43 17//43 19//43
f 18//43 19//43 20//43
f 20//44 19//44 21//44
f 20//44 21//44 22//44
f 22//45 21//45 23//45
f 22//45 23//45 24//45
f 24//46 23//46 25//46
f 24//46 25//46 26//46
f 26//47 25//47 27//47
f 26//47 27//47 28//47
f 28//48 27//48 29//48
f 28//48 29//48 30//48
f 30//49 29//49 31//49
f 30//49 31//49 32//49
f 32//50 31//50 33//50
f 32//50 33//50 34//50
f 34//51 33//51 35//51
f 34//51 35//51 36//51
f 36//52 35//52 37//52
f 36//52 37//52 38//52
f 38//53 37//53 39//53
f 38//53 39//53 40//53
f 40//54 39//54 41//54
f 40//54 41//54 42//54
f 42//55 41//55 43//55
f 42//55 43//55 44//55
f 44//56 43//56 45//56
f 44//56 45//56 46//56
f 46//57 45//57 47//57
f 46//57 47//57 48//57
f 48//58 47//58 49//58
f 48//58 49//58 50//58
f 50//59 49//59 51//59
f 50//59 51//59 52//59
f 52//60 51//60 53//60
f 52//60 53//60 54//60
f 54//61 53//61 55//61
f 54//61 55//61 56//61
f 56//62 55//62 57//62
f 56//62 57//62 58//62
f 58//63 57//63 59//63
f 58//63 59//63 60//63
f 60//64 59//64 61//64
f 60//64 61//64 62//64
f 62//65 61//65 63//65
f 62//65 63//65 64//65
f 64//66 63//66 65//66
f 64//66 65//66 66//66
f 66//67 65//67 67//67
f 66//67 67//67 68//67
f 68//68 67//68 69//68
f 68//68 69//68 70//68
f 70//69 69//69 71//69
f 70//69 71//69 72//69
f 72//70 71//70 73//70
f 72//70 73//70 74//70
f 9//71 11//71 73//71
f 11//71 9//71 13//71
f 13//71 9//71 15//71
f 15//71 9//71 17//71
f 17//71 9//71 19//71
f 19//72 9//72 21//72
f 21//71 9//71 23//71
f 23//72 9//72 25//72
f 25//71 9//71 27//71
f 27//71 9//71 29//71
f 29//73 9//73 31//73
f 31//71 9//71 33//71
f 33//71 9//71 35//71
f 35//74 9//74 37//74
f 37//75 9//75 39//75
f 39//71 9//71 41//71
f 41//71 9//71 43//71
f 43//71 9//71 45//71
f 45//71 9//71 47//71
f 47//72 9//72 49//72
f 49//71 9//71 51//71
f 51//71 9//71 53//71
f 53//71 9//71 55//71
f 55//76 9//76 57//76
f 57//71 9//71 59//71
f 59//73 9//73 61//73
f 61//71 9//71 63//71
f 63//71 9//71 65//71
f 65//71 9//71 67//71
f 67//71 9//71 69//71
f 69//71 9//71 71//71
f 71//72 9//72 73//72
