# Blender v2.64 (sub 0) OBJ File: ''
# www.blender.org
mtllib untitled_000018.mtl
o Cube
v -8.729040 -2.858973 10.487860
v -8.729040 -2.858973 -7.293924
v 9.052744 -2.858973 -7.293924
v 9.052744 -2.858973 10.487860
v -8.729040 14.922812 10.487860
v -8.729040 14.922812 -7.293924
v 9.052744 14.922812 -7.293924
v 9.052744 14.922812 10.487860
vn -1.000000 -0.000000 0.000000
vn 0.000000 0.000000 -1.000000
vn 1.000000 -0.000000 0.000000
vn 0.000000 0.000000 1.000000
vn -0.000000 -1.000000 0.000000
vn -0.000000 1.000000 0.000000
usemtl Material.003
s off
f 2//1 1//1 5//1
f 2//1 5//1 6//1
usemtl Material.005
f 6//2 7//2 3//2
f 6//2 3//2 2//2
usemtl Material.004
f 7//3 8//3 4//3
f 7//3 4//3 3//3
usemtl Material.002
f 1//4 4//4 8//4
f 1//4 8//4 5//4
usemtl Material.001
f 1//5 2//5 3//5
f 1//5 3//5 4//5
f 8//6 7//6 6//6
f 8//6 6//6 5//6
o Diamond
v -2.073049 2.256043 2.110881
v -1.130802 0.868244 1.817402
v -1.589085 2.709636 1.519753
v -0.979672 2.589658 1.036348
v -1.489151 2.748459 1.657019
v -0.813115 2.654362 1.265126
v -1.411656 2.768358 1.811728
v -0.683957 2.687527 1.522973
v -1.359577 2.768569 1.977932
v -0.597159 2.687880 1.799980
v -1.334917 2.749084 2.149246
v -0.556059 2.655405 2.085503
v -1.338623 2.710652 2.319086
v -0.562235 2.591351 2.368569
v -1.370552 2.654750 2.480923
v -0.615451 2.498180 2.638299
v -1.429478 2.583525 2.628541
v -0.713661 2.379472 2.884328
v -1.513136 2.499716 2.756265
v -0.853091 2.239790 3.097202
v -1.618311 2.406542 2.859188
v -1.028383 2.084500 3.268740
v -1.740962 2.307584 2.933353
v -1.232800 1.919571 3.392349
v -1.876374 2.206646 2.975912
v -1.458487 1.751342 3.463279
v -2.019345 2.107606 2.985227
v -1.696771 1.586275 3.478805
v -2.164379 2.014271 2.960942
v -1.938494 1.430717 3.438330
v -2.305903 1.930227 2.903990
v -2.174369 1.290643 3.343409
v -2.438479 1.858704 2.816558
v -2.395329 1.171437 3.197690
v -2.557012 1.802450 2.702009
v -2.592883 1.077681 3.006774
v -2.656946 1.763628 2.564742
v -2.759440 1.012977 2.777996
v -2.734441 1.743728 2.410034
v -2.888599 0.979811 2.520149
v -2.786520 1.743517 2.243829
v -2.975396 0.979459 2.243141
v -2.811180 1.763002 2.072515
v -3.016497 1.011934 1.957619
v -2.807474 1.801434 1.902676
v -3.010320 1.075988 1.674554
v -2.775545 1.857337 1.740838
v -2.957104 1.169159 1.404823
v -2.716619 1.928561 1.593220
v -2.858895 1.287866 1.158794
v -2.632961 2.012371 1.465496
v -2.719465 1.427549 0.945920
v -2.527786 2.105545 1.362574
v -2.544173 1.582838 0.774382
v -2.405135 2.204502 1.288408
v -2.339755 1.747768 0.650773
v -2.269723 2.305440 1.245850
v -2.114069 1.915997 0.579843
v -2.126753 2.404480 1.236534
v -1.875785 2.081063 0.564317
v -1.981718 2.497815 1.260819
v -1.634061 2.236623 0.604792
v -1.840194 2.581859 1.317771
v -1.398187 2.376696 0.699712
v -1.707618 2.653383 1.405203
v -1.177227 2.495902 0.845431
vn 0.732182 -0.333690 -0.593768
vn 0.809583 -0.300005 -0.504551
vn 0.872445 -0.279201 -0.401107
vn 0.918352 -0.272076 -0.287410
vn 0.945540 -0.278904 -0.167830
vn 0.952964 -0.299424 -0.046962
vn 0.940338 -0.332846 0.070550
vn 0.908149 -0.377886 0.180186
vn 0.857633 -0.432814 0.277739
vn 0.790731 -0.495517 0.359455
vn 0.710014 -0.563588 0.422196
vn 0.618584 -0.634409 0.463550
vn 0.519956 -0.705260 0.481928
vn 0.417917 -0.773417 0.476625
vn 0.316392 -0.836261 0.447843
vn 0.219280 -0.891377 0.396689
vn 0.130314 -0.936648 0.325129
vn 0.052913 -0.970333 0.235912
vn -0.009949 -0.991138 0.132467
vn -0.055856 -0.998262 0.018770
vn -0.083043 -0.991434 -0.100809
vn -0.090467 -0.970914 -0.221678
vn -0.077842 -0.937492 -0.339188
vn -0.045653 -0.892452 -0.448826
vn 0.004863 -0.837525 -0.546378
vn 0.071766 -0.774821 -0.628094
vn 0.152483 -0.706750 -0.690835
vn 0.243912 -0.635929 -0.732189
vn 0.342541 -0.565078 -0.750568
vn 0.444579 -0.496921 -0.745264
vn 0.546104 -0.434077 -0.716483
vn 0.643216 -0.378961 -0.665329
vn -0.098382 0.929756 -0.354787
vn -0.016809 0.965257 -0.260762
vn 0.049442 0.987183 -0.151741
vn 0.097823 0.994692 -0.031916
vn 0.126476 0.987495 0.094110
vn 0.134300 0.965870 0.221493
vn 0.120994 0.930646 0.345338
vn 0.087070 0.883178 0.460885
vn 0.033831 0.825290 0.563694
vn -0.036677 0.759207 0.649815
vn -0.121745 0.687467 0.715938
vn -0.218103 0.612828 0.759521
vn -0.322048 0.538159 0.778890
vn -0.429585 0.466328 0.773301
vn -0.536583 0.400096 0.742968
vn -0.638930 0.342009 0.689057
vn -0.732690 0.294299 0.613640
vn -0.814264 0.258798 0.519612
vn -0.880514 0.236872 0.410594
vn -0.928895 0.229363 0.290768
vn -0.957548 0.236560 0.164743
vn -0.965373 0.258185 0.037360
vn -0.952067 0.293409 -0.086485
vn -0.918143 0.340877 -0.202033
vn -0.864904 0.398765 -0.304842
vn -0.794395 0.464848 -0.390963
vn -0.709327 0.536588 -0.457086
vn -0.612970 0.611227 -0.500669
vn -0.509025 0.685896 -0.520038
vn -0.401487 0.757727 -0.514449
vn -0.294489 0.823959 -0.484116
vn -0.192143 0.882046 -0.430204
vn -0.553312 0.814951 0.172338
vn -0.553311 0.814952 0.172339
vn -0.553311 0.814952 0.172338
vn -0.553311 0.814951 0.172339
vn -0.553312 0.814951 0.172339
vn -0.553312 0.814951 0.172340
usemtl Material
s off
f 12//7 10//7 74//7
f 10//8 12//8 14//8
f 10//9 14//9 16//9
f 10//10 16//10 18//10
f 10//11 18//11 20//11
f 10//12 20//12 22//12
f 10//13 22//13 24//13
f 10//14 24//14 26//14
f 10//15 26//15 28//15
f 10//16 28//16 30//16
f 10//17 30//17 32//17
f 10//18 32//18 34//18
f 10//19 34//19 36//19
f 10//20 36//20 38//20
f 10//21 38//21 40//21
f 10//22 40//22 42//22
f 10//23 42//23 44//23
f 10//24 44//24 46//24
f 10//25 46//25 48//25
f 10//26 48//26 50//26
f 10//27 50//27 52//27
f 10//28 52//28 54//28
f 10//29 54//29 56//29
f 10//30 56//30 58//30
f 10//31 58//31 60//31
f 10//32 60//32 62//32
f 10//33 62//33 64//33
f 10//34 64//34 66//34
f 10//35 66//35 68//35
f 10//36 68//36 70//36
f 10//37 70//37 72//37
f 10//38 72//38 74//38
f 11//39 12//39 74//39
f 11//39 74//39 73//39
f 12//40 11//40 13//40
f 12//40 13//40 14//40
f 14//41 13//41 15//41
f 14//41 15//41 16//41
f 16//42 15//42 17//42
f 16//42 17//42 18//42
f 18//43 17//43 19//43
f 18//43 19//43 20//43
f 20//44 19//44 21//44
f 20//44 21//44 22//44
f 22//45 21//45 23//45
f 22//45 23//45 24//45
f 24//46 23//46 25//46
f 24//46 25//46 26//46
f 26//47 25//47 27//47
f 26//47 27//47 28//47
f 28//48 27//48 29//48
f 28//48 29//48 30//48
f 30//49 29//49 31//49
f 30//49 31//49 32//49
f 32//50 31//50 33//50
f 32//50 33//50 34//50
f 34//51 33//51 35//51
f 34//51 35//51 36//51
f 36//52 35//52 37//52
f 36//52 37//52 38//52
f 38//53 37//53 39//53
f 38//53 39//53 40//53
f 40//54 39//54 41//54
f 40//54 41//54 42//54
f 42//55 41//55 43//55
f 42//55 43//55 44//55
f 44//56 43//56 45//56
f 44//56 45//56 46//56
f 46//57 45//57 47//57
f 46//57 47//57 48//57
f 48//58 47//58 49//58
f 48//58 49//58 50//58
f 50//59 49//59 51//59
f 50//59 51//59 52//59
f 52//60 51//60 53//60
f 52//60 53//60 54//60
f 54//61 53//61 55//61
f 54//61 55//61 56//61
f 56//62 55//62 57//62
f 56//62 57//62 58//62
f 58//63 57//63 59//63
f 58//63 59//63 60//63
f 60//64 59//64 61//64
f 60//64 61//64 62//64
f 62//65 61//65 63//65
f 62//65 63//65 64//65
f 64//66 63//66 65//66
f 64//66 65//66 66//66
f 66//67 65//67 67//67
f 66//67 67//67 68//67
f 68//68 67//68 69//68
f 68//68 69//68 70//68
f 70//69 69//69 71//69
f 70//69 71//69 72//69
f 72//70 71//70 73//70
f 72//70 73//70 74//70
f 9//71 11//71 73//71
f 11//72 9//72 13//72
f 13//73 9//73 15//73
f 15//74 9//74 17//74
f 17//73 9//73 19//73
f 19//74 9//74 21//74
f 21//74 9//74 23//74
f 23//73 9//73 25//73
f 25//73 9//73 27//73
f 27//75 9//75 29//75
f 29//75 9//75 31//75
f 31//75 9//75 33//75
f 33//75 9//75 35//75
f 35//72 9//72 37//72
f 37//75 9//75 39//75
f 39//71 9//71 41//71
f 41//72 9//72 43//72
f 43//71 9//71 45//71
f 45//72 9//72 47//72
f 47//71 9//71 49//71
f 49//71 9//71 51//71
f 51//76 9//76 53//76
f 53//73 9//73 55//73
f 55//73 9//73 57//73
f 57//75 9//75 59//75
f 59//75 9//75 61//75
f 61//73 9//73 63//73
f 63//73 9//73 65//73
f 65//71 9//71 67//71
f 67//74 9//74 69//74
f 69//72 9//72 71//72
f 71//73 9//73 73//73
