# Blender v2.64 (sub 0) OBJ File: ''
# www.blender.org
mtllib untitled_000060.mtl
o Cube
v -8.729040 -2.858973 10.487860
v -8.729040 -2.858973 -7.293924
v 9.052744 -2.858973 -7.293924
v 9.052744 -2.858973 10.487860
v -8.729040 14.922812 10.487860
v -8.729040 14.922812 -7.293924
v 9.052744 14.922812 -7.293924
v 9.052744 14.922812 10.487860
vn -1.000000 -0.000000 0.000000
vn 0.000000 0.000000 -1.000000
vn 1.000000 -0.000000 0.000000
vn 0.000000 0.000000 1.000000
vn -0.000000 -1.000000 0.000000
vn -0.000000 1.000000 0.000000
usemtl Material.003
s off
f 2//1 1//1 5//1
f 2//1 5//1 6//1
usemtl Material.005
f 6//2 7//2 3//2
f 6//2 3//2 2//2
usemtl Material.004
f 7//3 8//3 4//3
f 7//3 4//3 3//3
usemtl Material.002
f 1//4 4//4 8//4
f 1//4 8//4 5//4
usemtl Material.001
f 1//5 2//5 3//5
f 1//5 3//5 4//5
f 8//6 7//6 6//6
f 8//6 6//6 5//6
o Diamond
v 0.102407 2.315764 -1.607551
v -0.396579 0.731739 -1.230957
v 0.292338 2.058832 -2.436594
v 0.267094 1.405450 -2.874673
v 0.450220 2.024571 -2.371510
v 0.530229 1.348348 -2.766200
v 0.594734 2.001501 -2.277067
v 0.771087 1.309897 -2.608796
v 0.720329 1.990507 -2.156896
v 0.980412 1.291575 -2.408510
v 0.822178 1.992013 -2.015613
v 1.150160 1.294084 -2.173039
v 0.896366 2.005960 -1.858649
v 1.273807 1.317330 -1.911432
v 0.940043 2.031813 -1.692035
v 1.346601 1.360418 -1.633743
v 0.951530 2.068578 -1.522175
v 1.365746 1.421693 -1.350642
v 0.930386 2.114842 -1.355595
v 1.330506 1.498800 -1.073009
v 0.877422 2.168828 -1.198698
v 1.242234 1.588776 -0.811514
v 0.794676 2.228460 -1.057513
v 1.104323 1.688163 -0.576206
v 0.685326 2.291447 -0.937466
v 0.922073 1.793141 -0.376127
v 0.553575 2.355369 -0.843170
v 0.702487 1.899678 -0.218966
v 0.404485 2.417768 -0.778248
v 0.454005 2.003677 -0.110764
v 0.243787 2.476248 -0.745196
v 0.186175 2.101143 -0.055677
v 0.077656 2.528561 -0.745284
v -0.090710 2.188331 -0.055824
v -0.087524 2.572695 -0.778508
v -0.366010 2.261889 -0.111198
v -0.245405 2.606956 -0.843592
v -0.629145 2.318990 -0.219671
v -0.389920 2.630027 -0.938035
v -0.870003 2.357441 -0.377075
v -0.515515 2.641021 -1.058207
v -1.079329 2.375764 -0.577361
v -0.617363 2.639515 -1.199489
v -1.249076 2.373255 -0.812832
v -0.691551 2.625568 -1.356453
v -1.372723 2.350009 -1.074438
v -0.735228 2.599715 -1.523067
v -1.445518 2.306921 -1.352128
v -0.746715 2.562950 -1.692927
v -1.464663 2.245646 -1.635229
v -0.725571 2.516686 -1.859507
v -1.429422 2.168539 -1.912862
v -0.672608 2.462700 -2.016404
v -1.341150 2.078563 -2.174356
v -0.589861 2.403068 -2.157589
v -1.203239 1.979176 -2.409665
v -0.480512 2.340081 -2.277636
v -1.020989 1.874197 -2.609744
v -0.348761 2.276159 -2.371932
v -0.801405 1.767662 -2.766904
v -0.199671 2.213759 -2.436854
v -0.552922 1.663662 -2.875107
v -0.038973 2.155280 -2.469906
v -0.285092 1.566196 -2.930193
v 0.127159 2.102967 -2.469818
v -0.008206 1.479008 -2.930047
vn -0.152316 -0.891399 -0.426858
vn -0.037858 -0.919174 -0.392028
vn 0.069278 -0.939486 -0.335509
vn 0.164976 -0.951555 -0.259473
vn 0.245558 -0.954916 -0.166842
vn 0.307926 -0.949441 -0.061175
vn 0.349685 -0.935340 0.053466
vn 0.369229 -0.913155 0.172676
vn 0.365808 -0.883739 0.291874
vn 0.339552 -0.848221 0.406480
vn 0.291471 -0.807967 0.512088
vn 0.223413 -0.764524 0.604640
vn 0.137992 -0.719561 0.680580
vn 0.038492 -0.674806 0.736990
vn -0.071262 -0.631980 0.771701
vn -0.187056 -0.592727 0.783380
vn -0.304437 -0.558557 0.771578
vn -0.418895 -0.530782 0.736748
vn -0.526032 -0.510469 0.680229
vn -0.621729 -0.498401 0.604193
vn -0.702311 -0.495039 0.511562
vn -0.764679 -0.500514 0.405896
vn -0.806438 -0.514615 0.291255
vn -0.825982 -0.536800 0.172043
vn -0.822561 -0.566216 0.052846
vn -0.796305 -0.601734 -0.061759
vn -0.748224 -0.641988 -0.167368
vn -0.680166 -0.685431 -0.259920
vn -0.594746 -0.730394 -0.335860
vn -0.495246 -0.775149 -0.392270
vn -0.385491 -0.817976 -0.426981
vn -0.269697 -0.857228 -0.438660
vn 0.300216 0.523173 -0.797597
vn 0.420844 0.493901 -0.760890
vn 0.533755 0.472494 -0.701324
vn 0.634611 0.459774 -0.621189
vn 0.719536 0.456232 -0.523565
vn 0.785266 0.462002 -0.412204
vn 0.829276 0.476863 -0.291383
vn 0.849873 0.500244 -0.165748
vn 0.846267 0.531246 -0.040124
vn 0.818596 0.568678 0.080658
vn 0.767923 0.611102 0.191959
vn 0.696197 0.656886 0.289500
vn 0.606173 0.704272 0.369534
vn 0.501310 0.751440 0.428984
vn 0.385639 0.796575 0.465566
vn 0.263604 0.837943 0.477874
vn 0.139896 0.873956 0.465436
vn 0.019269 0.903228 0.428729
vn -0.093642 0.924635 0.369164
vn -0.194499 0.937354 0.289029
vn -0.279424 0.940897 0.191405
vn -0.345154 0.935127 0.080043
vn -0.389163 0.920266 -0.040777
vn -0.409761 0.896885 -0.166413
vn -0.406155 0.865883 -0.292036
vn -0.378484 0.828451 -0.412819
vn -0.327812 0.786027 -0.524119
vn -0.256085 0.740242 -0.621661
vn -0.166060 0.692856 -0.701694
vn -0.061198 0.645689 -0.761144
vn 0.054474 0.600554 -0.797727
vn 0.176508 0.559185 -0.810035
vn 0.293019 0.930180 -0.221146
vn 0.293018 0.930180 -0.221146
vn 0.293017 0.930180 -0.221146
vn 0.293018 0.930180 -0.221145
vn 0.293018 0.930180 -0.221147
vn 0.293017 0.930180 -0.221145
vn 0.293019 0.930180 -0.221147
vn 0.293019 0.930180 -0.221145
vn 0.293017 0.930180 -0.221147
vn 0.293017 0.930181 -0.221146
usemtl Material
s off
f 12//7 10//7 74//7
f 10//8 12//8 14//8
f 10//9 14//9 16//9
f 10//10 16//10 18//10
f 10//11 18//11 20//11
f 10//12 20//12 22//12
f 10//13 22//13 24//13
f 10//14 24//14 26//14
f 10//15 26//15 28//15
f 10//16 28//16 30//16
f 10//17 30//17 32//17
f 10//18 32//18 34//18
f 10//19 34//19 36//19
f 10//20 36//20 38//20
f 10//21 38//21 40//21
f 10//22 40//22 42//22
f 10//23 42//23 44//23
f 10//24 44//24 46//24
f 10//25 46//25 48//25
f 10//26 48//26 50//26
f 10//27 50//27 52//27
f 10//28 52//28 54//28
f 10//29 54//29 56//29
f 10//30 56//30 58//30
f 10//31 58//31 60//31
f 10//32 60//32 62//32
f 10//33 62//33 64//33
f 10//34 64//34 66//34
f 10//35 66//35 68//35
f 10//36 68//36 70//36
f 10//37 70//37 72//37
f 10//38 72//38 74//38
f 11//39 12//39 74//39
f 11//39 74//39 73//39
f 12//40 11//40 13//40
f 12//40 13//40 14//40
f 14//41 13//41 15//41
f 14//41 15//41 16//41
f 16//42 15//42 17//42
f 16//42 17//42 18//42
f 18//43 17//43 19//43
f 18//43 19//43 20//43
f 20//44 19//44 21//44
f 20//44 21//44 22//44
f 22//45 21//45 23//45
f 22//45 23//45 24//45
f 24//46 23//46 25//46
f 24//46 25//46 26//46
f 26//47 25//47 27//47
f 26//47 27//47 28//47
f 28//48 27//48 29//48
f 28//48 29//48 30//48
f 30//49 29//49 31//49
f 30//49 31//49 32//49
f 32//50 31//50 33//50
f 32//50 33//50 34//50
f 34//51 33//51 35//51
f 34//51 35//51 36//51
f 36//52 35//52 37//52
f 36//52 37//52 38//52
f 38//53 37//53 39//53
f 38//53 39//53 40//53
f 40//54 39//54 41//54
f 40//54 41//54 42//54
f 42//55 41//55 43//55
f 42//55 43//55 44//55
f 44//56 43//56 45//56
f 44//56 45//56 46//56
f 46//57 45//57 47//57
f 46//57 47//57 48//57
f 48//58 47//58 49//58
f 48//58 49//58 50//58
f 50//59 49//59 51//59
f 50//59 51//59 52//59
f 52//60 51//60 53//60
f 52//60 53//60 54//60
f 54//61 53//61 55//61
f 54//61 55//61 56//61
f 56//62 55//62 57//62
f 56//62 57//62 58//62
f 58//63 57//63 59//63
f 58//63 59//63 60//63
f 60//64 59//64 61//64
f 60//64 61//64 62//64
f 62//65 61//65 63//65
f 62//65 63//65 64//65
f 64//66 63//66 65//66
f 64//66 65//66 66//66
f 66//67 65//67 67//67
f 66//67 67//67 68//67
f 68//68 67//68 69//68
f 68//68 69//68 70//68
f 70//69 69//69 71//69
f 70//69 71//69 72//69
f 72//70 71//70 73//70
f 72//70 73//70 74//70
f 9//71 11//71 73//71
f 11//72 9//72 13//72
f 13//73 9//73 15//73
f 15//72 9//72 17//72
f 17//72 9//72 19//72
f 19//74 9//74 21//74
f 21//72 9//72 23//72
f 23//75 9//75 25//75
f 25//72 9//72 27//72
f 27//72 9//72 29//72
f 29//76 9//76 31//76
f 31//77 9//77 33//77
f 33//72 9//72 35//72
f 35//73 9//73 37//73
f 37//72 9//72 39//72
f 39//72 9//72 41//72
f 41//72 9//72 43//72
f 43//72 9//72 45//72
f 45//78 9//78 47//78
f 47//79 9//79 49//79
f 49//74 9//74 51//74
f 51//72 9//72 53//72
f 53//72 9//72 55//72
f 55//72 9//72 57//72
f 57//72 9//72 59//72
f 59//74 9//74 61//74
f 61//72 9//72 63//72
f 63//77 9//77 65//77
f 65//73 9//73 67//73
f 67//73 9//73 69//73
f 69//71 9//71 71//71
f 71//80 9//80 73//80
