# Blender v2.64 (sub 0) OBJ File: ''
# www.blender.org
mtllib untitled_000085.mtl
o Cube
v -8.729040 -2.858973 10.487860
v -8.729040 -2.858973 -7.293924
v 9.052744 -2.858973 -7.293924
v 9.052744 -2.858973 10.487860
v -8.729040 14.922812 10.487860
v -8.729040 14.922812 -7.293924
v 9.052744 14.922812 -7.293924
v 9.052744 14.922812 10.487860
vn -1.000000 -0.000000 0.000000
vn 0.000000 0.000000 -1.000000
vn 1.000000 -0.000000 0.000000
vn 0.000000 0.000000 1.000000
vn -0.000000 -1.000000 0.000000
vn -0.000000 1.000000 0.000000
usemtl Material.003
s off
f 2//1 1//1 5//1
f 2//1 5//1 6//1
usemtl Material.005
f 6//2 7//2 3//2
f 6//2 3//2 2//2
usemtl Material.004
f 7//3 8//3 4//3
f 7//3 4//3 3//3
usemtl Material.002
f 1//4 4//4 8//4
f 1//4 8//4 5//4
usemtl Material.001
f 1//5 2//5 3//5
f 1//5 3//5 4//5
f 8//6 7//6 6//6
f 8//6 6//6 5//6
o Diamond
v 3.281397 4.169145 1.247534
v 3.967373 2.687955 0.762294
v 2.608452 4.042989 0.681294
v 2.368597 3.508088 0.156118
v 2.710454 4.127321 0.568069
v 2.538600 3.648642 -0.032590
v 2.834396 4.213261 0.480955
v 2.745171 3.791874 -0.177779
v 2.975517 4.297505 0.423301
v 2.980372 3.932281 -0.273870
v 3.128393 4.376816 0.397322
v 3.235165 4.064466 -0.317169
v 3.287148 4.448147 0.404015
v 3.499758 4.183352 -0.306013
v 3.445683 4.508756 0.443125
v 3.763981 4.284366 -0.240830
v 3.597903 4.556314 0.513148
v 4.017683 4.363629 -0.124125
v 3.737962 4.588993 0.611392
v 4.251113 4.418094 0.039616
v 3.860474 4.605537 0.734084
v 4.455300 4.445669 0.244102
v 3.960733 4.605312 0.876507
v 4.622398 4.445292 0.481473
v 4.034885 4.588325 1.033188
v 4.745986 4.416980 0.742608
v 4.080081 4.555228 1.198107
v 4.821313 4.361820 1.017473
v 4.094584 4.507295 1.364924
v 4.845485 4.281932 1.295503
v 4.077837 4.446367 1.527231
v 4.817573 4.180385 1.566014
v 4.030484 4.374785 1.678789
v 4.738650 4.061082 1.818611
v 3.954343 4.295301 1.813775
v 4.611749 3.928609 2.043586
v 3.852341 4.210969 1.927000
v 4.441745 3.788055 2.232295
v 3.728399 4.125030 2.014113
v 4.235175 3.644823 2.377484
v 3.587277 4.040786 2.071768
v 3.999973 3.504416 2.473574
v 3.434402 3.961474 2.097747
v 3.745181 3.372230 2.516873
v 3.275647 3.890144 2.091053
v 3.480589 3.253346 2.505717
v 3.117112 3.829535 2.051944
v 3.216364 3.152331 2.440535
v 2.964891 3.781977 1.981921
v 2.962662 3.073068 2.323830
v 2.824833 3.749298 1.883676
v 2.729232 3.018602 2.160089
v 2.702321 3.732753 1.760985
v 2.525045 2.991028 1.955603
v 2.602062 3.732979 1.618562
v 2.357947 2.991404 1.718231
v 2.527910 3.749966 1.461881
v 2.234360 3.019716 1.457096
v 2.482713 3.783062 1.296962
v 2.159033 3.074876 1.182232
v 2.468210 3.830995 1.130144
v 2.134861 3.154765 0.904202
v 2.484957 3.891923 0.967837
v 2.162772 3.256311 0.633691
v 2.532311 3.963505 0.816279
v 2.241696 3.375614 0.381093
vn -0.189857 -0.795465 -0.575490
vn -0.126742 -0.737426 -0.663430
vn -0.046692 -0.677101 -0.734407
vn 0.047218 -0.616805 -0.785698
vn 0.151378 -0.558859 -0.815329
vn 0.261788 -0.505488 -0.822161
vn 0.374200 -0.458743 -0.805934
vn 0.484299 -0.420420 -0.767269
vn 0.587851 -0.391993 -0.707653
vn 0.680878 -0.374553 -0.629377
vn 0.759804 -0.368771 -0.535449
vn 0.821596 -0.374870 -0.429479
vn 0.863880 -0.392614 -0.315539
vn 0.885032 -0.421322 -0.198006
vn 0.884237 -0.459891 -0.081400
vn 0.861526 -0.506837 0.029799
vn 0.817773 -0.560359 0.131319
vn 0.754658 -0.618399 0.219260
vn 0.674609 -0.678724 0.290237
vn 0.580698 -0.739019 0.341527
vn 0.476538 -0.796965 0.371158
vn 0.366129 -0.850337 0.377991
vn 0.253716 -0.897082 0.361763
vn 0.143617 -0.935404 0.323098
vn 0.040065 -0.963832 0.263482
vn -0.052962 -0.981271 0.185206
vn -0.131888 -0.987053 0.091279
vn -0.193680 -0.980955 -0.014692
vn -0.235964 -0.963211 -0.128632
vn -0.257116 -0.934503 -0.246163
vn -0.256321 -0.895934 -0.362771
vn -0.233610 -0.848987 -0.473970
vn -0.833490 0.529324 -0.158461
vn -0.766974 0.590491 -0.251139
vn -0.682609 0.654069 -0.325943
vn -0.583637 0.717614 -0.379998
vn -0.473861 0.778684 -0.411226
vn -0.357503 0.834932 -0.418427
vn -0.239029 0.884197 -0.401324
vn -0.122998 0.924585 -0.360576
vn -0.013864 0.954544 -0.297747
vn 0.084178 0.972924 -0.215251
vn 0.167358 0.979017 -0.116260
vn 0.232481 0.972590 -0.004578
vn 0.277045 0.953889 0.115504
vn 0.299335 0.923634 0.239370
vn 0.298498 0.882986 0.362263
vn 0.274563 0.833509 0.479456
vn 0.228452 0.777103 0.586448
vn 0.161935 0.715936 0.679127
vn 0.077570 0.652358 0.753931
vn -0.021402 0.588813 0.807986
vn -0.131178 0.527743 0.839214
vn -0.247536 0.471495 0.846415
vn -0.366009 0.422230 0.829312
vn -0.482042 0.381842 0.788563
vn -0.591176 0.351882 0.725734
vn -0.689216 0.333503 0.643239
vn -0.772397 0.327410 0.544248
vn -0.837520 0.333837 0.432567
vn -0.882083 0.352537 0.312484
vn -0.904374 0.382793 0.188618
vn -0.903536 0.423440 0.065725
vn -0.879602 0.472918 -0.051468
vn -0.402822 0.869793 0.284945
vn -0.402823 0.869792 0.284947
vn -0.402822 0.869793 0.284946
vn -0.402823 0.869793 0.284946
vn -0.402824 0.869792 0.284945
vn -0.402822 0.869793 0.284947
vn -0.402823 0.869793 0.284945
vn -0.402823 0.869793 0.284947
vn -0.402823 0.869792 0.284948
vn -0.402822 0.869794 0.284945
vn -0.402824 0.869792 0.284946
usemtl Material
s off
f 12//7 10//7 74//7
f 10//8 12//8 14//8
f 10//9 14//9 16//9
f 10//10 16//10 18//10
f 10//11 18//11 20//11
f 10//12 20//12 22//12
f 10//13 22//13 24//13
f 10//14 24//14 26//14
f 10//15 26//15 28//15
f 10//16 28//16 30//16
f 10//17 30//17 32//17
f 10//18 32//18 34//18
f 10//19 34//19 36//19
f 10//20 36//20 38//20
f 10//21 38//21 40//21
f 10//22 40//22 42//22
f 10//23 42//23 44//23
f 10//24 44//24 46//24
f 10//25 46//25 48//25
f 10//26 48//26 50//26
f 10//27 50//27 52//27
f 10//28 52//28 54//28
f 10//29 54//29 56//29
f 10//30 56//30 58//30
f 10//31 58//31 60//31
f 10//32 60//32 62//32
f 10//33 62//33 64//33
f 10//34 64//34 66//34
f 10//35 66//35 68//35
f 10//36 68//36 70//36
f 10//37 70//37 72//37
f 10//38 72//38 74//38
f 11//39 12//39 74//39
f 11//39 74//39 73//39
f 12//40 11//40 13//40
f 12//40 13//40 14//40
f 14//41 13//41 15//41
f 14//41 15//41 16//41
f 16//42 15//42 17//42
f 16//42 17//42 18//42
f 18//43 17//43 19//43
f 18//43 19//43 20//43
f 20//44 19//44 21//44
f 20//44 21//44 22//44
f 22//45 21//45 23//45
f 22//45 23//45 24//45
f 24//46 23//46 25//46
f 24//46 25//46 26//46
f 26//47 25//47 27//47
f 26//47 27//47 28//47
f 28//48 27//48 29//48
f 28//48 29//48 30//48
f 30//49 29//49 31//49
f 30//49 31//49 32//49
f 32//50 31//50 33//50
f 32//50 33//50 34//50
f 34//51 33//51 35//51
f 34//51 35//51 36//51
f 36//52 35//52 37//52
f 36//52 37//52 38//52
f 38//53 37//53 39//53
f 38//53 39//53 40//53
f 40//54 39//54 41//54
f 40//54 41//54 42//54
f 42//55 41//55 43//55
f 42//55 43//55 44//55
f 44//56 43//56 45//56
f 44//56 45//56 46//56
f 46//57 45//57 47//57
f 46//57 47//57 48//57
f 48//58 47//58 49//58
f 48//58 49//58 50//58
f 50//59 49//59 51//59
f 50//59 51//59 52//59
f 52//60 51//60 53//60
f 52//60 53//60 54//60
f 54//61 53//61 55//61
f 54//61 55//61 56//61
f 56//62 55//62 57//62
f 56//62 57//62 58//62
f 58//63 57//63 59//63
f 58//63 59//63 60//63
f 60//64 59//64 61//64
f 60//64 61//64 62//64
f 62//65 61//65 63//65
f 62//65 63//65 64//65
f 64//66 63//66 65//66
f 64//66 65//66 66//66
f 66//67 65//67 67//67
f 66//67 67//67 68//67
f 68//68 67//68 69//68
f 68//68 69//68 70//68
f 70//69 69//69 71//69
f 70//69 71//69 72//69
f 72//70 71//70 73//70
f 72//70 73//70 74//70
f 9//71 11//71 73//71
f 11//72 9//72 13//72
f 13//73 9//73 15//73
f 15//74 9//74 17//74
f 17//73 9//73 19//73
f 19//73 9//73 21//73
f 21//74 9//74 23//74
f 23//74 9//74 25//74
f 25//75 9//75 27//75
f 27//76 9//76 29//76
f 29//77 9//77 31//77
f 31//74 9//74 33//74
f 33//78 9//78 35//78
f 35//74 9//74 37//74
f 37//77 9//77 39//77
f 39//79 9//79 41//79
f 41//71 9//71 43//71
f 43//80 9//80 45//80
f 45//74 9//74 47//74
f 47//71 9//71 49//71
f 49//81 9//81 51//81
f 51//73 9//73 53//73
f 53//73 9//73 55//73
f 55//77 9//77 57//77
f 57//77 9//77 59//77
f 59//74 9//74 61//74
f 61//73 9//73 63//73
f 63//77 9//77 65//77
f 65//74 9//74 67//74
f 67//78 9//78 69//78
f 69//77 9//77 71//77
f 71//74 9//74 73//74
