# Blender v2.64 (sub 0) OBJ File: ''
# www.blender.org
mtllib untitled_000074.mtl
o Cube
v -8.729040 -2.858973 10.487860
v -8.729040 -2.858973 -7.293924
v 9.052744 -2.858973 -7.293924
v 9.052744 -2.858973 10.487860
v -8.729040 14.922812 10.487860
v -8.729040 14.922812 -7.293924
v 9.052744 14.922812 -7.293924
v 9.052744 14.922812 10.487860
vn -1.000000 -0.000000 0.000000
vn 0.000000 0.000000 -1.000000
vn 1.000000 -0.000000 0.000000
vn 0.000000 0.000000 1.000000
vn -0.000000 -1.000000 0.000000
vn -0.000000 1.000000 0.000000
usemtl Material.003
s off
f 2//1 1//1 5//1
f 2//1 5//1 6//1
usemtl Material.005
f 6//2 7//2 3//2
f 6//2 3//2 2//2
usemtl Material.004
f 7//3 8//3 4//3
f 7//3 4//3 3//3
usemtl Material.002
f 1//4 4//4 8//4
f 1//4 8//4 5//4
usemtl Material.001
f 1//5 2//5 3//5
f 1//5 3//5 4//5
f 8//6 7//6 6//6
f 8//6 6//6 5//6
o Diamond
v 4.722557 2.232478 -1.349253
v 5.702351 0.922108 -1.821353
v 4.090982 1.963445 -1.913287
v 3.968131 1.385282 -2.432993
v 4.173239 2.066084 -2.027459
v 4.105227 1.556347 -2.623279
v 4.276606 2.175118 -2.115567
v 4.277504 1.738070 -2.770126
v 4.397111 2.286356 -2.174226
v 4.478346 1.923467 -2.867892
v 4.530122 2.395524 -2.201183
v 4.700031 2.105413 -2.912818
v 4.670529 2.498425 -2.195399
v 4.934042 2.276916 -2.903180
v 4.812934 2.591107 -2.157099
v 5.171385 2.431384 -2.839346
v 4.951867 2.670006 -2.087754
v 5.402939 2.562884 -2.723772
v 5.081987 2.732092 -1.990029
v 5.619806 2.666360 -2.560896
v 5.198295 2.774977 -1.867679
v 5.813653 2.737836 -2.356979
v 5.296320 2.797015 -1.725406
v 5.977028 2.774565 -2.119858
v 5.372296 2.797358 -1.568678
v 6.103654 2.775137 -1.858644
v 5.423303 2.775993 -1.403517
v 6.188666 2.739528 -1.583376
v 5.447381 2.733741 -1.236271
v 6.228795 2.669108 -1.304633
v 5.443604 2.672225 -1.073367
v 6.222499 2.566582 -1.033126
v 5.412117 2.593811 -0.921065
v 6.170022 2.435891 -0.779290
v 5.354131 2.501510 -0.785218
v 6.073379 2.282057 -0.552878
v 5.271873 2.398871 -0.671047
v 5.936283 2.110991 -0.362592
v 5.168507 2.289837 -0.582938
v 5.764005 1.929269 -0.215745
v 5.048002 2.178599 -0.524279
v 5.563164 1.743872 -0.117979
v 4.914991 2.069432 -0.497323
v 5.341479 1.561926 -0.073052
v 4.774585 1.966530 -0.503106
v 5.107469 1.390424 -0.082691
v 4.632178 1.873849 -0.541406
v 4.870125 1.235954 -0.146524
v 4.493246 1.794949 -0.610751
v 4.638571 1.104455 -0.262099
v 4.363125 1.732863 -0.708476
v 4.421703 1.000979 -0.424975
v 4.246818 1.689978 -0.830826
v 4.227857 0.929503 -0.628891
v 4.148792 1.667940 -0.973099
v 4.064481 0.892773 -0.866013
v 4.072817 1.667597 -1.129827
v 3.937855 0.892202 -1.127227
v 4.021810 1.688962 -1.294988
v 3.852844 0.927810 -1.402494
v 3.997732 1.731215 -1.462234
v 3.812715 0.998231 -1.681238
v 4.001510 1.792730 -1.625138
v 3.819010 1.100756 -1.952744
v 4.032996 1.871145 -1.777440
v 3.871488 1.231448 -2.206581
vn -0.019635 -0.823065 -0.567608
vn 0.030052 -0.753999 -0.656188
vn 0.095818 -0.679005 -0.727854
vn 0.175133 -0.600965 -0.779852
vn 0.264953 -0.522876 -0.810186
vn 0.361822 -0.447742 -0.817687
vn 0.462020 -0.378448 -0.802069
vn 0.561696 -0.317659 -0.763931
vn 0.657021 -0.267708 -0.704738
vn 0.744327 -0.230518 -0.626769
vn 0.820264 -0.207516 -0.533014
vn 0.881911 -0.199587 -0.427080
vn 0.926900 -0.207035 -0.313038
vn 0.953502 -0.229574 -0.195268
vn 0.960694 -0.266338 -0.078299
vn 0.948201 -0.315914 0.033376
vn 0.916501 -0.376398 0.135465
vn 0.866813 -0.445464 0.224046
vn 0.801049 -0.520457 0.295711
vn 0.721733 -0.598498 0.347710
vn 0.631914 -0.676586 0.378043
vn 0.535044 -0.751720 0.385544
vn 0.434846 -0.821014 0.369926
vn 0.335170 -0.881804 0.331788
vn 0.239846 -0.931754 0.272596
vn 0.152539 -0.968944 0.194625
vn 0.076602 -0.991946 0.100871
vn 0.014955 -0.999875 -0.005062
vn -0.030034 -0.992427 -0.119105
vn -0.056636 -0.969888 -0.236874
vn -0.063828 -0.933124 -0.353844
vn -0.051334 -0.883548 -0.465519
vn -0.925392 0.342509 -0.162286
vn -0.873027 0.415298 -0.255640
vn -0.803718 0.494333 -0.331169
vn -0.720125 0.576581 -0.385971
vn -0.625466 0.658878 -0.417938
vn -0.523374 0.738063 -0.425844
vn -0.417775 0.811091 -0.409384
vn -0.312727 0.875157 -0.369191
vn -0.212265 0.927800 -0.306808
vn -0.120252 0.966995 -0.224634
vn -0.040222 0.991236 -0.125827
vn 0.024748 0.999593 -0.014184
vn 0.072162 0.991744 0.106006
vn 0.100197 0.967990 0.230123
vn 0.107777 0.929244 0.353398
vn 0.094610 0.876996 0.471092
vn 0.061202 0.813252 0.578684
vn 0.008837 0.740464 0.672038
vn -0.060473 0.661428 0.747567
vn -0.144064 0.579180 0.802369
vn -0.238725 0.496884 0.834336
vn -0.340815 0.417700 0.842242
vn -0.446414 0.344671 0.825782
vn -0.551464 0.280604 0.785589
vn -0.651925 0.227962 0.723206
vn -0.743938 0.188767 0.641033
vn -0.823968 0.164525 0.542225
vn -0.888938 0.156168 0.430581
vn -0.936352 0.164018 0.310393
vn -0.964387 0.187772 0.186275
vn -0.971967 0.226518 0.063000
vn -0.958800 0.278766 -0.054694
vn -0.575360 0.769484 0.277229
vn -0.575361 0.769483 0.277230
vn -0.575361 0.769482 0.277230
vn -0.575359 0.769484 0.277229
vn -0.575360 0.769483 0.277230
vn -0.575361 0.769483 0.277229
vn -0.575361 0.769483 0.277231
vn -0.575360 0.769484 0.277228
vn -0.575360 0.769484 0.277230
vn -0.575360 0.769483 0.277229
usemtl Material
s off
f 12//7 10//7 74//7
f 10//8 12//8 14//8
f 10//9 14//9 16//9
f 10//10 16//10 18//10
f 10//11 18//11 20//11
f 10//12 20//12 22//12
f 10//13 22//13 24//13
f 10//14 24//14 26//14
f 10//15 26//15 28//15
f 10//16 28//16 30//16
f 10//17 30//17 32//17
f 10//18 32//18 34//18
f 10//19 34//19 36//19
f 10//20 36//20 38//20
f 10//21 38//21 40//21
f 10//22 40//22 42//22
f 10//23 42//23 44//23
f 10//24 44//24 46//24
f 10//25 46//25 48//25
f 10//26 48//26 50//26
f 10//27 50//27 52//27
f 10//28 52//28 54//28
f 10//29 54//29 56//29
f 10//30 56//30 58//30
f 10//31 58//31 60//31
f 10//32 60//32 62//32
f 10//33 62//33 64//33
f 10//34 64//34 66//34
f 10//35 66//35 68//35
f 10//36 68//36 70//36
f 10//37 70//37 72//37
f 10//38 72//38 74//38
f 11//39 12//39 74//39
f 11//39 74//39 73//39
f 12//40 11//40 13//40
f 12//40 13//40 14//40
f 14//41 13//41 15//41
f 14//41 15//41 16//41
f 16//42 15//42 17//42
f 16//42 17//42 18//42
f 18//43 17//43 19//43
f 18//43 19//43 20//43
f 20//44 19//44 21//44
f 20//44 21//44 22//44
f 22//45 21//45 23//45
f 22//45 23//45 24//45
f 24//46 23//46 25//46
f 24//46 25//46 26//46
f 26//47 25//47 27//47
f 26//47 27//47 28//47
f 28//48 27//48 29//48
f 28//48 29//48 30//48
f 30//49 29//49 31//49
f 30//49 31//49 32//49
f 32//50 31//50 33//50
f 32//50 33//50 34//50
f 34//51 33//51 35//51
f 34//51 35//51 36//51
f 36//52 35//52 37//52
f 36//52 37//52 38//52
f 38//53 37//53 39//53
f 38//53 39//53 40//53
f 40//54 39//54 41//54
f 40//54 41//54 42//54
f 42//55 41//55 43//55
f 42//55 43//55 44//55
f 44//56 43//56 45//56
f 44//56 45//56 46//56
f 46//57 45//57 47//57
f 46//57 47//57 48//57
f 48//58 47//58 49//58
f 48//58 49//58 50//58
f 50//59 49//59 51//59
f 50//59 51//59 52//59
f 52//60 51//60 53//60
f 52//60 53//60 54//60
f 54//61 53//61 55//61
f 54//61 55//61 56//61
f 56//62 55//62 57//62
f 56//62 57//62 58//62
f 58//63 57//63 59//63
f 58//63 59//63 60//63
f 60//64 59//64 61//64
f 60//64 61//64 62//64
f 62//65 61//65 63//65
f 62//65 63//65 64//65
f 64//66 63//66 65//66
f 64//66 65//66 66//66
f 66//67 65//67 67//67
f 66//67 67//67 68//67
f 68//68 67//68 69//68
f 68//68 69//68 70//68
f 70//69 69//69 71//69
f 70//69 71//69 72//69
f 72//70 71//70 73//70
f 72//70 73//70 74//70
f 9//71 11//71 73//71
f 11//72 9//72 13//72
f 13//73 9//73 15//73
f 15//74 9//74 17//74
f 17//72 9//72 19//72
f 19//75 9//75 21//75
f 21//76 9//76 23//76
f 23//76 9//76 25//76
f 25//76 9//76 27//76
f 27//75 9//75 29//75
f 29//76 9//76 31//76
f 31//75 9//75 33//75
f 33//76 9//76 35//76
f 35//72 9//72 37//72
f 37//77 9//77 39//77
f 39//78 9//78 41//78
f 41//72 9//72 43//72
f 43//71 9//71 45//71
f 45//76 9//76 47//76
f 47//76 9//76 49//76
f 49//73 9//73 51//73
f 51//75 9//75 53//75
f 53//79 9//79 55//79
f 55//76 9//76 57//76
f 57//72 9//72 59//72
f 59//75 9//75 61//75
f 61//76 9//76 63//76
f 63//76 9//76 65//76
f 65//75 9//75 67//75
f 67//75 9//75 69//75
f 69//80 9//80 71//80
f 71//72 9//72 73//72
