# Blender v2.64 (sub 0) OBJ File: ''
# www.blender.org
mtllib untitled_000059.mtl
o Cube
v -8.729040 -2.858973 10.487860
v -8.729040 -2.858973 -7.293924
v 9.052744 -2.858973 -7.293924
v 9.052744 -2.858973 10.487860
v -8.729040 14.922812 10.487860
v -8.729040 14.922812 -7.293924
v 9.052744 14.922812 -7.293924
v 9.052744 14.922812 10.487860
vn -1.000000 -0.000000 0.000000
vn 0.000000 0.000000 -1.000000
vn 1.000000 -0.000000 0.000000
vn 0.000000 0.000000 1.000000
vn -0.000000 -1.000000 0.000000
vn -0.000000 1.000000 0.000000
usemtl Material.003
s off
f 2//1 1//1 5//1
f 2//1 5//1 6//1
usemtl Material.005
f 6//2 7//2 3//2
f 6//2 3//2 2//2
usemtl Material.004
f 7//3 8//3 4//3
f 7//3 4//3 3//3
usemtl Material.002
f 1//4 4//4 8//4
f 1//4 8//4 5//4
usemtl Material.001
f 1//5 2//5 3//5
f 1//5 3//5 4//5
f 8//6 7//6 6//6
f 8//6 6//6 5//6
o Diamond
v -0.316298 2.305418 -1.575498
v -0.967267 0.755388 -1.304221
v -0.047732 2.051238 -2.383374
v -0.066809 1.410036 -2.839396
v 0.098466 2.004220 -2.301205
v 0.176854 1.331673 -2.702447
v 0.228724 1.968777 -2.191147
v 0.393951 1.272601 -2.519017
v 0.338037 1.946270 -2.057430
v 0.576140 1.235091 -2.296155
v 0.422205 1.937566 -1.905193
v 0.716419 1.220583 -2.042426
v 0.477992 1.942998 -1.740285
v 0.809398 1.229637 -1.767580
v 0.503256 1.962358 -1.569045
v 0.851503 1.261903 -1.482181
v 0.497024 1.994901 -1.398053
v 0.841117 1.316141 -1.197194
v 0.459537 2.039377 -1.233880
v 0.778638 1.390268 -0.923572
v 0.392235 2.094077 -1.082835
v 0.666468 1.481435 -0.671831
v 0.297704 2.156899 -0.950723
v 0.508917 1.586138 -0.451644
v 0.179578 2.225428 -0.842621
v 0.312041 1.700353 -0.271474
v 0.042395 2.297031 -0.762683
v 0.083402 1.819692 -0.138243
v -0.108572 2.368957 -0.713981
v -0.168209 1.939567 -0.057073
v -0.267521 2.438440 -0.698386
v -0.433125 2.055373 -0.031082
v -0.428346 2.502812 -0.716499
v -0.701165 2.162660 -0.061270
v -0.584864 2.559598 -0.767622
v -0.962029 2.257303 -0.146475
v -0.731061 2.606616 -0.849791
v -1.205691 2.335666 -0.283424
v -0.861319 2.642059 -0.959849
v -1.422788 2.394738 -0.466854
v -0.970633 2.664565 -1.093566
v -1.604977 2.432248 -0.689716
v -1.054800 2.673269 -1.245803
v -1.745256 2.446755 -0.943444
v -1.110588 2.667837 -1.410710
v -1.838235 2.437702 -1.218289
v -1.135851 2.648478 -1.581951
v -1.880341 2.405436 -1.503690
v -1.129619 2.615935 -1.752943
v -1.869955 2.351198 -1.788676
v -1.092132 2.571458 -1.917116
v -1.807476 2.277071 -2.062299
v -1.024830 2.516758 -2.068161
v -1.695306 2.185904 -2.314039
v -0.930299 2.453937 -2.200273
v -1.537755 2.081201 -2.534227
v -0.812173 2.385407 -2.308375
v -1.340878 1.966986 -2.714397
v -0.674991 2.313805 -2.388313
v -1.112241 1.847648 -2.847627
v -0.524024 2.241879 -2.437016
v -0.860629 1.727772 -2.928798
v -0.365074 2.172395 -2.452610
v -0.595713 1.611966 -2.954789
v -0.204250 2.108024 -2.434498
v -0.327672 1.504679 -2.924601
vn -0.163088 -0.869408 -0.466403
vn -0.055838 -0.906185 -0.419178
vn 0.042108 -0.935400 -0.351074
vn 0.126987 -0.955932 -0.264706
vn 0.195536 -0.966989 -0.163395
vn 0.245121 -0.968148 -0.051033
vn 0.273836 -0.959365 0.068062
vn 0.280579 -0.940976 0.189311
vn 0.265090 -0.913689 0.308058
vn 0.227964 -0.878552 0.419738
vn 0.170628 -0.836915 0.520058
vn 0.095285 -0.790378 0.605164
vn 0.004831 -0.740730 0.671785
vn -0.097258 -0.689879 0.717362
vn -0.207059 -0.639779 0.740142
vn -0.320353 -0.592355 0.739249
vn -0.432784 -0.549430 0.714720
vn -0.540034 -0.512653 0.667495
vn -0.637981 -0.483438 0.599391
vn -0.722859 -0.462907 0.513023
vn -0.791408 -0.451849 0.411712
vn -0.840993 -0.450690 0.299349
vn -0.869708 -0.459473 0.180256
vn -0.876451 -0.477862 0.059005
vn -0.860962 -0.505149 -0.059741
vn -0.823836 -0.540286 -0.171421
vn -0.766499 -0.581924 -0.271742
vn -0.691157 -0.628460 -0.356847
vn -0.600703 -0.678108 -0.423468
vn -0.498614 -0.728959 -0.469045
vn -0.388813 -0.779059 -0.491825
vn -0.275519 -0.826483 -0.490933
vn 0.429198 0.514960 -0.742028
vn 0.542229 0.476200 -0.692258
vn 0.645454 0.445410 -0.620483
vn 0.734908 0.423773 -0.529459
vn 0.807152 0.412119 -0.422687
vn 0.859409 0.410897 -0.304269
vn 0.889673 0.420154 -0.178755
vn 0.896779 0.439534 -0.050970
vn 0.880455 0.468292 0.074178
vn 0.841327 0.505323 0.191876
vn 0.780901 0.549205 0.297604
vn 0.701497 0.598250 0.387297
vn 0.606168 0.650573 0.457509
vn 0.498576 0.704165 0.505542
vn 0.382856 0.756966 0.529550
vn 0.263456 0.806946 0.528610
vn 0.144964 0.852185 0.502758
vn 0.031934 0.890945 0.452988
vn -0.071292 0.921734 0.381213
vn -0.160745 0.943372 0.290190
vn -0.232989 0.955026 0.183418
vn -0.285247 0.956248 0.064999
vn -0.315510 0.946991 -0.060515
vn -0.322616 0.927611 -0.188299
vn -0.306292 0.898853 -0.313447
vn -0.267165 0.861821 -0.431146
vn -0.206738 0.817940 -0.536874
vn -0.127335 0.768895 -0.626567
vn -0.032005 0.716571 -0.696779
vn 0.075586 0.662979 -0.744812
vn 0.191306 0.610179 -0.768820
vn 0.310706 0.560198 -0.767880
vn 0.382266 0.910217 -0.159301
vn 0.382265 0.910218 -0.159302
vn 0.382266 0.910218 -0.159301
vn 0.382266 0.910218 -0.159300
vn 0.382266 0.910217 -0.159302
vn 0.382265 0.910218 -0.159300
vn 0.382267 0.910217 -0.159301
vn 0.382265 0.910218 -0.159301
vn 0.382267 0.910217 -0.159300
usemtl Material
s off
f 12//7 10//7 74//7
f 10//8 12//8 14//8
f 10//9 14//9 16//9
f 10//10 16//10 18//10
f 10//11 18//11 20//11
f 10//12 20//12 22//12
f 10//13 22//13 24//13
f 10//14 24//14 26//14
f 10//15 26//15 28//15
f 10//16 28//16 30//16
f 10//17 30//17 32//17
f 10//18 32//18 34//18
f 10//19 34//19 36//19
f 10//20 36//20 38//20
f 10//21 38//21 40//21
f 10//22 40//22 42//22
f 10//23 42//23 44//23
f 10//24 44//24 46//24
f 10//25 46//25 48//25
f 10//26 48//26 50//26
f 10//27 50//27 52//27
f 10//28 52//28 54//28
f 10//29 54//29 56//29
f 10//30 56//30 58//30
f 10//31 58//31 60//31
f 10//32 60//32 62//32
f 10//33 62//33 64//33
f 10//34 64//34 66//34
f 10//35 66//35 68//35
f 10//36 68//36 70//36
f 10//37 70//37 72//37
f 10//38 72//38 74//38
f 11//39 12//39 74//39
f 11//39 74//39 73//39
f 12//40 11//40 13//40
f 12//40 13//40 14//40
f 14//41 13//41 15//41
f 14//41 15//41 16//41
f 16//42 15//42 17//42
f 16//42 17//42 18//42
f 18//43 17//43 19//43
f 18//43 19//43 20//43
f 20//44 19//44 21//44
f 20//44 21//44 22//44
f 22//45 21//45 23//45
f 22//45 23//45 24//45
f 24//46 23//46 25//46
f 24//46 25//46 26//46
f 26//47 25//47 27//47
f 26//47 27//47 28//47
f 28//48 27//48 29//48
f 28//48 29//48 30//48
f 30//49 29//49 31//49
f 30//49 31//49 32//49
f 32//50 31//50 33//50
f 32//50 33//50 34//50
f 34//51 33//51 35//51
f 34//51 35//51 36//51
f 36//52 35//52 37//52
f 36//52 37//52 38//52
f 38//53 37//53 39//53
f 38//53 39//53 40//53
f 40//54 39//54 41//54
f 40//54 41//54 42//54
f 42//55 41//55 43//55
f 42//55 43//55 44//55
f 44//56 43//56 45//56
f 44//56 45//56 46//56
f 46//57 45//57 47//57
f 46//57 47//57 48//57
f 48//58 47//58 49//58
f 48//58 49//58 50//58
f 50//59 49//59 51//59
f 50//59 51//59 52//59
f 52//60 51//60 53//60
f 52//60 53//60 54//60
f 54//61 53//61 55//61
f 54//61 55//61 56//61
f 56//62 55//62 57//62
f 56//62 57//62 58//62
f 58//63 57//63 59//63
f 58//63 59//63 60//63
f 60//64 59//64 61//64
f 60//64 61//64 62//64
f 62//65 61//65 63//65
f 62//65 63//65 64//65
f 64//66 63//66 65//66
f 64//66 65//66 66//66
f 66//67 65//67 67//67
f 66//67 67//67 68//67
f 68//68 67//68 69//68
f 68//68 69//68 70//68
f 70//69 69//69 71//69
f 70//69 71//69 72//69
f 72//70 71//70 73//70
f 72//70 73//70 74//70
f 9//71 11//71 73//71
f 11//71 9//71 13//71
f 13//72 9//72 15//72
f 15//71 9//71 17//71
f 17//73 9//73 19//73
f 19//74 9//74 21//74
f 21//73 9//73 23//73
f 23//75 9//75 25//75
f 25//75 9//75 27//75
f 27//76 9//76 29//76
f 29//73 9//73 31//73
f 31//76 9//76 33//76
f 33//77 9//77 35//77
f 35//71 9//71 37//71
f 37//78 9//78 39//78
f 39//71 9//71 41//71
f 41//78 9//78 43//78
f 43//78 9//78 45//78
f 45//79 9//79 47//79
f 47//73 9//73 49//73
f 49//72 9//72 51//72
f 51//73 9//73 53//73
f 53//73 9//73 55//73
f 55//73 9//73 57//73
f 57//75 9//75 59//75
f 59//73 9//73 61//73
f 61//73 9//73 63//73
f 63//75 9//75 65//75
f 65//78 9//78 67//78
f 67//73 9//73 69//73
f 69//73 9//73 71//73
f 71//73 9//73 73//73
