# Blender v2.64 (sub 0) OBJ File: ''
# www.blender.org
mtllib untitled_000033.mtl
o Cube
v -8.729040 -2.858973 10.487860
v -8.729040 -2.858973 -7.293924
v 9.052744 -2.858973 -7.293924
v 9.052744 -2.858973 10.487860
v -8.729040 14.922812 10.487860
v -8.729040 14.922812 -7.293924
v 9.052744 14.922812 -7.293924
v 9.052744 14.922812 10.487860
vn -1.000000 -0.000000 0.000000
vn 0.000000 0.000000 -1.000000
vn 1.000000 -0.000000 0.000000
vn 0.000000 0.000000 1.000000
vn -0.000000 -1.000000 0.000000
vn -0.000000 1.000000 0.000000
usemtl Material.003
s off
f 2//1 1//1 5//1
f 2//1 5//1 6//1
usemtl Material.005
f 6//2 7//2 3//2
f 6//2 3//2 2//2
usemtl Material.004
f 7//3 8//3 4//3
f 7//3 4//3 3//3
usemtl Material.002
f 1//4 4//4 8//4
f 1//4 8//4 5//4
usemtl Material.001
f 1//5 2//5 3//5
f 1//5 3//5 4//5
f 8//6 7//6 6//6
f 8//6 6//6 5//6
o Diamond
v -2.886326 2.292656 1.386514
v -2.271425 0.784558 0.889036
v -2.463178 2.687551 0.712420
v -1.993936 2.491829 0.111618
v -2.332339 2.703333 0.826298
v -1.775871 2.518132 0.301415
v -2.222790 2.703334 0.961705
v -1.593288 2.518132 0.527094
v -2.138740 2.687551 1.113438
v -1.453205 2.491829 0.779981
v -2.083419 2.656594 1.275664
v -1.361003 2.440233 1.050358
v -2.058953 2.611650 1.442150
v -1.320227 2.365327 1.327835
v -2.066283 2.554448 1.606498
v -1.332444 2.269990 1.601748
v -2.105127 2.487185 1.762393
v -1.397183 2.157885 1.861573
v -2.173992 2.412446 1.903842
v -1.511958 2.033321 2.097322
v -2.270231 2.333104 2.025411
v -1.672357 1.901084 2.299937
v -2.390147 2.252208 2.122428
v -1.872217 1.766256 2.461631
v -2.529130 2.172866 2.191163
v -2.103855 1.634020 2.576190
v -2.681841 2.098127 2.228977
v -2.358373 1.509455 2.639212
v -2.842409 2.030864 2.234415
v -2.625987 1.397350 2.648275
v -3.004666 1.973662 2.207268
v -2.896415 1.302013 2.603032
v -3.162374 1.928718 2.148581
v -3.159262 1.227107 2.505219
v -3.309474 1.897760 2.060608
v -3.404429 1.175510 2.358597
v -3.440314 1.881978 1.946729
v -3.622494 1.149207 2.168800
v -3.549863 1.881978 1.811322
v -3.805077 1.149206 1.943122
v -3.633913 1.897760 1.659590
v -3.945160 1.175510 1.690234
v -3.689234 1.928717 1.497364
v -4.037362 1.227106 1.419858
v -3.713700 1.973661 1.330878
v -4.078137 1.302012 1.142381
v -3.706370 2.030864 1.166529
v -4.065921 1.397349 0.868466
v -3.667526 2.098126 1.010635
v -4.001182 1.509454 0.608643
v -3.598661 2.172865 0.869185
v -3.886407 1.634018 0.372893
v -3.502422 2.252207 0.747617
v -3.726008 1.766255 0.170279
v -3.382506 2.333104 0.650600
v -3.526148 1.901083 0.008584
v -3.243523 2.412446 0.581864
v -3.294509 2.033319 -0.105975
v -3.090812 2.487184 0.544051
v -3.039993 2.157883 -0.168997
v -2.930243 2.554447 0.538613
v -2.772377 2.269989 -0.178061
v -2.767987 2.611650 0.565759
v -2.501951 2.365326 -0.132817
v -2.610278 2.656593 0.624447
v -2.239102 2.440232 -0.035004
vn 0.529149 -0.421378 -0.736507
vn 0.627620 -0.404819 -0.664993
vn 0.712788 -0.399227 -0.576672
vn 0.781379 -0.404819 -0.474941
vn 0.830757 -0.421378 -0.363708
vn 0.859025 -0.448269 -0.247247
vn 0.865096 -0.484459 -0.130035
vn 0.848737 -0.528556 -0.016576
vn 0.810576 -0.578866 0.088771
vn 0.752081 -0.633456 0.181956
vn 0.675499 -0.690227 0.259399
vn 0.583773 -0.746998 0.318124
vn 0.480428 -0.801588 0.355873
vn 0.369436 -0.851898 0.371197
vn 0.255061 -0.895995 0.363506
vn 0.141700 -0.932185 0.333096
vn 0.033709 -0.959076 0.281135
vn -0.064764 -0.975636 0.209620
vn -0.149931 -0.981227 0.121301
vn -0.218522 -0.975636 0.019569
vn -0.267900 -0.959076 -0.091664
vn -0.296168 -0.932185 -0.208124
vn -0.302239 -0.895996 -0.325335
vn -0.285880 -0.851898 -0.438796
vn -0.247719 -0.801588 -0.544142
vn -0.189224 -0.746999 -0.637328
vn -0.112642 -0.690227 -0.714771
vn -0.020916 -0.633456 -0.773496
vn 0.082429 -0.578867 -0.811245
vn 0.193421 -0.528557 -0.826569
vn 0.307796 -0.484459 -0.818878
vn 0.421156 -0.448270 -0.788468
vn -0.010103 0.948420 -0.316856
vn 0.093677 0.965872 -0.241487
vn 0.183435 0.971765 -0.148407
vn 0.255723 0.965872 -0.041192
vn 0.307763 0.948420 0.076037
vn 0.337554 0.920079 0.198775
vn 0.343952 0.881939 0.322305
vn 0.326712 0.835465 0.441879
vn 0.286494 0.782444 0.552904
vn 0.224846 0.724911 0.651113
vn 0.144137 0.665080 0.732729
vn 0.047466 0.605248 0.794620
vn -0.061449 0.547717 0.834404
vn -0.178424 0.494695 0.850554
vn -0.298963 0.448221 0.842448
vn -0.418434 0.410081 0.810399
vn -0.532247 0.381740 0.755637
vn -0.636027 0.364287 0.680268
vn -0.725785 0.358395 0.587188
vn -0.798073 0.364287 0.479973
vn -0.850113 0.381739 0.362744
vn -0.879904 0.410080 0.240007
vn -0.886302 0.448220 0.116477
vn -0.869061 0.494695 -0.003099
vn -0.828844 0.547716 -0.114123
vn -0.767196 0.605248 -0.212332
vn -0.686487 0.665079 -0.293949
vn -0.589816 0.724911 -0.355839
vn -0.480901 0.782443 -0.395623
vn -0.363926 0.835465 -0.411773
vn -0.243387 0.881939 -0.403667
vn -0.123915 0.920079 -0.371618
vn -0.361086 0.885593 0.292131
vn -0.361086 0.885594 0.292132
vn -0.361086 0.885594 0.292131
vn -0.361086 0.885593 0.292133
vn -0.361085 0.885594 0.292131
vn -0.361087 0.885593 0.292133
vn -0.361085 0.885594 0.292132
vn -0.361087 0.885593 0.292132
vn -0.361086 0.885593 0.292132
usemtl Material
s off
f 12//7 10//7 74//7
f 10//8 12//8 14//8
f 10//9 14//9 16//9
f 10//10 16//10 18//10
f 10//11 18//11 20//11
f 10//12 20//12 22//12
f 10//13 22//13 24//13
f 10//14 24//14 26//14
f 10//15 26//15 28//15
f 10//16 28//16 30//16
f 10//17 30//17 32//17
f 10//18 32//18 34//18
f 10//19 34//19 36//19
f 10//20 36//20 38//20
f 10//21 38//21 40//21
f 10//22 40//22 42//22
f 10//23 42//23 44//23
f 10//24 44//24 46//24
f 10//25 46//25 48//25
f 10//26 48//26 50//26
f 10//27 50//27 52//27
f 10//28 52//28 54//28
f 10//29 54//29 56//29
f 10//30 56//30 58//30
f 10//31 58//31 60//31
f 10//32 60//32 62//32
f 10//33 62//33 64//33
f 10//34 64//34 66//34
f 10//35 66//35 68//35
f 10//36 68//36 70//36
f 10//37 70//37 72//37
f 10//38 72//38 74//38
f 11//39 12//39 74//39
f 11//39 74//39 73//39
f 12//40 11//40 13//40
f 12//40 13//40 14//40
f 14//41 13//41 15//41
f 14//41 15//41 16//41
f 16//42 15//42 17//42
f 16//42 17//42 18//42
f 18//43 17//43 19//43
f 18//43 19//43 20//43
f 20//44 19//44 21//44
f 20//44 21//44 22//44
f 22//45 21//45 23//45
f 22//45 23//45 24//45
f 24//46 23//46 25//46
f 24//46 25//46 26//46
f 26//47 25//47 27//47
f 26//47 27//47 28//47
f 28//48 27//48 29//48
f 28//48 29//48 30//48
f 30//49 29//49 31//49
f 30//49 31//49 32//49
f 32//50 31//50 33//50
f 32//50 33//50 34//50
f 34//51 33//51 35//51
f 34//51 35//51 36//51
f 36//52 35//52 37//52
f 36//52 37//52 38//52
f 38//53 37//53 39//53
f 38//53 39//53 40//53
f 40//54 39//54 41//54
f 40//54 41//54 42//54
f 42//55 41//55 43//55
f 42//55 43//55 44//55
f 44//56 43//56 45//56
f 44//56 45//56 46//56
f 46//57 45//57 47//57
f 46//57 47//57 48//57
f 48//58 47//58 49//58
f 48//58 49//58 50//58
f 50//59 49//59 51//59
f 50//59 51//59 52//59
f 52//60 51//60 53//60
f 52//60 53//60 54//60
f 54//61 53//61 55//61
f 54//61 55//61 56//61
f 56//62 55//62 57//62
f 56//62 57//62 58//62
f 58//63 57//63 59//63
f 58//63 59//63 60//63
f 60//64 59//64 61//64
f 60//64 61//64 62//64
f 62//65 61//65 63//65
f 62//65 63//65 64//65
f 64//66 63//66 65//66
f 64//66 65//66 66//66
f 66//67 65//67 67//67
f 66//67 67//67 68//67
f 68//68 67//68 69//68
f 68//68 69//68 70//68
f 70//69 69//69 71//69
f 70//69 71//69 72//69
f 72//70 71//70 73//70
f 72//70 73//70 74//70
f 9//71 11//71 73//71
f 11//72 9//72 13//72
f 13//73 9//73 15//73
f 15//72 9//72 17//72
f 17//72 9//72 19//72
f 19//74 9//74 21//74
f 21//72 9//72 23//72
f 23//75 9//75 25//75
f 25//73 9//73 27//73
f 27//76 9//76 29//76
f 29//77 9//77 31//77
f 31//72 9//72 33//72
f 33//72 9//72 35//72
f 35//77 9//77 37//77
f 37//78 9//78 39//78
f 39//77 9//77 41//77
f 41//72 9//72 43//72
f 43//72 9//72 45//72
f 45//72 9//72 47//72
f 47//72 9//72 49//72
f 49//73 9//73 51//73
f 51//72 9//72 53//72
f 53//79 9//79 55//79
f 55//73 9//73 57//73
f 57//73 9//73 59//73
f 59//79 9//79 61//79
f 61//79 9//79 63//79
f 63//72 9//72 65//72
f 65//72 9//72 67//72
f 67//72 9//72 69//72
f 69//72 9//72 71//72
f 71//72 9//72 73//72
