# Blender v2.64 (sub 0) OBJ File: ''
# www.blender.org
mtllib untitled_000051.mtl
o Cube
v -8.729040 -2.858973 10.487860
v -8.729040 -2.858973 -7.293924
v 9.052744 -2.858973 -7.293924
v 9.052744 -2.858973 10.487860
v -8.729040 14.922812 10.487860
v -8.729040 14.922812 -7.293924
v 9.052744 14.922812 -7.293924
v 9.052744 14.922812 10.487860
vn -1.000000 -0.000000 0.000000
vn 0.000000 0.000000 -1.000000
vn 1.000000 -0.000000 0.000000
vn 0.000000 0.000000 1.000000
vn -0.000000 -1.000000 0.000000
vn -0.000000 1.000000 0.000000
usemtl Material.003
s off
f 2//1 1//1 5//1
f 2//1 5//1 6//1
usemtl Material.005
f 6//2 7//2 3//2
f 6//2 3//2 2//2
usemtl Material.004
f 7//3 8//3 4//3
f 7//3 4//3 3//3
usemtl Material.002
f 1//4 4//4 8//4
f 1//4 8//4 5//4
usemtl Material.001
f 1//5 2//5 3//5
f 1//5 3//5 4//5
f 8//6 7//6 6//6
f 8//6 6//6 5//6
o Diamond
v -2.365575 2.223221 -1.339934
v -3.370032 0.943265 -1.842652
v -1.772454 2.002726 -1.963624
v -1.682745 1.466177 -2.532418
v -1.705095 1.901034 -1.839295
v -1.570480 1.296690 -2.325203
v -1.663118 1.811723 -1.695776
v -1.500518 1.147839 -2.086005
v -1.648136 1.738226 -1.538582
v -1.475548 1.025344 -1.824015
v -1.660725 1.683367 -1.373755
v -1.496529 0.933913 -1.549302
v -1.700401 1.649255 -1.207627
v -1.562656 0.877059 -1.272423
v -1.765639 1.637200 -1.046584
v -1.671386 0.856966 -1.004019
v -1.853932 1.647665 -0.896815
v -1.818541 0.874408 -0.754402
v -1.961887 1.680248 -0.764074
v -1.998466 0.928714 -0.533167
v -2.085356 1.733698 -0.653463
v -2.204248 1.017797 -0.348816
v -2.219594 1.805959 -0.569233
v -2.427977 1.138233 -0.208432
v -2.359441 1.894256 -0.514620
v -2.661056 1.285394 -0.117412
v -2.499525 1.995195 -0.491724
v -2.894529 1.453626 -0.079251
v -2.634460 2.104897 -0.501424
v -3.119421 1.636462 -0.095418
v -2.759063 2.219146 -0.543348
v -3.327092 1.826877 -0.165291
v -2.868544 2.333551 -0.615884
v -3.509560 2.017552 -0.286184
v -2.958696 2.443717 -0.716245
v -3.659814 2.201162 -0.453452
v -3.026055 2.545409 -0.840574
v -3.772079 2.370648 -0.660667
v -3.068032 2.634719 -0.984092
v -3.842040 2.519499 -0.899865
v -3.083014 2.708216 -1.141287
v -3.867010 2.641994 -1.161856
v -3.070425 2.763075 -1.306114
v -3.846029 2.733426 -1.436568
v -3.030749 2.797188 -1.472241
v -3.779903 2.790280 -1.713447
v -2.965511 2.809243 -1.633285
v -3.671173 2.810372 -1.981853
v -2.877218 2.798778 -1.783054
v -3.524018 2.792931 -2.231468
v -2.769263 2.766195 -1.915795
v -3.344092 2.738625 -2.452704
v -2.645794 2.712745 -2.026406
v -3.138311 2.649542 -2.637055
v -2.511556 2.640483 -2.110636
v -2.914581 2.529106 -2.777439
v -2.371709 2.552186 -2.165249
v -2.681502 2.381945 -2.868459
v -2.231626 2.451248 -2.188145
v -2.448031 2.213714 -2.906619
v -2.096690 2.341546 -2.178445
v -2.223137 2.030877 -2.890453
v -1.972088 2.227297 -2.136521
v -2.015467 1.840463 -2.820580
v -1.862607 2.112891 -2.063985
v -1.832998 1.649786 -2.699686
vn -0.071384 -0.703020 -0.707578
vn -0.015580 -0.778080 -0.627973
vn 0.023157 -0.845751 -0.533076
vn 0.043337 -0.903432 -0.426536
vn 0.044185 -0.948908 -0.312445
vn 0.025669 -0.980429 -0.195191
vn -0.011502 -0.996786 -0.079276
vn -0.065896 -0.997350 0.030841
vn -0.135426 -0.982098 0.130933
vn -0.217418 -0.951617 0.217151
vn -0.308721 -0.907079 0.286181
vn -0.405827 -0.850194 0.335372
vn -0.505005 -0.783149 0.362833
vn -0.602442 -0.708521 0.367508
vn -0.694394 -0.629177 0.349218
vn -0.777328 -0.548166 0.308666
vn -0.848057 -0.468602 0.247410
vn -0.903862 -0.393543 0.167804
vn -0.942599 -0.325872 0.072907
vn -0.962779 -0.268191 -0.033633
vn -0.963627 -0.222715 -0.147722
vn -0.945110 -0.191193 -0.264977
vn -0.907940 -0.174836 -0.380891
vn -0.853545 -0.174273 -0.491010
vn -0.784015 -0.189525 -0.591101
vn -0.702023 -0.220006 -0.677319
vn -0.610720 -0.264544 -0.746350
vn -0.513614 -0.321429 -0.795540
vn -0.414436 -0.388474 -0.823001
vn -0.317000 -0.463102 -0.827676
vn -0.225047 -0.542446 -0.809386
vn -0.142113 -0.623456 -0.768834
vn 0.852239 0.440942 -0.281530
vn 0.911052 0.361836 -0.197633
vn 0.951877 0.290518 -0.097622
vn 0.973145 0.229727 0.014661
vn 0.974038 0.181801 0.134900
vn 0.954523 0.148580 0.258475
vn 0.915349 0.131341 0.380637
vn 0.858023 0.130747 0.496691
vn 0.784746 0.146821 0.602178
vn 0.698335 0.178945 0.693042
vn 0.602109 0.225885 0.765794
vn 0.499769 0.285835 0.817636
vn 0.395246 0.356494 0.846577
vn 0.292557 0.435145 0.851504
vn 0.195649 0.518765 0.832229
vn 0.108244 0.604142 0.789491
vn 0.033704 0.687995 0.724933
vn -0.025109 0.767100 0.641036
vn -0.065934 0.838418 0.541025
vn -0.087202 0.899209 0.428742
vn -0.088096 0.947136 0.308502
vn -0.068581 0.980356 0.184928
vn -0.029407 0.997595 0.062766
vn 0.027920 0.998189 -0.053289
vn 0.101197 0.982115 -0.158775
vn 0.187608 0.949991 -0.249640
vn 0.283833 0.903052 -0.322392
vn 0.386173 0.843101 -0.374233
vn 0.490696 0.772443 -0.403175
vn 0.593385 0.693792 -0.408102
vn 0.690294 0.610171 -0.388826
vn 0.777698 0.524794 -0.346088
vn 0.589843 0.751623 0.295208
vn 0.589843 0.751623 0.295209
vn 0.589843 0.751624 0.295208
vn 0.589842 0.751623 0.295209
vn 0.589842 0.751624 0.295209
vn 0.589842 0.751624 0.295208
usemtl Material
s off
f 12//7 10//7 74//7
f 10//8 12//8 14//8
f 10//9 14//9 16//9
f 10//10 16//10 18//10
f 10//11 18//11 20//11
f 10//12 20//12 22//12
f 10//13 22//13 24//13
f 10//14 24//14 26//14
f 10//15 26//15 28//15
f 10//16 28//16 30//16
f 10//17 30//17 32//17
f 10//18 32//18 34//18
f 10//19 34//19 36//19
f 10//20 36//20 38//20
f 10//21 38//21 40//21
f 10//22 40//22 42//22
f 10//23 42//23 44//23
f 10//24 44//24 46//24
f 10//25 46//25 48//25
f 10//26 48//26 50//26
f 10//27 50//27 52//27
f 10//28 52//28 54//28
f 10//29 54//29 56//29
f 10//30 56//30 58//30
f 10//31 58//31 60//31
f 10//32 60//32 62//32
f 10//33 62//33 64//33
f 10//34 64//34 66//34
f 10//35 66//35 68//35
f 10//36 68//36 70//36
f 10//37 70//37 72//37
f 10//38 72//38 74//38
f 11//39 12//39 74//39
f 11//39 74//39 73//39
f 12//40 11//40 13//40
f 12//40 13//40 14//40
f 14//41 13//41 15//41
f 14//41 15//41 16//41
f 16//42 15//42 17//42
f 16//42 17//42 18//42
f 18//43 17//43 19//43
f 18//43 19//43 20//43
f 20//44 19//44 21//44
f 20//44 21//44 22//44
f 22//45 21//45 23//45
f 22//45 23//45 24//45
f 24//46 23//46 25//46
f 24//46 25//46 26//46
f 26//47 25//47 27//47
f 26//47 27//47 28//47
f 28//48 27//48 29//48
f 28//48 29//48 30//48
f 30//49 29//49 31//49
f 30//49 31//49 32//49
f 32//50 31//50 33//50
f 32//50 33//50 34//50
f 34//51 33//51 35//51
f 34//51 35//51 36//51
f 36//52 35//52 37//52
f 36//52 37//52 38//52
f 38//53 37//53 39//53
f 38//53 39//53 40//53
f 40//54 39//54 41//54
f 40//54 41//54 42//54
f 42//55 41//55 43//55
f 42//55 43//55 44//55
f 44//56 43//56 45//56
f 44//56 45//56 46//56
f 46//57 45//57 47//57
f 46//57 47//57 48//57
f 48//58 47//58 49//58
f 48//58 49//58 50//58
f 50//59 49//59 51//59
f 50//59 51//59 52//59
f 52//60 51//60 53//60
f 52//60 53//60 54//60
f 54//61 53//61 55//61
f 54//61 55//61 56//61
f 56//62 55//62 57//62
f 56//62 57//62 58//62
f 58//63 57//63 59//63
f 58//63 59//63 60//63
f 60//64 59//64 61//64
f 60//64 61//64 62//64
f 62//65 61//65 63//65
f 62//65 63//65 64//65
f 64//66 63//66 65//66
f 64//66 65//66 66//66
f 66//67 65//67 67//67
f 66//67 67//67 68//67
f 68//68 67//68 69//68
f 68//68 69//68 70//68
f 70//69 69//69 71//69
f 70//69 71//69 72//69
f 72//70 71//70 73//70
f 72//70 73//70 74//70
f 9//71 11//71 73//71
f 11//72 9//72 13//72
f 13//73 9//73 15//73
f 15//72 9//72 17//72
f 17//72 9//72 19//72
f 19//72 9//72 21//72
f 21//72 9//72 23//72
f 23//71 9//71 25//71
f 25//74 9//74 27//74
f 27//71 9//71 29//71
f 29//72 9//72 31//72
f 31//71 9//71 33//71
f 33//72 9//72 35//72
f 35//75 9//75 37//75
f 37//72 9//72 39//72
f 39//72 9//72 41//72
f 41//71 9//71 43//71
f 43//72 9//72 45//72
f 45//72 9//72 47//72
f 47//72 9//72 49//72
f 49//71 9//71 51//71
f 51//72 9//72 53//72
f 53//72 9//72 55//72
f 55//71 9//71 57//71
f 57//72 9//72 59//72
f 59//72 9//72 61//72
f 61//71 9//71 63//71
f 63//72 9//72 65//72
f 65//72 9//72 67//72
f 67//72 9//72 69//72
f 69//76 9//76 71//76
f 71//72 9//72 73//72
