# Blender v2.64 (sub 0) OBJ File: ''
# www.blender.org
mtllib untitled_000093.mtl
o Cube
v -8.729040 -2.858973 10.487860
v -8.729040 -2.858973 -7.293924
v 9.052744 -2.858973 -7.293924
v 9.052744 -2.858973 10.487860
v -8.729040 14.922812 10.487860
v -8.729040 14.922812 -7.293924
v 9.052744 14.922812 -7.293924
v 9.052744 14.922812 10.487860
vn -1.000000 -0.000000 0.000000
vn 0.000000 0.000000 -1.000000
vn 1.000000 -0.000000 0.000000
vn 0.000000 0.000000 1.000000
vn -0.000000 -1.000000 0.000000
vn -0.000000 1.000000 0.000000
usemtl Material.003
s off
f 2//1 1//1 5//1
f 2//1 5//1 6//1
usemtl Material.005
f 6//2 7//2 3//2
f 6//2 3//2 2//2
usemtl Material.004
f 7//3 8//3 4//3
f 7//3 4//3 3//3
usemtl Material.002
f 1//4 4//4 8//4
f 1//4 8//4 5//4
usemtl Material.001
f 1//5 2//5 3//5
f 1//5 3//5 4//5
f 8//6 7//6 6//6
f 8//6 6//6 5//6
o Diamond
v 1.176569 6.930882 4.995737
v 1.378546 5.310903 4.511158
v 0.496603 7.015296 4.430122
v 0.104764 6.578534 3.905565
v 0.619326 7.064509 4.316750
v 0.309302 6.660557 3.716611
v 0.763464 7.108588 4.229470
v 0.549531 6.734020 3.571146
v 0.923477 7.145837 4.171638
v 0.816220 6.796103 3.474759
v 1.093216 7.174826 4.145476
v 1.099118 6.844417 3.431155
v 1.266158 7.194440 4.151989
v 1.387356 6.877107 3.442009
v 1.435658 7.203926 4.190926
v 1.669854 6.892917 3.506905
v 1.595200 7.202919 4.260792
v 1.935759 6.891238 3.623348
v 1.738656 7.191457 4.358902
v 2.174851 6.872136 3.786864
v 1.860510 7.169982 4.481484
v 2.377942 6.836344 3.991168
v 1.956081 7.139318 4.623829
v 2.537227 6.785238 4.228410
v 2.021696 7.100645 4.780466
v 2.646584 6.720782 4.489471
v 2.054833 7.055447 4.945376
v 2.701813 6.645453 4.764322
v 2.054219 7.005463 5.112221
v 2.700789 6.562146 5.042397
v 2.019877 6.952612 5.274590
v 2.643553 6.474062 5.313012
v 1.953127 6.898927 5.426243
v 2.532304 6.384586 5.565767
v 1.856535 6.846469 5.561351
v 2.371317 6.297157 5.790947
v 1.733812 6.797256 5.674724
v 2.166779 6.215134 5.979901
v 1.589675 6.753178 5.762003
v 1.926550 6.141670 6.125366
v 1.429662 6.715928 5.819835
v 1.659861 6.079588 6.221753
v 1.259923 6.686939 5.845997
v 1.376963 6.031273 6.265357
v 1.086981 6.667325 5.839485
v 1.088727 5.998583 6.254503
v 0.917481 6.657840 5.800547
v 0.806227 5.982774 6.189607
v 0.757938 6.658847 5.730681
v 0.540322 5.984452 6.073164
v 0.614483 6.670308 5.632572
v 0.301230 6.003554 5.909648
v 0.492629 6.691783 5.509990
v 0.098140 6.039346 5.705344
v 0.397057 6.722447 5.367644
v -0.061146 6.090452 5.468102
v 0.331443 6.761120 5.211007
v -0.170504 6.154908 5.207040
v 0.298306 6.806318 5.046098
v -0.225732 6.230237 4.932191
v 0.298920 6.856302 4.879252
v -0.224709 6.313545 4.654115
v 0.333261 6.909153 4.716883
v -0.167472 6.401628 4.383501
v 0.400011 6.962838 4.565230
v -0.056223 6.491105 4.130745
vn -0.423594 -0.700205 -0.574701
vn -0.345893 -0.664184 -0.662735
vn -0.251347 -0.631131 -0.733824
vn -0.143588 -0.602317 -0.785237
vn -0.026759 -0.578850 -0.814995
vn 0.094650 -0.561630 -0.821957
vn 0.215975 -0.551320 -0.805854
vn 0.332552 -0.548316 -0.767306
vn 0.439901 -0.552734 -0.707794
vn 0.533899 -0.564403 -0.629604
vn 0.610931 -0.582875 -0.535742
vn 0.668038 -0.607441 -0.429816
vn 0.703025 -0.637156 -0.315893
vn 0.714547 -0.670878 -0.198355
vn 0.702163 -0.707312 -0.081716
vn 0.666347 -0.745056 0.029538
vn 0.608476 -0.782662 0.131136
vn 0.530775 -0.818683 0.219171
vn 0.436228 -0.851736 0.290260
vn 0.328470 -0.880550 0.341672
vn 0.211642 -0.904017 0.371430
vn 0.090232 -0.921237 0.378392
vn -0.031093 -0.931547 0.362289
vn -0.147670 -0.934551 0.323741
vn -0.255019 -0.930133 0.264229
vn -0.349017 -0.918464 0.186039
vn -0.426049 -0.899992 0.092178
vn -0.483156 -0.875426 -0.013750
vn -0.518143 -0.845712 -0.127671
vn -0.529666 -0.811989 -0.245210
vn -0.517281 -0.775556 -0.361848
vn -0.481465 -0.737811 -0.473103
vn -0.632924 0.757871 -0.158238
vn -0.551033 0.795835 -0.251019
vn -0.451390 0.830669 -0.325940
vn -0.337824 0.861035 -0.380123
vn -0.214699 0.885768 -0.411485
vn -0.086745 0.903916 -0.418822
vn 0.041120 0.914781 -0.401852
vn 0.163980 0.917947 -0.361226
vn 0.277117 0.913291 -0.298505
vn 0.376180 0.900993 -0.216102
vn 0.457364 0.881525 -0.117181
vn 0.517549 0.855635 -0.005544
vn 0.554422 0.824319 0.114519
vn 0.566566 0.788779 0.238392
vn 0.553514 0.750382 0.361316
vn 0.515767 0.710602 0.478570
vn 0.454777 0.670970 0.585642
vn 0.372887 0.633007 0.678423
vn 0.273245 0.598173 0.753344
vn 0.159678 0.567805 0.807527
vn 0.036552 0.543073 0.838890
vn -0.091400 0.524925 0.846226
vn -0.219265 0.514060 0.829256
vn -0.342127 0.510894 0.788630
vn -0.455262 0.515549 0.725910
vn -0.554326 0.527847 0.643506
vn -0.635510 0.547316 0.544585
vn -0.695695 0.573205 0.432948
vn -0.732568 0.604522 0.312886
vn -0.744712 0.640062 0.189013
vn -0.731659 0.678460 0.066086
vn -0.693913 0.718239 -0.051165
vn -0.118607 0.951293 0.284559
vn -0.118605 0.951294 0.284557
vn -0.118606 0.951294 0.284557
vn -0.118607 0.951294 0.284557
vn -0.118605 0.951294 0.284558
vn -0.118607 0.951294 0.284556
vn -0.118606 0.951293 0.284559
vn -0.118606 0.951294 0.284555
vn -0.118606 0.951294 0.284558
vn -0.118606 0.951294 0.284556
vn -0.118607 0.951293 0.284558
vn -0.118604 0.951294 0.284556
vn -0.118607 0.951293 0.284557
vn -0.118604 0.951294 0.284557
vn -0.118605 0.951293 0.284559
vn -0.118605 0.951293 0.284558
usemtl Material
s off
f 12//7 10//7 74//7
f 10//8 12//8 14//8
f 10//9 14//9 16//9
f 10//10 16//10 18//10
f 10//11 18//11 20//11
f 10//12 20//12 22//12
f 10//13 22//13 24//13
f 10//14 24//14 26//14
f 10//15 26//15 28//15
f 10//16 28//16 30//16
f 10//17 30//17 32//17
f 10//18 32//18 34//18
f 10//19 34//19 36//19
f 10//20 36//20 38//20
f 10//21 38//21 40//21
f 10//22 40//22 42//22
f 10//23 42//23 44//23
f 10//24 44//24 46//24
f 10//25 46//25 48//25
f 10//26 48//26 50//26
f 10//27 50//27 52//27
f 10//28 52//28 54//28
f 10//29 54//29 56//29
f 10//30 56//30 58//30
f 10//31 58//31 60//31
f 10//32 60//32 62//32
f 10//33 62//33 64//33
f 10//34 64//34 66//34
f 10//35 66//35 68//35
f 10//36 68//36 70//36
f 10//37 70//37 72//37
f 10//38 72//38 74//38
f 11//39 12//39 74//39
f 11//39 74//39 73//39
f 12//40 11//40 13//40
f 12//40 13//40 14//40
f 14//41 13//41 15//41
f 14//41 15//41 16//41
f 16//42 15//42 17//42
f 16//42 17//42 18//42
f 18//43 17//43 19//43
f 18//43 19//43 20//43
f 20//44 19//44 21//44
f 20//44 21//44 22//44
f 22//45 21//45 23//45
f 22//45 23//45 24//45
f 24//46 23//46 25//46
f 24//46 25//46 26//46
f 26//47 25//47 27//47
f 26//47 27//47 28//47
f 28//48 27//48 29//48
f 28//48 29//48 30//48
f 30//49 29//49 31//49
f 30//49 31//49 32//49
f 32//50 31//50 33//50
f 32//50 33//50 34//50
f 34//51 33//51 35//51
f 34//51 35//51 36//51
f 36//52 35//52 37//52
f 36//52 37//52 38//52
f 38//53 37//53 39//53
f 38//53 39//53 40//53
f 40//54 39//54 41//54
f 40//54 41//54 42//54
f 42//55 41//55 43//55
f 42//55 43//55 44//55
f 44//56 43//56 45//56
f 44//56 45//56 46//56
f 46//57 45//57 47//57
f 46//57 47//57 48//57
f 48//58 47//58 49//58
f 48//58 49//58 50//58
f 50//59 49//59 51//59
f 50//59 51//59 52//59
f 52//60 51//60 53//60
f 52//60 53//60 54//60
f 54//61 53//61 55//61
f 54//61 55//61 56//61
f 56//62 55//62 57//62
f 56//62 57//62 58//62
f 58//63 57//63 59//63
f 58//63 59//63 60//63
f 60//64 59//64 61//64
f 60//64 61//64 62//64
f 62//65 61//65 63//65
f 62//65 63//65 64//65
f 64//66 63//66 65//66
f 64//66 65//66 66//66
f 66//67 65//67 67//67
f 66//67 67//67 68//67
f 68//68 67//68 69//68
f 68//68 69//68 70//68
f 70//69 69//69 71//69
f 70//69 71//69 72//69
f 72//70 71//70 73//70
f 72//70 73//70 74//70
f 9//71 11//71 73//71
f 11//72 9//72 13//72
f 13//73 9//73 15//73
f 15//72 9//72 17//72
f 17//73 9//73 19//73
f 19//74 9//74 21//74
f 21//73 9//73 23//73
f 23//73 9//73 25//73
f 25//75 9//75 27//75
f 27//76 9//76 29//76
f 29//73 9//73 31//73
f 31//76 9//76 33//76
f 33//77 9//77 35//77
f 35//78 9//78 37//78
f 37//79 9//79 39//79
f 39//79 9//79 41//79
f 41//80 9//80 43//80
f 43//81 9//81 45//81
f 45//82 9//82 47//82
f 47//74 9//74 49//74
f 49//83 9//83 51//83
f 51//84 9//84 53//84
f 53//73 9//73 55//73
f 55//73 9//73 57//73
f 57//73 9//73 59//73
f 59//76 9//76 61//76
f 61//85 9//85 63//85
f 63//80 9//80 65//80
f 65//86 9//86 67//86
f 67//73 9//73 69//73
f 69//80 9//80 71//80
f 71//73 9//73 73//73
