# Blender v2.64 (sub 0) OBJ File: ''
# www.blender.org
mtllib untitled_000098.mtl
o Cube
v -8.729040 -2.858973 10.487860
v -8.729040 -2.858973 -7.293924
v 9.052744 -2.858973 -7.293924
v 9.052744 -2.858973 10.487860
v -8.729040 14.922812 10.487860
v -8.729040 14.922812 -7.293924
v 9.052744 14.922812 -7.293924
v 9.052744 14.922812 10.487860
vn -1.000000 -0.000000 0.000000
vn 0.000000 0.000000 -1.000000
vn 1.000000 -0.000000 0.000000
vn 0.000000 0.000000 1.000000
vn -0.000000 -1.000000 0.000000
vn -0.000000 1.000000 0.000000
usemtl Material.003
s off
f 2//1 1//1 5//1
f 2//1 5//1 6//1
usemtl Material.005
f 6//2 7//2 3//2
f 6//2 3//2 2//2
usemtl Material.004
f 7//3 8//3 4//3
f 7//3 4//3 3//3
usemtl Material.002
f 1//4 4//4 8//4
f 1//4 8//4 5//4
usemtl Material.001
f 1//5 2//5 3//5
f 1//5 3//5 4//5
f 8//6 7//6 6//6
f 8//6 6//6 5//6
o Diamond
v 0.481859 7.842575 6.277973
v 0.516369 6.210811 5.792068
v -0.191356 7.994925 5.718535
v -0.629663 7.599869 5.197694
v -0.065359 8.031685 5.604038
v -0.419669 7.661135 5.006864
v 0.081666 8.061177 5.515439
v -0.174626 7.710289 4.859199
v 0.244071 8.082269 5.456143
v 0.096049 7.745441 4.760374
v 0.415615 8.094149 5.428431
v 0.381955 7.765242 4.714186
v 0.589704 8.096361 5.433365
v 0.672103 7.768929 4.722410
v 0.759648 8.088820 5.470758
v 0.955343 7.756361 4.784731
v 0.918917 8.071817 5.539171
v 1.220792 7.728022 4.898753
v 1.061390 8.046003 5.635976
v 1.458247 7.684999 5.060094
v 1.181593 8.012373 5.757452
v 1.658584 7.628948 5.262556
v 1.274905 7.972217 5.898932
v 1.814104 7.562021 5.498355
v 1.337740 7.927078 6.054978
v 1.918830 7.486790 5.758431
v 1.367685 7.878692 6.219594
v 1.968738 7.406147 6.032792
v 1.363587 7.828919 6.386453
v 1.961909 7.323191 6.310890
v 1.325606 7.779670 6.549144
v 1.898607 7.241109 6.582040
v 1.255200 7.732838 6.701413
v 1.781263 7.163057 6.835823
v 1.155074 7.690224 6.837410
v 1.614387 7.092033 7.062484
v 1.029078 7.653464 6.951908
v 1.404393 7.030767 7.253314
v 0.882052 7.623972 7.040506
v 1.159350 6.981613 7.400978
v 0.719647 7.602880 7.099802
v 0.888674 6.946461 7.499804
v 0.548104 7.591001 7.127514
v 0.602770 6.926661 7.545992
v 0.374015 7.588788 7.122580
v 0.312622 6.922974 7.537767
v 0.204070 7.596329 7.085187
v 0.029381 6.935541 7.475447
v 0.044802 7.613332 7.016774
v -0.236067 6.963881 7.361425
v -0.097672 7.639146 6.919969
v -0.473523 7.006903 7.200083
v -0.217874 7.672777 6.798493
v -0.673860 7.062954 6.997622
v -0.311186 7.712933 6.657012
v -0.829380 7.129882 6.761822
v -0.374022 7.758071 6.500967
v -0.934106 7.205112 6.501746
v -0.403966 7.806457 6.336351
v -0.984014 7.285755 6.227387
v -0.399869 7.856231 6.169492
v -0.977185 7.368711 5.949287
v -0.361888 7.905479 6.006802
v -0.913883 7.450792 5.678138
v -0.291481 7.952311 5.854532
v -0.796539 7.528845 5.424355
vn -0.496709 -0.653971 -0.570615
vn -0.416597 -0.625850 -0.659363
vn -0.319866 -0.602377 -0.731319
vn -0.210238 -0.584456 -0.783717
vn -0.091922 -0.572774 -0.814543
vn 0.030533 -0.567781 -0.822613
vn 0.152421 -0.569669 -0.807617
vn 0.269059 -0.578365 -0.770131
vn 0.375963 -0.593534 -0.711596
vn 0.469028 -0.614595 -0.634259
vn 0.544675 -0.640738 -0.541096
vn 0.599996 -0.670956 -0.435686
vn 0.632868 -0.704092 -0.322077
vn 0.642025 -0.738869 -0.204638
vn 0.627117 -0.773951 -0.087882
vn 0.588716 -0.807992 0.023707
vn 0.528298 -0.839682 0.125837
vn 0.448184 -0.867804 0.214586
vn 0.351455 -0.891276 0.286541
vn 0.241826 -0.909198 0.338939
vn 0.123511 -0.920879 0.369765
vn 0.001055 -0.925872 0.377835
vn -0.120832 -0.923985 0.362839
vn -0.237470 -0.915289 0.325353
vn -0.344375 -0.900119 0.266818
vn -0.437440 -0.879058 0.189482
vn -0.513086 -0.852916 0.096318
vn -0.568408 -0.822697 -0.009092
vn -0.601279 -0.789562 -0.122701
vn -0.610437 -0.754785 -0.240140
vn -0.595528 -0.719702 -0.356897
vn -0.557127 -0.685661 -0.468484
vn -0.555347 0.817478 -0.152709
vn -0.470915 0.847115 -0.246241
vn -0.368972 0.871853 -0.322075
vn -0.253434 0.890740 -0.377297
vn -0.128740 0.903052 -0.409785
vn 0.000313 0.908314 -0.418290
vn 0.128773 0.906324 -0.402485
vn 0.251696 0.897159 -0.362980
vn 0.364365 0.881172 -0.301288
vn 0.462444 0.858976 -0.219785
vn 0.542168 0.831425 -0.121599
vn 0.600472 0.799576 -0.010506
vn 0.635115 0.764656 0.109225
vn 0.644766 0.728004 0.232994
vn 0.629055 0.691030 0.356045
vn 0.588584 0.655155 0.473647
vn 0.524909 0.621757 0.581282
vn 0.440478 0.592119 0.674814
vn 0.338534 0.567381 0.750649
vn 0.222997 0.548494 0.805870
vn 0.098303 0.536183 0.838358
vn -0.030751 0.530921 0.846863
vn -0.159210 0.532910 0.831059
vn -0.282135 0.542075 0.791552
vn -0.394802 0.558062 0.729861
vn -0.492882 0.580258 0.648358
vn -0.572606 0.607810 0.550172
vn -0.630910 0.639658 0.439080
vn -0.665553 0.674578 0.319348
vn -0.675204 0.711230 0.195578
vn -0.659492 0.748204 0.072529
vn -0.619021 0.784079 -0.045073
vn -0.020265 0.958213 0.285336
vn -0.020264 0.958214 0.285334
vn -0.020266 0.958213 0.285336
vn -0.020264 0.958214 0.285335
vn -0.020263 0.958214 0.285335
vn -0.020266 0.958214 0.285335
vn -0.020268 0.958214 0.285334
vn -0.020262 0.958213 0.285338
vn -0.020267 0.958214 0.285333
vn -0.020265 0.958213 0.285337
vn -0.020265 0.958214 0.285333
vn -0.020265 0.958214 0.285335
vn -0.020264 0.958213 0.285335
vn -0.020264 0.958213 0.285336
vn -0.020264 0.958213 0.285337
usemtl Material
s off
f 12//7 10//7 74//7
f 10//8 12//8 14//8
f 10//9 14//9 16//9
f 10//10 16//10 18//10
f 10//11 18//11 20//11
f 10//12 20//12 22//12
f 10//13 22//13 24//13
f 10//14 24//14 26//14
f 10//15 26//15 28//15
f 10//16 28//16 30//16
f 10//17 30//17 32//17
f 10//18 32//18 34//18
f 10//19 34//19 36//19
f 10//20 36//20 38//20
f 10//21 38//21 40//21
f 10//22 40//22 42//22
f 10//23 42//23 44//23
f 10//24 44//24 46//24
f 10//25 46//25 48//25
f 10//26 48//26 50//26
f 10//27 50//27 52//27
f 10//28 52//28 54//28
f 10//29 54//29 56//29
f 10//30 56//30 58//30
f 10//31 58//31 60//31
f 10//32 60//32 62//32
f 10//33 62//33 64//33
f 10//34 64//34 66//34
f 10//35 66//35 68//35
f 10//36 68//36 70//36
f 10//37 70//37 72//37
f 10//38 72//38 74//38
f 11//39 12//39 74//39
f 11//39 74//39 73//39
f 12//40 11//40 13//40
f 12//40 13//40 14//40
f 14//41 13//41 15//41
f 14//41 15//41 16//41
f 16//42 15//42 17//42
f 16//42 17//42 18//42
f 18//43 17//43 19//43
f 18//43 19//43 20//43
f 20//44 19//44 21//44
f 20//44 21//44 22//44
f 22//45 21//45 23//45
f 22//45 23//45 24//45
f 24//46 23//46 25//46
f 24//46 25//46 26//46
f 26//47 25//47 27//47
f 26//47 27//47 28//47
f 28//48 27//48 29//48
f 28//48 29//48 30//48
f 30//49 29//49 31//49
f 30//49 31//49 32//49
f 32//50 31//50 33//50
f 32//50 33//50 34//50
f 34//51 33//51 35//51
f 34//51 35//51 36//51
f 36//52 35//52 37//52
f 36//52 37//52 38//52
f 38//53 37//53 39//53
f 38//53 39//53 40//53
f 40//54 39//54 41//54
f 40//54 41//54 42//54
f 42//55 41//55 43//55
f 42//55 43//55 44//55
f 44//56 43//56 45//56
f 44//56 45//56 46//56
f 46//57 45//57 47//57
f 46//57 47//57 48//57
f 48//58 47//58 49//58
f 48//58 49//58 50//58
f 50//59 49//59 51//59
f 50//59 51//59 52//59
f 52//60 51//60 53//60
f 52//60 53//60 54//60
f 54//61 53//61 55//61
f 54//61 55//61 56//61
f 56//62 55//62 57//62
f 56//62 57//62 58//62
f 58//63 57//63 59//63
f 58//63 59//63 60//63
f 60//64 59//64 61//64
f 60//64 61//64 62//64
f 62//65 61//65 63//65
f 62//65 63//65 64//65
f 64//66 63//66 65//66
f 64//66 65//66 66//66
f 66//67 65//67 67//67
f 66//67 67//67 68//67
f 68//68 67//68 69//68
f 68//68 69//68 70//68
f 70//69 69//69 71//69
f 70//69 71//69 72//69
f 72//70 71//70 73//70
f 72//70 73//70 74//70
f 9//71 11//71 73//71
f 11//72 9//72 13//72
f 13//73 9//73 15//73
f 15//74 9//74 17//74
f 17//75 9//75 19//75
f 19//76 9//76 21//76
f 21//74 9//74 23//74
f 23//77 9//77 25//77
f 25//78 9//78 27//78
f 27//79 9//79 29//79
f 29//71 9//71 31//71
f 31//71 9//71 33//71
f 33//80 9//80 35//80
f 35//81 9//81 37//81
f 37//71 9//71 39//71
f 39//71 9//71 41//71
f 41//82 9//82 43//82
f 43//72 9//72 45//72
f 45//73 9//73 47//73
f 47//74 9//74 49//74
f 49//74 9//74 51//74
f 51//76 9//76 53//76
f 53//83 9//83 55//83
f 55//76 9//76 57//76
f 57//84 9//84 59//84
f 59//82 9//82 61//82
f 61//82 9//82 63//82
f 63//85 9//85 65//85
f 65//82 9//82 67//82
f 67//82 9//82 69//82
f 69//82 9//82 71//82
f 71//82 9//82 73//82
