# Blender v2.64 (sub 0) OBJ File: ''
# www.blender.org
mtllib untitled_000013.mtl
o Cube
v -8.729040 -2.858973 10.487860
v -8.729040 -2.858973 -7.293924
v 9.052744 -2.858973 -7.293924
v 9.052744 -2.858973 10.487860
v -8.729040 14.922812 10.487860
v -8.729040 14.922812 -7.293924
v 9.052744 14.922812 -7.293924
v 9.052744 14.922812 10.487860
vn -1.000000 -0.000000 0.000000
vn 0.000000 0.000000 -1.000000
vn 1.000000 -0.000000 0.000000
vn 0.000000 0.000000 1.000000
vn -0.000000 -1.000000 0.000000
vn -0.000000 1.000000 0.000000
usemtl Material.003
s off
f 2//1 1//1 5//1
f 2//1 5//1 6//1
usemtl Material.005
f 6//2 7//2 3//2
f 6//2 3//2 2//2
usemtl Material.004
f 7//3 8//3 4//3
f 7//3 4//3 3//3
usemtl Material.002
f 1//4 4//4 8//4
f 1//4 8//4 5//4
usemtl Material.001
f 1//5 2//5 3//5
f 1//5 3//5 4//5
f 8//6 7//6 6//6
f 8//6 6//6 5//6
o Diamond
v -0.443456 2.310780 2.023533
v 0.221660 0.743131 2.017054
v 0.260508 2.611319 1.572411
v 0.932243 2.334568 1.269692
v 0.328223 2.639396 1.730407
v 1.045102 2.381363 1.533017
v 0.366282 2.654845 1.899666
v 1.108535 2.407110 1.815117
v 0.373224 2.657071 2.073687
v 1.120104 2.410820 2.105151
v 0.348782 2.645989 2.245780
v 1.079367 2.392351 2.391973
v 0.293894 2.622025 2.409332
v 0.987887 2.352412 2.664559
v 0.210670 2.586101 2.558057
v 0.849181 2.292538 2.912435
v 0.102309 2.539596 2.686242
v 0.668578 2.215029 3.126076
v -0.027026 2.484298 2.788959
v 0.453020 2.122866 3.297271
v -0.172364 2.422332 2.862261
v 0.210790 2.019588 3.419441
v -0.328121 2.356078 2.903331
v -0.048804 1.909166 3.487891
v -0.488308 2.288085 2.910591
v -0.315784 1.795843 3.499991
v -0.646774 2.220963 2.883762
v -0.579892 1.683973 3.455276
v -0.797424 2.157292 2.823874
v -0.830977 1.577857 3.355464
v -0.934473 2.099521 2.733231
v -1.059391 1.481570 3.204391
v -1.052652 2.049867 2.615313
v -1.256356 1.398815 3.007862
v -1.147420 2.010241 2.474654
v -1.414302 1.332771 2.773430
v -1.215135 1.982164 2.316659
v -1.527161 1.285976 2.510104
v -1.253194 1.966716 2.147399
v -1.590593 1.260229 2.228005
v -1.260136 1.964490 1.973378
v -1.602163 1.256519 1.937970
v -1.235694 1.975571 1.801286
v -1.561426 1.274988 1.651150
v -1.180806 1.999535 1.637734
v -1.469946 1.314927 1.378564
v -1.097582 2.035459 1.489008
v -1.331240 1.374801 1.130686
v -0.989221 2.081964 1.360824
v -1.150638 1.452309 0.917046
v -0.859886 2.137262 1.258106
v -0.935079 1.544473 0.745851
v -0.714548 2.199229 1.184804
v -0.692849 1.647750 0.623681
v -0.558791 2.265482 1.143734
v -0.433255 1.758172 0.555230
v -0.398603 2.333476 1.136474
v -0.166275 1.871495 0.543130
v -0.240139 2.400598 1.163303
v 0.097832 1.983365 0.587846
v -0.089487 2.464268 1.223191
v 0.348918 2.089482 0.687658
v 0.047561 2.522039 1.313834
v 0.577332 2.185768 0.838731
v 0.165740 2.571693 1.431752
v 0.774297 2.268524 1.035260
vn 0.769653 -0.518565 -0.372457
vn 0.827219 -0.494578 -0.266646
vn 0.864695 -0.479158 -0.150702
vn 0.880638 -0.472896 -0.029080
vn 0.874438 -0.476033 0.093544
vn 0.846332 -0.488449 0.212461
vn 0.797400 -0.509667 0.323099
vn 0.729523 -0.538871 0.421205
vn 0.645309 -0.574939 0.503013
vn 0.547995 -0.616485 0.565374
vn 0.441319 -0.661912 0.605896
vn 0.329382 -0.709475 0.623019
vn 0.216486 -0.757346 0.616086
vn 0.106968 -0.803684 0.585363
vn 0.005039 -0.846710 0.532031
vn -0.085386 -0.884770 0.458139
vn -0.160832 -0.916401 0.366527
vn -0.218398 -0.940388 0.260716
vn -0.255873 -0.955808 0.144772
vn -0.271817 -0.962070 0.023151
vn -0.265617 -0.958933 -0.099474
vn -0.237511 -0.946517 -0.218391
vn -0.188579 -0.925299 -0.329028
vn -0.120702 -0.896095 -0.427136
vn -0.036487 -0.860027 -0.508943
vn 0.060827 -0.818481 -0.571305
vn 0.167503 -0.773054 -0.611826
vn 0.279439 -0.725491 -0.628949
vn 0.392336 -0.677620 -0.622016
vn 0.501852 -0.631282 -0.591293
vn 0.603783 -0.588256 -0.537961
vn 0.694208 -0.550196 -0.464069
vn 0.197000 0.900983 -0.386551
vn 0.257668 0.926262 -0.275038
vn 0.297164 0.942514 -0.152844
vn 0.313967 0.949113 -0.024666
vn 0.307432 0.945807 0.104569
vn 0.277811 0.932722 0.229894
vn 0.226242 0.910360 0.346496
vn 0.154706 0.879582 0.449891
vn 0.065953 0.841570 0.536107
vn -0.036607 0.797784 0.601831
vn -0.149032 0.749909 0.644536
vn -0.267002 0.699782 0.662582
vn -0.385984 0.649331 0.655275
vn -0.501405 0.600495 0.622896
vn -0.608828 0.555150 0.566689
vn -0.704128 0.515039 0.488815
vn -0.783639 0.481703 0.392265
vn -0.844308 0.456423 0.280751
vn -0.883804 0.440171 0.158557
vn -0.900607 0.433572 0.030380
vn -0.894072 0.436878 -0.098855
vn -0.864451 0.449964 -0.224180
vn -0.812882 0.472325 -0.340781
vn -0.741346 0.503103 -0.444177
vn -0.652593 0.541115 -0.530393
vn -0.550033 0.584901 -0.596116
vn -0.437607 0.632777 -0.638822
vn -0.319638 0.682903 -0.656868
vn -0.200656 0.733354 -0.649561
vn -0.085236 0.782190 -0.617182
vn 0.022188 0.827535 -0.560975
vn 0.117487 0.867646 -0.483101
vn -0.390573 0.920564 0.003804
vn -0.390574 0.920564 0.003803
vn -0.390573 0.920564 0.003805
vn -0.390574 0.920564 0.003804
vn -0.390572 0.920564 0.003805
usemtl Material
s off
f 12//7 10//7 74//7
f 10//8 12//8 14//8
f 10//9 14//9 16//9
f 10//10 16//10 18//10
f 10//11 18//11 20//11
f 10//12 20//12 22//12
f 10//13 22//13 24//13
f 10//14 24//14 26//14
f 10//15 26//15 28//15
f 10//16 28//16 30//16
f 10//17 30//17 32//17
f 10//18 32//18 34//18
f 10//19 34//19 36//19
f 10//20 36//20 38//20
f 10//21 38//21 40//21
f 10//22 40//22 42//22
f 10//23 42//23 44//23
f 10//24 44//24 46//24
f 10//25 46//25 48//25
f 10//26 48//26 50//26
f 10//27 50//27 52//27
f 10//28 52//28 54//28
f 10//29 54//29 56//29
f 10//30 56//30 58//30
f 10//31 58//31 60//31
f 10//32 60//32 62//32
f 10//33 62//33 64//33
f 10//34 64//34 66//34
f 10//35 66//35 68//35
f 10//36 68//36 70//36
f 10//37 70//37 72//37
f 10//38 72//38 74//38
f 11//39 12//39 74//39
f 11//39 74//39 73//39
f 12//40 11//40 13//40
f 12//40 13//40 14//40
f 14//41 13//41 15//41
f 14//41 15//41 16//41
f 16//42 15//42 17//42
f 16//42 17//42 18//42
f 18//43 17//43 19//43
f 18//43 19//43 20//43
f 20//44 19//44 21//44
f 20//44 21//44 22//44
f 22//45 21//45 23//45
f 22//45 23//45 24//45
f 24//46 23//46 25//46
f 24//46 25//46 26//46
f 26//47 25//47 27//47
f 26//47 27//47 28//47
f 28//48 27//48 29//48
f 28//48 29//48 30//48
f 30//49 29//49 31//49
f 30//49 31//49 32//49
f 32//50 31//50 33//50
f 32//50 33//50 34//50
f 34//51 33//51 35//51
f 34//51 35//51 36//51
f 36//52 35//52 37//52
f 36//52 37//52 38//52
f 38//53 37//53 39//53
f 38//53 39//53 40//53
f 40//54 39//54 41//54
f 40//54 41//54 42//54
f 42//55 41//55 43//55
f 42//55 43//55 44//55
f 44//56 43//56 45//56
f 44//56 45//56 46//56
f 46//57 45//57 47//57
f 46//57 47//57 48//57
f 48//58 47//58 49//58
f 48//58 49//58 50//58
f 50//59 49//59 51//59
f 50//59 51//59 52//59
f 52//60 51//60 53//60
f 52//60 53//60 54//60
f 54//61 53//61 55//61
f 54//61 55//61 56//61
f 56//62 55//62 57//62
f 56//62 57//62 58//62
f 58//63 57//63 59//63
f 58//63 59//63 60//63
f 60//64 59//64 61//64
f 60//64 61//64 62//64
f 62//65 61//65 63//65
f 62//65 63//65 64//65
f 64//66 63//66 65//66
f 64//66 65//66 66//66
f 66//67 65//67 67//67
f 66//67 67//67 68//67
f 68//68 67//68 69//68
f 68//68 69//68 70//68
f 70//69 69//69 71//69
f 70//69 71//69 72//69
f 72//70 71//70 73//70
f 72//70 73//70 74//70
f 9//71 11//71 73//71
f 11//72 9//72 13//72
f 13//73 9//73 15//73
f 15//71 9//71 17//71
f 17//73 9//73 19//73
f 19//71 9//71 21//71
f 21//71 9//71 23//71
f 23//73 9//73 25//73
f 25//71 9//71 27//71
f 27//71 9//71 29//71
f 29//71 9//71 31//71
f 31//71 9//71 33//71
f 33//71 9//71 35//71
f 35//74 9//74 37//74
f 37//71 9//71 39//71
f 39//71 9//71 41//71
f 41//73 9//73 43//73
f 43//73 9//73 45//73
f 45//71 9//71 47//71
f 47//71 9//71 49//71
f 49//71 9//71 51//71
f 51//73 9//73 53//73
f 53//73 9//73 55//73
f 55//71 9//71 57//71
f 57//71 9//71 59//71
f 59//71 9//71 61//71
f 61//71 9//71 63//71
f 63//71 9//71 65//71
f 65//71 9//71 67//71
f 67//71 9//71 69//71
f 69//75 9//75 71//75
f 71//71 9//71 73//71
