# Blender v2.64 (sub 0) OBJ File: ''
# www.blender.org
mtllib untitled_000086.mtl
o Cube
v -8.729040 -2.858973 10.487860
v -8.729040 -2.858973 -7.293924
v 9.052744 -2.858973 -7.293924
v 9.052744 -2.858973 10.487860
v -8.729040 14.922812 10.487860
v -8.729040 14.922812 -7.293924
v 9.052744 14.922812 -7.293924
v 9.052744 14.922812 10.487860
vn -1.000000 -0.000000 0.000000
vn 0.000000 0.000000 -1.000000
vn 1.000000 -0.000000 0.000000
vn 0.000000 0.000000 1.000000
vn -0.000000 -1.000000 0.000000
vn -0.000000 1.000000 0.000000
usemtl Material.003
s off
f 2//1 1//1 5//1
f 2//1 5//1 6//1
usemtl Material.005
f 6//2 7//2 3//2
f 6//2 3//2 2//2
usemtl Material.004
f 7//3 8//3 4//3
f 7//3 4//3 3//3
usemtl Material.002
f 1//4 4//4 8//4
f 1//4 8//4 5//4
usemtl Material.001
f 1//5 2//5 3//5
f 1//5 3//5 4//5
f 8//6 7//6 6//6
f 8//6 6//6 5//6
o Diamond
v 3.010309 4.525378 1.724150
v 3.637703 3.018137 1.239851
v 2.334023 4.426263 1.156511
v 2.074113 3.901461 0.630690
v 2.439535 4.506489 1.043518
v 2.249965 4.035171 0.442368
v 2.566980 4.587440 0.956681
v 2.462374 4.170090 0.297641
v 2.711463 4.666007 0.899338
v 2.703178 4.301034 0.202068
v 2.867430 4.739170 0.873692
v 2.963124 4.422971 0.159325
v 3.028888 4.804116 0.880728
v 3.232220 4.531215 0.171052
v 3.189631 4.858351 0.920177
v 3.500126 4.621606 0.236800
v 3.343484 4.899789 0.990522
v 3.756547 4.690671 0.354041
v 3.484533 4.926840 1.089059
v 3.991628 4.735755 0.518270
v 3.607358 4.938462 1.212003
v 4.196336 4.755126 0.723177
v 3.707238 4.934210 1.354629
v 4.362803 4.748039 0.960886
v 3.780336 4.914247 1.511454
v 4.484633 4.714767 1.222262
v 3.823842 4.879339 1.676454
v 4.557143 4.656588 1.497262
v 3.836084 4.830830 1.843287
v 4.577547 4.575738 1.775316
v 3.816593 4.770581 2.005541
v 4.545061 4.475325 2.045739
v 3.766116 4.700910 2.156981
v 4.460934 4.359206 2.298140
v 3.686594 4.624494 2.291788
v 4.328397 4.231844 2.522819
v 3.581083 4.544268 2.404781
v 4.152545 4.098135 2.711140
v 3.453638 4.463316 2.491618
v 3.940136 3.963216 2.855867
v 3.309155 4.384750 2.548961
v 3.699331 3.832272 2.951440
v 3.153188 4.311587 2.574607
v 3.439386 3.710335 2.994184
v 2.991730 4.246641 2.567571
v 3.170290 3.602091 2.982456
v 2.830986 4.192406 2.528122
v 2.902384 3.511699 2.916709
v 2.677134 4.150968 2.457778
v 2.645963 3.442635 2.799468
v 2.536085 4.123917 2.359240
v 2.410881 3.397551 2.635238
v 2.413260 4.112295 2.236296
v 2.206174 3.378180 2.430332
v 2.313380 4.116547 2.093670
v 2.039706 3.385267 2.192622
v 2.240282 4.136510 1.936845
v 1.917876 3.418539 1.931246
v 2.196776 4.171417 1.771845
v 1.845366 3.476718 1.656247
v 2.184533 4.219927 1.605012
v 1.824962 3.557568 1.378192
v 2.204025 4.280175 1.442759
v 1.857448 3.657981 1.107769
v 2.254502 4.349847 1.291318
v 1.941576 3.774100 0.855368
vn -0.220233 -0.787141 -0.576113
vn -0.154677 -0.731643 -0.663907
vn -0.072143 -0.674540 -0.734705
vn 0.024199 -0.618024 -0.785787
vn 0.130647 -0.564267 -0.815190
vn 0.243107 -0.515337 -0.821783
vn 0.357261 -0.473111 -0.805314
vn 0.468721 -0.439215 -0.766414
vn 0.573202 -0.414950 -0.706581
vn 0.666690 -0.401248 -0.628112
vn 0.745593 -0.398637 -0.534022
vn 0.806877 -0.407216 -0.427930
vn 0.848190 -0.426657 -0.313908
vn 0.867941 -0.456211 -0.196343
vn 0.865372 -0.494743 -0.079750
vn 0.840584 -0.540772 0.031388
vn 0.794526 -0.592530 0.132804
vn 0.728969 -0.648028 0.220599
vn 0.646435 -0.705131 0.291396
vn 0.550093 -0.761647 0.342478
vn 0.443646 -0.815404 0.371881
vn 0.331184 -0.864335 0.378474
vn 0.217032 -0.906559 0.362005
vn 0.105571 -0.940456 0.323106
vn 0.001091 -0.964721 0.263272
vn -0.092397 -0.978423 0.184803
vn -0.171301 -0.981034 0.090713
vn -0.232585 -0.972454 -0.015379
vn -0.273897 -0.953014 -0.129400
vn -0.293648 -0.923460 -0.246966
vn -0.291080 -0.884928 -0.363558
vn -0.266291 -0.838899 -0.474698
vn -0.811412 0.562152 -0.159986
vn -0.742323 0.620641 -0.252512
vn -0.655339 0.680823 -0.327126
vn -0.553804 0.740385 -0.380961
vn -0.441620 0.797039 -0.411948
vn -0.323096 0.848607 -0.418897
vn -0.202790 0.893108 -0.401540
vn -0.085324 0.928831 -0.360545
vn 0.024789 0.954404 -0.297486
vn 0.123318 0.968844 -0.214787
vn 0.206473 0.971596 -0.115626
vn 0.271061 0.962555 -0.003814
vn 0.314599 0.942067 0.116352
vn 0.335416 0.910919 0.240255
vn 0.332709 0.870311 0.363131
vn 0.306583 0.821800 0.480262
vn 0.258043 0.767253 0.587143
vn 0.188954 0.708764 0.679669
vn 0.101971 0.648582 0.754283
vn 0.000436 0.589020 0.808118
vn -0.111750 0.532366 0.839106
vn -0.230271 0.480798 0.846055
vn -0.350579 0.436297 0.828698
vn -0.468046 0.400573 0.787702
vn -0.578158 0.375000 0.724643
vn -0.676686 0.360560 0.641944
vn -0.759841 0.357808 0.542784
vn -0.824430 0.366850 0.430972
vn -0.867968 0.387338 0.310805
vn -0.888784 0.418485 0.186904
vn -0.886078 0.459094 0.064026
vn -0.859952 0.507605 -0.053104
vn -0.368421 0.885091 0.284393
vn -0.368421 0.885091 0.284392
vn -0.368422 0.885091 0.284393
vn -0.368423 0.885091 0.284393
vn -0.368424 0.885090 0.284393
vn -0.368421 0.885091 0.284394
vn -0.368422 0.885091 0.284392
vn -0.368422 0.885091 0.284394
vn -0.368423 0.885090 0.284394
vn -0.368421 0.885092 0.284392
vn -0.368422 0.885091 0.284391
usemtl Material
s off
f 12//7 10//7 74//7
f 10//8 12//8 14//8
f 10//9 14//9 16//9
f 10//10 16//10 18//10
f 10//11 18//11 20//11
f 10//12 20//12 22//12
f 10//13 22//13 24//13
f 10//14 24//14 26//14
f 10//15 26//15 28//15
f 10//16 28//16 30//16
f 10//17 30//17 32//17
f 10//18 32//18 34//18
f 10//19 34//19 36//19
f 10//20 36//20 38//20
f 10//21 38//21 40//21
f 10//22 40//22 42//22
f 10//23 42//23 44//23
f 10//24 44//24 46//24
f 10//25 46//25 48//25
f 10//26 48//26 50//26
f 10//27 50//27 52//27
f 10//28 52//28 54//28
f 10//29 54//29 56//29
f 10//30 56//30 58//30
f 10//31 58//31 60//31
f 10//32 60//32 62//32
f 10//33 62//33 64//33
f 10//34 64//34 66//34
f 10//35 66//35 68//35
f 10//36 68//36 70//36
f 10//37 70//37 72//37
f 10//38 72//38 74//38
f 11//39 12//39 74//39
f 11//39 74//39 73//39
f 12//40 11//40 13//40
f 12//40 13//40 14//40
f 14//41 13//41 15//41
f 14//41 15//41 16//41
f 16//42 15//42 17//42
f 16//42 17//42 18//42
f 18//43 17//43 19//43
f 18//43 19//43 20//43
f 20//44 19//44 21//44
f 20//44 21//44 22//44
f 22//45 21//45 23//45
f 22//45 23//45 24//45
f 24//46 23//46 25//46
f 24//46 25//46 26//46
f 26//47 25//47 27//47
f 26//47 27//47 28//47
f 28//48 27//48 29//48
f 28//48 29//48 30//48
f 30//49 29//49 31//49
f 30//49 31//49 32//49
f 32//50 31//50 33//50
f 32//50 33//50 34//50
f 34//51 33//51 35//51
f 34//51 35//51 36//51
f 36//52 35//52 37//52
f 36//52 37//52 38//52
f 38//53 37//53 39//53
f 38//53 39//53 40//53
f 40//54 39//54 41//54
f 40//54 41//54 42//54
f 42//55 41//55 43//55
f 42//55 43//55 44//55
f 44//56 43//56 45//56
f 44//56 45//56 46//56
f 46//57 45//57 47//57
f 46//57 47//57 48//57
f 48//58 47//58 49//58
f 48//58 49//58 50//58
f 50//59 49//59 51//59
f 50//59 51//59 52//59
f 52//60 51//60 53//60
f 52//60 53//60 54//60
f 54//61 53//61 55//61
f 54//61 55//61 56//61
f 56//62 55//62 57//62
f 56//62 57//62 58//62
f 58//63 57//63 59//63
f 58//63 59//63 60//63
f 60//64 59//64 61//64
f 60//64 61//64 62//64
f 62//65 61//65 63//65
f 62//65 63//65 64//65
f 64//66 63//66 65//66
f 64//66 65//66 66//66
f 66//67 65//67 67//67
f 66//67 67//67 68//67
f 68//68 67//68 69//68
f 68//68 69//68 70//68
f 70//69 69//69 71//69
f 70//69 71//69 72//69
f 72//70 71//70 73//70
f 72//70 73//70 74//70
f 9//71 11//71 73//71
f 11//72 9//72 13//72
f 13//73 9//73 15//73
f 15//73 9//73 17//73
f 17//74 9//74 19//74
f 19//71 9//71 21//71
f 21//75 9//75 23//75
f 23//76 9//76 25//76
f 25//74 9//74 27//74
f 27//73 9//73 29//73
f 29//76 9//76 31//76
f 31//73 9//73 33//73
f 33//73 9//73 35//73
f 35//77 9//77 37//77
f 37//78 9//78 39//78
f 39//73 9//73 41//73
f 41//72 9//72 43//72
f 43//79 9//79 45//79
f 45//80 9//80 47//80
f 47//80 9//80 49//80
f 49//75 9//75 51//75
f 51//71 9//71 53//71
f 53//73 9//73 55//73
f 55//71 9//71 57//71
f 57//73 9//73 59//73
f 59//73 9//73 61//73
f 61//76 9//76 63//76
f 63//73 9//73 65//73
f 65//81 9//81 67//81
f 67//78 9//78 69//78
f 69//77 9//77 71//77
f 71//78 9//78 73//78
