# Blender v2.64 (sub 0) OBJ File: ''
# www.blender.org
mtllib untitled_000077.mtl
o Cube
v -8.729040 -2.858973 10.487860
v -8.729040 -2.858973 -7.293924
v 9.052744 -2.858973 -7.293924
v 9.052744 -2.858973 10.487860
v -8.729040 14.922812 10.487860
v -8.729040 14.922812 -7.293924
v 9.052744 14.922812 -7.293924
v 9.052744 14.922812 10.487860
vn -1.000000 -0.000000 0.000000
vn 0.000000 0.000000 -1.000000
vn 1.000000 -0.000000 0.000000
vn 0.000000 0.000000 1.000000
vn -0.000000 -1.000000 0.000000
vn -0.000000 1.000000 0.000000
usemtl Material.003
s off
f 2//1 1//1 5//1
f 2//1 5//1 6//1
usemtl Material.005
f 6//2 7//2 3//2
f 6//2 3//2 2//2
usemtl Material.004
f 7//3 8//3 4//3
f 7//3 4//3 3//3
usemtl Material.002
f 1//4 4//4 8//4
f 1//4 8//4 5//4
usemtl Material.001
f 1//5 2//5 3//5
f 1//5 3//5 4//5
f 8//6 7//6 6//6
f 8//6 6//6 5//6
o Diamond
v 4.688676 2.313513 -1.232505
v 5.654335 0.999247 -1.722560
v 4.048045 2.050323 -1.789032
v 3.914854 1.474869 -2.309197
v 4.129373 2.152913 -1.903911
v 4.050399 1.645853 -2.500662
v 4.232193 2.261676 -1.992989
v 4.221767 1.827123 -2.649125
v 4.352556 2.372430 -2.052841
v 4.422372 2.011714 -2.748879
v 4.485837 2.480921 -2.081169
v 4.644506 2.192532 -2.796092
v 4.626912 2.582978 -2.076883
v 4.879631 2.362627 -2.788948
v 4.770360 2.674679 -2.040148
v 5.118712 2.515462 -2.727723
v 4.910670 2.752501 -1.972375
v 5.352561 2.645166 -2.614769
v 5.042449 2.813453 -1.876170
v 5.572192 2.746753 -2.454427
v 5.160632 2.855193 -1.755229
v 5.769165 2.816319 -2.252859
v 5.260678 2.876116 -1.614200
v 5.935908 2.851191 -2.017811
v 5.338742 2.875419 -1.458503
v 6.066016 2.850029 -1.758316
v 5.391826 2.853128 -1.294121
v 6.154488 2.812877 -1.484345
v 5.417887 2.810100 -1.127371
v 6.197923 2.741164 -1.206429
v 5.415925 2.747988 -0.964661
v 6.194654 2.637644 -0.935246
v 5.386015 2.669180 -0.812245
v 6.144804 2.506297 -0.681218
v 5.329308 2.576704 -0.675978
v 6.050291 2.352170 -0.454108
v 5.247980 2.474113 -0.561099
v 5.914746 2.181186 -0.262642
v 5.145160 2.365351 -0.472022
v 5.743378 1.999915 -0.114180
v 5.024796 2.254596 -0.412169
v 5.542772 1.815324 -0.014426
v 4.891517 2.146106 -0.383842
v 5.320640 1.634507 0.032787
v 4.750442 2.044049 -0.388128
v 5.085515 1.464413 0.025643
v 4.606993 1.952347 -0.424863
v 4.846433 1.311576 -0.035582
v 4.466683 1.874525 -0.492635
v 4.612584 1.181873 -0.148535
v 4.334904 1.813573 -0.588840
v 4.392952 1.080286 -0.308878
v 4.216722 1.771833 -0.709781
v 4.195981 1.010720 -0.510445
v 4.116675 1.750910 -0.850810
v 4.029237 0.975847 -0.745494
v 4.038610 1.751607 -1.006507
v 3.899129 0.977010 -1.004989
v 3.985528 1.773898 -1.170889
v 3.810658 1.014161 -1.278958
v 3.959466 1.816926 -1.337639
v 3.767222 1.085875 -1.556876
v 3.961428 1.879038 -1.500349
v 3.770492 1.189394 -1.828058
v 3.991338 1.957846 -1.652766
v 3.820341 1.320741 -2.082087
vn -0.032069 -0.820771 -0.570357
vn 0.016836 -0.751659 -0.659336
vn 0.082077 -0.676780 -0.731596
vn 0.161151 -0.599006 -0.784361
vn 0.251014 -0.521329 -0.815603
vn 0.348216 -0.446734 -0.824120
vn 0.449020 -0.378087 -0.809587
vn 0.549554 -0.318026 -0.772560
vn 0.645953 -0.268859 -0.714465
vn 0.734512 -0.232476 -0.637532
vn 0.811830 -0.210275 -0.544717
vn 0.874933 -0.203109 -0.439590
vn 0.921397 -0.211254 -0.326189
vn 0.949437 -0.234396 -0.208871
vn 0.957976 -0.271646 -0.092146
vn 0.946684 -0.321573 0.019502
vn 0.915996 -0.382258 0.121779
vn 0.867091 -0.451369 0.210759
vn 0.801849 -0.526249 0.283019
vn 0.722777 -0.604023 0.335784
vn 0.632913 -0.681699 0.367025
vn 0.535711 -0.756295 0.375543
vn 0.434907 -0.824941 0.361010
vn 0.334373 -0.885003 0.323983
vn 0.237974 -0.934169 0.265887
vn 0.149415 -0.970552 0.188954
vn 0.072097 -0.992753 0.096140
vn 0.008994 -0.999919 -0.008987
vn -0.037470 -0.991775 -0.122389
vn -0.065511 -0.968633 -0.239707
vn -0.074049 -0.931382 -0.356432
vn -0.062757 -0.881455 -0.468079
vn -0.925445 0.348524 -0.148604
vn -0.873903 0.421361 -0.242380
vn -0.805146 0.500277 -0.318534
vn -0.721810 0.582243 -0.374144
vn -0.627103 0.664106 -0.407069
vn -0.524662 0.742722 -0.416046
vn -0.418423 0.815070 -0.400729
vn -0.312472 0.878367 -0.361707
vn -0.210877 0.930184 -0.300480
vn -0.117544 0.968528 -0.219400
vn -0.036059 0.991926 -0.121583
vn 0.030445 0.999478 -0.010789
vn 0.079415 0.990895 0.108725
vn 0.108966 0.966505 0.232366
vn 0.117965 0.927247 0.355383
vn 0.106064 0.874629 0.473048
vn 0.073722 0.810673 0.580839
vn 0.022181 0.737838 0.674614
vn -0.046577 0.658921 0.750769
vn -0.129912 0.576955 0.806378
vn -0.224620 0.495092 0.839303
vn -0.327060 0.416476 0.848280
vn -0.433299 0.344128 0.832963
vn -0.539251 0.280830 0.793942
vn -0.640845 0.229013 0.732714
vn -0.734179 0.190669 0.651633
vn -0.815663 0.167272 0.553817
vn -0.882167 0.159720 0.443024
vn -0.931137 0.168303 0.323510
vn -0.960688 0.192693 0.199868
vn -0.969687 0.231950 0.076852
vn -0.957786 0.284569 -0.040814
vn -0.567060 0.771770 0.287774
vn -0.567059 0.771771 0.287772
vn -0.567061 0.771770 0.287774
vn -0.567060 0.771771 0.287773
vn -0.567059 0.771772 0.287773
vn -0.567059 0.771771 0.287773
vn -0.567060 0.771771 0.287772
vn -0.567059 0.771770 0.287774
vn -0.567059 0.771772 0.287772
vn -0.567060 0.771770 0.287773
vn -0.567059 0.771771 0.287774
vn -0.567061 0.771770 0.287772
usemtl Material
s off
f 12//7 10//7 74//7
f 10//8 12//8 14//8
f 10//9 14//9 16//9
f 10//10 16//10 18//10
f 10//11 18//11 20//11
f 10//12 20//12 22//12
f 10//13 22//13 24//13
f 10//14 24//14 26//14
f 10//15 26//15 28//15
f 10//16 28//16 30//16
f 10//17 30//17 32//17
f 10//18 32//18 34//18
f 10//19 34//19 36//19
f 10//20 36//20 38//20
f 10//21 38//21 40//21
f 10//22 40//22 42//22
f 10//23 42//23 44//23
f 10//24 44//24 46//24
f 10//25 46//25 48//25
f 10//26 48//26 50//26
f 10//27 50//27 52//27
f 10//28 52//28 54//28
f 10//29 54//29 56//29
f 10//30 56//30 58//30
f 10//31 58//31 60//31
f 10//32 60//32 62//32
f 10//33 62//33 64//33
f 10//34 64//34 66//34
f 10//35 66//35 68//35
f 10//36 68//36 70//36
f 10//37 70//37 72//37
f 10//38 72//38 74//38
f 11//39 12//39 74//39
f 11//39 74//39 73//39
f 12//40 11//40 13//40
f 12//40 13//40 14//40
f 14//41 13//41 15//41
f 14//41 15//41 16//41
f 16//42 15//42 17//42
f 16//42 17//42 18//42
f 18//43 17//43 19//43
f 18//43 19//43 20//43
f 20//44 19//44 21//44
f 20//44 21//44 22//44
f 22//45 21//45 23//45
f 22//45 23//45 24//45
f 24//46 23//46 25//46
f 24//46 25//46 26//46
f 26//47 25//47 27//47
f 26//47 27//47 28//47
f 28//48 27//48 29//48
f 28//48 29//48 30//48
f 30//49 29//49 31//49
f 30//49 31//49 32//49
f 32//50 31//50 33//50
f 32//50 33//50 34//50
f 34//51 33//51 35//51
f 34//51 35//51 36//51
f 36//52 35//52 37//52
f 36//52 37//52 38//52
f 38//53 37//53 39//53
f 38//53 39//53 40//53
f 40//54 39//54 41//54
f 40//54 41//54 42//54
f 42//55 41//55 43//55
f 42//55 43//55 44//55
f 44//56 43//56 45//56
f 44//56 45//56 46//56
f 46//57 45//57 47//57
f 46//57 47//57 48//57
f 48//58 47//58 49//58
f 48//58 49//58 50//58
f 50//59 49//59 51//59
f 50//59 51//59 52//59
f 52//60 51//60 53//60
f 52//60 53//60 54//60
f 54//61 53//61 55//61
f 54//61 55//61 56//61
f 56//62 55//62 57//62
f 56//62 57//62 58//62
f 58//63 57//63 59//63
f 58//63 59//63 60//63
f 60//64 59//64 61//64
f 60//64 61//64 62//64
f 62//65 61//65 63//65
f 62//65 63//65 64//65
f 64//66 63//66 65//66
f 64//66 65//66 66//66
f 66//67 65//67 67//67
f 66//67 67//67 68//67
f 68//68 67//68 69//68
f 68//68 69//68 70//68
f 70//69 69//69 71//69
f 70//69 71//69 72//69
f 72//70 71//70 73//70
f 72//70 73//70 74//70
f 9//71 11//71 73//71
f 11//72 9//72 13//72
f 13//73 9//73 15//73
f 15//74 9//74 17//74
f 17//75 9//75 19//75
f 19//74 9//74 21//74
f 21//76 9//76 23//76
f 23//74 9//74 25//74
f 25//76 9//76 27//76
f 27//74 9//74 29//74
f 29//74 9//74 31//74
f 31//77 9//77 33//77
f 33//78 9//78 35//78
f 35//77 9//77 37//77
f 37//71 9//71 39//71
f 39//74 9//74 41//74
f 41//74 9//74 43//74
f 43//79 9//79 45//79
f 45//74 9//74 47//74
f 47//80 9//80 49//80
f 49//80 9//80 51//80
f 51//76 9//76 53//76
f 53//80 9//80 55//80
f 55//80 9//80 57//80
f 57//81 9//81 59//81
f 59//82 9//82 61//82
f 61//74 9//74 63//74
f 63//80 9//80 65//80
f 65//71 9//71 67//71
f 67//74 9//74 69//74
f 69//71 9//71 71//71
f 71//77 9//77 73//77
