# Blender v2.64 (sub 0) OBJ File: ''
# www.blender.org
mtllib untitled_000010.mtl
o Cube
v -8.729040 -2.858973 10.487860
v -8.729040 -2.858973 -7.293924
v 9.052744 -2.858973 -7.293924
v 9.052744 -2.858973 10.487860
v -8.729040 14.922812 10.487860
v -8.729040 14.922812 -7.293924
v 9.052744 14.922812 -7.293924
v 9.052744 14.922812 10.487860
vn -1.000000 -0.000000 0.000000
vn 0.000000 0.000000 -1.000000
vn 1.000000 -0.000000 0.000000
vn 0.000000 0.000000 1.000000
vn -0.000000 -1.000000 0.000000
vn -0.000000 1.000000 0.000000
usemtl Material.003
s off
f 2//1 1//1 5//1
f 2//1 5//1 6//1
usemtl Material.005
f 6//2 7//2 3//2
f 6//2 3//2 2//2
usemtl Material.004
f 7//3 8//3 4//3
f 7//3 4//3 3//3
usemtl Material.002
f 1//4 4//4 8//4
f 1//4 8//4 5//4
usemtl Material.001
f 1//5 2//5 3//5
f 1//5 3//5 4//5
f 8//6 7//6 6//6
f 8//6 6//6 5//6
o Diamond
v 0.649485 2.335011 1.997016
v 1.073706 0.687747 2.077664
v 1.460091 2.528692 1.689112
v 2.129606 2.156471 1.508388
v 1.500832 2.547424 1.857414
v 2.197507 2.187691 1.788891
v 1.508856 2.557993 2.031080
v 2.210881 2.205306 2.078335
v 1.483855 2.559992 2.203438
v 2.169212 2.208639 2.365597
v 1.426790 2.553346 2.367863
v 2.074103 2.197562 2.639639
v 1.339853 2.538310 2.518036
v 1.929208 2.172501 2.889928
v 1.226386 2.515460 2.648187
v 1.740096 2.134419 3.106846
v 1.090748 2.485677 2.753314
v 1.514034 2.084779 3.282057
v 0.938154 2.450103 2.829376
v 1.259710 2.025489 3.408828
v 0.774465 2.410106 2.873452
v 0.986896 1.958828 3.482287
v 0.605974 2.367223 2.883847
v 0.706078 1.887357 3.499612
v 0.439156 2.323102 2.860161
v 0.428047 1.813823 3.460135
v 0.280419 2.279439 2.803305
v 0.163486 1.741051 3.365375
v 0.135867 2.237912 2.715464
v -0.077435 1.671839 3.218974
v 0.011052 2.200116 2.600013
v -0.285460 1.608845 3.026556
v -0.089229 2.167504 2.461389
v -0.452594 1.554492 2.795516
v -0.161121 2.141329 2.304920
v -0.572414 1.510867 2.534734
v -0.201861 2.122597 2.136618
v -0.640315 1.479648 2.254231
v -0.209885 2.112029 1.962952
v -0.653688 1.462033 1.964787
v -0.184884 2.110029 1.790594
v -0.612020 1.458700 1.677524
v -0.127819 2.116675 1.626170
v -0.516911 1.469777 1.403483
v -0.040882 2.131711 1.475996
v -0.372016 1.494838 1.153195
v 0.072585 2.154561 1.345845
v -0.182904 1.532920 0.936276
v 0.208222 2.184345 1.240718
v 0.043158 1.582560 0.761065
v 0.360818 2.219919 1.164655
v 0.297483 1.641850 0.634293
v 0.524505 2.259915 1.120580
v 0.570296 1.708511 0.560834
v 0.692997 2.302798 1.110185
v 0.851115 1.779982 0.543510
v 0.859815 2.346919 1.133871
v 1.129146 1.853516 0.582986
v 1.018551 2.390582 1.190727
v 1.393705 1.926288 0.677746
v 1.163104 2.432109 1.278569
v 1.634628 1.995500 0.824148
v 1.287919 2.469905 1.394019
v 1.842652 2.058493 1.016566
v 1.388200 2.502517 1.532643
v 2.009786 2.112847 1.247606
vn 0.743070 -0.625955 -0.236702
vn 0.782975 -0.610045 -0.121637
vn 0.800252 -0.599664 -0.000481
vn 0.794237 -0.595211 0.122113
vn 0.765161 -0.596857 0.241433
vn 0.714142 -0.604539 0.352893
vn 0.643141 -0.617962 0.452209
vn 0.554885 -0.636609 0.535566
vn 0.452767 -0.659765 0.599760
vn 0.340710 -0.686539 0.642325
vn 0.223022 -0.715903 0.661623
vn 0.104224 -0.746727 0.656914
vn -0.011117 -0.777828 0.628379
vn -0.118571 -0.808011 0.577113
vn -0.214006 -0.836114 0.505088
vn -0.293755 -0.861059 0.415072
vn -0.354755 -0.881887 0.310523
vn -0.394659 -0.897797 0.195459
vn -0.411936 -0.908178 0.074302
vn -0.405922 -0.912631 -0.048291
vn -0.376846 -0.910985 -0.167611
vn -0.325827 -0.903303 -0.279071
vn -0.254825 -0.889880 -0.378387
vn -0.166570 -0.871233 -0.461745
vn -0.064451 -0.848077 -0.525939
vn 0.047605 -0.821303 -0.568503
vn 0.165295 -0.791939 -0.587801
vn 0.284091 -0.761115 -0.583092
vn 0.399433 -0.730014 -0.554557
vn 0.506886 -0.699831 -0.503292
vn 0.602321 -0.671728 -0.431267
vn 0.682071 -0.646783 -0.341250
vn 0.391415 0.861317 -0.323926
vn 0.433471 0.878084 -0.202660
vn 0.451679 0.889025 -0.074973
vn 0.445340 0.893718 0.054229
vn 0.414697 0.891983 0.179980
vn 0.360928 0.883887 0.297447
vn 0.286100 0.869741 0.402117
vn 0.193087 0.850088 0.489967
vn 0.085464 0.825684 0.557622
vn -0.032632 0.797467 0.602480
vn -0.156664 0.766521 0.622818
vn -0.281866 0.734034 0.617855
vn -0.403424 0.701257 0.587782
vn -0.516668 0.669448 0.533754
vn -0.617248 0.639829 0.457847
vn -0.701296 0.613540 0.362978
vn -0.765583 0.591590 0.252794
vn -0.807639 0.574822 0.131527
vn -0.825847 0.563881 0.003841
vn -0.819508 0.559188 -0.125361
vn -0.788865 0.560923 -0.251112
vn -0.735096 0.569019 -0.368579
vn -0.660268 0.583165 -0.473249
vn -0.567255 0.602818 -0.561099
vn -0.459632 0.627222 -0.628754
vn -0.341536 0.655439 -0.673612
vn -0.217503 0.686386 -0.693950
vn -0.092302 0.718872 -0.688988
vn 0.029256 0.751649 -0.658914
vn 0.142501 0.783458 -0.604886
vn 0.243080 0.813077 -0.528979
vn 0.327128 0.839366 -0.434110
vn -0.249114 0.967316 -0.047359
vn -0.249114 0.967316 -0.047358
vn -0.249114 0.967316 -0.047357
vn -0.249113 0.967316 -0.047358
vn -0.249113 0.967316 -0.047359
vn -0.249112 0.967316 -0.047358
usemtl Material
s off
f 12//7 10//7 74//7
f 10//8 12//8 14//8
f 10//9 14//9 16//9
f 10//10 16//10 18//10
f 10//11 18//11 20//11
f 10//12 20//12 22//12
f 10//13 22//13 24//13
f 10//14 24//14 26//14
f 10//15 26//15 28//15
f 10//16 28//16 30//16
f 10//17 30//17 32//17
f 10//18 32//18 34//18
f 10//19 34//19 36//19
f 10//20 36//20 38//20
f 10//21 38//21 40//21
f 10//22 40//22 42//22
f 10//23 42//23 44//23
f 10//24 44//24 46//24
f 10//25 46//25 48//25
f 10//26 48//26 50//26
f 10//27 50//27 52//27
f 10//28 52//28 54//28
f 10//29 54//29 56//29
f 10//30 56//30 58//30
f 10//31 58//31 60//31
f 10//32 60//32 62//32
f 10//33 62//33 64//33
f 10//34 64//34 66//34
f 10//35 66//35 68//35
f 10//36 68//36 70//36
f 10//37 70//37 72//37
f 10//38 72//38 74//38
f 11//39 12//39 74//39
f 11//39 74//39 73//39
f 12//40 11//40 13//40
f 12//40 13//40 14//40
f 14//41 13//41 15//41
f 14//41 15//41 16//41
f 16//42 15//42 17//42
f 16//42 17//42 18//42
f 18//43 17//43 19//43
f 18//43 19//43 20//43
f 20//44 19//44 21//44
f 20//44 21//44 22//44
f 22//45 21//45 23//45
f 22//45 23//45 24//45
f 24//46 23//46 25//46
f 24//46 25//46 26//46
f 26//47 25//47 27//47
f 26//47 27//47 28//47
f 28//48 27//48 29//48
f 28//48 29//48 30//48
f 30//49 29//49 31//49
f 30//49 31//49 32//49
f 32//50 31//50 33//50
f 32//50 33//50 34//50
f 34//51 33//51 35//51
f 34//51 35//51 36//51
f 36//52 35//52 37//52
f 36//52 37//52 38//52
f 38//53 37//53 39//53
f 38//53 39//53 40//53
f 40//54 39//54 41//54
f 40//54 41//54 42//54
f 42//55 41//55 43//55
f 42//55 43//55 44//55
f 44//56 43//56 45//56
f 44//56 45//56 46//56
f 46//57 45//57 47//57
f 46//57 47//57 48//57
f 48//58 47//58 49//58
f 48//58 49//58 50//58
f 50//59 49//59 51//59
f 50//59 51//59 52//59
f 52//60 51//60 53//60
f 52//60 53//60 54//60
f 54//61 53//61 55//61
f 54//61 55//61 56//61
f 56//62 55//62 57//62
f 56//62 57//62 58//62
f 58//63 57//63 59//63
f 58//63 59//63 60//63
f 60//64 59//64 61//64
f 60//64 61//64 62//64
f 62//65 61//65 63//65
f 62//65 63//65 64//65
f 64//66 63//66 65//66
f 64//66 65//66 66//66
f 66//67 65//67 67//67
f 66//67 67//67 68//67
f 68//68 67//68 69//68
f 68//68 69//68 70//68
f 70//69 69//69 71//69
f 70//69 71//69 72//69
f 72//70 71//70 73//70
f 72//70 73//70 74//70
f 9//71 11//71 73//71
f 11//72 9//72 13//72
f 13//72 9//72 15//72
f 15//73 9//73 17//73
f 17//74 9//74 19//74
f 19//75 9//75 21//75
f 21//72 9//72 23//72
f 23//75 9//75 25//75
f 25//72 9//72 27//72
f 27//72 9//72 29//72
f 29//74 9//74 31//74
f 31//72 9//72 33//72
f 33//74 9//74 35//74
f 35//74 9//74 37//74
f 37//71 9//71 39//71
f 39//71 9//71 41//71
f 41//74 9//74 43//74
f 43//74 9//74 45//74
f 45//74 9//74 47//74
f 47//75 9//75 49//75
f 49//74 9//74 51//74
f 51//74 9//74 53//74
f 53//73 9//73 55//73
f 55//74 9//74 57//74
f 57//74 9//74 59//74
f 59//74 9//74 61//74
f 61//72 9//72 63//72
f 63//76 9//76 65//76
f 65//71 9//71 67//71
f 67//74 9//74 69//74
f 69//74 9//74 71//74
f 71//74 9//74 73//74
