# Blender v2.64 (sub 0) OBJ File: ''
# www.blender.org
mtllib untitled_000022.mtl
o Cube
v -8.729040 -2.858973 10.487860
v -8.729040 -2.858973 -7.293924
v 9.052744 -2.858973 -7.293924
v 9.052744 -2.858973 10.487860
v -8.729040 14.922812 10.487860
v -8.729040 14.922812 -7.293924
v 9.052744 14.922812 -7.293924
v 9.052744 14.922812 10.487860
vn -1.000000 -0.000000 0.000000
vn 0.000000 0.000000 -1.000000
vn 1.000000 -0.000000 0.000000
vn 0.000000 0.000000 1.000000
vn -0.000000 -1.000000 0.000000
vn -0.000000 1.000000 0.000000
usemtl Material.003
s off
f 2//1 1//1 5//1
f 2//1 5//1 6//1
usemtl Material.005
f 6//2 7//2 3//2
f 6//2 3//2 2//2
usemtl Material.004
f 7//3 8//3 4//3
f 7//3 4//3 3//3
usemtl Material.002
f 1//4 4//4 8//4
f 1//4 8//4 5//4
usemtl Material.001
f 1//5 2//5 3//5
f 1//5 3//5 4//5
f 8//6 7//6 6//6
f 8//6 6//6 5//6
o Diamond
v -2.838207 2.223490 2.166296
v -1.821723 0.942650 1.690738
v -2.470939 2.744693 1.547537
v -1.916730 2.702340 0.990297
v -2.358807 2.786723 1.674012
v -1.729842 2.772391 1.201088
v -2.265097 2.807110 1.819405
v -1.573660 2.806368 1.443409
v -2.193412 2.805068 1.978129
v -1.454184 2.802965 1.707949
v -2.146506 2.780676 2.144084
v -1.376008 2.762312 1.984541
v -2.126182 2.734872 2.310892
v -1.342134 2.685972 2.262555
v -2.133220 2.669416 2.472144
v -1.353864 2.576879 2.531307
v -2.167351 2.586823 2.621642
v -1.410748 2.439224 2.780471
v -2.227262 2.490268 2.753642
v -1.510600 2.278298 3.000471
v -2.310651 2.383460 2.863070
v -1.649583 2.100286 3.182851
v -2.414315 2.270505 2.945721
v -1.822355 1.912027 3.320603
v -2.534267 2.155743 2.998420
v -2.022276 1.720758 3.408434
v -2.665901 2.043585 3.019140
v -2.241666 1.533826 3.442968
v -2.804156 1.938340 3.007087
v -2.472090 1.358419 3.422879
v -2.943719 1.844054 2.962722
v -2.704696 1.201275 3.348937
v -3.079228 1.764349 2.887751
v -2.930544 1.068433 3.223985
v -3.205475 1.702288 2.785054
v -3.140955 0.964999 3.052825
v -3.317607 1.660257 2.658580
v -3.327843 0.894948 2.842034
v -3.411316 1.639871 2.513187
v -3.484025 0.860971 2.599713
v -3.483002 1.641913 2.354463
v -3.603501 0.864374 2.335172
v -3.529908 1.666305 2.188508
v -3.681677 0.905027 2.058581
v -3.550232 1.712109 2.021700
v -3.715551 0.981367 1.780568
v -3.543194 1.777565 1.860448
v -3.703821 1.090460 1.511814
v -3.509064 1.860157 1.710950
v -3.646937 1.228115 1.262651
v -3.449152 1.956713 1.578950
v -3.547085 1.389041 1.042651
v -3.365763 2.063521 1.469522
v -3.408102 1.567053 0.860271
v -3.262100 2.176476 1.386870
v -3.235330 1.755312 0.722518
v -3.142147 2.291238 1.334172
v -3.035408 1.946581 0.634688
v -3.010514 2.403396 1.313451
v -2.816020 2.133512 0.600153
v -2.872258 2.508641 1.325505
v -2.585594 2.308920 0.620243
v -2.732695 2.602927 1.369870
v -2.352989 2.466064 0.694184
v -2.597186 2.682632 1.444841
v -2.127140 2.598906 0.819137
vn 0.680737 -0.238888 -0.692481
vn 0.765193 -0.202009 -0.611287
vn 0.838121 -0.179895 -0.514967
vn 0.896719 -0.173396 -0.407221
vn 0.938735 -0.182761 -0.292189
vn 0.962554 -0.207631 -0.174294
vn 0.967262 -0.247049 -0.058064
vn 0.952676 -0.299502 0.052031
vn 0.919357 -0.362973 0.151765
vn 0.868587 -0.435023 0.237300
vn 0.802316 -0.512883 0.305352
vn 0.723090 -0.593562 0.353306
vn 0.633955 -0.673958 0.379318
vn 0.538336 -0.750982 0.382389
vn 0.439907 -0.821674 0.362400
vn 0.342451 -0.883318 0.320120
vn 0.249713 -0.933544 0.257174
vn 0.165257 -0.970423 0.175980
vn 0.092329 -0.992537 0.079660
vn 0.033731 -0.999036 -0.028087
vn -0.008285 -0.989671 -0.143118
vn -0.032105 -0.964801 -0.261013
vn -0.036812 -0.925383 -0.377242
vn -0.022226 -0.872930 -0.487339
vn 0.011092 -0.809459 -0.587071
vn 0.061863 -0.737409 -0.672607
vn 0.128134 -0.659549 -0.740660
vn 0.207359 -0.578871 -0.788613
vn 0.296494 -0.498475 -0.814625
vn 0.392114 -0.421450 -0.817696
vn 0.490543 -0.350758 -0.797707
vn 0.587999 -0.289114 -0.755427
vn -0.221147 0.930908 -0.290697
vn -0.132139 0.969774 -0.205127
vn -0.055280 0.993080 -0.103615
vn 0.006477 0.999930 0.009939
vn 0.050758 0.990060 0.131171
vn 0.075861 0.963849 0.255420
vn 0.080822 0.922306 0.377915
vn 0.065450 0.867026 0.493946
vn 0.030336 0.800135 0.599053
vn -0.023171 0.724200 0.689200
vn -0.093015 0.642144 0.760920
vn -0.176511 0.557116 0.811459
vn -0.270450 0.472387 0.838872
vn -0.371223 0.391211 0.842109
vn -0.474958 0.316708 0.821043
vn -0.577667 0.251742 0.776484
vn -0.675403 0.198808 0.710145
vn -0.764412 0.159942 0.624575
vn -0.841271 0.136636 0.523062
vn -0.903027 0.129787 0.409509
vn -0.947308 0.139656 0.288277
vn -0.972411 0.165867 0.164027
vn -0.977372 0.207410 0.041533
vn -0.962000 0.262690 -0.074497
vn -0.926886 0.329582 -0.179606
vn -0.873379 0.405516 -0.269753
vn -0.803535 0.487572 -0.341473
vn -0.720040 0.572599 -0.392011
vn -0.626100 0.657329 -0.419425
vn -0.525327 0.738505 -0.422661
vn -0.421592 0.813007 -0.401595
vn -0.318883 0.877974 -0.357036
vn -0.596906 0.752142 0.279259
vn -0.596905 0.752142 0.279260
vn -0.596905 0.752143 0.279259
vn -0.596906 0.752142 0.279261
vn -0.596906 0.752141 0.279260
vn -0.596904 0.752143 0.279260
vn -0.596905 0.752142 0.279261
vn -0.596905 0.752143 0.279260
vn -0.596906 0.752142 0.279260
usemtl Material
s off
f 12//7 10//7 74//7
f 10//8 12//8 14//8
f 10//9 14//9 16//9
f 10//10 16//10 18//10
f 10//11 18//11 20//11
f 10//12 20//12 22//12
f 10//13 22//13 24//13
f 10//14 24//14 26//14
f 10//15 26//15 28//15
f 10//16 28//16 30//16
f 10//17 30//17 32//17
f 10//18 32//18 34//18
f 10//19 34//19 36//19
f 10//20 36//20 38//20
f 10//21 38//21 40//21
f 10//22 40//22 42//22
f 10//23 42//23 44//23
f 10//24 44//24 46//24
f 10//25 46//25 48//25
f 10//26 48//26 50//26
f 10//27 50//27 52//27
f 10//28 52//28 54//28
f 10//29 54//29 56//29
f 10//30 56//30 58//30
f 10//31 58//31 60//31
f 10//32 60//32 62//32
f 10//33 62//33 64//33
f 10//34 64//34 66//34
f 10//35 66//35 68//35
f 10//36 68//36 70//36
f 10//37 70//37 72//37
f 10//38 72//38 74//38
f 11//39 12//39 74//39
f 11//39 74//39 73//39
f 12//40 11//40 13//40
f 12//40 13//40 14//40
f 14//41 13//41 15//41
f 14//41 15//41 16//41
f 16//42 15//42 17//42
f 16//42 17//42 18//42
f 18//43 17//43 19//43
f 18//43 19//43 20//43
f 20//44 19//44 21//44
f 20//44 21//44 22//44
f 22//45 21//45 23//45
f 22//45 23//45 24//45
f 24//46 23//46 25//46
f 24//46 25//46 26//46
f 26//47 25//47 27//47
f 26//47 27//47 28//47
f 28//48 27//48 29//48
f 28//48 29//48 30//48
f 30//49 29//49 31//49
f 30//49 31//49 32//49
f 32//50 31//50 33//50
f 32//50 33//50 34//50
f 34//51 33//51 35//51
f 34//51 35//51 36//51
f 36//52 35//52 37//52
f 36//52 37//52 38//52
f 38//53 37//53 39//53
f 38//53 39//53 40//53
f 40//54 39//54 41//54
f 40//54 41//54 42//54
f 42//55 41//55 43//55
f 42//55 43//55 44//55
f 44//56 43//56 45//56
f 44//56 45//56 46//56
f 46//57 45//57 47//57
f 46//57 47//57 48//57
f 48//58 47//58 49//58
f 48//58 49//58 50//58
f 50//59 49//59 51//59
f 50//59 51//59 52//59
f 52//60 51//60 53//60
f 52//60 53//60 54//60
f 54//61 53//61 55//61
f 54//61 55//61 56//61
f 56//62 55//62 57//62
f 56//62 57//62 58//62
f 58//63 57//63 59//63
f 58//63 59//63 60//63
f 60//64 59//64 61//64
f 60//64 61//64 62//64
f 62//65 61//65 63//65
f 62//65 63//65 64//65
f 64//66 63//66 65//66
f 64//66 65//66 66//66
f 66//67 65//67 67//67
f 66//67 67//67 68//67
f 68//68 67//68 69//68
f 68//68 69//68 70//68
f 70//69 69//69 71//69
f 70//69 71//69 72//69
f 72//70 71//70 73//70
f 72//70 73//70 74//70
f 9//71 11//71 73//71
f 11//72 9//72 13//72
f 13//72 9//72 15//72
f 15//72 9//72 17//72
f 17//73 9//73 19//73
f 19//72 9//72 21//72
f 21//73 9//73 23//73
f 23//72 9//72 25//72
f 25//73 9//73 27//73
f 27//74 9//74 29//74
f 29//73 9//73 31//73
f 31//75 9//75 33//75
f 33//76 9//76 35//76
f 35//76 9//76 37//76
f 37//71 9//71 39//71
f 39//72 9//72 41//72
f 41//72 9//72 43//72
f 43//72 9//72 45//72
f 45//71 9//71 47//71
f 47//77 9//77 49//77
f 49//72 9//72 51//72
f 51//73 9//73 53//73
f 53//72 9//72 55//72
f 55//72 9//72 57//72
f 57//72 9//72 59//72
f 59//72 9//72 61//72
f 61//72 9//72 63//72
f 63//78 9//78 65//78
f 65//72 9//72 67//72
f 67//79 9//79 69//79
f 69//72 9//72 71//72
f 71//76 9//76 73//76
