# Blender v2.64 (sub 0) OBJ File: ''
# www.blender.org
mtllib untitled_000082.mtl
o Cube
v -8.729040 -2.858973 10.487860
v -8.729040 -2.858973 -7.293924
v 9.052744 -2.858973 -7.293924
v 9.052744 -2.858973 10.487860
v -8.729040 14.922812 10.487860
v -8.729040 14.922812 -7.293924
v 9.052744 14.922812 -7.293924
v 9.052744 14.922812 10.487860
vn -1.000000 -0.000000 0.000000
vn 0.000000 0.000000 -1.000000
vn 1.000000 -0.000000 0.000000
vn 0.000000 0.000000 1.000000
vn -0.000000 -1.000000 0.000000
vn -0.000000 1.000000 0.000000
usemtl Material.003
s off
f 2//1 1//1 5//1
f 2//1 5//1 6//1
usemtl Material.005
f 6//2 7//2 3//2
f 6//2 3//2 2//2
usemtl Material.004
f 7//3 8//3 4//3
f 7//3 4//3 3//3
usemtl Material.002
f 1//4 4//4 8//4
f 1//4 8//4 5//4
usemtl Material.001
f 1//5 2//5 3//5
f 1//5 3//5 4//5
f 8//6 7//6 6//6
f 8//6 6//6 5//6
o Diamond
v 3.999948 3.223556 -0.014143
v 4.833669 1.821513 -0.503152
v 3.339666 3.026557 -0.575052
v 3.153220 2.468516 -1.097821
v 3.431411 3.120907 -0.689146
v 3.306128 2.625765 -1.287976
v 3.545004 3.219201 -0.777299
v 3.495450 2.789589 -1.434898
v 3.676081 3.317663 -0.836124
v 3.713911 2.953691 -1.532941
v 3.819603 3.412508 -0.863362
v 3.953115 3.111767 -1.578336
v 3.970057 3.500092 -0.857964
v 4.203870 3.257740 -1.569340
v 4.121658 3.577048 -0.820138
v 4.456540 3.386001 -1.506298
v 4.268582 3.640420 -0.751339
v 4.701414 3.491621 -1.391632
v 4.405184 3.687773 -0.654210
v 4.929082 3.570542 -1.229750
v 4.526212 3.717286 -0.532483
v 5.130795 3.619730 -1.026872
v 4.627016 3.727824 -0.390837
v 5.298802 3.637295 -0.790795
v 4.703722 3.718985 -0.234715
v 5.426645 3.622562 -0.530591
v 4.753382 3.691106 -0.070115
v 5.509413 3.576097 -0.256259
v 4.774088 3.645259 0.096634
v 5.543923 3.499686 0.021657
v 4.765045 3.583207 0.259127
v 5.528851 3.396266 0.292478
v 4.726599 3.507334 0.411118
v 5.464775 3.269810 0.545797
v 4.660229 3.420555 0.546767
v 5.354157 3.125178 0.771878
v 4.568484 3.326205 0.660860
v 5.201250 2.967929 0.962033
v 4.454891 3.227911 0.749013
v 5.011928 2.804106 1.108955
v 4.323814 3.129449 0.807839
v 4.793466 2.640002 1.206998
v 4.180292 3.034604 0.835076
v 4.554263 2.481928 1.252393
v 4.029839 2.947021 0.829678
v 4.303508 2.335955 1.243397
v 3.878237 2.870064 0.791853
v 4.050838 2.207693 1.180355
v 3.731313 2.806691 0.723054
v 3.805964 2.102073 1.065689
v 3.594712 2.759339 0.625924
v 3.578295 2.023152 0.903807
v 3.473684 2.729826 0.504198
v 3.376582 1.973964 0.700929
v 3.372880 2.719287 0.362551
v 3.208575 1.956400 0.464851
v 3.296174 2.728127 0.206429
v 3.080732 1.971133 0.204648
v 3.246513 2.756006 0.041830
v 2.997965 2.017597 -0.069683
v 3.225807 2.801852 -0.124920
v 2.963454 2.094008 -0.347600
v 3.234850 2.863905 -0.287412
v 2.978527 2.197428 -0.618421
v 3.273296 2.939778 -0.439404
v 3.042603 2.323884 -0.871740
vn -0.109801 -0.812023 -0.573203
vn -0.053782 -0.747851 -0.661684
vn 0.018967 -0.679599 -0.733338
vn 0.105652 -0.609890 -0.785412
vn 0.202940 -0.541403 -0.815903
vn 0.307094 -0.476769 -0.823641
vn 0.414109 -0.418474 -0.808327
vn 0.519875 -0.368757 -0.770551
vn 0.620325 -0.329528 -0.711764
vn 0.711601 -0.302295 -0.634225
vn 0.790195 -0.288105 -0.540913
vn 0.853085 -0.287503 -0.435417
vn 0.897856 -0.300512 -0.321787
vn 0.922786 -0.326632 -0.204393
vn 0.926918 -0.364860 -0.087745
vn 0.910093 -0.413726 0.023674
vn 0.872958 -0.471353 0.125583
vn 0.816939 -0.535525 0.214064
vn 0.744189 -0.603778 0.285719
vn 0.657504 -0.673487 0.337793
vn 0.560217 -0.741973 0.368284
vn 0.456063 -0.806607 0.376021
vn 0.349047 -0.864902 0.360708
vn 0.243282 -0.914620 0.322931
vn 0.142831 -0.953849 0.264144
vn 0.051555 -0.981081 0.186605
vn -0.027039 -0.995272 0.093294
vn -0.089929 -0.995873 -0.012203
vn -0.134699 -0.982864 -0.125832
vn -0.159630 -0.956744 -0.243227
vn -0.163762 -0.918516 -0.359875
vn -0.146937 -0.869650 -0.471294
vn -0.885541 0.438793 -0.152569
vn -0.826503 0.506424 -0.245821
vn -0.749832 0.578355 -0.321337
vn -0.658475 0.651822 -0.376217
vn -0.555942 0.724000 -0.408352
vn -0.446176 0.792117 -0.416507
vn -0.333391 0.853555 -0.400368
vn -0.221925 0.905952 -0.360555
vn -0.116060 0.947295 -0.298599
vn -0.019864 0.975996 -0.216881
vn 0.062966 0.990951 -0.118540
vn 0.129246 0.991585 -0.007356
vn 0.176430 0.977875 0.112396
vn 0.202704 0.950347 0.236119
vn 0.207059 0.910058 0.359055
vn 0.189327 0.858559 0.476479
vn 0.150190 0.797826 0.583881
vn 0.091151 0.730194 0.677132
vn 0.014480 0.658263 0.752648
vn -0.076877 0.584797 0.807529
vn -0.179409 0.512618 0.839664
vn -0.289176 0.444502 0.847818
vn -0.401960 0.383064 0.831679
vn -0.513426 0.330667 0.791867
vn -0.619292 0.289323 0.729911
vn -0.715488 0.260623 0.648192
vn -0.798317 0.245668 0.549852
vn -0.864598 0.245033 0.438668
vn -0.911781 0.258744 0.318914
vn -0.938056 0.286272 0.195193
vn -0.942411 0.326560 0.072257
vn -0.924679 0.378060 -0.045168
vn -0.489583 0.823316 0.287159
vn -0.489583 0.823316 0.287158
vn -0.489582 0.823316 0.287158
vn -0.489584 0.823315 0.287158
vn -0.489582 0.823316 0.287159
vn -0.489581 0.823316 0.287159
vn -0.489583 0.823315 0.287159
vn -0.489581 0.823317 0.287159
usemtl Material
s off
f 12//7 10//7 74//7
f 10//8 12//8 14//8
f 10//9 14//9 16//9
f 10//10 16//10 18//10
f 10//11 18//11 20//11
f 10//12 20//12 22//12
f 10//13 22//13 24//13
f 10//14 24//14 26//14
f 10//15 26//15 28//15
f 10//16 28//16 30//16
f 10//17 30//17 32//17
f 10//18 32//18 34//18
f 10//19 34//19 36//19
f 10//20 36//20 38//20
f 10//21 38//21 40//21
f 10//22 40//22 42//22
f 10//23 42//23 44//23
f 10//24 44//24 46//24
f 10//25 46//25 48//25
f 10//26 48//26 50//26
f 10//27 50//27 52//27
f 10//28 52//28 54//28
f 10//29 54//29 56//29
f 10//30 56//30 58//30
f 10//31 58//31 60//31
f 10//32 60//32 62//32
f 10//33 62//33 64//33
f 10//34 64//34 66//34
f 10//35 66//35 68//35
f 10//36 68//36 70//36
f 10//37 70//37 72//37
f 10//38 72//38 74//38
f 11//39 12//39 74//39
f 11//39 74//39 73//39
f 12//40 11//40 13//40
f 12//40 13//40 14//40
f 14//41 13//41 15//41
f 14//41 15//41 16//41
f 16//42 15//42 17//42
f 16//42 17//42 18//42
f 18//43 17//43 19//43
f 18//43 19//43 20//43
f 20//44 19//44 21//44
f 20//44 21//44 22//44
f 22//45 21//45 23//45
f 22//45 23//45 24//45
f 24//46 23//46 25//46
f 24//46 25//46 26//46
f 26//47 25//47 27//47
f 26//47 27//47 28//47
f 28//48 27//48 29//48
f 28//48 29//48 30//48
f 30//49 29//49 31//49
f 30//49 31//49 32//49
f 32//50 31//50 33//50
f 32//50 33//50 34//50
f 34//51 33//51 35//51
f 34//51 35//51 36//51
f 36//52 35//52 37//52
f 36//52 37//52 38//52
f 38//53 37//53 39//53
f 38//53 39//53 40//53
f 40//54 39//54 41//54
f 40//54 41//54 42//54
f 42//55 41//55 43//55
f 42//55 43//55 44//55
f 44//56 43//56 45//56
f 44//56 45//56 46//56
f 46//57 45//57 47//57
f 46//57 47//57 48//57
f 48//58 47//58 49//58
f 48//58 49//58 50//58
f 50//59 49//59 51//59
f 50//59 51//59 52//59
f 52//60 51//60 53//60
f 52//60 53//60 54//60
f 54//61 53//61 55//61
f 54//61 55//61 56//61
f 56//62 55//62 57//62
f 56//62 57//62 58//62
f 58//63 57//63 59//63
f 58//63 59//63 60//63
f 60//64 59//64 61//64
f 60//64 61//64 62//64
f 62//65 61//65 63//65
f 62//65 63//65 64//65
f 64//66 63//66 65//66
f 64//66 65//66 66//66
f 66//67 65//67 67//67
f 66//67 67//67 68//67
f 68//68 67//68 69//68
f 68//68 69//68 70//68
f 70//69 69//69 71//69
f 70//69 71//69 72//69
f 72//70 71//70 73//70
f 72//70 73//70 74//70
f 9//71 11//71 73//71
f 11//72 9//72 13//72
f 13//71 9//71 15//71
f 15//73 9//73 17//73
f 17//73 9//73 19//73
f 19//73 9//73 21//73
f 21//74 9//74 23//74
f 23//75 9//75 25//75
f 25//76 9//76 27//76
f 27//72 9//72 29//72
f 29//75 9//75 31//75
f 31//75 9//75 33//75
f 33//73 9//73 35//73
f 35//73 9//73 37//73
f 37//75 9//75 39//75
f 39//73 9//73 41//73
f 41//73 9//73 43//73
f 43//71 9//71 45//71
f 45//77 9//77 47//77
f 47//75 9//75 49//75
f 49//71 9//71 51//71
f 51//78 9//78 53//78
f 53//72 9//72 55//72
f 55//71 9//71 57//71
f 57//75 9//75 59//75
f 59//75 9//75 61//75
f 61//72 9//72 63//72
f 63//72 9//72 65//72
f 65//72 9//72 67//72
f 67//71 9//71 69//71
f 69//72 9//72 71//72
f 71//73 9//73 73//73
