# Blender v2.64 (sub 0) OBJ File: ''
# www.blender.org
mtllib untitled_000094.mtl
o Cube
v -8.729040 -2.858973 10.487860
v -8.729040 -2.858973 -7.293924
v 9.052744 -2.858973 -7.293924
v 9.052744 -2.858973 10.487860
v -8.729040 14.922812 10.487860
v -8.729040 14.922812 -7.293924
v 9.052744 14.922812 -7.293924
v 9.052744 14.922812 10.487860
vn -1.000000 -0.000000 0.000000
vn 0.000000 0.000000 -1.000000
vn 1.000000 -0.000000 0.000000
vn 0.000000 0.000000 1.000000
vn -0.000000 -1.000000 0.000000
vn -0.000000 1.000000 0.000000
usemtl Material.003
s off
f 2//1 1//1 5//1
f 2//1 5//1 6//1
usemtl Material.005
f 6//2 7//2 3//2
f 6//2 3//2 2//2
usemtl Material.004
f 7//3 8//3 4//3
f 7//3 4//3 3//3
usemtl Material.002
f 1//4 4//4 8//4
f 1//4 8//4 5//4
usemtl Material.001
f 1//5 2//5 3//5
f 1//5 3//5 4//5
f 8//6 7//6 6//6
f 8//6 6//6 5//6
o Diamond
v 0.980205 7.188360 5.354403
v 1.134867 5.563298 4.869428
v 0.301714 7.292150 4.790243
v -0.103542 6.866760 4.266535
v 0.425548 7.337849 4.676607
v 0.102847 6.942924 4.077142
v 0.570696 7.377803 4.589019
v 0.344761 7.009514 3.931161
v 0.731582 7.410476 4.530843
v 0.612905 7.063970 3.834203
v 0.902023 7.434614 4.504317
v 0.896972 7.104199 3.789992
v 1.075468 7.449288 4.510459
v 1.186047 7.128656 3.800229
v 1.245251 7.453935 4.549034
v 1.469020 7.136401 3.864520
v 1.404850 7.448376 4.618558
v 1.735017 7.127136 3.980393
v 1.548129 7.432825 4.716360
v 1.973816 7.101217 4.143397
v 1.669584 7.407879 4.838682
v 2.176241 7.059641 4.347268
v 1.764546 7.374497 4.980823
v 2.334511 7.004004 4.584169
v 1.829366 7.333962 5.137320
v 2.442545 6.936446 4.844997
v 1.861554 7.287831 5.302160
v 2.496191 6.859562 5.119731
v 1.859872 7.237878 5.469007
v 2.493387 6.776307 5.397809
v 1.824385 7.186022 5.631450
v 2.434242 6.689880 5.668548
v 1.756456 7.134256 5.783247
v 2.321028 6.603603 5.921542
v 1.658697 7.084569 5.918563
v 2.158095 6.520791 6.147069
v 1.534863 7.038870 6.032199
v 1.951706 6.444627 6.336462
v 1.389715 6.998917 6.119787
v 1.709792 6.378037 6.482442
v 1.228828 6.966243 6.177962
v 1.441648 6.323582 6.579401
v 1.058388 6.942105 6.204489
v 1.157582 6.283352 6.623611
v 0.884944 6.927431 6.198347
v 0.868507 6.258895 6.613375
v 0.715160 6.922784 6.159772
v 0.585533 6.251150 6.549084
v 0.555561 6.928343 6.090248
v 0.319536 6.260415 6.433210
v 0.412281 6.943894 5.992445
v 0.080736 6.286334 6.270206
v 0.290827 6.968841 5.870124
v -0.121688 6.327910 6.066337
v 0.195865 7.002223 5.727983
v -0.279958 6.383547 5.829435
v 0.131044 7.042758 5.571486
v -0.387992 6.451105 5.568606
v 0.098857 7.088888 5.406646
v -0.441638 6.527989 5.293874
v 0.100539 7.138841 5.239799
v -0.438834 6.611245 5.015795
v 0.136026 7.190697 5.077355
v -0.379689 6.697671 4.745057
v 0.203955 7.242463 4.925559
v -0.266474 6.783948 4.492062
vn -0.444617 -0.687818 -0.573778
vn -0.366109 -0.654024 -0.661979
vn -0.270812 -0.623679 -0.733271
vn -0.162385 -0.597947 -0.784914
vn -0.044999 -0.577819 -0.814923
vn 0.076837 -0.564069 -0.822145
vn 0.198441 -0.557223 -0.806302
vn 0.315137 -0.557546 -0.768004
vn 0.422445 -0.565026 -0.708722
vn 0.516239 -0.579374 -0.630733
vn 0.592913 -0.600039 -0.537036
vn 0.649523 -0.626227 -0.431230
vn 0.683892 -0.656932 -0.317384
vn 0.694700 -0.690973 -0.199870
vn 0.681531 -0.727044 -0.083204
vn 0.644892 -0.763756 0.028128
vn 0.586190 -0.799700 0.129850
vn 0.507681 -0.833495 0.218052
vn 0.412383 -0.863841 0.289344
vn 0.303957 -0.889572 0.340987
vn 0.186571 -0.909699 0.370996
vn 0.064736 -0.923450 0.378218
vn -0.056869 -0.930296 0.362375
vn -0.173567 -0.929973 0.324077
vn -0.280874 -0.922493 0.264794
vn -0.374667 -0.908146 0.186806
vn -0.451341 -0.887481 0.093109
vn -0.507951 -0.861292 -0.012696
vn -0.542321 -0.830587 -0.126544
vn -0.553128 -0.796546 -0.244057
vn -0.539960 -0.760475 -0.360723
vn -0.503321 -0.723763 -0.472054
vn -0.611392 0.775618 -0.156900
vn -0.528651 0.811234 -0.249856
vn -0.428217 0.843215 -0.324990
vn -0.313946 0.870333 -0.379418
vn -0.190232 0.891546 -0.411044
vn -0.061830 0.906038 -0.418655
vn 0.066329 0.913252 -0.401958
vn 0.189316 0.912912 -0.361596
vn 0.302407 0.905030 -0.299118
vn 0.401256 0.889908 -0.216927
vn 0.482064 0.868129 -0.118179
vn 0.541725 0.840529 -0.006670
vn 0.577946 0.808170 0.113313
vn 0.589337 0.772293 0.237163
vn 0.575458 0.734279 0.360115
vn 0.536844 0.695587 0.477448
vn 0.474978 0.657705 0.584653
vn 0.392237 0.622089 0.677609
vn 0.291802 0.590108 0.752745
vn 0.177533 0.562990 0.807171
vn 0.053819 0.541777 0.838797
vn -0.074585 0.527285 0.846409
vn -0.202742 0.520071 0.829712
vn -0.325730 0.520412 0.789349
vn -0.438820 0.528294 0.726872
vn -0.537670 0.543415 0.644679
vn -0.618478 0.565194 0.545931
vn -0.678139 0.592794 0.434424
vn -0.714360 0.625154 0.314440
vn -0.725751 0.661030 0.190592
vn -0.711872 0.699045 0.067638
vn -0.673257 0.737737 -0.049697
vn -0.090823 0.954278 0.284790
vn -0.090821 0.954278 0.284788
vn -0.090824 0.954277 0.284791
vn -0.090820 0.954278 0.284789
vn -0.090821 0.954278 0.284789
vn -0.090822 0.954278 0.284789
vn -0.090821 0.954278 0.284790
vn -0.090822 0.954278 0.284790
vn -0.090823 0.954278 0.284789
vn -0.090820 0.954278 0.284791
vn -0.090822 0.954278 0.284791
vn -0.090821 0.954279 0.284788
usemtl Material
s off
f 12//7 10//7 74//7
f 10//8 12//8 14//8
f 10//9 14//9 16//9
f 10//10 16//10 18//10
f 10//11 18//11 20//11
f 10//12 20//12 22//12
f 10//13 22//13 24//13
f 10//14 24//14 26//14
f 10//15 26//15 28//15
f 10//16 28//16 30//16
f 10//17 30//17 32//17
f 10//18 32//18 34//18
f 10//19 34//19 36//19
f 10//20 36//20 38//20
f 10//21 38//21 40//21
f 10//22 40//22 42//22
f 10//23 42//23 44//23
f 10//24 44//24 46//24
f 10//25 46//25 48//25
f 10//26 48//26 50//26
f 10//27 50//27 52//27
f 10//28 52//28 54//28
f 10//29 54//29 56//29
f 10//30 56//30 58//30
f 10//31 58//31 60//31
f 10//32 60//32 62//32
f 10//33 62//33 64//33
f 10//34 64//34 66//34
f 10//35 66//35 68//35
f 10//36 68//36 70//36
f 10//37 70//37 72//37
f 10//38 72//38 74//38
f 11//39 12//39 74//39
f 11//39 74//39 73//39
f 12//40 11//40 13//40
f 12//40 13//40 14//40
f 14//41 13//41 15//41
f 14//41 15//41 16//41
f 16//42 15//42 17//42
f 16//42 17//42 18//42
f 18//43 17//43 19//43
f 18//43 19//43 20//43
f 20//44 19//44 21//44
f 20//44 21//44 22//44
f 22//45 21//45 23//45
f 22//45 23//45 24//45
f 24//46 23//46 25//46
f 24//46 25//46 26//46
f 26//47 25//47 27//47
f 26//47 27//47 28//47
f 28//48 27//48 29//48
f 28//48 29//48 30//48
f 30//49 29//49 31//49
f 30//49 31//49 32//49
f 32//50 31//50 33//50
f 32//50 33//50 34//50
f 34//51 33//51 35//51
f 34//51 35//51 36//51
f 36//52 35//52 37//52
f 36//52 37//52 38//52
f 38//53 37//53 39//53
f 38//53 39//53 40//53
f 40//54 39//54 41//54
f 40//54 41//54 42//54
f 42//55 41//55 43//55
f 42//55 43//55 44//55
f 44//56 43//56 45//56
f 44//56 45//56 46//56
f 46//57 45//57 47//57
f 46//57 47//57 48//57
f 48//58 47//58 49//58
f 48//58 49//58 50//58
f 50//59 49//59 51//59
f 50//59 51//59 52//59
f 52//60 51//60 53//60
f 52//60 53//60 54//60
f 54//61 53//61 55//61
f 54//61 55//61 56//61
f 56//62 55//62 57//62
f 56//62 57//62 58//62
f 58//63 57//63 59//63
f 58//63 59//63 60//63
f 60//64 59//64 61//64
f 60//64 61//64 62//64
f 62//65 61//65 63//65
f 62//65 63//65 64//65
f 64//66 63//66 65//66
f 64//66 65//66 66//66
f 66//67 65//67 67//67
f 66//67 67//67 68//67
f 68//68 67//68 69//68
f 68//68 69//68 70//68
f 70//69 69//69 71//69
f 70//69 71//69 72//69
f 72//70 71//70 73//70
f 72//70 73//70 74//70
f 9//71 11//71 73//71
f 11//72 9//72 13//72
f 13//73 9//73 15//73
f 15//74 9//74 17//74
f 17//75 9//75 19//75
f 19//75 9//75 21//75
f 21//75 9//75 23//75
f 23//75 9//75 25//75
f 25//76 9//76 27//76
f 27//76 9//76 29//76
f 29//77 9//77 31//77
f 31//77 9//77 33//77
f 33//77 9//77 35//77
f 35//77 9//77 37//77
f 37//75 9//75 39//75
f 39//77 9//77 41//77
f 41//75 9//75 43//75
f 43//78 9//78 45//78
f 45//78 9//78 47//78
f 47//75 9//75 49//75
f 49//71 9//71 51//71
f 51//77 9//77 53//77
f 53//77 9//77 55//77
f 55//77 9//77 57//77
f 57//79 9//79 59//79
f 59//80 9//80 61//80
f 61//76 9//76 63//76
f 63//78 9//78 65//78
f 65//76 9//76 67//76
f 67//81 9//81 69//81
f 69//75 9//75 71//75
f 71//82 9//82 73//82
