# Blender v2.64 (sub 0) OBJ File: ''
# www.blender.org
mtllib untitled_000100.mtl
o Cube
v -8.729040 -2.858973 10.487860
v -8.729040 -2.858973 -7.293924
v 9.052744 -2.858973 -7.293924
v 9.052744 -2.858973 10.487860
v -8.729040 14.922812 10.487860
v -8.729040 14.922812 -7.293924
v 9.052744 14.922812 -7.293924
v 9.052744 14.922812 10.487860
vn -1.000000 -0.000000 0.000000
vn 0.000000 0.000000 -1.000000
vn 1.000000 -0.000000 0.000000
vn 0.000000 0.000000 1.000000
vn -0.000000 -1.000000 0.000000
vn -0.000000 1.000000 0.000000
usemtl Material.003
s off
f 2//1 1//1 5//1
f 2//1 5//1 6//1
usemtl Material.005
f 6//2 7//2 3//2
f 6//2 3//2 2//2
usemtl Material.004
f 7//3 8//3 4//3
f 7//3 4//3 3//3
usemtl Material.002
f 1//4 4//4 8//4
f 1//4 8//4 5//4
usemtl Material.001
f 1//5 2//5 3//5
f 1//5 3//5 4//5
f 8//6 7//6 6//6
f 8//6 6//6 5//6
o Diamond
v 0.419004 7.925322 6.396704
v 0.438444 6.293338 5.910702
v -0.253392 8.083706 5.837958
v -0.695740 7.692605 5.317547
v -0.127189 8.119344 5.723333
v -0.485401 7.752002 5.126506
v 0.020004 8.147526 5.634586
v -0.240079 7.798972 4.978594
v 0.182531 8.167170 5.575126
v 0.030799 7.831710 4.879495
v 0.354145 8.177518 5.547239
v 0.316822 7.848958 4.833016
v 0.528252 8.178175 5.551997
v 0.607000 7.850053 4.840946
v 0.698160 8.169115 5.589216
v 0.890180 7.834954 4.902977
v 0.857340 8.150686 5.657466
v 1.155481 7.804239 5.016728
v 0.999676 8.123597 5.754126
v 1.392707 7.759090 5.177826
v 1.119697 8.088888 5.875478
v 1.592741 7.701242 5.380081
v 1.212790 8.047894 6.016862
v 1.747897 7.632917 5.615720
v 1.275378 8.002189 6.172842
v 1.852211 7.556743 5.875687
v 1.305057 7.953529 6.337426
v 1.901676 7.475644 6.149993
v 1.300685 7.903787 6.504286
v 1.894389 7.392739 6.428095
v 1.262431 7.854871 6.667014
v 1.830632 7.311213 6.699306
v 1.191764 7.808663 6.819353
v 1.712854 7.234200 6.953205
v 1.091401 7.766938 6.955450
v 1.545582 7.164659 7.180033
v 0.965198 7.731300 7.070074
v 1.335243 7.105261 7.371074
v 0.818005 7.703118 7.158822
v 1.089921 7.058291 7.518987
v 0.655478 7.683475 7.218281
v 0.819043 7.025553 7.618086
v 0.483864 7.673126 7.246168
v 0.533020 7.008305 7.664564
v 0.309758 7.672469 7.241411
v 0.242843 7.007209 7.656635
v 0.139849 7.681529 7.204191
v -0.040338 7.022309 7.594603
v -0.019331 7.699957 7.135941
v -0.305639 7.053023 7.480852
v -0.161667 7.727046 7.039282
v -0.542865 7.098172 7.319754
v -0.281688 7.761755 6.917929
v -0.742899 7.156021 7.117499
v -0.374781 7.802750 6.776546
v -0.898055 7.224345 6.881860
v -0.437370 7.848455 6.620565
v -1.002369 7.300520 6.621893
v -0.467048 7.897114 6.455983
v -1.051834 7.381618 6.347589
v -0.462677 7.946857 6.289121
v -1.044547 7.464524 6.069486
v -0.424422 7.995773 6.126394
v -0.980790 7.546049 5.798275
v -0.353755 8.041981 5.974055
v -0.863012 7.623063 5.544375
vn -0.503110 -0.649482 -0.570134
vn -0.422840 -0.622073 -0.658963
vn -0.325978 -0.599462 -0.731016
vn -0.216246 -0.582517 -0.783525
vn -0.097863 -0.571892 -0.814471
vn 0.024624 -0.567992 -0.822665
vn 0.146506 -0.570969 -0.807793
vn 0.263099 -0.580708 -0.770426
vn 0.369924 -0.596835 -0.712000
vn 0.462874 -0.618730 -0.634761
vn 0.538380 -0.645551 -0.541675
vn 0.593537 -0.676268 -0.436320
vn 0.626226 -0.709700 -0.322749
vn 0.635192 -0.744564 -0.205319
vn 0.620090 -0.779518 -0.088549
vn 0.581500 -0.813219 0.023077
vn 0.520905 -0.844373 0.125267
vn 0.440634 -0.871782 0.214096
vn 0.343773 -0.894393 0.286149
vn 0.234040 -0.911338 0.338658
vn 0.115658 -0.921963 0.369604
vn -0.006829 -0.925863 0.377799
vn -0.128709 -0.922886 0.362927
vn -0.245305 -0.913147 0.325559
vn -0.352129 -0.897020 0.267134
vn -0.445081 -0.875125 0.189893
vn -0.520585 -0.848304 0.096808
vn -0.575742 -0.817587 -0.008546
vn -0.608431 -0.784155 -0.122119
vn -0.617397 -0.749291 -0.239547
vn -0.602295 -0.714338 -0.356317
vn -0.563705 -0.680636 -0.467944
vn -0.548179 0.822412 -0.152112
vn -0.463580 0.851299 -0.245730
vn -0.361497 0.875129 -0.321666
vn -0.245853 0.892986 -0.377005
vn -0.121086 0.904185 -0.409620
vn 0.008001 0.908294 -0.418255
vn 0.136452 0.905157 -0.402581
vn 0.259330 0.894893 -0.363200
vn 0.371912 0.877897 -0.301625
vn 0.469874 0.854822 -0.220222
vn 0.549448 0.826555 -0.122119
vn 0.607578 0.794183 -0.011087
vn 0.642030 0.758948 0.108609
vn 0.651479 0.722206 0.232366
vn 0.635563 0.685367 0.355430
vn 0.594893 0.649849 0.473073
vn 0.531033 0.617017 0.580771
vn 0.446434 0.588130 0.674388
vn 0.344352 0.564300 0.750324
vn 0.228704 0.546442 0.805664
vn 0.103942 0.535244 0.838278
vn -0.025147 0.531134 0.846914
vn -0.153599 0.534272 0.831241
vn -0.276477 0.544536 0.791860
vn -0.389060 0.561532 0.730284
vn -0.487020 0.584606 0.648881
vn -0.566595 0.612874 0.550777
vn -0.624724 0.645246 0.439747
vn -0.659176 0.680481 0.320051
vn -0.668626 0.717223 0.196293
vn -0.652710 0.754061 0.073229
vn -0.612039 0.789579 -0.044414
vn -0.011417 0.958342 0.285393
vn -0.011414 0.958343 0.285391
vn -0.011415 0.958343 0.285392
vn -0.011420 0.958342 0.285394
vn -0.011413 0.958343 0.285392
vn -0.011416 0.958343 0.285392
vn -0.011417 0.958343 0.285391
vn -0.011415 0.958343 0.285393
vn -0.011416 0.958343 0.285391
vn -0.011415 0.958342 0.285393
vn -0.011416 0.958342 0.285394
vn -0.011416 0.958343 0.285393
vn -0.011417 0.958343 0.285393
vn -0.011417 0.958343 0.285392
vn -0.011415 0.958342 0.285394
vn -0.011415 0.958343 0.285391
usemtl Material
s off
f 12//7 10//7 74//7
f 10//8 12//8 14//8
f 10//9 14//9 16//9
f 10//10 16//10 18//10
f 10//11 18//11 20//11
f 10//12 20//12 22//12
f 10//13 22//13 24//13
f 10//14 24//14 26//14
f 10//15 26//15 28//15
f 10//16 28//16 30//16
f 10//17 30//17 32//17
f 10//18 32//18 34//18
f 10//19 34//19 36//19
f 10//20 36//20 38//20
f 10//21 38//21 40//21
f 10//22 40//22 42//22
f 10//23 42//23 44//23
f 10//24 44//24 46//24
f 10//25 46//25 48//25
f 10//26 48//26 50//26
f 10//27 50//27 52//27
f 10//28 52//28 54//28
f 10//29 54//29 56//29
f 10//30 56//30 58//30
f 10//31 58//31 60//31
f 10//32 60//32 62//32
f 10//33 62//33 64//33
f 10//34 64//34 66//34
f 10//35 66//35 68//35
f 10//36 68//36 70//36
f 10//37 70//37 72//37
f 10//38 72//38 74//38
f 11//39 12//39 74//39
f 11//39 74//39 73//39
f 12//40 11//40 13//40
f 12//40 13//40 14//40
f 14//41 13//41 15//41
f 14//41 15//41 16//41
f 16//42 15//42 17//42
f 16//42 17//42 18//42
f 18//43 17//43 19//43
f 18//43 19//43 20//43
f 20//44 19//44 21//44
f 20//44 21//44 22//44
f 22//45 21//45 23//45
f 22//45 23//45 24//45
f 24//46 23//46 25//46
f 24//46 25//46 26//46
f 26//47 25//47 27//47
f 26//47 27//47 28//47
f 28//48 27//48 29//48
f 28//48 29//48 30//48
f 30//49 29//49 31//49
f 30//49 31//49 32//49
f 32//50 31//50 33//50
f 32//50 33//50 34//50
f 34//51 33//51 35//51
f 34//51 35//51 36//51
f 36//52 35//52 37//52
f 36//52 37//52 38//52
f 38//53 37//53 39//53
f 38//53 39//53 40//53
f 40//54 39//54 41//54
f 40//54 41//54 42//54
f 42//55 41//55 43//55
f 42//55 43//55 44//55
f 44//56 43//56 45//56
f 44//56 45//56 46//56
f 46//57 45//57 47//57
f 46//57 47//57 48//57
f 48//58 47//58 49//58
f 48//58 49//58 50//58
f 50//59 49//59 51//59
f 50//59 51//59 52//59
f 52//60 51//60 53//60
f 52//60 53//60 54//60
f 54//61 53//61 55//61
f 54//61 55//61 56//61
f 56//62 55//62 57//62
f 56//62 57//62 58//62
f 58//63 57//63 59//63
f 58//63 59//63 60//63
f 60//64 59//64 61//64
f 60//64 61//64 62//64
f 62//65 61//65 63//65
f 62//65 63//65 64//65
f 64//66 63//66 65//66
f 64//66 65//66 66//66
f 66//67 65//67 67//67
f 66//67 67//67 68//67
f 68//68 67//68 69//68
f 68//68 69//68 70//68
f 70//69 69//69 71//69
f 70//69 71//69 72//69
f 72//70 71//70 73//70
f 72//70 73//70 74//70
f 9//71 11//71 73//71
f 11//72 9//72 13//72
f 13//73 9//73 15//73
f 15//74 9//74 17//74
f 17//75 9//75 19//75
f 19//76 9//76 21//76
f 21//73 9//73 23//73
f 23//73 9//73 25//73
f 25//77 9//77 27//77
f 27//78 9//78 29//78
f 29//79 9//79 31//79
f 31//76 9//76 33//76
f 33//80 9//80 35//80
f 35//76 9//76 37//76
f 37//76 9//76 39//76
f 39//81 9//81 41//81
f 41//73 9//73 43//73
f 43//82 9//82 45//82
f 45//73 9//73 47//73
f 47//83 9//83 49//83
f 49//78 9//78 51//78
f 51//78 9//78 53//78
f 53//82 9//82 55//82
f 55//78 9//78 57//78
f 57//84 9//84 59//84
f 59//82 9//82 61//82
f 61//76 9//76 63//76
f 63//85 9//85 65//85
f 65//76 9//76 67//76
f 67//76 9//76 69//76
f 69//82 9//82 71//82
f 71//86 9//86 73//86
