# Blender v2.64 (sub 0) OBJ File: ''
# www.blender.org
mtllib untitled_000020.mtl
o Cube
v -8.729040 -2.858973 10.487860
v -8.729040 -2.858973 -7.293924
v 9.052744 -2.858973 -7.293924
v 9.052744 -2.858973 10.487860
v -8.729040 14.922812 10.487860
v -8.729040 14.922812 -7.293924
v 9.052744 14.922812 -7.293924
v 9.052744 14.922812 10.487860
vn -1.000000 -0.000000 0.000000
vn 0.000000 0.000000 -1.000000
vn 1.000000 -0.000000 0.000000
vn 0.000000 0.000000 1.000000
vn -0.000000 -1.000000 0.000000
vn -0.000000 1.000000 0.000000
usemtl Material.003
s off
f 2//1 1//1 5//1
f 2//1 5//1 6//1
usemtl Material.005
f 6//2 7//2 3//2
f 6//2 3//2 2//2
usemtl Material.004
f 7//3 8//3 4//3
f 7//3 4//3 3//3
usemtl Material.002
f 1//4 4//4 8//4
f 1//4 8//4 5//4
usemtl Material.001
f 1//5 2//5 3//5
f 1//5 3//5 4//5
f 8//6 7//6 6//6
f 8//6 6//6 5//6
o Diamond
v -2.529270 2.237096 2.143159
v -1.537680 0.911552 1.743623
v -2.114539 2.731431 1.532397
v -1.536264 2.657562 1.003624
v -2.007133 2.772332 1.663268
v -1.357254 2.725729 1.221743
v -1.919792 2.792663 1.812581
v -1.211686 2.759615 1.470598
v -1.855873 2.791645 1.974598
v -1.105155 2.757917 1.740627
v -1.817833 2.769315 2.143093
v -1.041754 2.720701 2.021451
v -1.807132 2.726532 2.311590
v -1.023919 2.649397 2.302280
v -1.824183 2.664941 2.473614
v -1.052338 2.546745 2.572320
v -1.868330 2.586908 2.622940
v -1.125916 2.416689 2.821196
v -1.937877 2.495432 2.753828
v -1.241827 2.264229 3.039342
v -2.030150 2.394028 2.861247
v -1.395616 2.095222 3.218375
v -2.141604 2.286593 2.941072
v -1.581373 1.916164 3.351416
v -2.267956 2.177256 2.990232
v -1.791959 1.733937 3.433350
v -2.404351 2.070219 3.006841
v -2.019283 1.555541 3.461031
v -2.545545 1.969594 2.990258
v -2.254607 1.387834 3.433393
v -2.686114 1.879250 2.941122
v -2.488889 1.237260 3.351500
v -2.820656 1.802657 2.861320
v -2.713125 1.109605 3.218497
v -2.944000 1.742760 2.753921
v -2.918699 1.009777 3.039498
v -3.051406 1.701860 2.623049
v -3.097709 0.941609 2.821379
v -3.138747 1.681528 2.473737
v -3.243277 0.907724 2.572524
v -3.202666 1.682547 2.311719
v -3.349808 0.909422 2.302495
v -3.240706 1.704877 2.143225
v -3.413209 0.946638 2.021671
v -3.251407 1.747659 1.974728
v -3.431043 1.017942 1.740843
v -3.234356 1.809251 1.812703
v -3.402625 1.120594 1.470801
v -3.190209 1.887284 1.663378
v -3.329047 1.250649 1.221926
v -3.120663 1.978760 1.532490
v -3.213136 1.403110 1.003780
v -3.028389 2.080164 1.425070
v -3.059348 1.572116 0.824747
v -2.916935 2.187599 1.345246
v -2.873590 1.751175 0.691706
v -2.790583 2.296936 1.296085
v -2.663004 1.933403 0.609771
v -2.654189 2.403973 1.279477
v -2.435681 2.111798 0.582091
v -2.512994 2.504597 1.296059
v -2.200356 2.279505 0.609729
v -2.372425 2.594942 1.345195
v -1.966074 2.430079 0.691622
v -2.237883 2.671534 1.424997
v -1.741837 2.557734 0.824625
vn 0.704004 -0.277618 -0.653687
vn 0.785757 -0.241907 -0.569270
vn 0.854754 -0.220213 -0.470003
vn 0.908344 -0.213370 -0.359700
vn 0.944467 -0.221642 -0.242603
vn 0.961736 -0.244711 -0.123209
vn 0.959486 -0.281690 -0.006107
vn 0.937804 -0.331158 0.104201
vn 0.897523 -0.391214 0.203479
vn 0.840192 -0.459550 0.287909
vn 0.768013 -0.533539 0.354248
vn 0.683760 -0.610340 0.399947
vn 0.590671 -0.687000 0.423248
vn 0.492323 -0.760573 0.423257
vn 0.392496 -0.828232 0.399973
vn 0.295027 -0.887376 0.354292
vn 0.203660 -0.935734 0.287968
vn 0.121907 -0.971445 0.203550
vn 0.052909 -0.993139 0.104283
vn -0.000681 -0.999982 -0.006019
vn -0.036804 -0.991710 -0.123117
vn -0.054073 -0.968641 -0.242510
vn -0.051823 -0.931662 -0.359612
vn -0.030141 -0.882194 -0.469921
vn 0.010140 -0.822138 -0.569198
vn 0.067471 -0.753802 -0.653628
vn 0.139651 -0.679812 -0.719968
vn 0.223903 -0.603012 -0.765666
vn 0.316992 -0.526352 -0.788967
vn 0.415340 -0.452779 -0.788976
vn 0.515167 -0.385120 -0.765693
vn 0.612637 -0.325976 -0.720011
vn -0.173640 0.931367 -0.320008
vn -0.087481 0.969003 -0.231040
vn -0.014765 0.991867 -0.126423
vn 0.041714 0.999078 -0.010175
vn 0.079784 0.990360 0.113234
vn 0.097984 0.966048 0.239063
vn 0.095613 0.927075 0.362477
vn 0.072762 0.874941 0.478731
vn 0.030311 0.811648 0.583359
vn -0.030111 0.739629 0.672341
vn -0.106181 0.661651 0.742256
vn -0.194975 0.580711 0.790417
vn -0.293082 0.499919 0.814975
vn -0.396730 0.422380 0.814985
vn -0.501938 0.351074 0.790446
vn -0.604662 0.288742 0.742302
vn -0.700953 0.237779 0.672404
vn -0.787113 0.200142 0.583435
vn -0.859829 0.177279 0.478818
vn -0.916308 0.170067 0.362570
vn -0.954378 0.178785 0.239160
vn -0.972578 0.203097 0.113332
vn -0.970207 0.242069 -0.010081
vn -0.947356 0.294204 -0.126336
vn -0.904904 0.357496 -0.230964
vn -0.844482 0.429516 -0.319946
vn -0.768412 0.507495 -0.389861
vn -0.679619 0.588434 -0.438022
vn -0.581512 0.669226 -0.462580
vn -0.477864 0.746764 -0.462590
vn -0.372656 0.818070 -0.438051
vn -0.269932 0.880403 -0.389907
vn -0.582287 0.778394 0.234618
vn -0.582287 0.778393 0.234617
vn -0.582287 0.778394 0.234617
vn -0.582287 0.778393 0.234619
vn -0.582287 0.778393 0.234618
vn -0.582288 0.778393 0.234617
vn -0.582286 0.778394 0.234618
usemtl Material
s off
f 12//7 10//7 74//7
f 10//8 12//8 14//8
f 10//9 14//9 16//9
f 10//10 16//10 18//10
f 10//11 18//11 20//11
f 10//12 20//12 22//12
f 10//13 22//13 24//13
f 10//14 24//14 26//14
f 10//15 26//15 28//15
f 10//16 28//16 30//16
f 10//17 30//17 32//17
f 10//18 32//18 34//18
f 10//19 34//19 36//19
f 10//20 36//20 38//20
f 10//21 38//21 40//21
f 10//22 40//22 42//22
f 10//23 42//23 44//23
f 10//24 44//24 46//24
f 10//25 46//25 48//25
f 10//26 48//26 50//26
f 10//27 50//27 52//27
f 10//28 52//28 54//28
f 10//29 54//29 56//29
f 10//30 56//30 58//30
f 10//31 58//31 60//31
f 10//32 60//32 62//32
f 10//33 62//33 64//33
f 10//34 64//34 66//34
f 10//35 66//35 68//35
f 10//36 68//36 70//36
f 10//37 70//37 72//37
f 10//38 72//38 74//38
f 11//39 12//39 74//39
f 11//39 74//39 73//39
f 12//40 11//40 13//40
f 12//40 13//40 14//40
f 14//41 13//41 15//41
f 14//41 15//41 16//41
f 16//42 15//42 17//42
f 16//42 17//42 18//42
f 18//43 17//43 19//43
f 18//43 19//43 20//43
f 20//44 19//44 21//44
f 20//44 21//44 22//44
f 22//45 21//45 23//45
f 22//45 23//45 24//45
f 24//46 23//46 25//46
f 24//46 25//46 26//46
f 26//47 25//47 27//47
f 26//47 27//47 28//47
f 28//48 27//48 29//48
f 28//48 29//48 30//48
f 30//49 29//49 31//49
f 30//49 31//49 32//49
f 32//50 31//50 33//50
f 32//50 33//50 34//50
f 34//51 33//51 35//51
f 34//51 35//51 36//51
f 36//52 35//52 37//52
f 36//52 37//52 38//52
f 38//53 37//53 39//53
f 38//53 39//53 40//53
f 40//54 39//54 41//54
f 40//54 41//54 42//54
f 42//55 41//55 43//55
f 42//55 43//55 44//55
f 44//56 43//56 45//56
f 44//56 45//56 46//56
f 46//57 45//57 47//57
f 46//57 47//57 48//57
f 48//58 47//58 49//58
f 48//58 49//58 50//58
f 50//59 49//59 51//59
f 50//59 51//59 52//59
f 52//60 51//60 53//60
f 52//60 53//60 54//60
f 54//61 53//61 55//61
f 54//61 55//61 56//61
f 56//62 55//62 57//62
f 56//62 57//62 58//62
f 58//63 57//63 59//63
f 58//63 59//63 60//63
f 60//64 59//64 61//64
f 60//64 61//64 62//64
f 62//65 61//65 63//65
f 62//65 63//65 64//65
f 64//66 63//66 65//66
f 64//66 65//66 66//66
f 66//67 65//67 67//67
f 66//67 67//67 68//67
f 68//68 67//68 69//68
f 68//68 69//68 70//68
f 70//69 69//69 71//69
f 70//69 71//69 72//69
f 72//70 71//70 73//70
f 72//70 73//70 74//70
f 9//71 11//71 73//71
f 11//71 9//71 13//71
f 13//72 9//72 15//72
f 15//71 9//71 17//71
f 17//73 9//73 19//73
f 19//73 9//73 21//73
f 21//74 9//74 23//74
f 23//73 9//73 25//73
f 25//73 9//73 27//73
f 27//75 9//75 29//75
f 29//75 9//75 31//75
f 31//71 9//71 33//71
f 33//75 9//75 35//75
f 35//71 9//71 37//71
f 37//76 9//76 39//76
f 39//72 9//72 41//72
f 41//77 9//77 43//77
f 43//72 9//72 45//72
f 45//75 9//75 47//75
f 47//75 9//75 49//75
f 49//73 9//73 51//73
f 51//72 9//72 53//72
f 53//75 9//75 55//75
f 55//73 9//73 57//73
f 57//75 9//75 59//75
f 59//75 9//75 61//75
f 61//73 9//73 63//73
f 63//75 9//75 65//75
f 65//73 9//73 67//73
f 67//76 9//76 69//76
f 69//71 9//71 71//71
f 71//72 9//72 73//72
